<svg width="21" height="21" viewBox="0 0 21 21" fill="none" xmlns="http://www.w3.org/2000/svg">
<path d="M11.0086 2.15246L8.90625 2.36329L10.4846 5.51492C10.7999 4.48267 11.2088 3.14889 11.3758 2.60355C11.3927 2.54858 11.3959 2.49026 11.3849 2.43377C11.374 2.37728 11.3492 2.32438 11.3129 2.27975C11.2766 2.23513 11.2298 2.20016 11.1767 2.17795C11.1236 2.15575 11.0659 2.14699 11.0086 2.15246Z" fill="#CD9FED"/>
<path d="M7.35378 0.921581L4.75214 2.65601C4.69024 2.69796 4.64331 2.75854 4.61816 2.82896C4.59301 2.89938 4.59094 2.97598 4.61227 3.04765L5.38506 5.62481C5.45112 5.60648 5.51933 5.59707 5.58788 5.59684H10.1338L8.53221 2.40074L7.86082 1.05796C7.83865 1.01357 7.80732 0.97439 7.76891 0.942994C7.73049 0.911599 7.68586 0.888703 7.63795 0.875817C7.59004 0.862931 7.53994 0.860347 7.49096 0.868235C7.44197 0.876123 7.39522 0.894305 7.35378 0.921581Z" fill="#CD9FED"/>
<path d="M5.23633 6.29699V6.99636C5.23633 7.0891 5.27318 7.17804 5.33875 7.24361C5.40433 7.30919 5.49327 7.34603 5.58601 7.34604H10.4816C10.5743 7.34604 10.6633 7.3092 10.7288 7.24362C10.7944 7.17804 10.8313 7.0891 10.8313 6.99636V6.29699C10.8281 6.03018 10.5878 5.91743 10.3488 5.94731L10.3491 5.94645H10.3066L10.307 5.94731H5.58601C5.49327 5.94731 5.40433 5.98415 5.33875 6.04973C5.27317 6.11531 5.23633 6.20425 5.23633 6.29699Z" fill="#CD9FED"/>
<path d="M19.9926 14.2422C16.6121 13.4134 13.57 11.5608 11.2823 8.9375C11.228 8.87258 11.1519 8.82958 11.0683 8.81647C10.9846 8.80337 10.899 8.82105 10.8274 8.86623L6.00777 11.9102C5.96512 11.9372 5.92875 11.9729 5.90114 12.0152C5.87353 12.0574 5.85532 12.1051 5.84774 12.1549C5.84017 12.2048 5.8434 12.2557 5.85723 12.3043C5.87106 12.3528 5.89515 12.3978 5.92789 12.4361C9.62697 16.5759 14.7249 17.8616 15.7734 17.76L20.1069 14.871C20.1634 14.8333 20.2076 14.7799 20.2341 14.7174C20.2607 14.6549 20.2683 14.5859 20.2562 14.5191C20.2441 14.4523 20.2126 14.3904 20.1658 14.3413C20.119 14.2921 20.0588 14.2576 19.9926 14.2422ZM16.0071 16.203C15.7707 16.1257 15.5195 16.1055 15.2739 16.144C15.0282 16.1825 14.7952 16.2786 14.5939 16.4246C12.1407 15.756 9.87105 14.5396 7.95591 12.8671C8.07299 12.7329 8.1566 12.5728 8.19988 12.4001C8.24316 12.2273 8.24487 12.0468 8.20488 11.8733L10.06 10.7015C10.2469 10.8639 10.4816 10.9611 10.7286 10.9783C10.9756 10.9955 11.2215 10.9318 11.4291 10.797C12.7482 12.2891 15.6629 13.8603 17.3771 14.18C17.3886 14.4804 17.4957 14.7693 17.6827 15.0047C17.1241 15.4041 16.5656 15.8036 16.0071 16.203Z" fill="#5C2682"/>
<path d="M11.9186 12.6218C9.57968 13.3684 10.2704 15.7224 12.6421 15.0863C14.981 14.3396 14.2902 11.9857 11.9186 12.6218Z" fill="#5C2682"/>
<path d="M5.23714 19.5852H0.691278C0.50755 19.5879 0.332246 19.6627 0.203258 19.7936C0.0742702 19.9244 0.00195864 20.1008 0.00195313 20.2845C0.00194761 20.4683 0.0742486 20.6447 0.203229 20.7755C0.332209 20.9064 0.507508 20.9813 0.691236 20.9839H5.23714C5.42086 20.9813 5.59616 20.9064 5.72515 20.7756C5.85413 20.6447 5.92644 20.4683 5.92644 20.2846C5.92644 20.1008 5.85413 19.9245 5.72515 19.7936C5.59616 19.6627 5.42086 19.5879 5.23714 19.5852Z" fill="#5C2682"/>
<path d="M0.691139 19.2352H5.23704C5.42104 19.2329 5.59673 19.1582 5.72605 19.0273C5.85536 18.8964 5.92787 18.7198 5.92787 18.5358C5.92786 18.3518 5.85534 18.1752 5.72602 18.0442C5.59669 17.9133 5.42099 17.8387 5.23699 17.8364H0.691139C0.507089 17.8386 0.331316 17.9132 0.201937 18.0442C0.0725568 18.1751 0 18.3517 0 18.5358C0 18.7199 0.0725568 18.8965 0.201937 19.0274C0.331316 19.1583 0.507089 19.233 0.691139 19.2352Z" fill="#5C2682"/>
<path d="M5.6686 12.6674C5.60235 12.5911 5.55334 12.5015 5.52493 12.4046C5.49652 12.3077 5.48938 12.2057 5.50399 12.1058C5.5186 12.0059 5.55461 11.9103 5.60958 11.8255C5.66455 11.7408 5.73716 11.6689 5.82246 11.6148L10.6411 8.56911C10.7535 8.49968 10.8832 8.46333 11.0153 8.4642C11.1172 8.4634 11.2181 8.48526 11.3107 8.52819C11.4032 8.57113 11.485 8.63407 11.5503 8.71248C12.1496 9.40959 12.8109 10.051 13.526 10.6287C12.8959 9.41606 11.9861 8.37083 10.8719 7.5795C10.7566 7.65518 10.6216 7.69531 10.4837 7.6949H5.58818C5.4471 7.6951 5.30929 7.65242 5.19303 7.57251C2.4888 9.53889 1.11095 12.8818 1.43803 15.7382H5.23713C5.46156 15.7406 5.67938 15.8145 5.85886 15.9493C6.03835 16.084 6.17013 16.2726 6.23503 16.4874C6.29992 16.7023 6.29454 16.9323 6.21967 17.1438C6.1448 17.3554 6.00434 17.5376 5.81875 17.6638C5.96064 17.7608 6.07672 17.891 6.15692 18.043C6.23711 18.1951 6.27901 18.3644 6.27897 18.5362C6.27893 18.7081 6.23696 18.8774 6.1567 19.0294C6.07643 19.1814 5.9603 19.3115 5.81836 19.4085C6.03541 19.5597 6.18881 19.7859 6.249 20.0435C6.30919 20.3011 6.27192 20.5719 6.14436 20.8037C9.1332 21.465 12.8003 20.4503 14.047 17.8392C10.8246 16.9347 7.92141 15.1426 5.6686 12.6674Z" fill="#CD9FED"/>
<path d="M0.691236 17.4866H5.23714C5.42086 17.484 5.59616 17.4091 5.72515 17.2782C5.85413 17.1474 5.92644 16.971 5.92644 16.7873C5.92644 16.6035 5.85413 16.4271 5.72515 16.2963C5.59616 16.1654 5.42086 16.0906 5.23714 16.0879H0.691278C0.50755 16.0905 0.332246 16.1654 0.203258 16.2963C0.0742702 16.4271 0.00195864 16.6035 0.00195313 16.7872C0.00194761 16.971 0.0742486 17.1474 0.203229 17.2782C0.332209 17.4091 0.507508 17.484 0.691236 17.4866Z" fill="#5C2682"/>
</svg>
