<svg width="19" height="19" viewBox="0 0 19 19" fill="none" xmlns="http://www.w3.org/2000/svg">
<path d="M19 17.8125H0V19H19V17.8125Z" fill="#5C2682"/>
<path d="M18.4062 16.0312H0.59375V17.2188H18.4062V16.0312Z" fill="#5C2682"/>
<path d="M18.4062 7.71875H0.59375V8.90625H18.4062V7.71875Z" fill="#CD9FED"/>
<path d="M0 7.125H18.9703V5.58125L9.5 0L0 5.58125V7.125ZM9.5 2.40469C10.4797 2.40469 11.2516 3.17656 11.2516 4.15625C11.2516 5.13594 10.45 5.90781 9.5 5.90781C8.55 5.90781 7.74844 5.10625 7.74844 4.15625C7.74844 3.20625 8.52031 2.40469 9.5 2.40469Z" fill="#5C2682"/>
<path d="M3.5625 10.6875V9.5H1.1875V10.6875H1.78125V14.25H1.1875V15.4375H3.5625V14.25H2.96875V10.6875H3.5625Z" fill="#CD9FED"/>
<path d="M7.125 10.6875V9.5H4.75V10.6875H5.34375V14.25H4.75V15.4375H7.125V14.25H6.53125V10.6875H7.125Z" fill="#CD9FED"/>
<path d="M10.6875 10.6875V9.5H8.3125V10.6875H8.90625V14.25H8.3125V15.4375H10.6875V14.25H10.0938V10.6875H10.6875Z" fill="#CD9FED"/>
<path d="M14.25 10.6875V9.5H11.875V10.6875H12.4688V14.25H11.875V15.4375H14.25V14.25H13.6562V10.6875H14.25Z" fill="#CD9FED"/>
<path d="M17.8125 10.6875V9.5H15.4375V10.6875H16.0312V14.25H15.4375V15.4375H17.8125V14.25H17.2188V10.6875H17.8125Z" fill="#CD9FED"/>
</svg>
