<svg width="114" height="135" viewBox="0 0 114 135" fill="none" xmlns="http://www.w3.org/2000/svg">
<path opacity="0.15" d="M14.9622 25.2076L15.1168 25.0696C29.3526 12.25 48.259 11.673 62.0448 25.4699C69.222 32.6636 81.9726 31.2862 91.0932 33.8865C122.54 42.8553 117.102 85.5238 101.569 106.15C87.5515 124.761 57.1781 128.965 36.7727 119.809C18.8269 111.762 6.195 93.7749 1.71201 74.9871C1.26113 73.1026 0.893067 71.2007 0.607818 69.2812C-1.76618 53.2788 2.77202 36.2854 14.9622 25.2076Z" fill="#8046A9"/>
<path d="M54.7324 83.561C54.5999 88.8059 57.2002 88.3863 57.2002 88.3863C57.4724 87.7829 57.8005 87.2062 58.1802 86.6638C59.5383 84.5686 61.6225 81.6342 60.8413 79.8951C60.3297 78.8588 59.7486 77.8581 59.1022 76.9C57.7219 74.7634 56.1098 72.6047 56.1098 72.6047L63.0496 71.4536C63.0496 71.4536 67.9909 73.4991 71.8831 73.7338C71.9853 73.7338 72.0874 73.7338 72.1868 73.7338C75.7478 73.8028 75.1736 71.0092 75.1736 70.1093C75.1736 69.7256 74.2102 69.0217 73.0839 68.3288C71.4773 67.3433 69.5285 66.3716 69.5285 66.3716L70.583 64.1881C71.1896 64.31 71.8109 64.3425 72.427 64.2847C75.1267 63.9893 74.7568 61.331 74.3179 60.1716C74.1936 59.8403 73.5726 59.3435 72.6947 58.7582C69.9177 56.9281 64.601 54.3774 64.601 54.3774H56.811L49.1396 75.3238C49.1396 75.3238 54.8593 78.3162 54.7324 83.561Z" fill="white"/>
<path opacity="0.4" d="M54.7324 83.561C54.5999 88.8059 57.2002 88.3863 57.2002 88.3863C57.4724 87.7829 57.8005 87.2062 58.1802 86.6638C59.5383 84.5686 61.6225 81.6342 60.8413 79.8951C60.3297 78.8588 59.7486 77.8581 59.1022 76.9C57.7219 74.7634 56.1098 72.6047 56.1098 72.6047L63.0496 71.4536C63.0496 71.4536 67.9909 73.4991 71.8831 73.7338C71.9853 73.7338 72.0874 73.7338 72.1868 73.7338C75.7478 73.8028 75.1736 71.0092 75.1736 70.1093C75.1736 69.7256 74.2102 69.0217 73.0839 68.3288C71.4773 67.3433 69.5285 66.3716 69.5285 66.3716L70.583 64.1881C71.1896 64.31 71.8109 64.3425 72.427 64.2847C75.1267 63.9893 74.7568 61.331 74.3179 60.1716C74.1936 59.8403 73.5726 59.3435 72.6947 58.7582C69.9177 56.9281 64.601 54.3774 64.601 54.3774H56.811L49.1396 75.3238C49.1396 75.3238 54.8593 78.3162 54.7324 83.561Z" fill="#BD5FFF"/>
<path opacity="0.4" d="M54.7324 83.5611C54.5999 88.806 57.2002 88.3864 57.2002 88.3864C57.4724 87.7829 57.8005 87.2062 58.1802 86.6639C58.0805 86.1603 58.0324 85.6479 58.0366 85.1346C58.0698 83.3375 59.5466 79.8897 59.5466 79.8897L58.0256 77.5074C58.3362 77.2345 58.6986 77.0271 59.0911 76.8973C57.7109 74.7607 56.0988 72.602 56.0988 72.602L63.0386 71.4509C63.0386 71.4509 67.9798 73.4964 71.8721 73.7311C71.9742 73.7311 72.0764 73.7311 72.1758 73.7311C71.9494 71.7767 72.7278 69.3143 73.0729 68.3261C71.4663 67.3406 69.5174 66.3689 69.5174 66.3689L70.5719 64.1854C71.1786 64.3073 71.7998 64.3398 72.4159 64.282C72.0598 62.5788 72.3993 60.2131 72.692 58.7611C69.9149 56.9309 64.5983 54.3802 64.5983 54.3802H56.811L49.1396 75.3266C49.1396 75.3266 54.8593 78.3162 54.7324 83.5611Z" fill="#BD5FFF"/>
<path d="M56.8108 54.3856H64.6091C64.6091 54.3856 73.807 58.8024 74.326 60.1826C74.8449 61.5628 75.2701 65.041 70.5911 64.1991L69.5366 66.3826C69.5366 66.3826 75.1817 69.19 75.1817 70.1203C75.1817 71.0506 75.789 73.9684 71.8913 73.7337C67.9935 73.4991 63.0578 71.4536 63.0578 71.4536L56.1179 72.6019C56.1179 72.6019 59.8087 77.5708 60.8494 79.8951C61.8901 82.2194 57.8488 86.6362 57.1973 88.3863C57.1973 88.3863 54.5969 88.8086 54.7267 83.5582C54.8564 78.3078 49.1367 75.332 49.1367 75.332" stroke="#263238" stroke-linecap="round" stroke-linejoin="round"/>
<path d="M58.6603 78.9566C58.6603 78.9566 56.7032 77.8524 55.6404 79.8924" stroke="#263238" stroke-linecap="round" stroke-linejoin="round"/>
<path d="M83.7283 1.16937H42.7271C41.3153 1.16937 40.1709 2.31382 40.1709 3.72557V78.5342C40.1709 79.946 41.3153 81.0904 42.7271 81.0904H83.7283C85.1401 81.0904 86.2845 79.946 86.2845 78.5342V3.72557C86.2845 2.31382 85.1401 1.16937 83.7283 1.16937Z" fill="#BD5FFF" stroke="#263238" stroke-linecap="round" stroke-linejoin="round"/>
<path d="M84.8546 4.41015V78.0539C84.8546 78.4932 84.6801 78.9145 84.3695 79.2251C84.0589 79.5357 83.6376 79.7102 83.1983 79.7102H43.2654C42.8261 79.7102 42.4049 79.5357 42.0942 79.2251C41.7836 78.9145 41.6091 78.4932 41.6091 78.0539V4.41015C41.6091 3.97087 41.7836 3.54959 42.0942 3.23898C42.4049 2.92837 42.8261 2.75387 43.2654 2.75387H52.1376C52.4225 2.75409 52.7006 2.84149 52.9345 3.00432C53.1684 3.16715 53.3469 3.39763 53.446 3.66482L53.8242 4.67515C53.9233 4.94234 54.1018 5.17282 54.3357 5.33565C54.5696 5.49848 54.8477 5.58588 55.1327 5.58611H71.32C71.6055 5.58644 71.8842 5.49931 72.1186 5.33644C72.3531 5.17357 72.532 4.94278 72.6313 4.67515L73.0067 3.66482C73.106 3.39719 73.2849 3.1664 73.5193 3.00353C73.7537 2.84066 74.0325 2.75353 74.3179 2.75387H83.1901C83.4083 2.75277 83.6245 2.79481 83.8264 2.87756C84.0283 2.96031 84.2119 3.08213 84.3666 3.23604C84.5213 3.38995 84.644 3.57291 84.7278 3.7744C84.8115 3.97589 84.8546 4.19194 84.8546 4.41015Z" fill="#263238"/>
<path d="M69.0674 61.5325H57.3796C56.3282 61.5325 55.32 61.1149 54.5766 60.3715C53.8332 59.6281 53.4155 58.6198 53.4155 57.5685C53.4152 57.0477 53.5174 56.5319 53.7165 56.0507C53.9155 55.5694 54.2075 55.1321 54.5756 54.7637C54.9437 54.3953 55.3808 54.1031 55.862 53.9037C56.3431 53.7043 56.8588 53.6017 57.3796 53.6017H69.0674C69.5882 53.6017 70.1039 53.7043 70.585 53.9037C71.0661 54.1031 71.5032 54.3953 71.8713 54.7637C72.2395 55.1321 72.5314 55.5694 72.7305 56.0507C72.9295 56.5319 73.0318 57.0477 73.0314 57.5685C73.0314 58.6198 72.6138 59.6281 71.8704 60.3715C71.127 61.1149 70.1187 61.5325 69.0674 61.5325Z" fill="#BD5FFF" stroke="#263238" stroke-linecap="round" stroke-linejoin="round"/>
<path d="M59.4056 3.57647C59.4056 3.71296 59.3652 3.84639 59.2893 3.95988C59.2135 4.07337 59.1057 4.16182 58.9796 4.21405C58.8535 4.26629 58.7147 4.27995 58.5809 4.25333C58.447 4.2267 58.324 4.16097 58.2275 4.06446C58.131 3.96794 58.0653 3.84497 58.0387 3.7111C58.012 3.57724 58.0257 3.43848 58.0779 3.31237C58.1302 3.18627 58.2186 3.07849 58.3321 3.00266C58.4456 2.92683 58.579 2.88635 58.7155 2.88635C58.8985 2.88635 59.0741 2.95906 59.2035 3.08848C59.3329 3.21791 59.4056 3.39344 59.4056 3.57647Z" fill="white" stroke="#263238" stroke-linecap="round" stroke-linejoin="round"/>
<path d="M68.4242 3.57647C68.4242 3.66219 68.3987 3.74598 68.3511 3.81725C68.3035 3.88852 68.2358 3.94407 68.1566 3.97687C68.0774 4.00967 67.9903 4.01826 67.9062 4.00153C67.8221 3.98481 67.7449 3.94354 67.6843 3.88292C67.6237 3.82231 67.5824 3.74509 67.5657 3.66102C67.549 3.57695 67.5576 3.48981 67.5904 3.41062C67.6232 3.33142 67.6787 3.26374 67.75 3.21612C67.8213 3.16849 67.905 3.14308 67.9908 3.14308C68.0478 3.14271 68.1043 3.15367 68.1571 3.17532C68.2098 3.19697 68.2577 3.22888 68.298 3.2692C68.3384 3.30951 68.3703 3.35744 68.3919 3.41018C68.4136 3.46293 68.4245 3.51945 68.4242 3.57647Z" fill="white" stroke="#263238" stroke-linecap="round" stroke-linejoin="round"/>
<path d="M65.9701 3.81941H60.8025C60.7381 3.81941 60.6763 3.79382 60.6307 3.74826C60.5852 3.70271 60.5596 3.64092 60.5596 3.57649C60.5592 3.54436 60.5652 3.51247 60.5773 3.48268C60.5893 3.45289 60.6072 3.42578 60.6298 3.40293C60.6523 3.38008 60.6793 3.36194 60.7089 3.34956C60.7386 3.33718 60.7704 3.33081 60.8025 3.33081H65.9701C66.0022 3.33081 66.0341 3.33718 66.0637 3.34956C66.0934 3.36194 66.1203 3.38008 66.1429 3.40293C66.1655 3.42578 66.1833 3.45289 66.1953 3.48268C66.2074 3.51247 66.2134 3.54436 66.213 3.57649C66.213 3.64092 66.1874 3.70271 66.1419 3.74826C66.0963 3.79382 66.0345 3.81941 65.9701 3.81941Z" fill="white" stroke="#263238" stroke-linecap="round" stroke-linejoin="round"/>
<path d="M81.7518 9.75989H44.7035C44.1684 9.75989 43.7346 10.1937 43.7346 10.7288V20.788C43.7346 21.3231 44.1684 21.7569 44.7035 21.7569H81.7518C82.2869 21.7569 82.7207 21.3231 82.7207 20.788V10.7288C82.7207 10.1937 82.2869 9.75989 81.7518 9.75989Z" fill="white" stroke="#263238" stroke-linecap="round" stroke-linejoin="round"/>
<path d="M80.8353 24.3849H45.62C44.5787 24.3849 43.7346 25.229 43.7346 26.2703V34.4965C43.7346 35.5378 44.5787 36.3819 45.62 36.3819H80.8353C81.8766 36.3819 82.7207 35.5378 82.7207 34.4965V26.2703C82.7207 25.229 81.8766 24.3849 80.8353 24.3849Z" fill="white" stroke="#263238" stroke-linecap="round" stroke-linejoin="round"/>
<path d="M59.9882 55.4402C60.5652 55.4402 60.8633 55.788 60.8633 56.3925V56.5085H60.3112V56.3539C60.3112 56.0779 60.2008 55.9812 60.0131 55.9812C59.8254 55.9812 59.7177 56.0834 59.7177 56.3539C59.7177 56.6244 59.8364 56.8342 60.2229 57.182C60.7198 57.6182 60.8771 57.9329 60.8771 58.3635C60.8771 58.9681 60.5735 59.3131 59.991 59.3131C59.4086 59.3131 59.1077 58.9681 59.1077 58.3635V58.1316H59.6598V58.4077C59.6598 58.6837 59.7785 58.7748 59.9662 58.7748C60.1539 58.7748 60.2753 58.6755 60.2753 58.4077C60.2753 58.1399 60.1566 57.9274 59.7674 57.5795C59.2705 57.1406 59.1159 56.8287 59.1159 56.3981C59.1297 55.788 59.4058 55.4402 59.9882 55.4402Z" fill="#263238"/>
<path d="M61.8018 57.0772H62.6161V57.6127H61.8018V58.7169H62.8259V59.269H61.2083V55.4844H62.8259V56.0365H61.8018V57.0772Z" fill="#263238"/>
<path d="M63.7316 56.5251V59.269H63.1877V55.4844H63.9303L64.5293 57.7452V55.4844H65.0593V59.269H64.4493L63.7316 56.5251Z" fill="#263238"/>
<path d="M65.4954 55.4844H66.4339C67.0274 55.4844 67.32 55.8129 67.32 56.4174V58.3277C67.32 58.9322 67.0274 59.2607 66.4339 59.2607H65.4954V55.4844ZM66.0889 56.0365V58.7169H66.4229C66.6106 58.7169 66.7265 58.6203 66.7265 58.3497V56.387C66.7265 56.111 66.6106 56.0199 66.4229 56.0199L66.0889 56.0365Z" fill="#263238"/>
<path d="M36.6597 47.8931C36.6597 47.8931 39.26 48.6964 40.171 50.9572" stroke="#263238" stroke-linecap="round" stroke-linejoin="round"/>
<path d="M24.8779 119.516C25.1678 114.492 25.3583 109.36 25.6095 105.231C26.1312 96.6733 26.5204 90.9177 27.2989 85.0656C28.0773 79.2134 27.9503 70.3799 28.3396 67.2937C28.7288 64.2075 29.8937 63.5532 30.8102 59.8873C31.7267 56.2214 32.552 48.92 34.0592 47.8931C35.5665 46.8662 40.1709 44.9394 40.1709 44.9394V65.6181C42.901 69.814 46.1501 70.8629 46.1501 70.8629C48.2315 64.8424 47.9692 62.4518 50.0506 60.2407C52.132 58.0295 53.6392 55.1421 56.8938 56.3512C58.4507 56.9253 59.2816 57.5106 58.5004 62.7831C57.7192 68.0555 56.1596 69.7118 56.1596 69.7118C55.9001 71.5144 56.2893 76.751 56.9408 79.4314C57.5922 82.1119 55.1216 89.2311 53.9512 93.7859C52.7807 98.3406 46.5393 107.555 46.5393 107.555C46.404 111.027 46.4962 114.505 46.8154 117.965C46.8623 118.453 46.923 118.978 46.992 119.524L47.4033 133.683L24.8779 133.25V119.516Z" fill="white"/>
<path opacity="0.4" d="M58.0257 57.8887C57.9061 57.5872 57.9061 57.2515 58.0257 56.9501C57.6897 56.6712 57.3011 56.4627 56.8828 56.3373C53.6172 55.1282 52.1183 58.0184 50.0369 60.2268C49.8496 60.4251 49.6753 60.6354 49.5151 60.8562C51.3978 60.1467 53.8656 60.1578 54.8594 61.5352C56.1182 63.2688 58.6633 60.1495 58.0257 57.8887Z" fill="#BD5FFF"/>
<path opacity="0.4" d="M43.9305 114.445L42.9009 118.31C42.9009 118.31 44.3501 116.891 46.5171 113.446C46.4122 110.084 46.5392 107.558 46.5392 107.558C46.5392 107.558 52.7806 98.3269 53.9483 93.7749C55.1159 89.2229 57.5893 82.1036 56.9406 79.4204C56.2919 76.7373 55.9027 71.5006 56.1622 69.7008C56.4662 69.3252 56.7195 68.9113 56.9158 68.4697C56.6491 68.1908 56.3111 67.9903 55.9386 67.89C54.8578 70.8143 54.4255 73.9385 54.6715 77.0464C55.0773 82.2444 54.1857 82.6778 52.4631 89.4382C50.7406 96.1986 47.8835 103.851 46.5392 105.225C45.1948 106.6 44.6124 112.789 43.9305 114.445Z" fill="#BD5FFF"/>
<path opacity="0.4" d="M41.4627 68.9003C41.4627 68.9003 39.4117 69.2205 38.5891 69.7063C38.5891 69.7063 42.5918 70.7525 42.8513 71.865C43.1107 72.9775 43.9554 74.1369 45.4875 72.7759C45.4875 72.7759 45.5676 71.9257 45.7249 70.689C44.7587 70.2584 42.3047 68.9085 40.1653 65.6208V44.9394C40.1653 44.9394 37.8907 45.8918 36.0246 46.811C37.4048 46.9959 38.8375 47.4238 39.3951 48.3624C39.2139 48.9375 38.911 49.4668 38.5071 49.9145C38.1032 50.3623 37.6077 50.7179 37.0543 50.9572C35.5747 51.6197 37.0543 62.7803 37.0543 62.7803C37.0543 62.7803 34.6306 63.3766 33.8494 65.6208C33.8494 65.6208 37.8355 66.0294 39.4835 67.2937C41.1315 68.558 41.4627 68.9003 41.4627 68.9003Z" fill="#BD5FFF"/>
<path opacity="0.4" d="M25.6093 105.231C25.405 108.574 25.2449 112.576 25.0378 116.648C25.5513 108.919 27.1054 95.6271 27.1054 95.6271C27.1054 95.6271 28.4857 100.541 28.5988 100.019C28.908 98.4787 27.9501 89.7887 28.0467 86.6915C28.0854 85.2891 27.9833 81.6923 27.859 78.1809C27.7459 80.5936 27.583 83.0118 27.3069 85.0655C26.5202 90.915 26.1282 96.6623 25.6093 105.231Z" fill="#BD5FFF"/>
<path d="M24.8779 134.207V119.516C25.1678 114.492 25.3583 109.36 25.6095 105.231C26.1312 96.6733 26.5204 90.9177 27.2989 85.0656C28.0773 79.2134 27.9503 70.3799 28.3396 67.2937C28.7288 64.2075 29.8937 63.5532 30.8102 59.8873C31.7267 56.2214 32.552 48.92 34.0592 47.8931C35.5665 46.8662 40.1709 44.9394 40.1709 44.9394V65.6181C42.901 69.814 46.1501 70.8629 46.1501 70.8629C48.2315 64.8424 47.9692 62.4518 50.0506 60.2407C52.132 58.0295 53.6392 55.1421 56.8938 56.3512C58.4507 56.9253 59.2816 57.5106 58.5004 62.7831C57.7192 68.0555 56.1596 69.7118 56.1596 69.7118C55.9001 71.5144 56.2893 76.751 56.9408 79.4314C57.5922 82.1119 55.1216 89.2311 53.9512 93.7859C52.7807 98.3406 46.5393 107.555 46.5393 107.555C46.404 111.027 46.4962 114.505 46.8154 117.965C46.8623 118.453 46.923 118.978 46.992 119.524C46.992 119.524 47.2018 128.667 48.1984 134.216" stroke="#263238" stroke-linecap="round" stroke-linejoin="round"/>
<path d="M46.1556 70.8629C46.1556 70.8629 45.5069 73.7613 44.2067 74.4128C42.9065 75.0643 41.0349 74.4128 41.0349 74.4128" stroke="#263238" stroke-linecap="round" stroke-linejoin="round"/>
<path d="M40.1709 65.618C40.1709 65.618 38.8707 62.7278 34.7107 65.2343" stroke="#263238" stroke-linecap="round" stroke-linejoin="round"/>
<path d="M40.1708 53.944C40.1708 53.944 39.9113 52.4119 37.7637 52.0117" stroke="#263238" stroke-linecap="round" stroke-linejoin="round"/>
<path d="M46.5392 107.547C44.0713 110.677 44.5406 113.667 43.591 115.226C42.6414 116.786 42.7629 122.376 42.7629 122.376" stroke="#263238" stroke-linecap="round" stroke-linejoin="round"/>
<path d="M28.5989 77.5073V88.3863C28.6332 91.5032 28.938 94.6112 29.5098 97.6753" stroke="#263238" stroke-linecap="round" stroke-linejoin="round"/>
<path d="M56.1594 69.7063C56.1594 69.7063 56.1593 67.8485 55.6404 67.2936" stroke="#263238" stroke-linecap="round" stroke-linejoin="round"/>
<path d="M54.7296 63.8679C54.7296 63.8679 53.5785 60.0032 50.1997 61.6816" stroke="#263238" stroke-linecap="round" stroke-linejoin="round"/>
<path d="M44.3143 69.8995C41.805 69.9519 39.2598 68.8395 37.7637 70.1921" stroke="#263238" stroke-linecap="round" stroke-linejoin="round"/>
<path d="M23.8372 114.533H24.7674C24.9139 114.533 25.0543 114.592 25.1578 114.695C25.2614 114.799 25.3195 114.939 25.3195 115.086V129.412C25.3195 129.559 25.2614 129.699 25.1578 129.803C25.0543 129.906 24.9139 129.964 24.7674 129.964H23.8372V114.533Z" fill="#263238"/>
<path d="M23.8372 116.532C23.8372 116.532 35.7541 113.416 47.1935 116.968C47.3695 117.024 47.5233 117.134 47.6324 117.283C47.7416 117.432 47.8006 117.612 47.8008 117.796V125.112C47.8009 125.176 47.787 125.239 47.7601 125.297C47.7332 125.355 47.6939 125.407 47.645 125.448C47.5961 125.489 47.5387 125.519 47.4769 125.536C47.4151 125.553 47.3504 125.556 47.2873 125.545C44.8305 125.103 34.0371 123.397 24.4251 125.642L23.8372 116.532Z" fill="#263238"/>
<path d="M24.3478 116.411V114.754C24.3478 114.494 24.2443 114.244 24.06 114.059C23.8757 113.875 23.6257 113.772 23.3651 113.772H22.029C21.8635 113.772 21.7011 113.816 21.5588 113.901C21.4165 113.985 21.2995 114.107 21.2202 114.252L20.0415 116.405V129.004L21.2037 130.423C21.2908 130.528 21.4 130.613 21.5236 130.671C21.6472 130.729 21.782 130.759 21.9186 130.759H23.3651C23.6257 130.759 23.8757 130.656 24.06 130.472C24.2443 130.287 24.3478 130.037 24.3478 129.777V116.411Z" fill="#BD5FFF" stroke="#263238" stroke-linecap="round" stroke-linejoin="round"/>
<path d="M23.5197 115.582L26.2415 115.077C26.3171 115.064 26.3948 115.067 26.4691 115.086C26.5434 115.106 26.6125 115.141 26.6715 115.191C26.7305 115.24 26.778 115.302 26.8105 115.371C26.8431 115.441 26.8599 115.517 26.8599 115.593V117.164L25.96 117.832V122.936H26.8599V125.597C26.8604 125.747 26.8092 125.891 26.7151 126.007C26.621 126.123 26.4898 126.202 26.3437 126.232L23.7599 126.768C23.669 126.787 23.575 126.785 23.4847 126.763C23.3945 126.741 23.3104 126.699 23.2384 126.64C23.1665 126.582 23.1085 126.508 23.0689 126.424C23.0292 126.34 23.0087 126.248 23.009 126.155V116.198C23.0091 116.052 23.0601 115.911 23.1534 115.798C23.2466 115.686 23.3762 115.609 23.5197 115.582Z" fill="#BD5FFF" stroke="#263238" stroke-linecap="round" stroke-linejoin="round"/>
<path d="M23.6108 126.072L25.8192 125.564C25.8983 125.545 25.9685 125.5 26.0186 125.436C26.0687 125.371 26.0957 125.292 26.0953 125.211V123.555" stroke="#263238" stroke-linecap="round" stroke-linejoin="round"/>
<path d="M25.2036 122.856V117.393L26.0952 116.714V115.69" stroke="#263238" stroke-linecap="round" stroke-linejoin="round"/>
<path d="M21.6011 114.76V129.357" stroke="#263238" stroke-linecap="round" stroke-linejoin="round"/>
<path d="M32.3697 120.457C32.2641 120.457 32.1627 120.416 32.0877 120.341C32.0127 120.267 31.9702 120.166 31.9695 120.06V119.188C31.9695 119.081 32.0117 118.98 32.0867 118.905C32.1618 118.829 32.2636 118.787 32.3697 118.787C32.4222 118.787 32.4741 118.798 32.5225 118.818C32.5709 118.838 32.6149 118.868 32.6518 118.905C32.6888 118.942 32.718 118.986 32.7378 119.035C32.7576 119.083 32.7676 119.135 32.7673 119.188V120.06C32.7673 120.165 32.7254 120.266 32.6508 120.341C32.5763 120.416 32.4752 120.457 32.3697 120.457Z" fill="white"/>
<path d="M38.5118 120.62C38.4057 120.62 38.3039 120.578 38.2288 120.503C38.1537 120.428 38.1116 120.326 38.1116 120.22V119.351C38.1116 119.244 38.1537 119.143 38.2288 119.068C38.3039 118.992 38.4057 118.95 38.5118 118.95C38.6175 118.951 38.7186 118.994 38.7931 119.069C38.8676 119.144 38.9093 119.245 38.9093 119.351V120.22C38.9093 120.326 38.8676 120.427 38.7931 120.502C38.7186 120.577 38.6175 120.62 38.5118 120.62Z" fill="white"/>
<path d="M43.9747 121.291C43.9223 121.291 43.8703 121.281 43.8218 121.262C43.7732 121.242 43.7291 121.213 43.6919 121.176C43.6547 121.139 43.6251 121.095 43.605 121.046C43.5848 120.998 43.5745 120.946 43.5745 120.894V120.021C43.5745 119.969 43.5848 119.917 43.605 119.869C43.6251 119.82 43.6547 119.776 43.6919 119.739C43.7291 119.702 43.7732 119.673 43.8218 119.653C43.8703 119.633 43.9223 119.623 43.9747 119.624C44.0802 119.624 44.1813 119.666 44.2558 119.74C44.3304 119.815 44.3722 119.916 44.3722 120.021V120.894C44.3722 120.999 44.3304 121.1 44.2558 121.175C44.1813 121.249 44.0802 121.291 43.9747 121.291Z" fill="white"/>
<path d="M48.0791 13.6849H47.2191V13.0569H49.7271V13.6849H48.8711V15.8569H48.0791V13.6849ZM51.9834 14.7769C51.9834 14.7822 51.9794 14.8449 51.9714 14.9649H50.3954C50.4274 15.0769 50.4888 15.1635 50.5794 15.2249C50.6728 15.2835 50.7888 15.3129 50.9274 15.3129C51.0314 15.3129 51.1208 15.2982 51.1954 15.2689C51.2728 15.2395 51.3501 15.1915 51.4274 15.1249L51.8274 15.5409C51.6168 15.7755 51.3088 15.8929 50.9034 15.8929C50.6501 15.8929 50.4274 15.8449 50.2354 15.7489C50.0434 15.6529 49.8941 15.5195 49.7874 15.3489C49.6834 15.1782 49.6314 14.9849 49.6314 14.7689C49.6314 14.5555 49.6821 14.3649 49.7834 14.1969C49.8874 14.0262 50.0301 13.8929 50.2114 13.7969C50.3928 13.7009 50.5968 13.6529 50.8234 13.6529C51.0394 13.6529 51.2354 13.6982 51.4114 13.7889C51.5874 13.8769 51.7261 14.0062 51.8274 14.1769C51.9314 14.3449 51.9834 14.5449 51.9834 14.7769ZM50.8274 14.1929C50.7101 14.1929 50.6114 14.2262 50.5314 14.2929C50.4541 14.3595 50.4048 14.4502 50.3834 14.5649H51.2714C51.2501 14.4502 51.1994 14.3595 51.1194 14.2929C51.0421 14.2262 50.9448 14.1929 50.8274 14.1929ZM53.0578 13.9489C53.1352 13.8502 53.2352 13.7769 53.3578 13.7289C53.4832 13.6782 53.6258 13.6529 53.7858 13.6529V14.3369C53.7165 14.3289 53.6592 14.3249 53.6138 14.3249C53.4512 14.3249 53.3232 14.3689 53.2298 14.4569C53.1392 14.5449 53.0938 14.6795 53.0938 14.8609V15.8569H52.3338V13.6889H53.0578V13.9489ZM56.9235 13.6529C57.1901 13.6529 57.4021 13.7329 57.5595 13.8929C57.7195 14.0529 57.7995 14.2942 57.7995 14.6169V15.8569H57.0395V14.7409C57.0395 14.5889 57.0101 14.4769 56.9515 14.4049C56.8955 14.3329 56.8155 14.2969 56.7115 14.2969C56.5968 14.2969 56.5048 14.3369 56.4355 14.4169C56.3661 14.4969 56.3315 14.6182 56.3315 14.7809V15.8569H55.5715V14.7409C55.5715 14.4449 55.4621 14.2969 55.2435 14.2969C55.1261 14.2969 55.0328 14.3369 54.9635 14.4169C54.8941 14.4969 54.8595 14.6182 54.8595 14.7809V15.8569H54.0995V13.6889H54.8235V13.9169C54.9035 13.8289 54.9981 13.7635 55.1075 13.7209C55.2195 13.6755 55.3408 13.6529 55.4715 13.6529C55.6235 13.6529 55.7595 13.6809 55.8795 13.7369C55.9995 13.7929 56.0968 13.8782 56.1715 13.9929C56.2568 13.8835 56.3648 13.7995 56.4955 13.7409C56.6261 13.6822 56.7688 13.6529 56.9235 13.6529ZM58.2792 13.6889H59.0392V15.8569H58.2792V13.6889ZM58.6592 13.4489C58.5205 13.4489 58.4085 13.4102 58.3232 13.3329C58.2378 13.2555 58.1952 13.1595 58.1952 13.0449C58.1952 12.9302 58.2378 12.8342 58.3232 12.7569C58.4085 12.6795 58.5205 12.6409 58.6592 12.6409C58.7978 12.6409 58.9098 12.6782 58.9952 12.7529C59.0805 12.8249 59.1232 12.9182 59.1232 13.0329C59.1232 13.1529 59.0805 13.2529 58.9952 13.3329C58.9098 13.4102 58.7978 13.4489 58.6592 13.4489ZM60.9451 13.6529C61.2144 13.6529 61.4304 13.7329 61.5931 13.8929C61.7584 14.0529 61.8411 14.2942 61.8411 14.6169V15.8569H61.0811V14.7409C61.0811 14.4449 60.9624 14.2969 60.7251 14.2969C60.5944 14.2969 60.4891 14.3395 60.4091 14.4249C60.3317 14.5102 60.2931 14.6382 60.2931 14.8089V15.8569H59.5331V13.6889H60.2571V13.9249C60.3424 13.8369 60.4437 13.7702 60.5611 13.7249C60.6784 13.6769 60.8064 13.6529 60.9451 13.6529ZM63.2422 13.6529C63.6022 13.6529 63.8769 13.7355 64.0662 13.9009C64.2556 14.0635 64.3502 14.3142 64.3502 14.6529V15.8569H63.6422V15.5769C63.5329 15.7875 63.3196 15.8929 63.0022 15.8929C62.8342 15.8929 62.6889 15.8635 62.5662 15.8049C62.4436 15.7462 62.3502 15.6675 62.2862 15.5689C62.2249 15.4675 62.1942 15.3529 62.1942 15.2249C62.1942 15.0195 62.2729 14.8609 62.4302 14.7489C62.5876 14.6342 62.8302 14.5769 63.1582 14.5769H63.5902C63.5769 14.3475 63.4236 14.2329 63.1302 14.2329C63.0262 14.2329 62.9209 14.2502 62.8142 14.2849C62.7076 14.3169 62.6169 14.3622 62.5422 14.4209L62.2862 13.9049C62.4062 13.8249 62.5516 13.7635 62.7222 13.7209C62.8956 13.6755 63.0689 13.6529 63.2422 13.6529ZM63.2142 15.4129C63.3022 15.4129 63.3796 15.3915 63.4462 15.3489C63.5129 15.3062 63.5609 15.2435 63.5902 15.1609V14.9729H63.2622C63.0409 14.9729 62.9302 15.0462 62.9302 15.1929C62.9302 15.2595 62.9556 15.3129 63.0062 15.3529C63.0569 15.3929 63.1262 15.4129 63.2142 15.4129ZM64.8299 12.8889H65.5899V15.8569H64.8299V12.8889ZM68.3399 13.0569V15.8569H67.5479V13.6689H67.0279V13.0569H68.3399Z" fill="#BD5FFF"/>
<path d="M47.8577 18.475V19.31H47.5764V17.1772H48.363C48.5964 17.1772 48.7791 17.2368 48.9109 17.3559C49.0437 17.475 49.1101 17.6328 49.1101 17.829C49.1101 18.0361 49.0452 18.1957 48.9153 18.308C48.7864 18.4194 48.6013 18.475 48.3601 18.475H47.8577ZM47.8577 18.2451H48.363C48.5134 18.2451 48.6287 18.2099 48.7087 18.1396C48.7888 18.0683 48.8289 17.9658 48.8289 17.832C48.8289 17.705 48.7888 17.6035 48.7087 17.5273C48.6287 17.4511 48.5188 17.4116 48.3792 17.4086H47.8577V18.2451ZM51.1096 18.3124C51.1096 18.5214 51.0745 18.704 51.0042 18.8603C50.9338 19.0156 50.8342 19.1342 50.7053 19.2162C50.5764 19.2983 50.426 19.3393 50.2542 19.3393C50.0862 19.3393 49.9373 19.2983 49.8074 19.2162C49.6775 19.1332 49.5764 19.0156 49.5042 18.8632C49.4329 18.7099 49.3962 18.5327 49.3943 18.3315V18.1777C49.3943 17.9726 49.4299 17.7914 49.5012 17.6342C49.5725 17.477 49.6731 17.3569 49.803 17.2739C49.9338 17.1899 50.0833 17.1479 50.2512 17.1479C50.4221 17.1479 50.5725 17.1894 50.7024 17.2724C50.8333 17.3544 50.9338 17.4741 51.0042 17.6313C51.0745 17.7875 51.1096 17.9697 51.1096 18.1777V18.3124ZM50.8298 18.1747C50.8298 17.9218 50.7791 17.728 50.6775 17.5932C50.5759 17.4575 50.4338 17.3896 50.2512 17.3896C50.0735 17.3896 49.9333 17.4575 49.8308 17.5932C49.7292 17.728 49.677 17.9155 49.6741 18.1557V18.3124C49.6741 18.5576 49.7253 18.7504 49.8279 18.8911C49.9314 19.0307 50.0735 19.1005 50.2542 19.1005C50.4358 19.1005 50.5764 19.0346 50.676 18.9028C50.7756 18.77 50.8269 18.58 50.8298 18.3329V18.1747ZM52.1599 18.3593C51.9187 18.29 51.7429 18.205 51.6326 18.1044C51.5232 18.0029 51.4685 17.8779 51.4685 17.7294C51.4685 17.5615 51.5354 17.4228 51.6692 17.3134C51.804 17.2031 51.9788 17.1479 52.1936 17.1479C52.3401 17.1479 52.4705 17.1762 52.5847 17.2328C52.7 17.2895 52.7888 17.3676 52.8513 17.4672C52.9148 17.5668 52.9465 17.6757 52.9465 17.7939H52.6638C52.6638 17.665 52.6228 17.5639 52.5408 17.4907C52.4587 17.4164 52.343 17.3793 52.1936 17.3793C52.0549 17.3793 51.9465 17.4101 51.8684 17.4716C51.7913 17.5322 51.7527 17.6166 51.7527 17.725C51.7527 17.812 51.7893 17.8857 51.8625 17.9462C51.9368 18.0058 52.0623 18.0605 52.239 18.1103C52.4167 18.1601 52.5554 18.2153 52.655 18.2758C52.7556 18.3354 52.8298 18.4052 52.8777 18.4853C52.9265 18.5654 52.9509 18.6596 52.9509 18.768C52.9509 18.9409 52.8835 19.0795 52.7488 19.184C52.614 19.2875 52.4338 19.3393 52.2083 19.3393C52.0618 19.3393 51.925 19.3115 51.7981 19.2558C51.6711 19.1992 51.573 19.122 51.5037 19.0244C51.4353 18.9267 51.4011 18.8159 51.4011 18.6918H51.6838C51.6838 18.8207 51.7312 18.9228 51.8259 18.998C51.9216 19.0722 52.0491 19.1093 52.2083 19.1093C52.3567 19.1093 52.4705 19.079 52.5496 19.0185C52.6287 18.9579 52.6682 18.8754 52.6682 18.7709C52.6682 18.6664 52.6316 18.5859 52.5583 18.5292C52.4851 18.4716 52.3523 18.415 52.1599 18.3593Z" fill="black"/>
<path d="M48.8791 31.0535C48.5858 31.0535 48.3218 30.9922 48.0871 30.8695C47.8551 30.7442 47.6725 30.5708 47.5391 30.3495C47.4058 30.1282 47.3391 29.8775 47.3391 29.5975C47.3391 29.3175 47.4058 29.0668 47.5391 28.8455C47.6725 28.6242 47.8551 28.4522 48.0871 28.3295C48.3218 28.2042 48.5858 28.1415 48.8791 28.1415C49.1351 28.1415 49.3658 28.1868 49.5711 28.2775C49.7765 28.3682 49.9471 28.4988 50.0831 28.6695L49.5791 29.1255C49.3978 28.9068 49.1778 28.7975 48.9191 28.7975C48.7671 28.7975 48.6311 28.8308 48.5111 28.8975C48.3938 28.9642 48.3018 29.0588 48.2351 29.1815C48.1711 29.3015 48.1391 29.4402 48.1391 29.5975C48.1391 29.7548 48.1711 29.8948 48.2351 30.0175C48.3018 30.1375 48.3938 30.2308 48.5111 30.2975C48.6311 30.3642 48.7671 30.3975 48.9191 30.3975C49.1778 30.3975 49.3978 30.2882 49.5791 30.0695L50.0831 30.5255C49.9471 30.6962 49.7765 30.8268 49.5711 30.9175C49.3658 31.0082 49.1351 31.0535 48.8791 31.0535ZM51.3164 28.7935C51.6764 28.7935 51.9511 28.8762 52.1404 29.0415C52.3298 29.2042 52.4244 29.4548 52.4244 29.7935V30.9975H51.7164V30.7175C51.6071 30.9282 51.3938 31.0335 51.0764 31.0335C50.9084 31.0335 50.7631 31.0042 50.6404 30.9455C50.5178 30.8868 50.4244 30.8082 50.3604 30.7095C50.2991 30.6082 50.2684 30.4935 50.2684 30.3655C50.2684 30.1602 50.3471 30.0015 50.5044 29.8895C50.6618 29.7748 50.9044 29.7175 51.2324 29.7175H51.6644C51.6511 29.4882 51.4978 29.3735 51.2044 29.3735C51.1004 29.3735 50.9951 29.3908 50.8884 29.4255C50.7818 29.4575 50.6911 29.5028 50.6164 29.5615L50.3604 29.0455C50.4804 28.9655 50.6258 28.9042 50.7964 28.8615C50.9698 28.8162 51.1431 28.7935 51.3164 28.7935ZM51.2884 30.5535C51.3764 30.5535 51.4538 30.5322 51.5204 30.4895C51.5871 30.4468 51.6351 30.3842 51.6644 30.3015V30.1135H51.3364C51.1151 30.1135 51.0044 30.1868 51.0044 30.3335C51.0044 30.4002 51.0298 30.4535 51.0804 30.4935C51.1311 30.5335 51.2004 30.5535 51.2884 30.5535ZM53.6282 29.0895C53.7055 28.9908 53.8055 28.9175 53.9282 28.8695C54.0535 28.8188 54.1962 28.7935 54.3562 28.7935V29.4775C54.2868 29.4695 54.2295 29.4655 54.1842 29.4655C54.0215 29.4655 53.8935 29.5095 53.8002 29.5975C53.7095 29.6855 53.6642 29.8202 53.6642 30.0015V30.9975H52.9042V28.8295H53.6282V29.0895ZM49.7511 33.0295V35.9975H49.0271V35.7815C48.8858 35.9495 48.6738 36.0335 48.3911 36.0335C48.1938 36.0335 48.0138 35.9882 47.8511 35.8975C47.6885 35.8042 47.5591 35.6722 47.4631 35.5015C47.3698 35.3308 47.3231 35.1335 47.3231 34.9095C47.3231 34.6855 47.3698 34.4895 47.4631 34.3215C47.5591 34.1508 47.6885 34.0202 47.8511 33.9295C48.0138 33.8388 48.1938 33.7935 48.3911 33.7935C48.6498 33.7935 48.8498 33.8682 48.9911 34.0175V33.0295H49.7511ZM48.5511 35.4295C48.6818 35.4295 48.7898 35.3842 48.8751 35.2935C48.9605 35.2002 49.0031 35.0722 49.0031 34.9095C49.0031 34.7495 48.9605 34.6242 48.8751 34.5335C48.7925 34.4428 48.6845 34.3975 48.5511 34.3975C48.4178 34.3975 48.3085 34.4428 48.2231 34.5335C48.1378 34.6242 48.0951 34.7495 48.0951 34.9095C48.0951 35.0722 48.1378 35.2002 48.2231 35.2935C48.3085 35.3842 48.4178 35.4295 48.5511 35.4295Z" fill="#BD5FFF"/>
<path d="M48.9243 31.6586H48.2388V33.56H47.959V31.6586H47.2749V31.4272H48.9243V31.6586ZM49.7095 33.5893C49.4946 33.5893 49.3198 33.519 49.1851 33.3784C49.0503 33.2368 48.9829 33.0478 48.9829 32.8115V32.7617C48.9829 32.6044 49.0127 32.4643 49.0723 32.3412C49.1328 32.2172 49.2168 32.1205 49.3242 32.0512C49.4326 31.9809 49.5498 31.9457 49.6758 31.9457C49.8818 31.9457 50.042 32.0136 50.1562 32.1494C50.2705 32.2851 50.3276 32.4794 50.3276 32.7324V32.8452H49.2539C49.2578 33.0014 49.3032 33.1279 49.3901 33.2245C49.478 33.3203 49.5894 33.3681 49.7241 33.3681C49.8198 33.3681 49.9009 33.3486 49.9673 33.3095C50.0337 33.2704 50.0918 33.2187 50.1416 33.1542L50.3071 33.2831C50.1743 33.4872 49.9751 33.5893 49.7095 33.5893ZM49.6758 32.1684C49.5664 32.1684 49.4746 32.2084 49.4004 32.2885C49.3262 32.3676 49.2803 32.4789 49.2627 32.6225H50.0566V32.602C50.0488 32.4643 50.0117 32.3578 49.9453 32.2827C49.8789 32.2065 49.7891 32.1684 49.6758 32.1684ZM50.937 33.56H50.666V31.31H50.937V33.56ZM51.6665 33.56H51.3955V31.31H51.6665V33.56ZM52.7593 33.5893C52.5444 33.5893 52.3696 33.519 52.2349 33.3784C52.1001 33.2368 52.0327 33.0478 52.0327 32.8115V32.7617C52.0327 32.6044 52.0625 32.4643 52.1221 32.3412C52.1826 32.2172 52.2666 32.1205 52.374 32.0512C52.4824 31.9809 52.5996 31.9457 52.7256 31.9457C52.9316 31.9457 53.0918 32.0136 53.2061 32.1494C53.3203 32.2851 53.3774 32.4794 53.3774 32.7324V32.8452H52.3037C52.3076 33.0014 52.353 33.1279 52.4399 33.2245C52.5278 33.3203 52.6392 33.3681 52.7739 33.3681C52.8696 33.3681 52.9507 33.3486 53.0171 33.3095C53.0835 33.2704 53.1416 33.2187 53.1914 33.1542L53.3569 33.2831C53.2241 33.4872 53.0249 33.5893 52.7593 33.5893ZM52.7256 32.1684C52.6162 32.1684 52.5244 32.2084 52.4502 32.2885C52.376 32.3676 52.3301 32.4789 52.3125 32.6225H53.1064V32.602C53.0986 32.4643 53.0615 32.3578 52.9951 32.2827C52.9287 32.2065 52.8389 32.1684 52.7256 32.1684ZM54.4585 32.2182C54.4175 32.2114 54.373 32.2079 54.3252 32.2079C54.1475 32.2079 54.0269 32.2836 53.9634 32.435V33.56H53.6924V31.975H53.9561L53.9604 32.1581C54.0493 32.0165 54.1753 31.9457 54.3384 31.9457C54.3911 31.9457 54.4312 31.9526 54.4585 31.9662V32.2182ZM56.0479 32.7851C56.0479 33.0263 55.9927 33.2206 55.8823 33.3681C55.772 33.5156 55.6226 33.5893 55.4341 33.5893C55.2417 33.5893 55.0903 33.5283 54.98 33.4062V34.1694H54.709V31.975H54.9565L54.9697 32.1508C55.0801 32.0141 55.2334 31.9457 55.4297 31.9457C55.6201 31.9457 55.7705 32.0175 55.8809 32.1611C55.9922 32.3046 56.0479 32.5043 56.0479 32.7602V32.7851ZM55.7769 32.7543C55.7769 32.5756 55.7388 32.4345 55.6626 32.331C55.5864 32.2275 55.4819 32.1757 55.3491 32.1757C55.1851 32.1757 55.062 32.2485 54.98 32.394V33.1513C55.061 33.2958 55.1851 33.3681 55.3521 33.3681C55.4819 33.3681 55.585 33.3168 55.6611 33.2143C55.7383 33.1108 55.7769 32.9575 55.7769 32.7543ZM57.3721 33.56C57.3564 33.5287 57.3438 33.4731 57.334 33.393C57.208 33.5239 57.0576 33.5893 56.8828 33.5893C56.7266 33.5893 56.5981 33.5453 56.4976 33.4575C56.3979 33.3686 56.3481 33.2563 56.3481 33.1205C56.3481 32.9555 56.4106 32.8276 56.5356 32.7368C56.6616 32.645 56.8384 32.5991 57.0659 32.5991H57.3296V32.4745C57.3296 32.3798 57.3013 32.3046 57.2446 32.249C57.188 32.1923 57.1045 32.164 56.9941 32.164C56.8975 32.164 56.8164 32.1884 56.751 32.2372C56.6855 32.2861 56.6528 32.3452 56.6528 32.4145H56.3804C56.3804 32.3354 56.4082 32.2592 56.4639 32.186C56.5205 32.1118 56.5967 32.0532 56.6924 32.0102C56.7891 31.9672 56.895 31.9457 57.0103 31.9457C57.1929 31.9457 57.3359 31.9916 57.4395 32.0834C57.543 32.1743 57.5967 32.2997 57.6006 32.4599V33.1894C57.6006 33.3349 57.6191 33.4506 57.6562 33.5366V33.56H57.3721ZM56.9224 33.3535C57.0073 33.3535 57.0879 33.3315 57.1641 33.2875C57.2402 33.2436 57.2954 33.1865 57.3296 33.1161V32.791H57.1172C56.7852 32.791 56.6191 32.8881 56.6191 33.0825C56.6191 33.1674 56.6475 33.2338 56.7041 33.2817C56.7607 33.3295 56.8335 33.3535 56.9224 33.3535ZM58.5205 33.163L58.8896 31.975H59.1797L58.5425 33.8046C58.4438 34.0683 58.2871 34.2001 58.0723 34.2001L58.021 34.1957L57.9199 34.1767V33.957L57.9932 33.9628C58.085 33.9628 58.1562 33.9443 58.207 33.9072C58.2588 33.8701 58.3013 33.8022 58.3345 33.7036L58.3945 33.5424L57.8291 31.975H58.125L58.5205 33.163Z" fill="black"/>
</svg>
