<svg width="129" height="146" viewBox="0 0 129 146" fill="none" xmlns="http://www.w3.org/2000/svg">
<path opacity="0.15" d="M17.5582 33.175C17.6199 33.1131 17.6815 33.0821 17.7432 33.0201C33.6464 18.6474 54.7582 17.9969 70.1374 33.4848C78.1506 41.5694 92.3895 40.0206 102.56 42.9323C137.664 52.9994 131.593 100.888 114.272 124.027C98.6152 144.904 64.7131 149.644 41.937 139.36C21.9039 130.315 7.81908 110.15 2.7954 89.0551C2.30227 86.9488 1.87079 84.8115 1.56259 82.6432C-1.11876 64.6773 3.96656 45.6272 17.5582 33.175Z" fill="#BD5FFF"/>
<path d="M38.3313 82.1475C36.667 79.3597 28.6229 79.4216 27.9141 80.6607C27.9141 80.6607 31.8899 93.5775 36.328 92.2456C40.7661 90.9136 38.3313 82.1475 38.3313 82.1475Z" fill="#92E3A9"/>
<path opacity="0.3" d="M38.3313 82.1475C36.667 79.3597 28.6229 79.4216 27.9141 80.6607C27.9141 80.6607 31.8899 93.5775 36.328 92.2456C40.7661 90.9136 38.3313 82.1475 38.3313 82.1475Z" fill="black" fill-opacity="0.7"/>
<path d="M38.3313 82.1475C36.667 79.3597 28.6229 79.4216 27.9141 80.6607C27.9141 80.6607 31.8899 93.5775 36.328 92.2456C40.7661 90.9136 38.3313 82.1475 38.3313 82.1475Z" stroke="#263238" stroke-miterlimit="10" stroke-linecap="round" stroke-linejoin="round"/>
<path d="M28.746 88.7143C28.746 88.7143 27.8831 89.6746 27.8831 91.1614C27.8831 92.3694 30.1637 116.469 37.2524 124.832C38.7317 126.598 40.4269 127.651 42.3377 127.682C48.3168 127.744 51.2139 122.973 55.0048 111.915C55.4671 110.552 55.9602 109.065 56.4841 107.486C60.1826 96.0556 64.7439 72.2662 64.7439 72.2662C64.7439 72.2662 56.6691 74.1558 51.8919 78.926C49.7962 81.0014 47.6079 86.9177 46.221 91.2543C45.543 93.3917 45.0499 95.1263 44.8341 95.8697C44.7725 96.1175 44.7417 96.2414 44.7417 96.2414C44.5567 95.529 44.2485 94.7856 43.9095 94.0731C43.9095 94.0731 43.9095 94.0731 43.9095 94.0421C43.9095 94.0112 43.8787 94.0112 43.8787 93.9802C42.4302 91.1924 40.0878 88.7453 40.0878 88.7453L38.3311 82.1165C38.3311 82.1165 37.7147 83.3246 34.9409 83.7582C32.1362 84.1919 27.9139 80.6297 27.9139 80.6297L28.746 88.7143Z" fill="#BD5FFF"/>
<path opacity="0.3" d="M37.2524 124.832C38.7318 126.598 40.4269 127.651 42.3378 127.682C48.3169 127.744 51.214 122.973 55.0048 111.915L54.9124 86.2053C54.9124 86.2053 50.4126 87.0726 46.1903 91.2234C45.5122 93.3607 45.0191 95.0953 44.8034 95.8387C46.4985 99.37 49.4264 107.455 46.067 116.066C43.9404 121.703 40.3653 123.996 37.2524 124.832Z" fill="black" fill-opacity="0.7"/>
<path d="M28.746 88.7143C28.746 88.7143 27.8831 89.6746 27.8831 91.1614C27.8831 92.3694 30.1637 116.469 37.2524 124.832C38.7317 126.598 40.4269 127.651 42.3377 127.682C48.3168 127.744 51.2139 122.973 55.0048 111.915C55.4671 110.552 55.9602 109.065 56.4841 107.486C60.1826 96.0556 64.7439 72.2662 64.7439 72.2662C64.7439 72.2662 56.6691 74.1558 51.8919 78.926C49.7962 81.0014 47.6079 86.9177 46.221 91.2543C45.543 93.3917 45.0499 95.1263 44.8341 95.8697C44.7725 96.1175 44.7417 96.2414 44.7417 96.2414C44.5567 95.529 44.2485 94.7856 43.9095 94.0731C43.9095 94.0731 43.9095 94.0731 43.9095 94.0421C43.9095 94.0112 43.8787 94.0112 43.8787 93.9802C42.4302 91.1924 40.0878 88.7453 40.0878 88.7453L38.3311 82.1165C38.3311 82.1165 37.7147 83.3246 34.9409 83.7582C32.1362 84.1919 27.9139 80.6297 27.9139 80.6297L28.746 88.7143Z" stroke="#263238" stroke-miterlimit="10" stroke-linecap="round" stroke-linejoin="round"/>
<path d="M47.7621 104.109C48.1936 106.37 48.1936 108.817 47.1765 110.924" stroke="#263238" stroke-miterlimit="10" stroke-linecap="round" stroke-linejoin="round"/>
<path d="M44.7725 96.2723C45.9436 98.2858 46.8682 100.485 47.4846 102.715" stroke="#263238" stroke-miterlimit="10" stroke-linecap="round" stroke-linejoin="round"/>
<path d="M48.5635 99.0912C48.5635 99.0912 47.7314 96.768 45.4507 96.2414" stroke="#263238" stroke-miterlimit="10" stroke-linecap="round" stroke-linejoin="round"/>
<path d="M36.9751 90.6039C37.5299 90.2941 38.023 89.9534 38.4853 89.5197" stroke="#263238" stroke-miterlimit="10" stroke-linecap="round" stroke-linejoin="round"/>
<path d="M28.7458 88.7144C30.5334 90.6348 33.3072 91.8739 35.8961 91.0375" stroke="#263238" stroke-miterlimit="10" stroke-linecap="round" stroke-linejoin="round"/>
<path d="M43.8787 94.0421C43.8787 94.0421 43.8787 94.0731 43.9095 94.1041C43.8787 94.0731 43.8787 94.0421 43.8787 94.0421Z" fill="#92E3A9" stroke="#263238" stroke-miterlimit="10" stroke-linecap="round" stroke-linejoin="round"/>
<path d="M96.5502 143.139C96.5502 143.139 97.5672 135.054 98.1836 132.421C100.988 120.557 110.82 93.0818 109.217 84.9352C107.584 76.5718 97.6289 69.2615 81.51 68.4562C66.593 67.7128 54.265 73.0406 51.337 79.2047C48.5324 85.0901 48.6557 125.823 49.3645 144.192C49.3645 144.192 80.123 144.192 90.3553 144.192C93.6223 144.223 96.5502 143.139 96.5502 143.139Z" fill="#BD5FFF"/>
<path opacity="0.3" d="M93.345 94.1041C85.6092 104.76 77.1953 120.681 77.1953 120.681L54.1726 91.8428C54.1726 91.8428 59.4428 128.487 62.3091 132.452C65.1754 136.417 65.0521 138.244 65.0521 138.244C65.0521 138.244 72.3565 146.143 77.8117 145.059C82.4655 144.161 99.1392 125.42 104.348 103.707L93.345 94.1041Z" fill="black" fill-opacity="0.7"/>
<path d="M96.5502 143.139C96.5502 143.139 97.5672 135.054 98.1836 132.421C100.988 120.557 110.82 93.0818 109.217 84.9352C107.584 76.5718 97.6289 69.2615 81.51 68.4562C66.593 67.7128 54.265 73.0406 51.337 79.2047C48.5324 85.0901 48.6557 125.823 49.3645 144.192C49.3645 144.192 80.123 144.192 90.3553 144.192C93.6223 144.223 96.5502 143.139 96.5502 143.139Z" stroke="#263238" stroke-miterlimit="10" stroke-linecap="round" stroke-linejoin="round"/>
<path d="M88.0439 70.0979C88.0439 70.0979 80.0306 73.5672 71.3394 70.6865C71.3394 70.6865 72.4489 67.9606 72.4489 65.6994C72.4489 64.5843 72.1715 63.5621 71.3394 63.0664C71.3394 63.0664 71.74 62.6328 72.3872 61.9513C75.685 58.575 85.6707 49.1274 88.9068 54.765C88.9376 54.765 85.5166 55.1057 88.0439 70.0979Z" fill="white" stroke="#263238" stroke-miterlimit="10" stroke-linecap="round" stroke-linejoin="round"/>
<path d="M78.9827 59.6591C78.9827 59.6591 77.6574 64.5222 72.4796 65.7303C72.4796 64.6152 72.2023 63.593 71.3701 63.0974C71.3701 63.0974 71.7708 62.6637 72.418 61.9822C75.5925 60.7122 78.9827 59.6591 78.9827 59.6591Z" fill="#263238"/>
<path d="M91.1874 46.8351C94.6393 33.0199 87.2116 28.3116 82.527 26.4841C75.0377 23.5724 65.5759 26.8868 63.3568 34.5377C61.1378 42.2197 63.1411 43.9544 63.0486 47.0829C62.987 49.2822 61.5384 50.3663 63.1103 55.88C64.1582 59.5351 66.1306 63.7168 68.4113 63.8407C74.6062 64.2125 80.462 60.6502 80.123 59.0085" fill="white"/>
<path d="M91.1874 46.8351C94.6393 33.0199 87.2116 28.3116 82.527 26.4841C75.0377 23.5724 65.5759 26.8868 63.3568 34.5377C61.1378 42.2197 63.1411 43.9544 63.0486 47.0829C62.987 49.2822 61.5384 50.3663 63.1103 55.88C64.1582 59.5351 66.1306 63.7168 68.4113 63.8407C74.6062 64.2125 80.462 60.6502 80.123 59.0085" stroke="#263238" stroke-miterlimit="10" stroke-linecap="round" stroke-linejoin="round"/>
<path d="M71.7397 40.0825C71.7397 40.0825 74.5136 39.1222 75.9929 42.1579" stroke="#263238" stroke-miterlimit="10" stroke-linecap="round" stroke-linejoin="round"/>
<path d="M62.3088 39.6178C62.3088 39.6178 64.3738 37.8522 66.4387 40.3613" stroke="#263238" stroke-miterlimit="10" stroke-linecap="round" stroke-linejoin="round"/>
<path d="M72.9727 47.083C73.3472 47.083 73.6508 46.556 73.6508 45.9059C73.6508 45.2558 73.3472 44.7288 72.9727 44.7288C72.5983 44.7288 72.2947 45.2558 72.2947 45.9059C72.2947 46.556 72.5983 47.083 72.9727 47.083Z" fill="#263238"/>
<path d="M64.3738 45.2864C64.3738 45.9369 64.682 46.4635 65.0518 46.4635C65.4217 46.4635 65.7299 45.9369 65.7299 45.2864C65.7299 44.6359 65.4217 44.1093 65.0518 44.1093C64.682 44.1093 64.3738 44.6359 64.3738 45.2864Z" fill="#263238"/>
<path d="M66.4388 42.6224C66.4388 42.6224 66.8703 45.8129 66.6854 46.4324C66.5005 47.052 64.3431 49.0034 64.2506 49.8707C64.1582 50.7381 66.0382 51.6054 66.0382 51.6054" fill="white"/>
<path d="M66.4388 42.6224C66.4388 42.6224 66.8703 45.8129 66.6854 46.4324C66.5005 47.052 64.3431 49.0034 64.2506 49.8707C64.1582 50.7381 66.0382 51.6054 66.0382 51.6054" stroke="#263238" stroke-miterlimit="10" stroke-linecap="round" stroke-linejoin="round"/>
<path d="M65.052 53.464C65.052 53.464 69.336 54.5481 72.9728 53.464C72.9728 53.464 71.2777 58.8228 67.9183 58.2652C65.6992 57.8935 66.254 54.3933 66.254 54.3933L65.052 53.464Z" fill="#263238"/>
<path d="M72.9727 39.0293L77.7806 39.4629C79.1983 39.5868 80.3695 40.609 80.6777 42.0029L81.6023 41.5693C81.6023 41.5693 82.4653 43.6756 82.5269 45.1315C82.6194 46.5873 82.4961 47.9812 82.4961 47.9812L85.0233 48.26L87.6122 57.4598C95.194 47.7954 100.218 37.6044 92.2353 28.2187C89.8929 25.4619 84.5919 26.1743 84.5919 26.1743C84.5919 26.1743 82.5577 22.4573 77.1642 22.1475C66.408 21.559 62.1856 23.6653 61.1686 30.1702C60.7987 32.5553 63.2027 35.56 63.2027 35.56L72.8494 35.8697" fill="#263238"/>
<path d="M83.4824 49.2513C83.4824 49.2513 86.0097 44.543 88.6294 45.6891C91.2491 46.8352 89.4307 52.4727 87.15 54.3313C84.8693 56.1588 83.4824 54.3313 83.4824 54.3313" fill="white"/>
<path d="M83.4824 49.2513C83.4824 49.2513 86.0097 44.543 88.6294 45.6891C91.2491 46.8352 89.4307 52.4727 87.15 54.3313C84.8693 56.1588 83.4824 54.3313 83.4824 54.3313" stroke="#263238" stroke-miterlimit="10" stroke-linecap="round" stroke-linejoin="round"/>
<path d="M19.5615 72.8858C19.5615 72.8858 28.7767 65.7614 32.8142 65.0179C36.8516 64.2745 50.659 67.3411 50.659 67.3411V83.8202C50.659 83.8202 41.9986 84.7804 38.1152 87.6302C34.2319 90.48 20.856 90.9446 20.856 90.9446L19.5615 72.8858Z" fill="#757575" stroke="#263238" stroke-miterlimit="10" stroke-linecap="round" stroke-linejoin="round"/>
<path d="M28.2219 67.7747C28.2219 67.7747 28.4377 65.6684 28.7459 64.5223C29.0849 63.3762 31.3039 63.5001 31.7971 63.9028C32.2902 64.3055 32.7833 65.0179 32.7833 65.0179C32.7833 65.0179 32.0128 65.2347 31.7971 65.3277C31.6121 65.3896 31.3964 69.6023 28.2219 67.7747Z" fill="white" stroke="#263238" stroke-miterlimit="10" stroke-linecap="round" stroke-linejoin="round"/>
<path d="M44.0183 73.9327L53.2656 47.2916L40.0095 42.6903L30.7622 69.3314L44.0183 73.9327Z" fill="#BD5FFF"/>
<path opacity="0.5" d="M30.8108 69.4163L44.0018 74.0007L53.1862 47.2067L39.9952 42.6533L30.8108 69.4163ZM51.7993 47.8882L43.3238 72.6068L32.1977 68.7348L40.6732 44.0163L51.7993 47.8882Z" fill="black" fill-opacity="0.7"/>
<path opacity="0.5" d="M41.9675 46.1226L40.8272 49.437C40.7039 49.8087 40.3032 49.9946 39.9334 49.8707C39.5635 49.7468 39.3786 49.3441 39.5019 48.9724L40.6422 45.658C40.7655 45.2863 41.1662 45.1004 41.536 45.2243C41.875 45.3482 42.0908 45.7509 41.9675 46.1226Z" fill="black" fill-opacity="0.7"/>
<path opacity="0.5" d="M44.5256 67.6507L43.3853 70.9651C43.262 71.3368 42.8613 71.5227 42.4915 71.3987C42.1217 71.2748 41.9367 70.8722 42.06 70.5005L43.2004 67.1861C43.3236 66.8143 43.7243 66.6285 44.0941 66.7524C44.4332 66.8763 44.6489 67.31 44.5256 67.6507Z" fill="black" fill-opacity="0.7"/>
<path d="M40.9443 27.3071L33.6455 0.067627L20.0917 3.69937L27.3905 30.9389L40.9443 27.3071Z" fill="#BD5FFF"/>
<path opacity="0.5" d="M33.6462 0L20.147 3.59318L27.3897 30.9757L40.8889 27.3825L33.6462 0ZM28.1602 29.6437L21.4722 4.36757L32.8449 1.33195L39.5328 26.5771L28.1602 29.6437Z" fill="black" fill-opacity="0.7"/>
<path opacity="0.5" d="M37.3138 25.5859L36.42 22.2096C36.3276 21.8379 36.5433 21.4352 36.9132 21.3423C37.283 21.2493 37.6837 21.4662 37.7761 21.8379L38.6699 25.2142C38.7624 25.5859 38.5466 25.9886 38.1768 26.0815C37.8069 26.1745 37.4063 25.9576 37.3138 25.5859Z" fill="black" fill-opacity="0.7"/>
<path opacity="0.5" d="M23.2289 9.13781L22.3351 5.76146C22.2426 5.38975 22.4584 4.98707 22.8282 4.89414C23.198 4.80122 23.5987 5.01805 23.6912 5.38975L24.5849 8.7661C24.6774 9.13781 24.4617 9.54049 24.0918 9.63342C23.722 9.75732 23.3521 9.50952 23.2289 9.13781Z" fill="black" fill-opacity="0.7"/>
<path d="M19.5615 72.8856C19.5615 72.8856 32.9375 68.3632 36.5434 67.7127C40.1494 67.0622 50.659 67.341 50.659 67.341V83.8201C50.659 83.8201 39.6563 87.1654 37.9611 88.4974C36.266 89.8293 20.8252 90.9445 20.8252 90.9445L19.5615 72.8856Z" fill="#999999" stroke="#263238" stroke-miterlimit="10" stroke-linecap="round" stroke-linejoin="round"/>
<path d="M37.8071 74.8372C37.0983 78.6472 37.6222 83.7582 35.095 86.8558" stroke="#263238" stroke-miterlimit="10" stroke-linecap="round" stroke-linejoin="round"/>
<path d="M38.9783 69.0757C38.7009 70.3147 38.4543 71.5537 38.2078 72.8237" stroke="#263238" stroke-miterlimit="10" stroke-linecap="round" stroke-linejoin="round"/>
<path d="M60.1208 75.6116C59.3503 74.2177 57.162 74.8991 54.6348 78.926C52.0767 82.9528 51.0597 87.6301 51.6761 89.3338C52.2925 91.0375 60.5214 93.1128 60.5214 93.1128L62.2165 88.7763L60.1208 75.6116Z" fill="#92E3A9"/>
<path opacity="0.5" d="M60.1208 75.6116C59.3503 74.2177 57.162 74.8991 54.6348 78.926C52.0767 82.9528 51.0597 87.6301 51.6761 89.3338C52.2925 91.0375 60.5214 93.1128 60.5214 93.1128L62.2165 88.7763L60.1208 75.6116Z" fill="#5C2682"/>
<path d="M60.1208 75.6116C59.3503 74.2177 57.162 74.8991 54.6348 78.926C52.0767 82.9528 51.0597 87.6301 51.6761 89.3338C52.2925 91.0375 60.5214 93.1128 60.5214 93.1128L62.2165 88.7763L60.1208 75.6116Z" stroke="#263238" stroke-miterlimit="10" stroke-linecap="round" stroke-linejoin="round"/>
<path d="M63.6034 84.0369L58.8879 73.6601C58.8879 73.6601 55.8059 69.2306 55.1895 67.5579C54.5731 65.8852 47.8234 64.5532 46.2824 64.5532C44.7414 64.5532 43.1388 67.3101 43.1388 67.3101H46.3133C46.3133 67.3101 47.4844 68.5491 47.6385 69.3235C47.7926 70.0669 43.447 73.815 42.7998 74.1557C42.1834 74.4964 40.5499 75.054 38.7931 76.355C37.0672 77.6559 33.1531 78.6472 32.4442 79.7933C31.7045 80.9394 32.2284 81.1562 32.7524 81.435C33.2763 81.7137 34.1393 81.7757 34.1393 81.7757C34.1393 81.7757 33.8311 83.0767 34.1393 83.7891C34.4475 84.4706 36.2659 84.4086 36.2659 84.4086C36.2659 84.4086 36.3583 85.3689 37.2521 85.5238C38.1459 85.6786 38.824 85.9264 38.824 85.9264C38.824 85.9264 42.5532 86.5769 44.2483 86.2052C45.9126 85.8335 51.0287 83.1077 52.2615 83.2316C53.4944 83.3555 56.9462 91.3782 56.9462 91.3782C56.9462 91.3782 62.8637 90.325 63.6034 84.0369Z" fill="white" stroke="#263238" stroke-miterlimit="10" stroke-linecap="round" stroke-linejoin="round"/>
<path d="M34.2007 81.7138C34.2007 81.7138 39.1011 80.6606 39.4093 80.2889C39.7175 79.9172 43.1385 78.833 43.1385 78.833" stroke="#263238" stroke-miterlimit="10" stroke-linecap="round" stroke-linejoin="round"/>
<path d="M36.3276 84.3467C36.3276 84.3467 39.0706 83.7891 40.0261 83.6652C40.9815 83.5413 44.8956 81.7137 44.8956 81.7137" stroke="#263238" stroke-miterlimit="10" stroke-linecap="round" stroke-linejoin="round"/>
<path d="M38.8547 85.8645C38.8547 85.8645 42.7381 85.5237 43.5394 85.152C44.3407 84.7803 46.7139 84.0369 46.7139 84.0369" stroke="#263238" stroke-miterlimit="10" stroke-linecap="round" stroke-linejoin="round"/>
<path d="M95.9954 79.4526C90.2629 83.2626 86.7802 92.4314 86.7802 92.4314L77.8424 109.189C77.8424 109.189 70.3223 90.5419 68.1649 90.2941L60.1208 75.6116C60.1208 75.6116 61.0762 84.2229 57.7168 87.878C54.3574 91.5331 51.6453 89.3339 51.6453 89.3339L54.1417 96.2724L54.7581 99.5868C54.7581 99.5868 65.3294 131.461 68.7813 133.412C72.2331 135.395 80.0923 136.262 86.7494 131.368C93.4066 126.474 104.81 107.919 105.889 101.848" fill="#BD5FFF"/>
<path d="M95.9954 79.4526C90.2629 83.2626 86.7802 92.4314 86.7802 92.4314L77.8424 109.189C77.8424 109.189 70.3223 90.5419 68.1649 90.2941L60.1208 75.6116C60.1208 75.6116 61.0762 84.2229 57.7168 87.878C54.3574 91.5331 51.6453 89.3339 51.6453 89.3339L54.1417 96.2724L54.7581 99.5868C54.7581 99.5868 65.3294 131.461 68.7813 133.412C72.2331 135.395 80.0923 136.262 86.7494 131.368C93.4066 126.474 104.81 107.919 105.889 101.848" stroke="#263238" stroke-miterlimit="10" stroke-linecap="round" stroke-linejoin="round"/>
<path d="M64.9287 92.5243C65.2061 92.0907 65.4835 91.626 65.73 91.1614" stroke="#263238" stroke-miterlimit="10" stroke-linecap="round" stroke-linejoin="round"/>
<path d="M58.1484 96.8609C60.4599 96.6131 62.5865 95.4051 64.0659 93.6395" stroke="#263238" stroke-miterlimit="10" stroke-linecap="round" stroke-linejoin="round"/>
<path d="M54.1724 96.2723C55.0661 96.644 56.0216 96.8609 56.977 96.8919" stroke="#263238" stroke-miterlimit="10" stroke-linecap="round" stroke-linejoin="round"/>
<path d="M80.1847 116.592C80.2155 117.367 80.1847 118.141 79.9998 118.885" stroke="#263238" stroke-miterlimit="10" stroke-linecap="round" stroke-linejoin="round"/>
<path d="M77.8423 109.189C78.8902 111.017 79.6915 113.092 80.0305 115.198" stroke="#263238" stroke-miterlimit="10" stroke-linecap="round" stroke-linejoin="round"/>
<path d="M82.8045 112.194C82.8045 112.194 81.171 110.149 79.3218 109.189" stroke="#263238" stroke-miterlimit="10" stroke-linecap="round" stroke-linejoin="round"/>
<path d="M96.951 87.878C96.951 87.878 91.8965 87.1965 87.9207 91.8428" stroke="#263238" stroke-miterlimit="10" stroke-linecap="round" stroke-linejoin="round"/>
<path d="M102.283 102.065C101.327 102.189 100.341 102.065 99.4473 101.6" stroke="#263238" stroke-miterlimit="10" stroke-linecap="round" stroke-linejoin="round"/>
<path d="M108.354 95.2502C107.553 99.0912 105.426 101.043 103.577 101.724" stroke="#263238" stroke-miterlimit="10" stroke-linecap="round" stroke-linejoin="round"/>
<path d="M84.5611 73.4122C84.5611 73.4122 76.178 75.3637 71.5242 72.2352" stroke="#263238" stroke-miterlimit="10" stroke-linecap="round" stroke-linejoin="round"/>
<path d="M54.5732 124.863C54.5732 124.863 59.1346 137.811 69.6751 140.01" stroke="#263238" stroke-miterlimit="10" stroke-linecap="round" stroke-linejoin="round"/>
<path d="M85.0542 142.798C84.4995 143.2 83.9447 143.572 83.3591 143.944" stroke="#263238" stroke-miterlimit="10" stroke-linecap="round" stroke-linejoin="round"/>
<g opacity="0.5">
<g opacity="0.5">
<path opacity="0.5" d="M40.4885 55.9731L44.6184 57.5838L44.2485 58.5441L41.3514 59.5353L43.5397 60.4026L43.1082 61.5487L38.9783 59.938L39.3481 58.9777L42.2452 57.9865L40.057 57.1192L40.4885 55.9731Z" fill="#1D3F03"/>
</g>
</g>
<path opacity="0.2" d="M42.4927 56.0877L41.3428 55.6413L39.5216 60.3799L40.6716 60.8263L42.4927 56.0877Z" fill="#1D3F03"/>
<path opacity="0.2" d="M43.9764 56.6491L42.8264 56.2027L41.0053 60.9413L42.1552 61.3878L43.9764 56.6491Z" fill="#1D3F03"/>
<g opacity="0.5">
<g opacity="0.5">
<path d="M27.9297 13.983L32.2137 12.8369L32.4911 13.8281L30.6727 16.3371L32.9534 15.7176L33.2616 16.8947L28.9776 18.0408L28.7002 17.0495L30.4878 14.5405L28.2071 15.16L27.9297 13.983Z" fill="#1D3F03"/>
</g>
</g>
<path opacity="0.2" d="M29.6321 12.8797L28.4407 13.198L29.7392 18.1073L30.9306 17.789L29.6321 12.8797Z" fill="#1D3F03"/>
<path opacity="0.2" d="M31.1438 12.4804L29.9524 12.7987L31.2509 17.708L32.4423 17.3897L31.1438 12.4804Z" fill="#1D3F03"/>
</svg>
