<svg width="131" height="160" viewBox="0 0 131 160" fill="none" xmlns="http://www.w3.org/2000/svg">
<g clip-path="url(#clip0)">
<path d="M107.718 35.5156C107.783 34.5027 107.815 33.4899 107.815 32.5097L118.594 24.9949C118.887 24.7661 118.919 24.3414 118.626 24.08L98.4372 7.93952C97.9488 7.51477 96.8417 6.66527 96.8417 6.66527C90.036 1.76431 80.4626 0.424711 69.1959 3.594C38.2287 12.285 7.58712 48.8789 2.60501 81.6826C0.293056 96.8102 3.87496 108.278 11.5598 114.715L11.69 114.846C11.8528 114.976 30.4787 129.875 33.6699 132.424C33.9304 132.62 34.2886 132.555 34.484 132.293L40.8337 122.981L36.6657 119.747C39.7591 119.159 43.0154 118.211 46.4019 116.872C47.216 116.545 48.0626 116.185 48.8767 115.826C50.57 121.054 49.3 129.549 47.2486 137.684C46.8253 139.416 47.2811 140.461 48.1929 140.886L68.7074 157.353C68.9679 157.582 69.3913 157.484 69.5541 157.19L72.8429 151.276L75.8712 124.223L63.6928 122.361L93.9761 74.5599C101.726 61.9808 106.838 48.3234 107.718 35.5156Z" fill="#5C2682"/>
<path d="M68.6746 159.379C68.2513 159.314 67.8605 159.15 67.5024 158.856L47.1506 142.487C45.783 141.736 44.6759 140.004 45.3922 137.194C47.4437 129.091 48.1601 122.687 47.5088 118.472C47.3786 118.538 47.2158 118.571 47.0855 118.636C45.0341 119.42 43.0152 120.106 40.9963 120.662L43.4059 122.557L36.0467 133.339C35.656 133.894 35.0373 134.286 34.3535 134.384C33.6697 134.482 32.9858 134.286 32.4648 133.862L29.3714 131.411C23.0868 126.379 10.5827 116.381 10.4524 116.283C1.7907 108.997 -1.62839 96.6469 0.68357 81.3559C5.86105 47.6699 37.6097 10.4553 68.6746 1.7643C80.1041 -1.43767 90.5242 -0.228762 97.9485 5.12962C97.9811 5.16229 99.1534 6.04447 99.6744 6.50189L119.831 22.6097C120.449 23.0998 120.775 23.8513 120.775 24.6354C120.742 25.4196 120.352 26.1384 119.733 26.5958L109.769 33.5552C109.769 34.2413 109.736 34.9601 109.671 35.6463C108.825 48.2907 103.973 62.1114 95.6366 75.5727L66.8837 120.89L77.955 122.589L74.6662 151.864L71.182 158.105C70.8238 158.726 70.2051 159.183 69.4887 159.346C69.2282 159.412 68.9351 159.412 68.6746 159.379ZM50.0162 113.212L50.6674 115.205C52.2304 120.041 51.7094 127.752 49.0718 138.142C48.8765 138.893 49.0067 139.187 49.0067 139.187L49.3323 139.383L68.6095 154.87L70.954 150.688L73.7218 125.857L60.4688 123.831L92.3152 73.547C100.326 60.6085 104.982 47.4086 105.764 35.3849C105.829 34.4047 105.861 33.4572 105.861 32.5097V31.5295L115.956 24.5047L97.2322 9.47514C96.7112 9.01772 95.6691 8.23356 95.6691 8.23356C89.124 3.52864 80.1367 2.54845 69.6841 5.48902C39.8891 13.788 9.44295 49.565 4.49341 81.9767C2.37683 95.8954 5.30748 106.972 12.7644 113.245C13.1225 113.539 25.4964 123.439 31.781 128.438L33.7022 129.973L38.2284 123.373L32.1392 118.636L36.2747 117.852C39.3356 117.264 42.4942 116.316 45.6853 115.074C46.4994 114.748 47.2809 114.421 48.095 114.062L50.0162 113.212Z" fill="#2D0649"/>
<path d="M92.1201 77.5984L93.9436 74.7232C101.726 62.1441 106.838 48.4868 107.685 35.6789C107.75 34.6334 107.783 33.6532 107.783 32.673L118.561 25.1582C118.854 24.9295 118.887 24.5047 118.594 24.2433L98.4047 8.10285C97.9162 7.6781 96.8091 6.8286 96.8091 6.8286C90.0035 1.92764 80.43 0.588042 69.1633 3.75733C55.7149 7.51473 42.3642 16.5652 31.0974 28.2621L92.1201 77.5984Z" fill="#CD9FED"/>
<path d="M92.6085 80.441L28.2645 28.4254L29.7298 26.9225C41.7129 14.474 55.5195 5.58697 68.6423 1.89491C80.0718 -1.30705 90.4594 -0.0981463 97.9162 5.26024C97.9488 5.29291 99.1211 6.17508 99.6421 6.6325L119.766 22.7403C120.385 23.2304 120.71 23.9819 120.71 24.7661C120.678 25.5502 120.287 26.269 119.668 26.7264L109.671 33.6858C109.671 34.3719 109.639 35.0907 109.574 35.7769C108.727 48.4214 103.875 62.2421 95.5391 75.7034L92.6085 80.441ZM33.963 28.0987L91.6642 74.7558L92.348 73.7103C100.358 60.7718 105.015 47.5719 105.796 35.5482C105.862 34.568 105.894 33.6205 105.894 32.6729V31.6927L115.989 24.668L97.1999 9.6711C96.6788 9.21368 95.6368 8.42952 95.6368 8.42952C89.0917 3.7246 80.1044 2.74441 69.6517 5.68499C57.7338 8.95229 45.0994 16.8918 33.963 28.0987Z" fill="#2D0649"/>
<path d="M115.24 91.5828C123.022 79.0037 128.134 65.3463 128.981 52.5385C130.642 27.4455 114.393 13.9189 90.4594 20.6496C59.4922 29.3079 28.8832 65.9017 23.8685 98.7055C19.1794 129.451 38.7822 145.199 67.6654 133.894C68.4795 133.568 69.3261 133.241 70.1402 132.849C71.8334 138.077 70.5635 146.572 68.512 154.707C67.3723 159.216 72.387 159.216 75.2525 154.707L115.24 91.5828Z" fill="#2D0649"/>
<path d="M69.6843 159.967C69.3587 159.902 69.0005 159.837 68.7074 159.673C67.2095 159.02 65.907 157.255 66.656 154.249C68.7074 146.146 69.4238 139.775 68.7726 135.528C68.6423 135.593 68.4795 135.626 68.3492 135.691C53.7286 141.409 40.8011 140.657 31.9766 133.567C23.1521 126.477 19.6028 113.996 21.9799 98.4112C27.1248 64.6926 58.8735 27.4779 89.9384 18.7869C102.052 15.3889 112.863 16.9245 120.385 23.0671C128.004 29.275 131.749 39.7957 130.87 52.6689C130.023 65.3133 125.171 79.134 116.835 92.5953V92.628L76.8481 155.752C74.992 158.66 72.094 160.327 69.6843 159.967ZM71.3124 130.267L71.9637 132.26C73.5267 137.096 73.0057 144.807 70.3681 155.197C70.1728 155.948 70.303 156.242 70.303 156.242C70.5635 156.308 72.2568 155.85 73.6244 153.694L113.611 90.5696C121.622 77.6311 126.278 64.4312 127.06 52.4075C127.841 40.8085 124.618 31.464 117.975 26.0403C111.43 20.7146 101.824 19.4404 90.9478 22.479C61.1529 30.8433 30.7067 66.5876 25.7571 98.9993C23.608 113.147 26.6689 124.354 34.3863 130.561C42.1036 136.769 53.6634 137.292 66.9816 132.097C67.7957 131.77 68.5772 131.444 69.3912 131.084L71.3124 130.267Z" fill="#2D0649"/>
<path d="M2.24682 88.2495L23.5103 105.272L2.24682 88.2495Z" fill="#5C2682"/>
<path d="M3.42116 86.7205L1.02427 89.7339L22.3014 106.773L24.6982 103.759L3.42116 86.7205Z" fill="#2D0649"/>
<path d="M71.0194 3.39771L92.2829 20.4204L71.0194 3.39771Z" fill="#5C2682"/>
<path d="M72.2279 1.88738L69.8306 4.90039L91.1049 21.942L93.5022 18.929L72.2279 1.88738Z" fill="#2D0649"/>
<path d="M64.6045 64.3917C62.5205 65.4373 60.6319 68.5411 60.469 71.253L59.134 93.2094C58.9712 95.9212 60.5667 97.2935 62.6508 96.2479L90.6873 82.2313C92.7713 81.1857 94.66 78.0817 94.8228 75.3698L96.1578 53.4136C96.3207 50.7017 94.7251 49.3295 92.6411 50.375L64.6045 64.3917ZM64.6696 67.5609L92.1526 53.8384L78.2809 75.2719C77.7599 76.0887 77.2063 76.3501 76.7504 76.056L64.6696 67.5609ZM62.9438 70.959L71.0519 76.6441L61.6739 91.837L62.9438 70.959ZM93.5203 55.6681L92.2503 76.546L84.2073 70.0768L93.5203 55.6681ZM82.1558 73.2135L89.8407 79.4212L63.8556 92.3925L72.8429 77.8857L74.8618 79.3233C76.1643 80.2382 78.3134 79.1599 79.8113 76.8401L82.1558 73.2135Z" fill="#CD9FED"/>
</g>
<defs>
<clipPath id="clip0">
<rect width="131" height="160" fill="white"/>
</clipPath>
</defs>
</svg>
