<svg width="34" height="34" viewBox="0 0 34 34" fill="none" xmlns="http://www.w3.org/2000/svg">
<path d="M16.741 9.43265C16.6662 9.43265 16.5846 9.43945 16.469 9.43945C15.857 9.43945 14.7554 9.37825 13.5655 9.01787V34.0001H20.7664V8.70508C19.2637 9.33745 17.7541 9.43945 16.9993 9.43945C16.8837 9.43945 16.8022 9.43945 16.741 9.43265Z" fill="#A329FA"/>
<path d="M31.0272 33.3196V15.9463H22.1263V33.9996H30.3472C30.7212 33.9996 31.0272 33.6936 31.0272 33.3196Z" fill="#A329FA"/>
<path d="M22.9491 7.26953C22.6907 7.52792 22.4119 7.75911 22.1263 7.9563V14.586H32.7951C33.1691 14.586 33.4751 14.2801 33.4751 13.9061V7.39872C33.4751 7.02474 33.1691 6.71875 32.7951 6.71875H23.4591C23.2959 6.90234 23.1259 7.08594 22.9491 7.26953Z" fill="#A329FA"/>
<path d="M0.679974 14.586H12.2123V8.47988C11.6208 8.17389 11.0428 7.78631 10.5328 7.26953C10.3492 7.09274 10.1792 6.90234 10.016 6.71875H0.679974C0.305988 6.71875 0 7.02474 0 7.39872V13.9061C0 14.2801 0.305988 14.586 0.679974 14.586Z" fill="#A329FA"/>
<path d="M2.4411 33.3196C2.4411 33.6936 2.74709 33.9996 3.12107 33.9996H12.2123V15.9463H2.4411V33.3196Z" fill="#A329FA"/>
<path d="M23.5475 0.586037C22.3575 -0.603917 19.896 0.0692566 17.8153 2.14318C17.3393 2.62596 16.9925 3.17674 16.7342 3.74792C16.4826 3.17674 16.129 2.62596 15.653 2.14318C13.5791 0.0692566 11.1108 -0.603917 9.92761 0.586037C8.73766 1.76919 9.41083 4.2307 11.4916 6.31142C13.1099 7.92975 15.6122 8.07935 16.4758 8.07935C16.6118 8.07935 16.6934 8.07255 16.7342 8.07255C16.7817 8.07255 16.8633 8.07935 16.9993 8.07935C17.8629 8.07935 20.3652 7.92975 21.9835 6.31142C24.0575 4.2307 24.7306 1.76919 23.5475 0.586037Z" fill="#A329FA"/>
</svg>
