<svg width="31" height="31" viewBox="0 0 31 31" fill="none" xmlns="http://www.w3.org/2000/svg">
<circle opacity="0.1" cx="15.5" cy="15.5" r="15.5" fill="#5C2682"/>
<path fill-rule="evenodd" clip-rule="evenodd" d="M22.0308 16.2768V20.2403C22.0308 21.2119 21.2415 21.9995 20.2679 21.9995H9.69099C8.71747 21.9995 7.92816 21.2119 7.92816 20.2403V16.2768L13.6573 17.0603V17.4545C13.6573 18.1847 14.2493 18.7767 14.9795 18.7767C15.7097 18.7767 16.3016 18.1847 16.3016 17.4545V17.0603L22.0308 16.2768ZM22.0308 13.2034V15.392L16.3016 16.1755V16.0511C16.3016 15.3209 15.7097 14.729 14.9795 14.729C14.2493 14.729 13.6573 15.3209 13.6573 16.0511V16.1755L7.92816 15.392V13.2034C7.92816 12.2318 8.71747 11.4442 9.69099 11.4442H10.5724V9.68497C10.5724 8.71344 11.3617 7.92578 12.3352 7.92578H17.6237C18.5972 7.92578 19.3865 8.71344 19.3865 9.68497V11.4442H20.2679C21.2415 11.4442 22.0308 12.2318 22.0308 13.2034ZM14.9795 15.9276C15.1958 15.9276 15.3712 16.1029 15.3712 16.3193V17.4945C15.3712 17.7109 15.1958 17.8862 14.9795 17.8862C14.7631 17.8862 14.5877 17.7109 14.5877 17.4945V16.3193C14.5877 16.1029 14.7631 15.9276 14.9795 15.9276ZM11.7293 11.4442H18.2297V9.95984C18.2297 9.47537 17.8346 9.08015 17.3483 9.08015H12.6107C12.1248 9.08015 11.7293 9.47537 11.7293 9.95984V11.4442Z" fill="#5C2682"/>
</svg>
