<svg width="29" height="29" viewBox="0 0 29 29" fill="none" xmlns="http://www.w3.org/2000/svg">
<circle cx="14.069" cy="14.069" r="14.069" fill="#5C2682"/>
<path d="M14.069 12.3105C13.6026 12.3105 13.1552 12.4958 12.8254 12.8256C12.4956 13.1554 12.3104 13.6027 12.3104 14.0691C12.3104 14.5355 12.4956 14.9828 12.8254 15.3126C13.1552 15.6424 13.6026 15.8277 14.069 15.8277C14.5354 15.8277 14.9827 15.6424 15.3125 15.3126C15.6423 14.9828 15.8276 14.5355 15.8276 14.0691C15.8276 13.6027 15.6423 13.1554 15.3125 12.8256C14.9827 12.4958 14.5354 12.3105 14.069 12.3105ZM14.069 11.1381C14.8463 11.1381 15.5919 11.4469 16.1415 11.9965C16.6912 12.5462 17 13.2917 17 14.0691C17 14.8465 16.6912 15.592 16.1415 16.1417C15.5919 16.6913 14.8463 17.0001 14.069 17.0001C13.2916 17.0001 12.5461 16.6913 11.9964 16.1417C11.4467 15.592 11.1379 14.8465 11.1379 14.0691C11.1379 13.2917 11.4467 12.5462 11.9964 11.9965C12.5461 11.4469 13.2916 11.1381 14.069 11.1381ZM17.8793 10.9915C17.8793 11.1859 17.8021 11.3722 17.6647 11.5097C17.5273 11.6471 17.3409 11.7243 17.1466 11.7243C16.9522 11.7243 16.7658 11.6471 16.6284 11.5097C16.491 11.3722 16.4138 11.1859 16.4138 10.9915C16.4138 10.7972 16.491 10.6108 16.6284 10.4734C16.7658 10.336 16.9522 10.2588 17.1466 10.2588C17.3409 10.2588 17.5273 10.336 17.6647 10.4734C17.8021 10.6108 17.8793 10.7972 17.8793 10.9915ZM14.069 9.37944C12.6187 9.37944 12.3819 9.38355 11.7071 9.41344C11.2476 9.43513 10.9392 9.49669 10.6532 9.60807C10.3987 9.70655 10.2153 9.82438 10.02 10.0202C9.83657 10.1974 9.6955 10.4139 9.60736 10.6533C9.49598 10.9405 9.43443 11.2483 9.41332 11.7073C9.38284 12.3544 9.37932 12.5807 9.37932 14.0691C9.37932 15.5194 9.38343 15.7562 9.41332 16.4309C9.43501 16.8899 9.49656 17.1989 9.60736 17.4843C9.70701 17.7393 9.82425 17.9228 10.0189 18.1174C10.2164 18.3144 10.3999 18.4322 10.652 18.5295C10.9416 18.6415 11.2499 18.7036 11.7071 18.7248C12.3543 18.7552 12.5806 18.7588 14.069 18.7588C15.5193 18.7588 15.7561 18.7547 16.4308 18.7248C16.8892 18.7031 17.1981 18.6415 17.4842 18.5307C17.738 18.4317 17.9227 18.3138 18.1173 18.1192C18.3149 17.9217 18.4327 17.7382 18.53 17.4861C18.6414 17.1971 18.7035 16.8882 18.7246 16.4309C18.7551 15.7838 18.7586 15.5575 18.7586 14.0691C18.7586 12.6188 18.7545 12.382 18.7246 11.7073C18.7029 11.2489 18.6414 10.9393 18.53 10.6533C18.4417 10.4141 18.3008 10.1978 18.1179 10.0202C17.9407 9.8366 17.7243 9.69551 17.4848 9.60748C17.1976 9.4961 16.8892 9.43455 16.4308 9.41344C15.7836 9.38296 15.5574 9.37944 14.069 9.37944ZM14.069 8.20703C15.6617 8.20703 15.8604 8.21289 16.4853 8.2422C17.1096 8.27151 17.5346 8.36941 17.9086 8.51479C18.2955 8.66369 18.6215 8.86534 18.9474 9.19069C19.2455 9.48373 19.4761 9.8382 19.6233 10.2294C19.7681 10.6029 19.8666 11.0284 19.8959 11.6528C19.9234 12.2777 19.931 12.4764 19.931 14.0691C19.931 15.6618 19.9252 15.8605 19.8959 16.4854C19.8666 17.1098 19.7681 17.5348 19.6233 17.9088C19.4765 18.3002 19.2458 18.6548 18.9474 18.9475C18.6543 19.2455 18.2998 19.4761 17.9086 19.6234C17.5352 19.7682 17.1096 19.8667 16.4853 19.896C15.8604 19.9235 15.6617 19.9312 14.069 19.9312C12.4763 19.9312 12.2775 19.9253 11.6526 19.896C11.0283 19.8667 10.6033 19.7682 10.2293 19.6234C9.83793 19.4765 9.48339 19.2459 9.19056 18.9475C8.89242 18.6545 8.66177 18.3 8.51467 17.9088C8.36929 17.5353 8.27139 17.1098 8.24208 16.4854C8.21453 15.8605 8.20691 15.6618 8.20691 14.0691C8.20691 12.4764 8.21277 12.2777 8.24208 11.6528C8.27139 11.0279 8.36929 10.6034 8.51467 10.2294C8.66136 9.83796 8.89207 9.48339 9.19056 9.19069C9.48347 8.89244 9.83799 8.66177 10.2293 8.51479C10.6033 8.36941 11.0277 8.27151 11.6526 8.2422C12.2775 8.21465 12.4763 8.20703 14.069 8.20703Z" fill="white"/>
</svg>
