<svg width="256" height="167" viewBox="0 0 256 167" fill="none" xmlns="http://www.w3.org/2000/svg">
<path d="M128.932 102.976C128.932 102.976 123.482 152.022 125.134 167.401C126.785 182.779 127.391 200.355 127.391 200.355H150.127C150.127 200.355 151.779 181.516 149.026 166.961L150.127 144.498L166.643 200.355H188.829C188.829 200.355 191.141 181.131 181.507 164.654C177.378 157.569 178.919 126.867 167.579 102.976H128.932Z" fill="#4D60A4"/>
<path d="M132.511 161.963C132.511 156.306 129.428 151.692 125.629 151.692C125.409 151.692 125.244 151.692 125.024 151.747C124.803 158.173 124.748 163.775 125.189 167.455C125.354 169.048 125.519 170.641 125.684 172.234C129.428 172.179 132.511 167.62 132.511 161.963Z" fill="#3C4A77"/>
<path d="M150.127 144.553C150.127 144.553 137.465 133.513 142.145 102.976" stroke="#3C4A77" stroke-miterlimit="10" stroke-linecap="round" stroke-linejoin="round"/>
<path d="M167.557 172.069C170.812 171.451 172.622 166.602 171.6 161.238C170.577 155.874 167.108 152.027 163.852 152.645C160.597 153.263 158.787 158.112 159.809 163.476C160.832 168.84 164.301 172.687 167.557 172.069Z" fill="#3C4A77"/>
<path d="M137.906 102.976C137.906 102.976 133.226 125.439 142.255 127.746" stroke="#3C4A77" stroke-miterlimit="10" stroke-linecap="round" stroke-linejoin="round"/>
<path d="M160.312 102.976L165.927 124.78L175.286 127.801" stroke="#3C4A77" stroke-miterlimit="10" stroke-linecap="round" stroke-linejoin="round"/>
<path d="M184.755 200.409C184.755 200.409 182.443 177.396 177.653 164.983C172.864 152.516 171.377 126.537 171.377 126.537" stroke="#3C4A77" stroke-miterlimit="10" stroke-linecap="round" stroke-linejoin="round"/>
<path d="M145.613 200.409L142.805 167.785C142.695 166.631 142.695 165.533 142.86 164.38L145.668 138.071" stroke="#3C4A77" stroke-miterlimit="10" stroke-linecap="round" stroke-linejoin="round"/>
<path d="M130.914 18.0092C130.143 17.9543 129.538 18.3937 128.877 18.2838C129.593 17.1853 130.529 15.977 130.859 14.604C131.079 13.5055 131.079 12.2423 130.859 11.0889C130.804 10.7593 130.419 9.55101 129.868 9.82562C129.428 10.0453 129.428 11.8578 129.428 12.2972C129.263 11.4733 129.263 10.5946 128.932 9.7707C128.767 9.33132 128.437 8.61731 127.996 8.39762C127.06 7.95823 127.501 10.1552 127.611 10.5946C127.501 10.2101 126.84 8.45254 126.235 9.44116C125.739 10.3199 126.51 11.7479 126.29 12.6267C126.07 12.0226 125.464 9.99039 124.528 10.1002C123.867 10.1552 124.308 11.4184 124.418 11.8578C124.583 12.407 124.803 13.1759 124.363 13.6153C124.143 13.835 123.867 13.9998 123.647 14.2195C123.372 14.4941 123.207 14.8236 122.987 15.1532C122.436 15.977 122.106 16.746 122.051 17.7346C120.564 18.2838 109.884 22.7326 105.535 35.0903C100.911 48.3818 101.737 52.2813 107.627 56.4006C110.27 58.268 115.334 62.3872 120.069 66.3417C121.61 60.7395 123.812 52.9404 125.024 48.4367L118.527 44.7019C118.527 44.7019 122.546 26.5772 125.904 21.5243C126.565 21.2497 127.226 21.2497 127.941 20.9751C128.932 20.6455 129.593 19.602 130.639 19.3823C131.024 19.3274 132.676 19.602 132.731 19.0527C132.841 18.3937 131.355 18.0641 130.914 18.0092Z" fill="#E6817D"/>
<path d="M118.472 44.7568C118.472 44.7568 110.215 48.6015 104.765 54.0389C105.535 54.8627 106.471 55.6866 107.627 56.4555C110.27 58.3229 115.334 62.4421 120.069 66.3966C121.61 60.7944 123.812 52.9953 125.024 48.4916L118.472 44.7568Z" fill="#AA3F37"/>
<path d="M123.262 18.9432C123.262 18.9432 124.198 15.7027 128.877 18.2292" stroke="#D85145" stroke-miterlimit="10" stroke-linecap="round" stroke-linejoin="round"/>
<path d="M124.363 13.6704C124.363 13.6704 126.73 13.3409 128.492 14.7139" stroke="#D85145" stroke-miterlimit="10" stroke-linecap="round" stroke-linejoin="round"/>
<path d="M173.965 117.146C173.965 117.146 172.919 114.18 171.542 110.28L169.836 117.64C172.974 115.882 173.965 117.146 173.965 117.146Z" fill="#00918C"/>
<path d="M170.221 106.545C167.964 100.064 165.542 92.7596 165.542 91.6611C165.542 89.574 165.982 86.5532 165.982 86.5532L171.157 99.3504L188.443 93.4186C186.902 89.5191 184.204 82.7635 181.066 76.3375C176.772 67.6047 170.496 60.0253 158.605 58.3776L154.917 57.389L155.357 54.8625L141.594 53.764L141.209 56.5102L118.417 44.8115C110.655 53.3796 112.031 57.334 108.013 62.1673C113.793 67.0005 127.501 74.2504 127.501 74.2504C127.501 74.2504 126.51 89.6839 126.51 100.723C126.51 107.204 123.647 112.807 123.647 112.807C123.647 112.807 132.235 119.288 140.328 120.606L145.613 113.905L147.54 123.517C147.54 123.517 158.55 127.251 165.266 121.045C166.092 120.331 166.808 119.672 167.469 119.178C168.294 118.574 169.01 118.079 169.671 117.695C172.864 115.937 173.8 117.2 173.8 117.2C173.8 117.2 172.754 114.235 171.377 110.335C171.102 109.127 170.662 107.809 170.221 106.545Z" fill="#00918C"/>
<path d="M141.649 53.709C141.649 53.709 144.457 56.4002 147.925 56.9495C147.925 56.9495 148.751 57.3888 155.412 54.8075L141.649 53.709Z" fill="#3C4A77"/>
<path d="M145.723 113.85C145.723 113.85 141.484 87.6514 145.723 68.7577C145.723 68.7577 147.595 61.2332 147.76 56.9492" stroke="#007F7A" stroke-miterlimit="10" stroke-linecap="round" stroke-linejoin="round"/>
<path d="M127.556 74.1408C127.556 74.1408 128.492 65.0785 132.07 59.3115" stroke="#007F7A" stroke-miterlimit="10" stroke-linecap="round" stroke-linejoin="round"/>
<path d="M165.982 86.4979L167.634 72.6572" stroke="#007F7A" stroke-miterlimit="10" stroke-linecap="round" stroke-linejoin="round"/>
<path d="M113.408 65.9024L122.821 47.2285" stroke="#007F7A" stroke-miterlimit="10" stroke-linecap="round" stroke-linejoin="round"/>
<path d="M169.12 94.1324L185.691 86.498" stroke="#007F7A" stroke-miterlimit="10" stroke-linecap="round" stroke-linejoin="round"/>
<path d="M162.388 73.7398L150.692 72.8975L150.474 75.9104L162.17 76.7527L162.388 73.7398Z" stroke="#007F7A" stroke-miterlimit="10" stroke-linecap="round" stroke-linejoin="round"/>
<path d="M141.264 56.4551L143.851 60.3546L147.76 57.3339L150.568 61.1785L155.027 57.3888" stroke="#007F7A" stroke-miterlimit="10" stroke-linecap="round" stroke-linejoin="round"/>
<path d="M188.774 94.9016L188.058 93.4736L173.579 98.4716L174.075 99.2955L169.01 121.1C168.404 122.253 167.028 122.583 165.817 122.858C165.156 122.967 164.606 123.132 164.165 123.681C163.395 124.45 163.505 125.549 162.899 126.428C162.624 126.867 161.688 128.02 163.009 127.691C163.67 127.526 164.331 126.702 164.771 126.208C165.652 125.219 166.533 125.055 167.744 125.274C168.955 125.494 170.221 125.878 171.432 126.153C172.258 126.373 173.029 126.812 173.855 126.977C174.295 125.988 174.625 125 174.845 123.956C175.396 123.572 186.241 116.432 189.489 99.7349C189.82 98.1421 189.544 96.3846 188.774 94.9016Z" fill="#E6817D"/>
<path d="M188.774 94.9016L188.058 93.4736L173.579 98.4716L174.075 99.2406L189.324 96.2198C189.214 95.7804 188.994 95.341 188.774 94.9016Z" fill="#AA3F37"/>
<path d="M145.173 47.668L144.182 55.5769C144.182 55.5769 145.778 56.6754 147.76 56.95C148.861 57.1148 149.246 57.0049 151.283 56.2909V48.2721L145.173 47.668Z" fill="#E6817D"/>
<path d="M145.173 47.668L144.732 51.1281C146.053 53.9842 151.283 54.1489 151.283 54.1489V48.2721L145.173 47.668Z" fill="#AA3F37"/>
<path d="M145.117 42.3406C145.117 42.3406 142.86 37.9468 141.594 40.4183C140.493 42.4505 142.64 44.7023 144.897 44.208L145.117 42.3406Z" fill="#AA3F37"/>
<path d="M151.503 42.7248C151.503 42.7248 154.586 38.8801 155.357 41.5714C156.018 43.7683 153.43 45.5259 151.338 44.5922L151.503 42.7248Z" fill="#AA3F37"/>
<path d="M143.466 43.274C142.64 42.6698 142.365 41.4066 142.255 40.4729C142.2 40.0335 142.09 39.5392 142.09 39.0998C142.09 38.7153 142.42 38.221 142.42 37.8915C141.264 37.7267 141.649 36.0241 142.035 35.365C142.86 34.1018 143.961 33.223 145.503 32.9484C146.329 32.7836 147.154 33.0033 147.98 33.1131C147.705 32.8935 147.54 32.6188 147.54 32.2344C147.76 33.0033 149.687 32.8935 150.292 33.0033C151.559 33.223 152.219 33.8821 152.77 34.9256C153.485 34.4313 154.972 35.0904 155.247 35.7495C155.687 36.793 155.302 38.0013 155.082 39.0998C154.807 40.363 155.027 42.1206 154.256 43.219C153.375 44.4823 150.733 43.8781 149.522 43.7133C148.09 43.5486 146.604 43.1641 145.173 43.274C144.732 43.274 143.961 43.219 143.466 43.274Z" fill="#233332"/>
<path d="M153.761 39.5944C153.761 38.9902 153.265 38.5509 152.66 38.6058C152.164 38.6607 151.614 38.7706 151.228 38.8804C150.953 38.9353 150.568 39.2099 150.347 39.2649C149.962 39.3198 149.356 38.8804 148.971 38.7706C149.081 38.8804 149.136 39.1001 149.191 39.2099C147.65 38.8255 145.998 38.441 144.402 38.1115C143.851 38.0016 143.301 38.3861 143.246 38.9902C143.136 40.1436 143.081 41.7913 143.081 42.011C143.521 48.8764 143.741 49.7552 147.87 50.4143C151.999 51.0734 153.1 46.2951 153.32 44.208C153.375 43.7686 153.375 43.1644 153.54 42.3406C153.595 42.1758 153.595 41.9561 153.595 41.7913C153.65 41.297 153.761 40.3084 153.761 39.5944Z" fill="#E6817D"/>
<path d="M143.136 42.835C143.301 42.9997 143.191 43.8785 143.136 44.1531C143.025 44.7573 142.805 45.3065 142.585 45.8557C142.09 47.1739 142.035 48.6019 142.915 49.7553C144.182 51.5128 147.154 51.8973 149.136 51.5128C150.127 51.2932 151.283 51.0185 151.999 50.3045C152.66 49.6455 152.99 48.7118 153.21 47.833C153.54 46.5148 153.761 44.8122 153.43 43.494C153.045 44.263 152.88 46.1304 151.779 46.3501C150.733 46.5697 150.623 45.5262 149.962 45.0868C149.246 44.5925 147.98 44.5376 147.154 44.5376C146.494 44.5376 145.888 44.7024 145.338 45.0868C145.007 45.3065 144.732 45.691 144.292 45.4713C143.521 45.1417 143.576 43.6039 143.136 42.835Z" fill="#233332"/>
<path d="M147.099 42.0658C147.099 42.3405 146.879 42.6151 146.549 42.6151C146.219 42.6151 145.998 42.3954 145.998 42.0658C145.998 41.7912 146.219 41.5166 146.549 41.5166C146.879 41.5166 147.099 41.7363 147.099 42.0658Z" fill="#233332"/>
<path d="M150.623 42.3402C150.623 42.6149 150.402 42.8895 150.072 42.8895C149.797 42.8895 149.522 42.6698 149.522 42.3402C149.522 42.0107 149.742 41.791 150.072 41.791C150.402 41.8459 150.623 42.0656 150.623 42.3402Z" fill="#233332"/>
<path d="M147.65 41.2971C147.815 41.6266 147.705 42.0111 147.705 42.3407C147.595 43.0547 147.43 43.7137 147.264 44.4277C147.154 44.9221 146.769 45.7459 146.989 46.2402C147.044 46.4599 147.32 46.6247 147.54 46.6247C148.09 46.6796 148.421 46.0754 148.586 45.6361L148.806 45.1417C149.026 44.6474 149.081 44.0433 148.971 43.494L148.586 41.2422H147.65V41.2971Z" fill="#E6817D"/>
<path d="M147.65 41.2979C147.815 41.6274 147.705 42.0119 147.705 42.3414C147.595 43.0554 147.43 43.7145 147.264 44.4285C147.154 44.9228 146.769 45.7466 146.989 46.2409C147.044 46.4606 147.32 46.6254 147.54 46.6254C148.09 46.6803 148.421 46.0762 148.586 45.6368" stroke="#AA3F37" stroke-miterlimit="10" stroke-linecap="round" stroke-linejoin="round"/>
<path d="M146.604 47.1191C146.989 47.4486 147.65 47.4486 148.09 47.3937C148.586 47.2838 148.861 46.9543 149.246 46.6797C149.136 47.4486 148.971 48.1077 148.09 48.3274C147.595 48.4372 146.934 48.3274 146.549 47.9429C146.659 47.7781 146.659 47.3388 146.604 47.1191Z" fill="#F9F9F9"/>
<path d="M145.668 40.4725C145.888 40.0331 146.769 40.088 146.989 40.3626" stroke="#233332" stroke-miterlimit="10" stroke-linecap="round" stroke-linejoin="round"/>
<path d="M149.467 40.693C149.632 40.5282 149.962 40.4183 150.292 40.4733C150.457 40.5282 150.898 40.693 150.898 40.8577" stroke="#233332" stroke-miterlimit="10" stroke-linecap="round" stroke-linejoin="round"/>
<path d="M38.9775 89.7393C38.9775 89.7393 35.3991 104.294 26.0403 127.636C16.6815 150.979 11.1763 203.431 11.1763 203.431H31.9309L58.2456 140.269L67.5494 202.057L84.8356 200.684C84.8356 200.684 94.8 150.979 87.6983 124.616C82.6886 105.942 78.3395 92.2108 78.3395 92.2108L38.9775 89.7393Z" fill="#233332"/>
<path d="M58.2456 140.269C58.2456 140.269 64.0811 119.838 63.4756 99.4062" stroke="#769494" stroke-miterlimit="10" stroke-linecap="round" stroke-linejoin="round"/>
<path d="M33.4723 107.644C33.4723 107.644 43.1614 107.04 46.6297 95.6162" stroke="#769494" stroke-miterlimit="10" stroke-linecap="round" stroke-linejoin="round"/>
<path d="M73.9905 97.7578C73.9905 97.7578 75.0915 107.095 83.1841 108.413" stroke="#769494" stroke-miterlimit="10" stroke-linecap="round" stroke-linejoin="round"/>
<path d="M62.6498 116.707C62.6498 116.707 66.7236 116.047 67.2191 113.521C67.6595 110.94 67.6044 99.0762 67.6044 99.0762" stroke="#769494" stroke-miterlimit="10" stroke-linecap="round" stroke-linejoin="round"/>
<path d="M38.427 91.661C38.427 91.661 48.6666 97.8673 59.5118 99.1306C70.357 100.394 79.3855 95.6155 79.3855 95.6155L73.2197 55.5215C73.2197 55.5215 64.3013 52.0613 58.1906 50.853C52.0248 49.6447 42.8311 49.6996 42.8311 49.6996C42.8311 49.6996 40.1886 83.8619 38.427 91.661Z" fill="#FADB81"/>
<path d="M104.599 35.8042C104.764 34.6508 104.985 33.058 105.59 32.0145C105.81 31.5751 106.196 31.3554 106.581 31.0808C107.132 30.6414 107.517 29.8725 107.792 29.2134C108.068 28.4994 108.288 27.7854 108.618 27.0714C108.783 26.7419 109.114 26.2476 109.114 25.918C109.114 25.3139 108.618 25.3688 108.233 25.6983C107.737 26.1926 107.737 27.1813 107.187 27.6206C107.022 27.7305 106.746 27.8953 106.581 27.7305C106.416 27.5108 106.801 27.0165 106.911 26.7968C107.077 26.5222 108.563 23.6662 107.132 23.9408C106.581 24.0506 106.251 25.3688 106.086 25.8631C105.921 26.3025 105.645 27.5657 105.04 27.5657C104.049 27.6206 106.141 23.8309 104.93 23.3915C104.104 23.062 103.884 24.6548 103.774 25.1491C103.718 25.4786 103.498 26.9616 103.113 26.9616C102.507 27.0165 103.388 23.8309 102.617 23.3366C101.626 22.7325 101.737 24.9843 101.682 25.4237C101.571 26.1926 101.406 26.9616 101.186 27.7854C101.131 28.0051 101.131 28.4994 100.856 28.6093C100.305 28.829 100.085 27.4009 99.9199 27.0714C99.7547 26.6869 99.6446 25.918 99.2042 25.7532C98.6537 25.5336 98.5436 26.1377 98.5986 26.5222C98.7087 27.346 98.984 28.1149 98.9289 28.9937C98.8739 29.8725 98.8739 30.5865 99.5896 31.1907C99.8648 31.4653 100.305 31.5202 100.525 31.8497C100.911 32.4539 100.911 33.4974 100.911 34.2114C100.911 34.9254 100.856 35.6394 100.911 36.2985C102.177 36.3534 103.333 36.2985 104.544 35.9141C104.489 35.969 104.434 36.0239 104.599 35.8042Z" fill="#E6817D"/>
<path d="M103.388 31.0812C103.388 31.0812 102.893 29.3785 100.856 28.5547" stroke="#D85145" stroke-miterlimit="10" stroke-linecap="round" stroke-linejoin="round"/>
<path d="M106.967 28.6096L101.957 27.1816" stroke="#D85145" stroke-miterlimit="10" stroke-linecap="round" stroke-linejoin="round"/>
<path d="M68.9807 95.3408V100.833C68.9807 100.833 72.0086 103.305 76.2476 102.92C80.4866 102.536 82.3033 102.096 82.3033 102.096L81.3123 95.3957H68.9807V95.3408Z" fill="#3C4A77"/>
<path d="M99.2592 36.9575L99.8648 31.8496C99.8648 31.8496 103.113 31.6299 106.361 33.3875L104.709 38.3855L99.2592 36.9575Z" fill="#3C4A77"/>
<path d="M61.6038 51.8423C61.6038 51.8423 64.9069 53.7097 64.9069 60.1357C64.9069 66.5617 63.916 94.7923 69.5863 97.2638C75.2566 99.7354 83.6245 99.8452 83.3493 94.7374C83.074 89.6295 79.3855 85.1258 79.2204 80.7319C79.0552 76.3381 78.2845 71.4499 78.2845 71.4499C78.2845 71.4499 94.5248 71.395 102.067 70.9556C103.718 70.8457 105.205 70.0219 106.141 68.7037C107.187 67.1659 108.343 64.8591 108.012 62.2228C107.517 58.0486 105.26 46.3499 106.361 39.9788C106.581 38.4959 105.7 37.0679 104.269 36.6285L100.36 35.3653C98.7087 34.816 97.0021 35.7497 96.5066 37.3425L91.6621 53.0506C91.6621 53.0506 85.7165 53.1604 80.7618 51.8972C74.2657 50.2495 67.5494 51.7324 67.5494 51.7324C67.5494 51.7324 70.302 50.634 70.302 49.0961C70.302 47.5583 61.6038 47.1738 61.6038 47.1738V51.8423Z" fill="#4D60A4"/>
<path d="M66.0079 54.4232C66.0079 54.4232 65.6226 52.7755 67.5494 51.6221" stroke="#3C4A77" stroke-miterlimit="10" stroke-linecap="round" stroke-linejoin="round"/>
<path d="M91.607 52.9951C91.607 52.9951 96.4516 53.5443 97.938 58.2128" stroke="#3C4A77" stroke-miterlimit="10" stroke-linecap="round" stroke-linejoin="round"/>
<path d="M75.642 80.7314C75.642 80.7314 80.5967 84.9605 81.8629 88.9699" stroke="#3C4A77" stroke-width="3" stroke-miterlimit="10"/>
<path d="M64.6867 40.2525C64.6867 40.2525 65.8978 38.6048 66.8888 39.1541C67.8797 39.7033 66.9989 42.6692 65.4574 42.7241L64.6867 40.2525Z" fill="#AA3F37"/>
<path d="M54.1718 42.6689L53.0157 50.8525C53.0157 50.8525 54.2268 55.7407 60.2275 56.6744C60.2275 56.6744 62.2093 56.8941 62.3745 52.5551C62.3745 52.5551 61.5487 45.525 61.824 43.6576L54.1718 42.6689Z" fill="#E6817D"/>
<path d="M62.2644 52.0057C62.0992 50.6875 61.7689 47.3921 61.7139 45.2501L54.2268 44.5361C54.2268 50.3031 60.0623 52.0057 62.2644 52.0057Z" fill="#AA3F37"/>
<path d="M65.8428 41.7356C65.4024 38.0557 67.4943 32.2338 60.5028 31.1903C60.5028 31.1903 54.7223 30.2017 53.7864 34.6504C53.5662 35.8038 53.346 37.3966 53.346 39.0992C52.7955 38.6598 52.0798 38.4402 51.254 38.9345C49.6575 39.9231 51.5844 43.3833 53.7864 43.0537C54.447 45.7999 55.8784 48.2714 58.8512 48.9854C65.017 50.6331 66.2832 45.4154 65.8428 41.7356Z" fill="#E6817D"/>
<path d="M60.723 39.6481C60.723 39.9776 60.4477 40.2523 60.1174 40.2523C59.7871 40.2523 59.5118 39.9776 59.5118 39.6481C59.5118 39.3186 59.7871 39.0439 60.1174 39.0439C60.4477 39.0439 60.723 39.2636 60.723 39.6481Z" fill="#233332"/>
<path d="M59.0715 38.0002C59.4018 37.6707 60.3377 37.5059 60.9432 37.9453" stroke="#233332" stroke-miterlimit="10" stroke-linecap="round" stroke-linejoin="round"/>
<path d="M64.962 39.8678C64.962 40.1974 64.6867 40.472 64.3564 40.472C64.0261 40.472 63.7509 40.1974 63.7509 39.8678C63.7509 39.5383 64.0261 39.2637 64.3564 39.2637C64.6867 39.2637 64.962 39.5383 64.962 39.8678Z" fill="#233332"/>
<path d="M65.2923 38.3294C65.017 37.9999 64.0261 37.7802 63.4205 38.1646" stroke="#233332" stroke-miterlimit="10" stroke-linecap="round" stroke-linejoin="round"/>
<path d="M62.6498 39.2637C62.2645 39.8678 63.0352 41.4057 63.2554 42.0098C63.4206 42.4492 63.6408 43.1632 63.4206 43.6026C63.0902 44.2068 62.5948 43.6026 62.3746 43.2182" stroke="#D85145" stroke-miterlimit="10" stroke-linecap="round" stroke-linejoin="round"/>
<path d="M63.2008 44.7007C62.1548 44.8655 61.2189 44.5909 60.228 44.2613C59.6775 44.0417 59.182 43.8769 58.8517 43.4375C58.6865 43.8769 58.8517 44.7007 59.0169 45.1401C59.3472 46.0189 60.1729 46.623 61.1088 46.5681C61.9897 46.5132 62.9806 45.7992 63.1458 44.9204C63.1458 44.8655 63.1458 44.8655 63.2008 44.7007Z" fill="#233332"/>
<path d="M62.0993 45.3049C62.2094 45.195 62.2094 44.8655 62.2644 44.7557C61.5488 44.7007 60.8881 44.536 60.2275 44.2614C59.677 44.0417 59.1815 43.8769 58.8512 43.4375C58.7962 43.6572 58.7411 43.9867 58.7962 44.3163C59.5669 44.8655 60.4477 45.25 61.3836 45.4147C61.6038 45.4147 61.9341 45.5246 62.0993 45.3049Z" fill="#F9F9F9"/>
<path d="M64.0261 30.2564C63.3104 29.7072 62.3745 29.5974 61.4937 29.3227C60.8881 29.158 60.1724 28.9383 59.5118 29.0481C58.9613 29.158 58.3557 29.3227 57.8052 29.3777C58.0805 29.4326 58.4108 29.5424 58.686 29.6523C57.4198 29.7621 56.3188 29.7621 55.2728 30.6958C54.7774 31.1352 54.3369 31.9591 53.7314 32.1787C53.9516 32.3984 54.3369 32.6181 54.6122 32.8928C54.6122 32.8928 54.6122 32.8928 54.6672 32.8928C54.2819 33.3871 54.0066 33.9363 53.8415 34.7052C53.6213 35.8586 53.4011 37.4514 53.4011 39.154C53.346 39.154 53.9516 39.4286 54.392 40.2525C54.6672 40.6919 54.9425 41.2411 55.2728 41.6256C55.2728 40.3623 54.9976 39.154 55.5481 37.9457C55.8233 37.2866 56.2087 36.6275 56.2637 35.8586C56.2637 35.0897 56.0986 34.3208 56.2087 33.5518C56.2637 33.2223 56.3188 32.9477 56.4289 32.6731C56.6491 32.6731 56.8693 32.728 57.0345 32.7829C57.8603 32.9477 58.5759 33.3871 59.2916 33.7715C60.5027 34.3757 61.879 34.7052 63.2553 34.7601C63.971 34.7601 65.017 34.6503 65.2372 33.8814C65.5125 32.6181 64.9069 30.9704 64.0261 30.2564Z" fill="#233332"/>
<path d="M23.3428 12.1871C23.563 11.0337 23.8383 9.44093 23.6181 8.28754C23.5079 7.79323 23.2327 7.46369 23.0125 7.07923C22.6271 6.47507 22.517 5.65122 22.517 4.93722C22.462 4.16829 22.517 3.39937 22.4069 2.63044C22.3519 2.3009 22.2418 1.69675 22.3519 1.36721C22.517 0.817973 23.0125 1.03767 23.2327 1.47705C23.563 2.13613 23.2327 3.06983 23.6181 3.61906C23.7282 3.78383 23.9484 4.00352 24.1686 3.89368C24.3888 3.72891 24.1686 3.17968 24.1686 2.90506C24.1135 2.57552 23.6181 -0.610032 24.8842 0.10397C25.3797 0.378587 25.2146 1.75167 25.2696 2.24598C25.2696 2.68537 25.1044 4.00352 25.655 4.22322C26.5908 4.60768 25.8201 0.378587 27.1414 0.323664C28.0772 0.26874 27.6919 1.86152 27.6919 2.35583C27.6919 2.68537 27.3616 4.11337 27.7469 4.27814C28.2975 4.49783 28.4626 1.20244 29.3985 0.982743C30.5546 0.708127 29.6737 2.85014 29.6187 3.2346C29.4535 4.00352 29.3985 4.82737 29.2884 5.5963C29.2884 5.81599 29.1232 6.3103 29.3434 6.47507C29.7839 6.85954 30.4995 5.5963 30.7197 5.32168C30.995 4.99214 31.3804 4.33306 31.8208 4.33306C32.4263 4.33306 32.3162 4.8823 32.1511 5.26676C31.7657 6.03569 31.2703 6.69477 31.05 7.51862C30.8298 8.34247 30.5546 9.05647 29.7288 9.38601C29.3434 9.55078 28.9581 9.44093 28.6278 9.71555C28.0772 10.2099 27.7469 11.1985 27.5267 11.8026C27.3065 12.4617 27.1414 13.1757 26.8661 13.7799C25.655 13.4503 24.5539 13.0109 23.563 12.2969C23.3978 12.4617 23.3978 12.5166 23.3428 12.1871Z" fill="#E6817D"/>
<path d="M26.0403 8.17774C26.0403 8.17774 27.0313 6.69481 29.2333 6.58496" stroke="#D85145" stroke-miterlimit="10" stroke-linecap="round" stroke-linejoin="round"/>
<path d="M23.4529 4.66309L28.6278 4.88278" stroke="#D85145" stroke-miterlimit="10" stroke-linecap="round" stroke-linejoin="round"/>
<path d="M21.6362 14.8779V9.33065C21.6362 9.33065 23.7281 7.95757 29.3434 10.539L28.0222 17.0748L21.6362 14.8779Z" fill="#3C4A77"/>
<path d="M33.9127 92.21L31.8758 96.6038C31.8758 96.6038 34.5183 99.7894 39.1427 100.064C46.1342 100.503 50.153 101.272 50.153 101.272L52.0798 94.9561L33.9127 92.21Z" fill="#3C4A77"/>
<path d="M54.8875 51.4023C56.7592 48.4365 54.6122 45.0861 51.7495 44.5918C48.2813 43.9877 46.2443 42.7244 46.2443 42.7244L46.7398 45.9649C45.7489 45.6903 44.6478 45.4706 43.4367 45.2509C36.0047 44.1524 28.4626 36.9575 28.4626 36.9575C28.4626 36.9575 29.6737 28.3345 29.2884 22.8422C29.1232 20.3707 29.1232 18.5582 29.2333 17.3499C29.3434 16.0317 28.5727 14.7685 27.3065 14.2742L23.2327 12.6814C21.471 11.9674 19.4341 13.1208 19.1588 14.9882C18.8285 16.9105 18.3331 19.1074 17.6174 20.6453C16.2961 23.4464 8.97426 36.573 9.08436 47.4478C9.08436 49.8096 10.4056 51.9516 12.4425 53.1049C15.3052 54.6428 19.7644 56.9496 23.9483 58.5973C33.1971 62.1673 39.3629 68.4835 39.3629 68.4835C39.3629 68.4835 38.5371 81.006 33.1971 87.8165C29.1783 92.9793 36.3901 95.7254 39.2528 96.3296C43.3816 97.2084 52.4652 99.7348 54.2268 93.5834C55.9335 87.6517 59.7871 64.4741 54.8875 51.4023Z" fill="#4D60A4"/>
<path d="M46.7949 45.9102C46.7949 45.9102 51.0889 47.7775 52.5202 51.2377" stroke="#3C4A77" stroke-miterlimit="10" stroke-linecap="round" stroke-linejoin="round"/>
<path d="M28.5177 36.958L27.5818 45.4162" stroke="#3C4A77" stroke-miterlimit="10" stroke-linecap="round" stroke-linejoin="round"/>
<path d="M37.6012 87.4319C37.6012 87.4319 40.4639 80.4566 44.2074 77.8203" stroke="#3C4A77" stroke-width="3" stroke-miterlimit="10"/>
<path d="M70.5772 70.5705C70.5772 70.5705 71.6783 66.5611 71.6232 66.0668C71.5131 65.188 70.0267 64.0895 69.4211 63.4305C68.7605 62.6615 68.3201 61.7278 67.6044 61.0138C67.3292 60.6843 65.2372 58.9817 66.063 58.5423C66.8337 58.1578 68.21 60.2449 69.0358 60.4646C68.3201 59.7506 66.9438 57.9381 67.0539 56.6749C67.1089 56.3454 67.4943 56.2355 67.7145 56.4552C68.21 57.0044 68.9257 57.8832 69.2009 58.3775C68.9257 57.8832 67.3292 55.2469 68.3751 54.9723C69.0908 54.8075 70.5222 58.7071 71.6782 58.9268C71.8434 57.8283 70.7974 55.2469 71.5131 54.8075C72.5591 54.1484 72.6692 56.5101 72.7793 57.0594C73.0545 58.2677 73.6601 59.8055 74.6511 60.5745C74.4308 58.9268 75.7521 56.7848 76.3026 57.9381C76.4678 58.2128 76.0273 59.2014 76.0824 59.5858C76.1374 60.4646 76.5228 61.2885 76.5228 62.1672C76.5779 63.76 75.7521 64.6388 75.2566 65.9569C74.651 67.5497 74.5409 70.955 74.5409 70.955L70.5772 70.5705Z" fill="#E78C60"/>
<path d="M73.6601 64.0344C72.9995 63.1556 74.1005 61.2882 74.3758 60.5742" stroke="#D85145" stroke-miterlimit="10" stroke-linecap="round" stroke-linejoin="round"/>
<path d="M69.6964 61.7827C70.0267 61.1237 70.6323 60.6843 71.1828 60.19C71.6783 59.7506 72.6692 58.762 73.2197 58.707" stroke="#D85145" stroke-miterlimit="10" stroke-linecap="round" stroke-linejoin="round"/>
<path d="M130.969 51.2917C130.969 51.072 130.749 50.9072 130.694 50.7424C130.419 50.3031 130.363 49.8087 130.308 49.2595C130.253 48.6554 130.253 48.0512 130.308 47.502C130.308 47.3921 130.363 46.8429 130.529 46.788C130.914 46.5683 131.024 48.3807 131.024 48.6004C130.914 48.216 130.969 47.6118 131.024 47.2274C131.134 46.788 131.299 46.8978 131.354 47.2274C131.52 47.9963 131.63 48.7652 131.795 49.5341C131.685 49.2595 131.685 48.8751 131.74 48.6004C131.74 48.3807 131.685 47.8864 131.96 47.7217C132.29 47.502 132.345 48.161 132.345 48.3258C132.511 49.1497 132.786 49.9735 133.281 50.6875C133.556 51.072 133.887 51.3466 134.052 51.786C134.162 52.2254 134.217 52.6648 134.272 53.1041C133.997 53.0492 133.667 52.8295 133.336 52.7746C132.786 52.6098 132.29 52.4451 131.795 52.1155C131.575 51.9508 131.354 51.8409 131.189 51.6212C131.134 51.5114 131.024 51.3466 130.969 51.2917Z" fill="#D85145"/>
<path d="M135.373 58.0475C135.098 56.8941 133.667 54.9718 132.566 54.093C130.694 52.5552 129.207 52.1158 128.932 49.4246C128.877 48.9303 128.932 48.381 128.877 47.8318C128.822 47.3924 128.547 46.953 128.602 46.4587C129.648 46.1841 129.923 48.6556 130.363 49.2598C130.914 50.0836 132.015 51.1821 132.896 51.6764C132.951 51.7313 132.951 51.7313 132.896 51.6764C132.345 51.0723 131.464 49.3696 132.345 48.7106C132.841 49.5344 132.786 49.864 133.832 50.3033C134.437 50.578 135.318 50.6329 136.309 51.5666C137.025 52.2806 137.025 53.7635 137.52 54.6423C138.071 55.6309 138.731 56.9491 139.282 57.9377H135.373V58.0475Z" fill="#E78C60"/>
<path d="M81.4224 120.166L122.601 120.221C122.601 120.221 121.555 110.17 121.005 104.238C120.454 98.3062 120.234 93.8574 120.234 93.8574L87.5332 94.2968C87.5332 94.2968 89.9555 107.039 81.4224 120.166Z" fill="#769494"/>
<path d="M115.224 105.886L107.847 105.282L91.1115 103.854C91.1115 103.854 86.5422 108.357 81.4224 123.901C76.3026 139.444 67.1089 176.023 61.6588 197.772H78.6698L100.856 138.84L93.3687 196.399H110.875C110.875 196.399 115.334 150.813 119.023 133.787C122.106 119.507 115.224 105.886 115.224 105.886Z" fill="#3C4A77"/>
<path d="M100.856 138.84C100.856 138.84 110.435 123.516 109.554 107.424" stroke="#233332" stroke-miterlimit="10" stroke-linecap="round" stroke-linejoin="round"/>
<path d="M109.334 114.399C109.334 114.399 112.637 113.355 112.196 106.984" stroke="#233332" stroke-miterlimit="10" stroke-linecap="round" stroke-linejoin="round"/>
<path d="M91.0565 103.799C91.0565 103.799 108.067 110.225 115.169 105.886C115.169 105.886 120.895 87.5414 119.408 83.6418C117.591 78.8635 115.775 73.0416 110.049 72.2178C110.049 72.2178 97.8278 70.0208 94.8 73.0416C91.7721 76.0624 89.7352 81.0055 92.1575 89.958C94.5798 98.9105 91.0565 103.799 91.0565 103.799Z" fill="#D85145"/>
<path d="M108.948 72.0533C108.948 72.0533 117.757 83.6421 117.206 96.9336C116.656 110.225 114.288 127.691 114.288 127.691C114.288 127.691 120.069 126.592 122.711 121.539C122.711 121.539 119.408 91.7708 120.234 87.3769C120.234 87.3769 147.099 92.1003 150.512 88.5852C153.926 85.0702 153.926 78.1498 150.072 72.3829C146.218 66.6159 140.163 55.082 140.163 55.082L133.832 55.9608L138.731 75.0192C138.731 75.0192 127.115 74.47 121.885 73.3715C116.656 72.273 115.224 70.6803 108.948 72.0533Z" fill="#9BB9B9"/>
<path d="M139.612 78.9183L138.731 74.9639C138.731 74.9639 142.75 76.7214 144.126 79.4676" stroke="#769494" stroke-miterlimit="10" stroke-linecap="round" stroke-linejoin="round"/>
<path d="M120.234 87.3767L120.895 80.6211" stroke="#769494" stroke-miterlimit="10" stroke-linecap="round" stroke-linejoin="round"/>
<path d="M102.783 63.4297L101.296 73.206C101.296 73.206 104.269 78.2041 106.691 78.3139C107.792 78.3688 108.673 75.8424 109.169 74.0848L109.499 64.6929L102.783 63.4297Z" fill="#E78C60"/>
<path d="M103.003 65.8467C103.003 65.8467 101.792 73.0966 109.169 74.0303L109.389 66.7804L103.003 65.8467Z" fill="#D85145"/>
<path d="M110.049 54.5326C107.242 54.0932 104.379 56.8943 103.333 61.0136C103.223 60.7389 102.948 59.6405 101.571 60.0799C100.58 60.3545 100.305 63.8696 102.893 64.254C102.893 68.0437 104.599 71.1744 107.187 71.5588C110.215 72.0531 113.352 68.6479 114.123 63.9245C114.949 59.256 113.077 55.0269 110.049 54.5326Z" fill="#E78C60"/>
<path d="M107.572 63.0458C107.572 62.7712 107.792 62.6064 108.012 62.6064C108.288 62.6064 108.453 62.8261 108.453 63.0458C108.453 63.3204 108.233 63.4852 108.012 63.4852C107.792 63.4852 107.572 63.2655 107.572 63.0458Z" fill="#233332"/>
<path d="M111.536 64.1992C111.536 63.9245 111.756 63.7598 111.976 63.7598C112.251 63.7598 112.417 63.9795 112.417 64.1992C112.417 64.4738 112.196 64.6385 111.976 64.6385C111.701 64.6385 111.536 64.4188 111.536 64.1992Z" fill="#233332"/>
<path d="M107.132 61.1781C107.132 61.1781 108.398 60.1895 109.444 61.2879" stroke="#233332" stroke-miterlimit="10" stroke-linecap="round" stroke-linejoin="round"/>
<path d="M111.756 62.0564C111.756 62.0564 113.022 61.6719 113.352 63.045" stroke="#233332" stroke-miterlimit="10" stroke-linecap="round" stroke-linejoin="round"/>
<path d="M110.82 62.167C110.159 63.1556 110.545 64.2541 110.38 65.3525C110.325 65.6821 110.104 66.3412 109.719 66.3412C109.554 66.3412 109.389 66.2313 109.279 66.1215C109.224 66.0665 109.113 65.8469 109.113 65.8469" stroke="#D85145" stroke-miterlimit="10" stroke-linecap="round" stroke-linejoin="round"/>
<path d="M107.132 67C107.407 67.2746 107.682 67.4943 108.012 67.6591C108.508 67.9337 109.003 68.0985 109.609 68.1534" stroke="#D85145" stroke-miterlimit="10" stroke-linecap="round" stroke-linejoin="round"/>
<path d="M102.232 60.2443C102.232 60.2443 102.287 60.9583 102.562 61.5075C102.838 62.0568 103.388 62.7158 103.388 62.7158L104.985 58.322C105.37 57.553 106.031 57.0038 106.801 56.7841C107.627 56.5095 108.728 56.2898 109.884 56.3447C110.6 56.3447 111.26 56.6193 111.811 57.0587C112.527 57.608 113.518 58.5417 114.123 59.75C114.123 59.75 114.509 62.1666 114.013 64.6931C114.013 64.6931 114.949 64.3635 115.114 63.1003C115.279 61.8371 115.279 59.1458 114.894 57.9375C114.619 56.9489 114.068 54.4773 109.664 53.9281C108.343 53.7633 107.187 53.983 106.251 54.3126C104.985 54.752 103.994 55.7406 103.553 57.0038L102.232 60.2443Z" fill="#233332"/>
<path d="M101.571 71.6139C101.571 71.6139 94.9652 71.1745 91.1116 74.0306C87.2579 76.8866 74.2107 85.0701 74.2107 85.0701L75.9173 67.8242H69.6414C69.6414 67.8242 57.8603 86.4981 58.9613 104.348C58.9613 104.348 61.7139 106.985 65.5675 104.348C69.4211 101.712 87.4231 92.3749 87.4231 92.3749C87.4231 92.3749 87.8085 99.4051 87.4231 102.701C87.0377 105.996 81.3674 120.166 81.3674 120.166C81.3674 120.166 86.8726 128.405 97.8829 130.162C97.8829 130.162 98.9289 105.886 102.177 97.9222C106.196 88.3655 101.571 71.6139 101.571 71.6139Z" fill="#9BB9B9"/>
<path d="M101.351 87.3771L101.131 89.7937C101.131 89.7937 98.4334 89.7388 97.3324 90.7274C96.892 91.1119 96.4516 91.4414 96.0662 91.6611C95.5157 91.9906 94.9101 91.9357 94.4147 91.5513C93.4237 90.7274 92.3777 90.0683 91.2216 89.574L90.2858 89.1896L90.506 86.6631L101.351 87.3771Z" stroke="#769494" stroke-miterlimit="10" stroke-linecap="round" stroke-linejoin="round"/>
<path d="M94.6899 89.2992C94.745 89.0246 94.9652 88.75 95.2955 88.8049C95.5707 88.8598 95.846 89.0795 95.7909 89.4091C95.7359 89.6837 95.5157 89.9583 95.1854 89.9034C94.8551 89.8485 94.6349 89.5738 94.6899 89.2992Z" fill="#769494"/>
<path d="M90.4509 89.2441L90.1206 95.066C90.0656 96.2743 90.7812 97.4277 91.9373 97.922L94.0843 98.7459C94.8 99.0205 95.6258 99.0754 96.3965 98.8008L98.3233 98.1417C99.3693 97.7573 100.085 96.8785 100.25 95.78L100.911 89.7934" stroke="#769494" stroke-miterlimit="10" stroke-linecap="round" stroke-linejoin="round"/>
<path d="M74.2106 85.0703C74.2106 85.0703 74.2657 88.0362 71.8985 92.2653" stroke="#769494" stroke-miterlimit="10" stroke-linecap="round" stroke-linejoin="round"/>
<path d="M101.076 62.8262C100.801 62.8811 100.691 64.364 100.47 64.7485C99.4794 66.4511 97.8829 67.8242 96.5066 69.2522C94.1944 71.6139 91.3868 73.9756 90.3958 77.2161C88.7443 82.4887 91.662 86.8277 95.6258 90.0681C97.1122 91.2764 99.4794 92.8143 99.5345 95.0112C100.305 93.5283 101.516 92.1003 102.177 90.4526C102.948 88.6401 102.893 86.7178 103.058 84.7955C103.388 85.125 103.718 85.6193 103.994 85.9489C104.159 84.3561 104.544 82.8183 104.379 81.1706C104.214 79.5778 103.663 78.0949 103.003 76.6668C102.507 75.5684 102.012 74.3051 101.737 73.0968C101.516 72.0533 101.681 70.7901 101.847 69.7465C102.177 67.8791 102.507 65.9568 102.838 64.0894C102.232 63.9796 101.461 63.7049 101.076 62.8262Z" fill="#233332"/>
<path d="M198.077 107.808L203.638 107.204C203.638 107.204 215.198 138.95 198.683 200.079H184.645C184.645 200.079 187.397 189.699 185.636 179.593C183.874 169.487 188.994 155.811 188.994 155.811C188.994 155.811 171.157 125.439 181.066 107.863H198.077V107.808Z" fill="#007F7A"/>
<path d="M179.25 107.808C179.25 107.808 168.57 123.022 174.46 133.732C180.406 144.442 194.279 155.426 194.279 155.426C194.279 155.426 183.819 158.996 182.057 172.178C180.296 185.36 177.268 187.337 177.268 187.337L190.59 191.072C190.59 191.072 216.575 164.159 216.244 156.195C215.914 148.231 198.132 107.753 198.132 107.753H179.25V107.808Z" fill="#00918C"/>
<path d="M185.636 185.36L202.481 155.427C202.481 155.427 174.625 132.853 183.434 114.948" stroke="#007F7A" stroke-miterlimit="10" stroke-linecap="round" stroke-linejoin="round"/>
<path d="M182.112 126.536C182.112 126.536 188.223 125.493 188.003 115.387" stroke="#007F7A" stroke-miterlimit="10" stroke-linecap="round" stroke-linejoin="round"/>
<path d="M177.928 51.8961C172.643 52.3904 174.515 56.3448 172.698 57.8827C171.873 58.5967 170.937 59.3107 170.827 60.4092C170.661 61.5626 171.267 62.6061 170.386 63.5947C169.671 64.4186 168.735 64.5833 168.404 65.7367C168.074 66.8901 168.735 67.8787 168.294 68.9772C167.854 70.0207 167.083 70.57 166.918 71.7783C166.753 72.8218 166.312 75.0188 167.028 75.8975C168.625 77.7649 171.542 78.9183 174.515 78.5339C177.598 78.1494 182.608 76.282 185.691 76.4468C190.645 76.6665 196.481 78.5888 200.169 73.7006C200.775 72.9317 201.105 72.1628 201.105 71.2291C201.105 70.0208 200.279 69.4166 200.114 68.373C199.894 67.0549 201.215 65.7367 201.105 64.3087C201.05 62.7709 199.894 61.6724 198.408 61.0682C197.472 60.6289 195.71 60.4092 195.215 59.4205C194.609 58.2122 195.655 56.949 194.609 55.7956C193.563 54.6971 192.132 55.0816 190.81 54.6422C189.434 54.2028 189.599 53.5438 189.214 52.5551C188.608 51.0173 187.012 51.4017 185.581 50.6877C184.094 49.9737 181.286 49.2048 180.351 50.7427C179.635 51.951 178.534 51.7862 177.928 51.8961Z" fill="#233332"/>
<path d="M206.831 49.6442C205.289 47.9965 203.527 46.3488 202.922 46.239C201.711 46.1291 199.949 46.3488 198.848 45.8545C198.793 44.9758 198.958 44.0421 198.903 43.1084C198.903 42.3394 198.573 41.6254 198.518 40.9114C198.463 39.9228 199.013 40.472 199.619 40.0876C200.279 39.6482 200.665 38.9342 201.325 38.4948C202.592 37.5611 204.298 38.5497 205.344 39.4834C206.06 40.0876 205.454 40.6917 205.785 41.4607C206.06 42.0099 206.831 41.9 207.161 42.5591C207.381 42.9436 207.216 43.3281 207.326 43.7125C207.381 43.9871 208.978 45.5799 210.464 47.3375L206.831 49.6442Z" fill="#AA3F37"/>
<path d="M199.399 42.4494C200.5 42.2298 201.38 41.2961 202.316 40.6919C203.197 40.1427 203.197 41.2411 202.977 41.9002C202.812 42.3396 202.481 42.779 202.041 42.9987C203.197 42.7241 205.234 42.9438 205.124 44.5365" stroke="#852B22" stroke-miterlimit="10" stroke-linecap="round" stroke-linejoin="round"/>
<path d="M203.417 42.7242C204.353 42.0102 205.509 41.4061 206.06 40.3076" stroke="#852B22" stroke-miterlimit="10" stroke-linecap="round" stroke-linejoin="round"/>
<path d="M221.695 51.6767C217.841 50.1389 215.474 48.7658 214.208 47.8321C213.547 47.3378 212.721 47.173 211.895 47.3378L210.409 45.0859L204.573 49.0404L206.555 50.6881C206.225 51.3472 206.17 52.171 206.445 52.885L206.72 53.5991C207.601 61.7826 212.831 65.9568 212.831 65.9568L189.049 73.701L183.048 73.8108C183.048 73.8108 172.974 74.3601 168.68 80.4565C164.331 86.553 157.724 92.5946 157.724 92.5946C157.724 92.5946 152.88 88.4753 148.366 88.9697C147.815 89.0246 147.265 89.2443 146.714 89.5738C144.952 89.409 143.081 90.3427 141.98 92.1003C140.548 94.3521 140.934 97.1532 142.75 98.5812C142.805 100.613 143.411 102.646 144.787 104.293C149.191 109.566 162.129 114.784 168.019 112.037C173.91 109.291 177.488 100.778 177.488 100.778C177.488 100.778 179.525 105.996 177.488 109.456C175.451 112.861 185.746 116.047 194.554 115.388C203.362 114.729 206.28 110.884 204.188 107.259C199.839 99.7896 208.868 91.606 207.381 85.3447C215.088 82.3239 226.649 77.2161 230.393 72.6025C236.228 65.4625 229.402 54.6975 221.695 51.6767Z" fill="#FADB81"/>
<path d="M207.546 86.0586C207.436 85.1249 207.161 84.2461 206.61 83.4222C204.573 80.4014 201.491 78.589 197.362 76.0625" stroke="#E6817D" stroke-miterlimit="10" stroke-linecap="round" stroke-linejoin="round"/>
<path d="M177.488 100.723C177.488 100.723 178.369 92.1548 176.552 89.2988" stroke="#E6817D" stroke-miterlimit="10" stroke-linecap="round" stroke-linejoin="round"/>
<path d="M157.669 92.5947C157.669 92.5947 163.23 94.9564 164.716 100.009" stroke="#E6817D" stroke-miterlimit="10" stroke-linecap="round" stroke-linejoin="round"/>
<path d="M212.831 66.0117C212.831 66.0117 218.116 66.6159 219.658 68.4833" stroke="#E6817D" stroke-miterlimit="10" stroke-linecap="round" stroke-linejoin="round"/>
<path d="M144.127 97.0433C142.64 96.0546 138.181 93.5282 138.181 93.5282C137.19 93.3085 135.814 93.1986 134.878 92.7043C133.557 91.9354 134.382 89.7934 134.933 88.7498C135.594 87.5415 135.098 87.1571 134.933 85.9487C134.713 84.4109 135.649 84.2461 136.86 84.5207C137.796 84.7404 137.575 84.356 138.346 83.9715C138.842 83.7518 139.062 83.9715 139.557 84.2461C140.053 84.5757 140.493 85.015 140.989 85.3995C141.594 85.8389 142.255 86.0586 142.53 86.7177C142.915 87.5964 142.75 88.64 143.025 89.5737C143.521 91.2214 146.879 93.4732 146.879 93.4732C147.76 95.9448 145.723 97.6474 144.127 97.0433Z" fill="#AA3F37"/>
<path d="M137.575 84.4111C137.575 84.5759 137.41 84.9054 137.355 85.1251C137.245 85.4547 137.19 85.7842 137.08 86.1137C136.915 86.6081 136.75 87.2122 136.915 87.7065C137.08 88.091 137.741 88.5853 138.071 88.0361C138.291 87.5967 138.346 87.0475 138.621 86.6081C138.456 87.2671 138.346 88.1459 138.621 88.805C138.952 89.6288 139.943 90.2879 140.823 90.3428" stroke="#852B22" stroke-miterlimit="10" stroke-linecap="round" stroke-linejoin="round"/>
<path d="M138.787 89.0791C138.897 89.1889 138.842 89.4636 138.842 89.6283C138.842 90.0128 138.842 90.3973 138.787 90.7268C138.676 91.4408 138.291 92.5393 137.41 92.5393" stroke="#852B22" stroke-miterlimit="10" stroke-linecap="round" stroke-linejoin="round"/>
<path d="M188.003 64.4189C189.544 63.65 191.526 64.0344 192.627 65.4624C193.893 67.1101 193.618 69.4719 191.967 70.7351C190.315 71.9983 187.948 71.7237 186.682 70.076C185.525 68.5931 185.691 66.5609 186.902 65.2428" stroke="#FADB81" stroke-miterlimit="10" stroke-linecap="round" stroke-linejoin="round"/>
<path d="M188.939 75.0191L187.452 66.3413L181.066 66.0117L181.947 74.7445C181.066 74.9093 180.406 75.4585 180.351 75.9528C179.91 78.0399 182.663 79.3032 185.36 79.9073C188.058 80.5115 190.535 79.6876 190.866 78.1498C191.141 76.9964 190.315 75.843 188.939 75.0191Z" fill="#AA3F37"/>
<path d="M188.994 75.4588L187.452 66.2866L181.066 65.957C181.066 66.012 183.709 72.7675 188.994 75.4588Z" fill="#852B22"/>
<path d="M189.709 62.5515C189.875 61.0686 189.544 59.5307 188.774 58.3224C188.663 58.2675 188.608 58.2675 188.498 58.2675C187.948 58.2675 187.562 58.2675 186.957 58.1027C186.296 57.938 186.076 57.7732 185.581 58.2126C184.975 58.7069 183.984 58.4872 183.213 58.2675C182.718 58.1576 181.837 57.6084 181.397 58.0478C181.176 58.2126 181.176 58.597 181.231 58.8716C181.231 59.1463 181.342 59.4209 181.176 59.6955C181.066 59.9152 180.791 60.08 180.736 60.2997C180.681 60.739 181.066 61.1784 181.066 61.6178C181.066 61.8924 180.846 62.1121 180.791 62.3867C180.626 63.2655 181.562 63.8697 181.672 64.6386C181.782 65.4075 180.626 64.8583 180.296 64.5288C180.13 64.3091 179.965 64.0344 179.745 63.9246C179.47 63.8147 179.139 63.8697 178.864 63.8147C178.534 63.7049 178.204 63.2655 177.873 63.1557C177.818 63.2106 177.818 63.2655 177.763 63.2655C176.607 65.078 178.479 66.8355 181.011 66.7257C182.002 69.0325 184.259 72.932 188.003 71.7786C192.737 70.4055 189.379 66.1765 189.709 62.5515Z" fill="#AA3F37"/>
<path d="M183.929 63.2654C183.819 63.0457 183.929 62.7711 184.149 62.6613C184.369 62.5514 184.645 62.6613 184.755 62.881C184.865 63.1006 184.755 63.3753 184.535 63.4851C184.314 63.595 184.039 63.4851 183.929 63.2654Z" fill="#233332"/>
<path d="M187.673 62.7166C187.562 62.4969 187.673 62.2223 187.893 62.1124C188.113 62.0026 188.388 62.1124 188.498 62.3321C188.608 62.5518 188.498 62.8264 188.278 62.9363C188.058 63.0461 187.783 62.9363 187.673 62.7166Z" fill="#233332"/>
<path d="M182.718 61.1784C182.718 61.1784 183.819 60.3546 185.195 60.9587" stroke="#233332" stroke-miterlimit="10" stroke-linecap="round" stroke-linejoin="round"/>
<path d="M187.397 60.7392C187.397 60.7392 188.388 59.8055 189.654 60.7392" stroke="#233332" stroke-miterlimit="10" stroke-linecap="round" stroke-linejoin="round"/>
<path d="M186.792 61.1787C186.627 62.3321 187.397 63.1559 187.672 64.2544C187.783 64.5839 187.838 65.243 187.452 65.4078C187.287 65.4627 187.067 65.4627 186.957 65.4078C186.847 65.3529 186.682 65.1881 186.682 65.243" stroke="#852B22" stroke-miterlimit="10" stroke-linecap="round" stroke-linejoin="round"/>
<path d="M187.893 67.4398C187.342 67.5496 186.792 67.5496 186.241 67.3849C185.911 67.3299 185.526 67.1652 185.195 66.9455C185.47 66.8906 185.636 66.7258 185.856 66.6159C186.131 66.4512 186.241 66.4512 186.516 66.561C186.627 66.6159 186.792 66.7258 186.847 66.7258C187.012 66.7258 186.957 66.6709 187.122 66.561C187.342 66.4512 187.562 66.3963 187.783 66.561C188.003 66.7807 188.003 67.1652 187.893 67.4398Z" stroke="#D85145" stroke-miterlimit="10" stroke-linecap="round" stroke-linejoin="round"/>
<path d="M180.406 66.2314C182.112 66.561 183.378 68.0988 183.378 69.9113C183.378 71.9984 181.672 73.6461 179.635 73.6461C177.543 73.6461 175.891 71.9435 175.891 69.9113C175.891 68.0439 177.268 66.5061 179.029 66.2314" stroke="#FADB81" stroke-miterlimit="10" stroke-linecap="round" stroke-linejoin="round"/>
<path d="M214.152 44.6469C214.538 42.3951 215.143 36.8478 215.639 36.4084C216.575 35.6395 218.171 34.8706 218.832 33.827C218.391 33.0581 217.786 32.3441 217.29 31.5752C216.905 30.9161 216.795 30.1472 216.41 29.543C215.914 28.7192 215.749 29.4332 215.033 29.4881C214.263 29.4881 213.547 29.1036 212.721 29.0487C211.18 28.9389 210.244 30.7513 209.913 32.0695C209.693 32.9483 210.519 33.113 210.629 33.9369C210.739 34.541 210.024 34.9255 210.079 35.6395C210.134 36.0789 210.409 36.2986 210.574 36.738C210.684 37.0126 210.189 42.45 209.858 44.7019L214.152 44.6469Z" fill="#E6817D"/>
<path d="M218.116 33.8274C217.015 33.6077 216.134 32.674 215.198 32.0698C214.318 31.5206 214.318 32.6191 214.538 33.2781C214.703 33.7175 215.033 34.1569 215.474 34.3766C214.318 34.102 212.281 34.3217 212.391 35.9145" stroke="#D85145" stroke-miterlimit="10" stroke-linecap="round" stroke-linejoin="round"/>
<path d="M214.097 34.1569C213.161 33.4429 212.005 32.8387 211.455 31.7402" stroke="#D85145" stroke-miterlimit="10" stroke-linecap="round" stroke-linejoin="round"/>
<path d="M247.624 39.3191C247.844 37.7263 248.67 31.0806 248.67 31.0806C249.11 30.2568 249.826 29.3231 249.991 28.3894C250.211 27.0712 248.285 26.3572 247.294 26.1375C246.082 25.8629 246.138 25.3686 245.367 24.4898C244.486 23.4463 243.77 23.9955 243.275 24.9292C242.889 25.6432 242.724 25.3137 242.064 25.6432C241.623 25.8629 241.623 26.1375 241.568 26.6318C241.513 27.1811 241.568 27.7303 241.513 28.2246C241.458 28.8837 241.238 29.4329 241.513 30.0371C241.899 30.806 242.724 31.3003 243.165 32.0143C243.99 33.2775 243.55 39.0994 243.55 39.0994C244.761 41.1316 247.073 40.802 247.624 39.3191Z" fill="#E6817D"/>
<path d="M242.889 25.4238C243 25.5337 243.33 25.5886 243.495 25.6984C243.77 25.8083 244.046 25.9731 244.321 26.0829C244.706 26.2477 245.312 26.4674 245.477 26.9068C245.642 27.2363 245.587 28.0052 245.036 27.8405C244.596 27.7306 244.211 27.456 243.715 27.3461C244.266 27.6208 244.926 28.0601 245.202 28.6643C245.587 29.3783 245.477 30.3669 244.981 31.026" stroke="#D85145" stroke-width="0.8906" stroke-miterlimit="10" stroke-linecap="round" stroke-linejoin="round"/>
<path d="M245.312 28.9385C245.312 29.0483 245.532 29.2131 245.642 29.268C245.917 29.4877 246.137 29.7074 246.413 29.8722C246.963 30.2566 247.899 30.5862 248.45 29.982" stroke="#D85145" stroke-width="0.8906" stroke-miterlimit="10" stroke-linecap="round" stroke-linejoin="round"/>
<path d="M220.428 74.4155C220.318 72.3834 219.052 69.802 219.492 67.2755C219.933 64.5843 221.034 62.3324 223.401 60.9044C228.631 57.6639 232.485 59.751 236.503 63.9252C240.467 67.9895 241.293 73.6466 243.33 78.6995C245.312 83.5877 249.771 87.2676 252.524 91.7164C255.441 96.4947 256.983 105.612 250.432 108.084C248.725 108.743 246.798 108.578 245.036 108.852C242.449 109.292 240.137 110.445 237.66 111.269C234.742 112.258 232.044 113.686 229.016 114.455C225.218 115.388 218.942 115.608 215.859 112.642C211.565 108.468 216.244 99.131 218.171 94.847C221.144 88.3111 222.3 81.8302 220.979 74.9648C220.869 75.1295 220.814 75.2394 220.428 74.4155Z" fill="#233332"/>
<path d="M221.364 111.159C221.364 111.159 210.574 121.595 210.189 131.975C209.198 157.734 235.347 190.798 234.522 204.364L249.496 203.046C249.496 203.046 245.807 175.255 235.457 156.141C235.457 156.141 248.89 132.799 243.715 112.752L221.364 111.159Z" fill="#D85145"/>
<path d="M229.182 111.764L212.115 204.474H228.025C228.025 204.474 233.586 161.469 239.586 151.968C245.587 142.521 250.156 135.326 243.77 112.807L229.182 111.764Z" fill="#D85145"/>
<path d="M218.887 167.621C218.887 167.621 222.41 118.08 225.878 111.489" stroke="#AA3F37" stroke-miterlimit="10" stroke-linecap="round" stroke-linejoin="round"/>
<path d="M235.953 115.772C235.953 115.772 240.467 126.977 246.853 131.755" stroke="#AA3F37" stroke-width="0.8908" stroke-miterlimit="10" stroke-linecap="round" stroke-linejoin="round"/>
<path d="M222.796 111.269C222.796 111.269 218.887 122.967 223.346 122.967" stroke="#AA3F37" stroke-miterlimit="10" stroke-linecap="round" stroke-linejoin="round"/>
<path d="M243.99 101.712C245.477 91.4415 251.367 85.0155 248.89 70.351C247.128 59.9705 249.441 37.5068 249.441 37.5068H242.064C237.219 44.7018 236.228 67.3302 235.568 75.1293C235.402 77.3811 233.476 79.1387 231.218 79.1387C231.218 79.1387 229.071 79.5781 227.09 80.6766C216.244 74.3604 215.529 41.7909 215.529 41.7909H207.821L206.996 55.6865C204.133 74.1956 214.428 87.1026 219.382 92.1006C219.162 92.54 218.942 92.9794 218.777 93.4737C217.621 97.0986 220.263 98.1422 221.419 101.602C222.025 103.415 220.814 108.523 219.547 113.081C218.391 117.255 243.77 116.377 243.715 112.862C243.715 107.095 243.99 101.712 243.99 101.712Z" fill="#3C4A77"/>
<path d="M218.832 93.474C219.988 89.849 223.731 88.3661 223.897 84.5215" stroke="#233332" stroke-width="0.8908" stroke-miterlimit="10" stroke-linecap="round" stroke-linejoin="round"/>
<path d="M223.897 100.889C223.897 100.889 229.237 99.9004 233.255 101.438" stroke="#233332" stroke-width="0.8908" stroke-miterlimit="10" stroke-linecap="round" stroke-linejoin="round"/>
<path d="M235.678 74.1953L234.852 84.5209" stroke="#233332" stroke-width="0.8908" stroke-miterlimit="10" stroke-linecap="round" stroke-linejoin="round"/>
<path d="M227.2 81.6646L227.695 75.623L233.255 73.8105L234.081 77.8749C234.356 79.0832 233.971 80.2915 233.09 81.1703L228.686 86.4978L227.2 81.6646Z" fill="#E6817D"/>
<path d="M233.255 73.8105L227.695 75.623L227.2 81.6646C233.255 79.5775 233.255 73.8105 233.255 73.8105Z" fill="#D85145"/>
<path d="M235.182 69.3618L233.255 71.394C232.375 69.966 230.338 69.5815 228.356 68.9225C225.878 68.1535 225.218 66.2861 225.218 66.2861C224.502 70.4054 222.906 71.7785 222.851 71.8334C222.851 71.9982 222.851 72.1629 222.906 72.3277C223.456 76.447 226.154 79.4677 229.016 79.0833C230.998 78.8087 232.65 76.7765 233.255 73.7557C236.614 72.6023 235.182 69.3618 235.182 69.3618Z" fill="#E6817D"/>
<path d="M229.402 69.6912C229.402 69.6912 228.025 68.8674 227.145 70.0757" stroke="#233332" stroke-miterlimit="10" stroke-linecap="round" stroke-linejoin="round"/>
<path d="M224.943 70.6252C224.943 70.6252 223.731 70.076 223.236 71.3941" stroke="#233332" stroke-miterlimit="10" stroke-linecap="round" stroke-linejoin="round"/>
<path d="M225.823 70.7344C226.429 71.723 225.989 72.8215 226.099 73.9199C226.154 74.2495 226.319 74.9086 226.704 74.9086C226.869 74.9086 227.035 74.7987 227.2 74.6889C227.255 74.6339 227.365 74.4142 227.42 74.4142" stroke="#D85145" stroke-miterlimit="10" stroke-linecap="round" stroke-linejoin="round"/>
<path d="M226.924 75.8431C227.53 75.8431 228.136 75.5135 228.686 75.2389C229.016 75.0741 229.347 74.8545 229.567 74.6348C229.567 74.6348 230.172 76.5022 228.301 77.0514L226.924 75.8431Z" fill="#F9F9F9"/>
<path d="M225.218 71.888C224.832 71.7233 224.062 72.1077 223.842 72.4373" stroke="#D85145" stroke-miterlimit="10" stroke-linecap="round" stroke-linejoin="round"/>
<path d="M228.961 70.8999C228.631 70.6253 227.75 70.8999 227.53 71.1745" stroke="#D85145" stroke-miterlimit="10" stroke-linecap="round" stroke-linejoin="round"/>
</svg>
