<svg width="178" height="42" viewBox="0 0 178 42" fill="none" xmlns="http://www.w3.org/2000/svg">
<g clip-path="url(#clip0)">
<path d="M11.7332 23.4049C12.222 23.4221 12.6854 23.207 13.119 22.7725L32.1259 3.54047C32.5723 3.08881 32.7764 2.60704 32.7381 2.10377C32.6998 1.59619 32.4745 1.13162 32.0579 0.710075C31.6413 0.288526 31.1779 0.0562443 30.672 0.00892765C30.1619 -0.038389 29.6858 0.163782 29.2394 0.615441L11.7332 18.3248L3.50718 10.0013C3.0608 9.54969 2.58042 9.34752 2.07454 9.39483C1.5644 9.44215 1.10527 9.67443 0.688661 10.096C0.272048 10.5175 0.042486 10.9821 0.00847681 11.4897C-0.0340347 11.9929 0.170021 12.4747 0.616392 12.9264L10.3473 22.7725C10.7766 23.207 11.24 23.4178 11.7332 23.4049ZM174.37 20.0583C174.544 19.6626 174.778 19.37 175.071 19.1808C175.364 18.9915 175.687 18.9012 176.036 18.9012C176.538 18.9012 176.988 19.0732 177.392 19.4131C177.796 19.7529 177.996 20.1787 177.996 20.6863C177.996 20.9272 177.932 21.181 177.8 21.4477L168.873 40.37C168.503 41.1185 167.925 41.497 167.138 41.497C166.637 41.497 166.195 41.3379 165.812 41.0153C165.429 40.697 165.238 40.2926 165.238 39.8065C165.238 39.5657 165.302 39.2904 165.434 38.9807L167.657 34.249L161.586 21.4477C161.476 21.2283 161.425 20.9745 161.425 20.6863C161.425 20.1787 161.637 19.7486 162.062 19.3959C162.488 19.0431 162.972 18.8668 163.516 18.8668C163.886 18.8668 164.226 18.9614 164.528 19.1464C164.834 19.3356 165.072 19.6238 165.247 20.0239L169.825 30.2486L174.37 20.0583ZM151.481 32.666C152.57 32.666 153.458 32.2961 154.147 31.5562C154.835 30.8164 155.176 29.8614 155.176 28.6957V27.9989H154.589C153.126 27.9989 151.996 28.0634 151.188 28.1968C150.38 28.3301 149.802 28.5624 149.454 28.8936C149.105 29.2248 148.931 29.6765 148.931 30.2486C148.931 30.954 149.177 31.5347 149.666 31.9864C150.159 32.4381 150.763 32.666 151.481 32.666ZM152.497 18.8022C154.721 18.8022 156.37 19.3571 157.45 20.4712C158.53 21.5853 159.07 23.2758 159.07 25.5513V33.6253C159.07 34.2189 158.895 34.6877 158.547 35.0319C158.198 35.3717 157.718 35.5437 157.11 35.5437C156.544 35.5437 156.081 35.3674 155.72 35.0147C155.358 34.6619 155.18 34.1974 155.18 33.6253V32.8983C154.81 33.7586 154.228 34.4297 153.433 34.9157C152.638 35.4018 151.715 35.6427 150.669 35.6427C149.602 35.6427 148.633 35.4233 147.757 34.9802C146.886 34.5372 146.197 33.9307 145.695 33.1607C145.194 32.3907 144.943 31.5304 144.943 30.5798C144.943 29.3883 145.241 28.4505 145.84 27.7666C146.439 27.0827 147.413 26.588 148.765 26.2783C150.117 25.9686 151.979 25.8137 154.355 25.8137H155.171V25.0524C155.171 23.9727 154.942 23.1812 154.487 22.6865C154.028 22.1918 153.288 21.9424 152.264 21.9424C151.63 21.9424 150.988 22.037 150.333 22.222C149.679 22.4112 148.905 22.6779 148.012 23.0306C147.447 23.3188 147.03 23.4608 146.771 23.4608C146.38 23.4608 146.057 23.3188 145.806 23.0306C145.555 22.7424 145.432 22.3682 145.432 21.9079C145.432 21.5337 145.525 21.2068 145.708 20.9315C145.895 20.6562 146.206 20.3981 146.639 20.1529C147.4 19.7357 148.314 19.4045 149.368 19.1593C150.431 18.9227 151.473 18.8022 152.497 18.8022ZM134.022 32.4338C135.31 32.4338 136.309 31.9864 137.032 31.096C137.75 30.2013 138.111 28.9409 138.111 27.3063C138.111 25.6288 137.75 24.3297 137.032 23.4006C136.313 22.4757 135.31 22.0112 134.022 22.0112C132.712 22.0112 131.705 22.4628 130.999 23.3662C130.289 24.2695 129.936 25.5599 129.936 27.2375C129.936 28.8936 130.289 30.1712 130.999 31.0745C131.705 31.9821 132.717 32.4338 134.022 32.4338ZM135.102 18.8022C136.475 18.8022 137.699 19.155 138.779 19.8604C139.859 20.5659 140.696 21.5638 141.296 22.8543C141.895 24.1447 142.197 25.6288 142.197 27.302C142.197 28.9796 141.895 30.4464 141.296 31.7025C140.696 32.9585 139.863 33.9307 138.796 34.6146C137.729 35.2986 136.496 35.6384 135.102 35.6384C133.967 35.6384 132.955 35.3975 132.062 34.9114C131.169 34.4254 130.481 33.7543 130 32.894V39.6431C130 40.2152 129.813 40.6669 129.443 40.9981C129.073 41.3293 128.58 41.4927 127.972 41.4927C127.36 41.4927 126.867 41.3164 126.485 40.9637C126.102 40.6109 125.911 40.1464 125.911 39.5743V20.8197C125.911 20.2261 126.089 19.7486 126.451 19.3959C126.812 19.0431 127.296 18.8668 127.904 18.8668C128.517 18.8668 129.005 19.0431 129.375 19.3959C129.745 19.7486 129.932 20.2218 129.932 20.8197V21.6456C130.413 20.7422 131.106 20.0411 132.007 19.5464C132.917 19.0517 133.945 18.8022 135.102 18.8022ZM122.318 18.8668C122.884 18.8238 123.33 18.9442 123.658 19.2324C123.985 19.5206 124.146 19.9508 124.146 20.5229C124.146 21.1165 124.006 21.5595 123.721 21.8477C123.436 22.1359 122.926 22.3209 122.187 22.4112L121.205 22.5102C119.916 22.6435 118.977 23.0823 118.378 23.835C117.778 24.5835 117.481 25.5212 117.481 26.6482V33.5952C117.481 34.2361 117.285 34.7265 116.894 35.0663C116.503 35.4061 116.01 35.5782 115.423 35.5782C114.836 35.5782 114.347 35.4061 113.969 35.0663C113.587 34.7265 113.395 34.2318 113.395 33.5952V20.7852C113.395 20.1658 113.587 19.6927 113.969 19.3614C114.352 19.0302 114.824 18.8668 115.393 18.8668C115.959 18.8668 116.418 19.0259 116.766 19.3485C117.115 19.6669 117.289 20.1271 117.289 20.7207V22.0456C117.702 21.0735 118.318 20.325 119.139 19.7959C119.955 19.2668 120.865 18.97 121.868 18.9012L122.318 18.8668ZM103.027 21.7144C101.917 21.7144 101.029 22.0671 100.361 22.7725C99.698 23.478 99.2984 24.4932 99.1666 25.818H106.555C106.513 24.4716 106.185 23.4522 105.573 22.7596C104.965 22.0628 104.115 21.7144 103.027 21.7144ZM108.685 30.9454C109.055 30.9454 109.357 31.0874 109.582 31.3756C109.812 31.6638 109.926 32.0466 109.926 32.5327C109.926 33.2166 109.522 33.7887 108.715 34.2533C107.975 34.6705 107.133 35.0104 106.198 35.2641C105.263 35.5179 104.366 35.6427 103.516 35.6427C100.944 35.6427 98.9073 34.8942 97.4024 33.393C95.8975 31.8918 95.145 29.8399 95.145 27.2375C95.145 25.5814 95.4724 24.1146 96.127 22.8371C96.7817 21.5595 97.7 20.5659 98.8903 19.8604C100.076 19.155 101.424 18.8022 102.929 18.8022C104.366 18.8022 105.62 19.1206 106.687 19.7615C107.754 20.4024 108.583 21.3057 109.174 22.4757C109.76 23.6458 110.058 25.0222 110.058 26.6095C110.058 27.5558 109.646 28.0333 108.817 28.0333H99.1709C99.3026 29.556 99.7278 30.6744 100.446 31.3928C101.165 32.1111 102.21 32.4682 103.584 32.4682C104.281 32.4682 104.897 32.3821 105.433 32.2015C105.968 32.0251 106.572 31.7842 107.248 31.4745C107.898 31.1218 108.379 30.9454 108.685 30.9454ZM89.7503 35.5739C89.1636 35.5739 88.6748 35.4018 88.2964 35.062C87.9138 34.7222 87.7225 34.2275 87.7225 33.5909V13.8383C87.7225 13.1974 87.9138 12.7156 88.2964 12.3844C88.679 12.0532 89.1636 11.8897 89.7503 11.8897C90.337 11.8897 90.8301 12.0532 91.2212 12.3844C91.6123 12.7156 91.8079 13.2017 91.8079 13.8383V33.5909C91.8079 34.2318 91.6123 34.7222 91.2212 35.062C90.8301 35.4061 90.3412 35.5739 89.7503 35.5739ZM81.4478 35.5739C80.8611 35.5739 80.3723 35.4018 79.9939 35.062C79.6113 34.7222 79.42 34.2275 79.42 33.5909V13.8383C79.42 13.1974 79.6113 12.7156 79.9939 12.3844C80.3765 12.0532 80.8611 11.8897 81.4478 11.8897C82.0345 11.8897 82.5276 12.0532 82.9187 12.3844C83.3098 12.7156 83.5054 13.2017 83.5054 13.8383V33.5909C83.5054 34.2318 83.3098 34.7222 82.9187 35.062C82.5276 35.4061 82.0345 35.5739 81.4478 35.5739ZM69.0557 21.7144C67.9419 21.7144 67.0577 22.0671 66.3902 22.7725C65.727 23.478 65.3274 24.4932 65.1956 25.818H72.5842C72.5416 24.4716 72.2143 23.4522 71.6021 22.7596C70.9942 22.0628 70.144 21.7144 69.0557 21.7144ZM74.714 30.9454C75.0838 30.9454 75.3857 31.0874 75.6152 31.3756C75.8448 31.6638 75.9596 32.0466 75.9596 32.5327C75.9596 33.2166 75.5557 33.7887 74.748 34.2533C74.0083 34.6705 73.1666 35.0104 72.2313 35.2641C71.2961 35.5179 70.3991 35.6427 69.5488 35.6427C66.9769 35.6427 64.9406 34.8942 63.4357 33.393C61.9308 31.8918 61.1783 29.8399 61.1783 27.2375C61.1783 25.5814 61.5056 24.1146 62.1603 22.8371C62.815 21.5595 63.7333 20.5659 64.9236 19.8604C66.1096 19.155 67.4573 18.8022 68.9622 18.8022C70.3991 18.8022 71.6532 19.1206 72.7202 19.7615C73.7872 20.4024 74.6162 21.3057 75.2071 22.4757C75.7938 23.6458 76.0914 25.0222 76.0914 26.6095C76.0914 27.5558 75.679 28.0333 74.85 28.0333H65.2042C65.3359 29.556 65.7611 30.6744 66.4795 31.3928C67.1979 32.1111 68.2437 32.4682 69.6168 32.4682C70.314 32.4682 70.9305 32.3821 71.4661 32.2015C72.0017 32.0251 72.6054 31.7842 73.2813 31.4745C73.9275 31.1218 74.4079 30.9454 74.714 30.9454ZM58.3003 32.4983C59.3886 32.5628 59.937 33.0618 59.937 33.9866C59.937 34.5157 59.7244 34.92 59.2993 35.1953C58.8742 35.4706 58.2705 35.5868 57.4841 35.5437L56.5998 35.4792C52.9396 35.2125 51.1073 33.2295 51.1073 29.5259V22.308H49.4706C48.884 22.308 48.4291 22.1746 48.1145 21.9122C47.7999 21.6455 47.6384 21.2627 47.6384 20.7551C47.6384 20.2476 47.7957 19.8604 48.1145 19.598C48.4291 19.3313 48.884 19.2023 49.4706 19.2023H51.1073V16.1568C51.1073 15.5632 51.2944 15.0857 51.6642 14.733C52.0341 14.3803 52.5357 14.2039 53.1691 14.2039C53.7813 14.2039 54.2702 14.3803 54.64 14.733C55.0099 15.0857 55.1969 15.5589 55.1969 16.1568V19.2023H57.9772C58.5639 19.2023 59.0187 19.3356 59.3333 19.598C59.6479 19.8647 59.8094 20.2476 59.8094 20.7551C59.8094 21.2627 59.6521 21.6499 59.3333 21.9122C59.0187 22.1789 58.5639 22.308 57.9772 22.308H55.1969V29.8184C55.1969 31.4487 55.9366 32.3219 57.4203 32.4338L58.3003 32.4983ZM34.5066 20.7551L29.0651 15.2492C28.6187 14.7975 28.4147 14.3158 28.4529 13.8082C28.4912 13.3006 28.7208 12.836 29.1331 12.4145C29.5497 11.993 30.0131 11.7607 30.519 11.7134C31.0291 11.666 31.5053 11.8682 31.9516 12.3199L38.8555 19.3055L38.8725 19.327L38.8895 19.3442L38.9065 19.3657L38.9108 19.37L38.9235 19.3873L38.9278 19.3916L38.9405 19.4045L38.949 19.4131L38.9618 19.426L38.9703 19.4346C39.3104 19.8217 39.4974 20.2433 39.5314 20.6992C39.5697 21.2068 39.3656 21.6843 38.9193 22.1359L19.9166 41.3637C19.4703 41.8154 18.9899 42.0261 18.484 41.996C18.1269 41.9745 17.7953 41.8584 17.485 41.6433H17.4807L17.4595 41.6304L17.4552 41.6261C17.3617 41.5616 17.2682 41.4841 17.1746 41.3981L17.1576 41.3852L17.1534 41.3809L17.1364 41.3637L17.1321 41.3594L17.0939 41.3207L0.616392 24.6437C0.170021 24.192 -0.0340347 23.7103 0.00422566 23.2027C0.042486 22.6951 0.267797 22.2306 0.68441 21.809C1.10102 21.3875 1.5644 21.1552 2.07029 21.1079C2.58042 21.0605 3.05655 21.2627 3.50292 21.7144L18.5265 36.9159L34.5066 20.7551Z" fill="#5C2682"/>
</g>
<defs>
<clipPath id="clip0">
<rect width="178" height="42" fill="white"/>
</clipPath>
</defs>
</svg>
