<svg width="26" height="20" viewBox="0 0 26 20" fill="none" xmlns="http://www.w3.org/2000/svg">
<path fill-rule="evenodd" clip-rule="evenodd" d="M1.91382 0H24.0395C25.1131 0 26 0.886667 26 1.91333C26 2.98667 25.1131 3.87333 24.0395 3.87333H1.91382C0.886894 3.87333 0 2.98667 0 1.91333C0 0.886667 0.886894 0 1.91382 0Z" fill="#5C2682"/>
<path fill-rule="evenodd" clip-rule="evenodd" d="M1.91382 7.79321H24.0395C25.1131 7.79321 26 8.63321 26 9.70655C26 10.7799 25.1131 11.6665 24.0395 11.6665H1.91382C0.886894 11.6665 0 10.7799 0 9.70655C0 8.63321 0.886894 7.79321 1.91382 7.79321Z" fill="#5C2682"/>
<path fill-rule="evenodd" clip-rule="evenodd" d="M1.91382 15.5867H24.0395C25.1131 15.5867 26 16.4267 26 17.5C26 18.5733 25.1131 19.4133 24.0395 19.4133H1.91382C0.886894 19.4133 0 18.5733 0 17.5C0 16.4267 0.886894 15.5867 1.91382 15.5867Z" fill="#5C2682"/>
</svg>
