<svg width="55" height="61" viewBox="0 0 55 61" fill="none" xmlns="http://www.w3.org/2000/svg">
<rect opacity="0.15" width="55" height="61" rx="4" fill="#E84D21"/>
<path d="M39 19.7143C39 19.2596 38.8194 18.8236 38.4979 18.5021C38.1764 18.1806 37.7404 18 37.2857 18H28.7143V21.4286H33.1457L16.0029 38.5714L18.4286 40.9971L35.5714 23.8543V28.2857H39V19.7143Z" fill="#E84D21"/>
<path d="M25.2857 23.1429C25.2857 22.1257 24.9841 21.1314 24.419 20.2856C23.8539 19.4399 23.0507 18.7807 22.1109 18.3915C21.1712 18.0022 20.1372 17.9004 19.1395 18.0988C18.1419 18.2973 17.2256 18.7871 16.5063 19.5063C15.7871 20.2256 15.2973 21.1419 15.0988 22.1395C14.9004 23.1372 15.0022 24.1712 15.3915 25.1109C15.7807 26.0507 16.4399 26.8539 17.2856 27.419C18.1314 27.9841 19.1257 28.2857 20.1429 28.2857C21.5068 28.2857 22.8149 27.7439 23.7794 26.7794C24.7439 25.8149 25.2857 24.5068 25.2857 23.1429ZM18.4286 23.1429C18.4286 22.8038 18.5291 22.4724 18.7175 22.1905C18.9058 21.9085 19.1736 21.6888 19.4868 21.5591C19.8001 21.4293 20.1448 21.3954 20.4773 21.4615C20.8098 21.5277 21.1153 21.6909 21.355 21.9307C21.5948 22.1704 21.7581 22.4759 21.8242 22.8084C21.8903 23.141 21.8564 23.4856 21.7266 23.7989C21.5969 24.1121 21.3772 24.3799 21.0953 24.5682C20.8134 24.7566 20.4819 24.8571 20.1429 24.8571C19.6882 24.8571 19.2522 24.6765 18.9307 24.355C18.6092 24.0335 18.4286 23.5975 18.4286 23.1429Z" fill="#E84D21"/>
<path d="M28.7143 36.8571C28.7143 37.8742 29.0159 38.8686 29.581 39.7143C30.1461 40.56 30.9493 41.2192 31.8891 41.6085C32.8288 41.9977 33.8629 42.0996 34.8605 41.9011C35.8581 41.7027 36.7745 41.2129 37.4937 40.4936C38.2129 39.7744 38.7027 38.858 38.9012 37.8604C39.0996 36.8628 38.9978 35.8287 38.6085 34.889C38.2193 33.9493 37.5601 33.1461 36.7144 32.581C35.8686 32.0159 34.8743 31.7142 33.8571 31.7142C32.4932 31.7142 31.1851 32.2561 30.2206 33.2205C29.2561 34.185 28.7143 35.4931 28.7143 36.8571ZM35.5714 36.8571C35.5714 37.1961 35.4709 37.5276 35.2825 37.8095C35.0942 38.0914 34.8264 38.3111 34.5132 38.4409C34.1999 38.5706 33.8552 38.6046 33.5227 38.5384C33.1902 38.4723 32.8847 38.309 32.645 38.0693C32.4052 37.8295 32.2419 37.5241 32.1758 37.1915C32.1097 36.859 32.1436 36.5143 32.2734 36.2011C32.4031 35.8878 32.6228 35.6201 32.9047 35.4317C33.1867 35.2433 33.5181 35.1428 33.8571 35.1428C34.3118 35.1428 34.7478 35.3234 35.0693 35.6449C35.3908 35.9664 35.5714 36.4024 35.5714 36.8571Z" fill="#E84D21"/>
</svg>
