<svg width="25" height="23" viewBox="0 0 25 23" fill="none" xmlns="http://www.w3.org/2000/svg">
<path d="M17.9337 4.35848C21.7146 5.74241 24.38 8.70337 24.5794 12.1699V12.5135C24.5794 13.0849 24.5002 13.6535 24.3441 14.2032C24.0523 15.4874 23.35 16.6774 22.4519 17.7138V21.7066C22.4519 22.2356 22.1528 22.6648 21.623 22.6648H17.7298C17.3185 22.6648 17.0634 22.3326 17.0634 21.9212V21.1237C16.1654 21.4668 14.3854 21.6545 13.0221 21.6545C11.6606 21.6545 10.7769 21.4668 8.98075 21.1237V21.7057C8.98075 22.2347 8.79126 22.6639 8.26229 22.6639H4.58378C4.05571 22.6639 3.5923 22.2356 3.5923 21.7057V17.7129C2.69423 17.0914 2.64124 16.3774 2.30985 15.4802H0.776835C0.348453 15.4802 0 14.5022 0 12.786C0 11.0698 0.347555 10.0918 0.776835 10.0918H2.30985C2.55233 9.19372 2.85768 8.75635 3.21331 8.28037L3.32378 4.43122C3.33096 4.20671 3.43963 3.99566 3.61924 3.86095C3.79796 3.72534 4.02966 3.67774 4.2479 3.73432L7.67315 4.59647C7.87073 4.51295 8.071 4.43392 8.27487 4.35848C8.59907 6.73389 10.6422 8.56866 13.1038 8.56866C15.5663 8.56866 17.6086 6.73389 17.9337 4.35848Z" fill="white"/>
<path d="M13.1038 7.38936C15.1442 7.38936 16.7985 5.73511 16.7985 3.69468C16.7985 1.65425 15.1442 0 13.1038 0C11.0634 0 9.41003 1.65425 9.41003 3.69378C9.41003 5.73511 11.0625 7.38936 13.1038 7.38936ZM13.1038 1.79615C14.151 1.79615 15.0023 2.64753 15.0023 3.69378C15.0023 4.74094 14.151 5.59231 13.1038 5.59231C12.0576 5.59231 11.2062 4.74094 11.2062 3.69378C11.2062 2.64753 12.0576 1.79615 13.1038 1.79615Z" fill="white"/>
</svg>
