<svg width="55" height="61" viewBox="0 0 55 61" fill="none" xmlns="http://www.w3.org/2000/svg">
<rect opacity="0.15" width="55" height="61" rx="4" fill="#2298EF"/>
<path fill-rule="evenodd" clip-rule="evenodd" d="M13.204 18.5016V31.9076C13.204 33.0037 13.4569 34.0155 14.0471 34.943C16.8295 39.7489 21.7198 43.4588 26.863 47C31.9219 43.4588 36.8122 39.7489 39.5946 34.943C40.1848 34.0155 40.4377 33.0037 40.4377 31.9076V18.5016C24.5865 11.1661 29.0552 11.1661 13.204 18.5016ZM23.3218 27.8605L25.1767 29.7154L30.3199 24.4879C30.5729 24.235 30.9101 24.235 31.1631 24.4879L32.0905 25.4154C32.2592 25.584 32.2592 26.0056 32.0905 26.2585L25.5983 32.7508C25.3453 32.9194 24.9238 32.9194 24.6708 32.7508L21.5512 29.5468C21.3825 29.2939 21.3825 28.8723 21.6355 28.7037L22.4786 27.8605C22.7316 27.6076 23.0688 27.6076 23.3218 27.8605Z" fill="#2298EF"/>
</svg>
