<svg width="31" height="31" viewBox="0 0 31 31" fill="none" xmlns="http://www.w3.org/2000/svg">
<circle opacity="0.1" cx="15.5" cy="15.5" r="15.5" fill="#5C2682"/>
<path d="M20.2208 12.8571L15.3854 20.6479C15.337 20.7245 15.2568 20.7688 15.1729 20.7688C15.1398 20.7688 15.1067 20.7621 15.0749 20.7487C14.9616 20.699 14.898 20.5713 14.9234 20.4451L15.8778 15.6645H12.8824C12.8035 15.6645 12.7297 15.6269 12.6813 15.5611C12.633 15.4953 12.6164 15.4106 12.6355 15.33L14.1625 8.88252C14.1905 8.76297 14.2923 8.67969 14.4094 8.67969H18.9903C19.0832 8.67969 19.1697 8.73342 19.2143 8.81938C19.2588 8.90535 19.255 9.01012 19.2053 9.0934L17.1656 12.4407H20.0083C20.1012 12.4407 20.1877 12.4945 20.2322 12.5818C20.2768 12.6691 20.273 12.7739 20.2208 12.8571Z" fill="#5C2682"/>
<path d="M22.6472 14.6136L19.7614 20.9613C19.7334 21.0242 19.739 21.0903 19.774 21.1381C19.7878 21.157 19.8059 21.1727 19.8276 21.1846C19.9061 21.2262 20.013 21.2036 20.0819 21.1308L22.6927 18.382L23.9429 20.0879C23.9759 20.1328 24.0303 20.1575 24.0919 20.1547C24.1536 20.1519 24.2137 20.1222 24.2565 20.0742L27.6776 16.2303C27.7412 16.1592 27.7511 16.0628 27.7022 15.9961L25.7903 13.3872C25.7515 13.3343 25.6816 13.3098 25.6089 13.3241C25.5362 13.3384 25.4718 13.3889 25.4401 13.4556L24.1845 16.1614L22.998 14.5425C22.9592 14.4896 22.8893 14.4651 22.8157 14.48C22.7422 14.4949 22.6778 14.5454 22.6472 14.6136Z" fill="#CD9FED"/>
<path d="M9.51866 14.6136L12.4044 20.9613C12.4324 21.0242 12.4269 21.0903 12.3918 21.1381C12.378 21.157 12.36 21.1727 12.3382 21.1846C12.2597 21.2262 12.1528 21.2036 12.084 21.1308L9.47312 18.382L8.22291 20.0879C8.18998 20.1328 8.1355 20.1575 8.07389 20.1547C8.01228 20.1519 7.95211 20.1222 7.90934 20.0742L4.48823 16.2303C4.42466 16.1592 4.41473 16.0628 4.46359 15.9961L6.37555 13.3872C6.41432 13.3343 6.48426 13.3098 6.55696 13.3241C6.62966 13.3384 6.69402 13.3889 6.72573 13.4556L7.98138 16.1614L9.16786 14.5425C9.20663 14.4896 9.27656 14.4651 9.35011 14.48C9.42366 14.4949 9.48801 14.5454 9.51866 14.6136Z" fill="#CD9FED"/>
</svg>
