<svg width="55" height="61" viewBox="0 0 55 61" fill="none" xmlns="http://www.w3.org/2000/svg">
<rect opacity="0.15" width="55" height="61" rx="4" fill="#10B35A"/>
<path d="M34.4356 32.5205C34.3884 32.6512 34.3376 32.7819 34.2832 32.9089C34.3449 32.7637 34.4066 32.6185 34.4647 32.477C34.1706 33.1667 33.7931 33.8128 33.3394 34.4081C33.4337 34.2847 33.5281 34.1649 33.6225 34.0415C33.1615 34.6332 32.6279 35.1668 32.0362 35.6278C32.1596 35.5334 32.2794 35.439 32.4028 35.3446C31.8075 35.802 31.1614 36.1795 30.4717 36.4699C30.6169 36.4082 30.7621 36.3465 30.9037 36.2884C30.1849 36.5897 29.4335 36.7894 28.664 36.8946C28.8237 36.8728 28.9871 36.8511 29.1468 36.8293C28.3845 36.9273 27.6186 36.9273 26.8599 36.8293C27.0196 36.8511 27.183 36.8728 27.3427 36.8946C26.5731 36.7894 25.8217 36.5861 25.103 36.2884C25.2482 36.3501 25.3934 36.4118 25.535 36.4699C24.8453 36.1759 24.1991 35.7984 23.6038 35.3446C23.7273 35.439 23.847 35.5334 23.9705 35.6278C23.3788 35.1668 22.8452 34.6332 22.3842 34.0415C22.4785 34.1649 22.5729 34.2847 22.6673 34.4081C22.2099 33.8128 21.8324 33.1667 21.542 32.477C21.6037 32.6222 21.6654 32.7674 21.7235 32.9089C21.4222 32.1902 21.2226 31.4388 21.1173 30.6693C21.1391 30.829 21.1609 30.9923 21.1827 31.152C21.0846 30.3898 21.0846 29.6238 21.1827 28.8652C21.1609 29.0249 21.1391 29.1882 21.1173 29.348C21.2226 28.5784 21.4259 27.827 21.7235 27.1083C21.6618 27.2535 21.6001 27.3987 21.542 27.5402C21.836 26.8506 22.2136 26.2044 22.6673 25.6091C22.5729 25.7325 22.4785 25.8523 22.3842 25.9757C22.8452 25.3841 23.3788 24.8504 23.9705 24.3894C23.847 24.4838 23.7273 24.5782 23.6038 24.6726C24.1991 24.2152 24.8453 23.8377 25.535 23.5473C25.3898 23.609 25.2446 23.6707 25.103 23.7288C25.8217 23.4275 26.5731 23.2279 27.3427 23.1226C27.183 23.1444 27.0196 23.1662 26.8599 23.1879C27.6222 23.0899 28.3881 23.0899 29.1468 23.1879C28.9871 23.1662 28.8237 23.1444 28.664 23.1226C29.4335 23.2279 30.1849 23.4311 30.9037 23.7288C30.7585 23.6671 30.6133 23.6054 30.4717 23.5473C31.1614 23.8413 31.8075 24.2188 32.4028 24.6726C32.2794 24.5782 32.1596 24.4838 32.0362 24.3894C32.6279 24.8504 33.1615 25.3841 33.6225 25.9757C33.5281 25.8523 33.4337 25.7325 33.3394 25.6091C33.7967 26.2044 34.1743 26.8506 34.4647 27.5402C34.4029 27.395 34.3412 27.2498 34.2832 27.1083C34.5844 27.827 34.7841 28.5784 34.8894 29.348C34.8676 29.1882 34.8458 29.0249 34.824 28.8652C34.922 29.6275 34.922 30.3934 34.824 31.152C34.8458 30.9923 34.8676 30.829 34.8894 30.6693C34.8059 31.3009 34.6534 31.918 34.4356 32.5205C34.2832 32.9416 34.3993 33.5442 34.6171 33.9181C34.8385 34.2956 35.2705 34.6549 35.7025 34.753C36.1671 34.8582 36.6898 34.8364 37.1 34.5715C37.5138 34.3028 37.7643 33.9507 37.9349 33.4861C38.6718 31.4424 38.7226 29.1084 38.1019 27.0284C37.8078 26.0447 37.3722 25.0755 36.7987 24.2225C36.2252 23.3731 35.55 22.5817 34.7514 21.9356C34.2977 21.569 33.833 21.2169 33.3285 20.9228C32.8275 20.6288 32.3012 20.4001 31.764 20.1823C30.7585 19.7758 29.6767 19.5725 28.595 19.4999C26.4933 19.3583 24.2935 19.921 22.504 21.0317C20.7761 22.1026 19.2951 23.6998 18.4711 25.5692C18.2315 26.11 18.0101 26.6509 17.854 27.2208C17.6906 27.8234 17.5999 28.4405 17.5309 29.0576C17.4111 30.1393 17.5091 31.2501 17.7378 32.3136C18.6126 36.4082 22.1591 39.7877 26.3154 40.3866C26.9107 40.4738 27.5024 40.5427 28.105 40.5355C28.7257 40.5282 29.3464 40.452 29.9563 40.3467C31.0017 40.1688 32.0181 39.7877 32.9582 39.2977C34.7587 38.3575 36.3159 36.8075 37.267 35.0107C37.5283 34.5206 37.7461 34.0052 37.9385 33.4861C38.0946 33.065 37.9748 32.4625 37.757 32.0886C37.5356 31.7111 37.1036 31.3517 36.6717 31.2537C36.207 31.1484 35.6843 31.1702 35.2741 31.4352C34.8531 31.7038 34.6062 32.0559 34.4356 32.5205Z" fill="#10B35A"/>
<path d="M37.4811 14.6933C34.4755 12.8239 30.8746 11.8692 27.3354 12.0144C23.7527 12.1633 20.1808 13.3539 17.3131 15.5282C16.4819 16.1598 15.6905 16.8241 14.9718 17.5828C14.264 18.3305 13.6178 19.1437 13.0407 19.9931C12.0315 21.4777 11.2584 23.1475 10.7465 24.8645C9.73742 28.2294 9.75194 31.9283 10.7865 35.2824C11.3164 37.003 12.1005 38.6692 13.1314 40.1466C13.7195 40.9923 14.3692 41.8054 15.088 42.546C15.8176 43.301 16.6271 43.9725 17.4692 44.5969C20.355 46.7313 23.9342 47.8929 27.5097 48.0018C31.0271 48.107 34.6135 47.1378 37.5864 45.2503C39.2344 44.2048 40.7372 42.8944 41.9569 41.3699C42.5776 40.5894 43.1584 39.7836 43.6521 38.916C44.1312 38.0739 44.5269 37.1881 44.8717 36.2843C46.1349 32.9847 46.3164 29.2894 45.5215 25.8591C44.6902 22.2654 42.672 18.9113 39.8878 16.4902C39.1364 15.8295 38.3269 15.2233 37.4811 14.6933C37.0891 14.4465 36.5228 14.3884 36.0836 14.5118C35.6625 14.628 35.2052 14.9547 34.9982 15.3467C34.5264 16.2397 34.7877 17.2924 35.648 17.8296C36.1018 18.1127 36.541 18.4177 36.9621 18.7444C36.8386 18.65 36.7188 18.5556 36.5954 18.4612C37.6989 19.3179 38.6935 20.3089 39.5502 21.416C39.4558 21.2926 39.3615 21.1728 39.2671 21.0494C40.1129 22.1529 40.8171 23.358 41.3579 24.6358C41.2962 24.4906 41.2345 24.3454 41.1764 24.2038C41.7282 25.5215 42.1057 26.9045 42.2981 28.3165C42.2763 28.1568 42.2545 27.9935 42.2327 27.8338C42.4251 29.2785 42.4251 30.7414 42.2327 32.1824C42.2545 32.0227 42.2763 31.8594 42.2981 31.6997C42.1057 33.1153 41.7282 34.4984 41.1764 35.8124C41.2381 35.6672 41.2998 35.522 41.3579 35.3804C40.8171 36.6618 40.1129 37.8669 39.2671 38.9668C39.3615 38.8434 39.4558 38.7236 39.5502 38.6002C38.6935 39.7037 37.7026 40.6983 36.5954 41.555C36.7188 41.4606 36.8386 41.3662 36.9621 41.2718C35.8585 42.1176 34.6534 42.8218 33.3757 43.3627C33.5209 43.301 33.6661 43.2393 33.8076 43.1812C32.49 43.7329 31.1069 44.1105 29.6949 44.3029C29.8546 44.2811 30.018 44.2593 30.1777 44.2375C28.733 44.4299 27.2701 44.4299 25.829 44.2375C25.9887 44.2593 26.1521 44.2811 26.3118 44.3029C24.8961 44.1105 23.5131 43.7329 22.199 43.1812C22.3442 43.2429 22.4894 43.3046 22.631 43.3627C21.3496 42.8218 20.1445 42.1176 19.0446 41.2718C19.168 41.3662 19.2878 41.4606 19.4112 41.555C18.3077 40.6983 17.3131 39.7073 16.4565 38.6002C16.5508 38.7236 16.6452 38.8434 16.7396 38.9668C15.8938 37.8633 15.1896 36.6582 14.6487 35.3804C14.7105 35.5256 14.7722 35.6708 14.8302 35.8124C14.2785 34.4947 13.901 33.1117 13.7086 31.6997C13.7304 31.8594 13.7521 32.0227 13.7739 32.1824C13.5815 30.7377 13.5815 29.2749 13.7739 27.8338C13.7521 27.9935 13.7304 28.1568 13.7086 28.3165C13.901 26.9009 14.2785 25.5179 14.8302 24.2038C14.7685 24.349 14.7068 24.4942 14.6487 24.6358C15.1896 23.3544 15.8938 22.1493 16.7396 21.0494C16.6452 21.1728 16.5508 21.2926 16.4565 21.416C17.3131 20.3125 18.3041 19.3179 19.4112 18.4612C19.2878 18.5556 19.168 18.65 19.0446 18.7444C20.1481 17.8986 21.3533 17.1944 22.631 16.6535C22.4858 16.7152 22.3406 16.7769 22.199 16.835C23.5167 16.2833 24.8997 15.9057 26.3118 15.7134C26.1521 15.7351 25.9887 15.7569 25.829 15.7787C27.2737 15.5863 28.7366 15.5863 30.1777 15.7787C30.018 15.7569 29.8546 15.7351 29.6949 15.7134C31.1106 15.9057 32.4936 16.2833 33.8076 16.835C33.6624 16.7733 33.5172 16.7116 33.3757 16.6535C34.1634 16.9875 34.922 17.3795 35.648 17.8296C36.04 18.0728 36.6063 18.1345 37.0455 18.0111C37.4666 17.895 37.924 17.5683 38.1309 17.1762C38.5992 16.2869 38.3414 15.2269 37.4811 14.6933Z" fill="#10B35A"/>
<path d="M32.882 25.1262C33.147 25.3912 33.3938 25.6744 33.6261 25.972C33.5318 25.8486 33.4374 25.7288 33.343 25.6054C33.8004 26.2007 34.1779 26.8468 34.4683 27.5365C34.4066 27.3913 34.3449 27.2461 34.2868 27.1046C34.5881 27.8233 34.7877 28.5747 34.893 29.3442C34.8712 29.1845 34.8494 29.0212 34.8276 28.8615C34.9257 29.6237 34.9257 30.3897 34.8276 31.1483C34.8494 30.9886 34.8712 30.8253 34.893 30.6655C34.7877 31.4351 34.5844 32.1865 34.2868 32.9052C34.3485 32.76 34.4102 32.6148 34.4683 32.4733C34.1743 33.1629 33.7967 33.8091 33.343 34.4044C33.4374 34.281 33.5318 34.1612 33.6261 34.0378C33.1651 34.6294 32.6315 35.1631 32.0398 35.6241C32.1633 35.5297 32.2831 35.4353 32.4065 35.3409C31.8112 35.7983 31.165 36.1758 30.4753 36.4662C30.6205 36.4045 30.7657 36.3428 30.9073 36.2847C30.1886 36.586 29.4372 36.7856 28.6676 36.8909C28.8273 36.8691 28.9907 36.8473 29.1504 36.8256C28.3881 36.9236 27.6222 36.9236 26.8635 36.8256C27.0233 36.8473 27.1866 36.8691 27.3463 36.8909C26.5768 36.7856 25.8254 36.5824 25.1066 36.2847C25.2518 36.3464 25.397 36.4081 25.5386 36.4662C24.8489 36.1722 24.2028 35.7947 23.6075 35.3409C23.7309 35.4353 23.8507 35.5297 23.9741 35.6241C23.3824 35.1631 22.8488 34.6294 22.3878 34.0378C22.4822 34.1612 22.5766 34.281 22.6709 34.4044C22.2136 33.8091 21.8361 33.1629 21.5457 32.4733C21.6074 32.6185 21.6691 32.7637 21.7272 32.9052C21.4259 32.1865 21.2262 31.4351 21.1209 30.6655C21.1427 30.8253 21.1645 30.9886 21.1863 31.1483C21.0883 30.386 21.0883 29.6201 21.1863 28.8615C21.1645 29.0212 21.1427 29.1845 21.1209 29.3442C21.2262 28.5747 21.4295 27.8233 21.7272 27.1046C21.6654 27.2498 21.6037 27.395 21.5457 27.5365C21.8397 26.8468 22.2172 26.2007 22.6709 25.6054C22.5766 25.7288 22.4822 25.8486 22.3878 25.972C22.8488 25.3803 23.3824 24.8467 23.9741 24.3857C23.8507 24.4801 23.7309 24.5745 23.6075 24.6689C24.2028 24.2115 24.8489 23.834 25.5386 23.5436C25.3934 23.6053 25.2482 23.667 25.1066 23.7251C25.8254 23.4238 26.5768 23.2241 27.3463 23.1189C27.1866 23.1407 27.0233 23.1624 26.8635 23.1842C27.6258 23.0862 28.3917 23.0862 29.1504 23.1842C28.9907 23.1624 28.8273 23.1407 28.6676 23.1189C29.4372 23.2241 30.1886 23.4274 30.9073 23.7251C30.7621 23.6634 30.6169 23.6017 30.4753 23.5436C31.165 23.8376 31.8112 24.2151 32.4065 24.6689C32.2831 24.5745 32.1633 24.4801 32.0398 24.3857C32.3339 24.6144 32.6134 24.8649 32.882 25.1262C33.2123 25.4566 33.6987 25.6562 34.167 25.6562C34.6135 25.6562 35.1435 25.4602 35.452 25.1262C35.7678 24.7814 36.0038 24.3276 35.982 23.8412C35.9602 23.3621 35.7968 22.9047 35.452 22.5562C33.9855 21.1006 32.0653 20.037 30.0252 19.674C29.4154 19.5651 28.7947 19.4853 28.1739 19.4744C27.5496 19.4635 26.9361 19.5325 26.319 19.6232C25.2736 19.7721 24.279 20.1205 23.328 20.5779C21.4839 21.4636 19.894 22.9882 18.8813 24.7596C17.8286 26.5964 17.3131 28.807 17.5346 30.9196C17.5999 31.5258 17.687 32.1357 17.8431 32.7274C17.9956 33.3081 18.2242 33.8635 18.4638 34.4153C18.874 35.3482 19.4584 36.194 20.1227 36.9635C21.4622 38.5208 23.3389 39.6642 25.3244 40.1833C26.3735 40.4555 27.4915 40.5826 28.5732 40.5136C29.655 40.4446 30.7403 40.245 31.7458 39.8421C32.2722 39.6315 32.7912 39.4065 33.2849 39.1233C33.7895 38.8329 34.2541 38.4808 34.7115 38.1178C35.5319 37.4644 36.2215 36.6586 36.8096 35.791C37.9857 34.0487 38.5955 31.8743 38.5411 29.7762C38.4866 27.6854 37.8224 25.5509 36.5628 23.8703C36.2179 23.4129 35.8658 22.9664 35.4629 22.5599C35.1362 22.2295 34.6425 22.0299 34.1779 22.0299C33.7314 22.0299 33.2014 22.2259 32.8929 22.5599C32.5771 22.9047 32.3411 23.3584 32.3629 23.8449C32.3702 24.3276 32.5335 24.7778 32.882 25.1262Z" fill="#10B35A"/>
<path d="M18.1589 17.5434C18.7833 18.1677 19.4076 18.7921 20.0356 19.4201C21.0375 20.4219 22.0357 21.4202 23.0376 22.4221C23.2662 22.6507 23.4949 22.8794 23.7236 23.1081C23.9922 22.0954 24.2572 21.0862 24.5258 20.0735C23.0376 20.6216 21.6872 21.4347 20.5619 22.5636C19.4366 23.6925 18.6235 25.0392 18.0718 26.5275C19.0845 26.2589 20.0937 25.9939 21.1064 25.7253C20.4821 25.101 19.8577 24.4766 19.2297 23.8486C18.2279 22.8468 17.2296 21.8485 16.2278 20.8467C15.9991 20.618 15.7704 20.3893 15.5417 20.1606C15.6361 20.8938 15.7305 21.6271 15.8248 22.3603C16.108 21.9066 16.4129 21.4674 16.7396 21.0463C16.6452 21.1697 16.5508 21.2895 16.4565 21.4129C17.3131 20.3094 18.3041 19.3148 19.4112 18.4581C19.2878 18.5525 19.168 18.6469 19.0446 18.7413C19.4693 18.4146 19.9085 18.1097 20.3587 17.8265C20.7543 17.5797 21.0665 17.1949 21.1935 16.7412C21.3133 16.3056 21.2589 15.7284 21.012 15.3436C20.7616 14.9552 20.3913 14.614 19.9267 14.5088C19.4584 14.4035 18.9466 14.4289 18.5292 14.6903C16.1697 16.1676 14.1696 18.1677 12.6922 20.5272C12.6305 20.6724 12.5688 20.8176 12.5107 20.9592C12.4345 21.1988 12.4236 21.442 12.478 21.6815C12.5325 22.0736 12.6886 22.4366 12.979 22.7233C13.6033 23.3477 14.2277 23.972 14.8556 24.6C15.8575 25.6019 16.8558 26.6001 17.8576 27.602C18.0863 27.8307 18.315 28.0594 18.5437 28.2881C19.0011 28.7454 19.6835 28.9269 20.3078 28.7563C20.6164 28.6692 20.8814 28.5131 21.1101 28.2881C21.3351 28.063 21.4912 27.7944 21.5783 27.4858C21.6255 27.3552 21.6763 27.2245 21.7308 27.0974C21.6691 27.2426 21.6074 27.3878 21.5493 27.5294C21.8433 26.8397 22.2208 26.1936 22.6746 25.5983C22.5802 25.7217 22.4858 25.8415 22.3914 25.9649C22.8524 25.3732 23.386 24.8396 23.9777 24.3786C23.8543 24.473 23.7345 24.5674 23.6111 24.6617C24.2064 24.2044 24.8525 23.8268 25.5422 23.5364C25.397 23.5982 25.2518 23.6599 25.1103 23.7179C25.2373 23.6635 25.368 23.6127 25.4987 23.5655C25.8072 23.4784 26.0722 23.3223 26.3009 23.0972C26.5259 22.8722 26.682 22.6035 26.7691 22.295C26.9398 21.6707 26.7583 20.9882 26.3009 20.5308C25.6765 19.9065 25.0522 19.2821 24.4242 18.6542C23.4223 17.6523 22.4241 16.6541 21.4222 15.6522C21.1935 15.4235 20.9649 15.1948 20.7362 14.9661C20.4058 14.6358 19.9194 14.4362 19.4512 14.4362C19.0047 14.4362 18.4747 14.6322 18.1662 14.9661C17.8504 15.311 17.6144 15.7647 17.6362 16.2511C17.6507 16.7412 17.8104 17.1949 18.1589 17.5434Z" fill="#10B35A"/>
<path d="M34.9002 34.2848C35.5246 34.9092 36.1489 35.5335 36.7769 36.1615C37.7788 37.1634 38.777 38.1616 39.7789 39.1635C40.0076 39.3921 40.2363 39.6208 40.465 39.8495C40.3706 39.1163 40.2762 38.383 40.1818 37.6498C39.8987 38.1035 39.5938 38.5427 39.2671 38.9638C39.3614 38.8404 39.4558 38.7206 39.5502 38.5972C38.6935 39.7007 37.7026 40.6953 36.5954 41.552C36.7188 41.4576 36.8386 41.3632 36.962 41.2688C36.5373 41.5955 36.0981 41.9004 35.648 42.1836C36.3813 42.278 37.1145 42.3723 37.8478 42.4667C37.2234 41.8424 36.5991 41.218 35.9711 40.59C34.9692 39.5882 33.971 38.5899 32.9691 37.5881C32.7404 37.3594 32.5117 37.1307 32.283 36.902C32.0144 37.9148 31.7494 38.9239 31.4808 39.9366C32.9691 39.3885 34.3194 38.5754 35.4447 37.4465C36.57 36.3176 37.3831 34.9709 37.9349 33.4826C38.091 33.0615 37.9712 32.4589 37.7534 32.0851C37.5319 31.7075 37.1 31.3482 36.668 31.2502C36.2034 31.1449 35.6807 31.1667 35.2705 31.4317C34.853 31.7003 34.6062 32.0524 34.4356 32.517C34.3884 32.6477 34.3376 32.7784 34.2831 32.9054C34.3449 32.7602 34.4066 32.615 34.4646 32.4735C34.1706 33.1632 33.7931 33.8093 33.3394 34.4046C33.4337 34.2812 33.5281 34.1614 33.6225 34.038C33.1615 34.6296 32.6279 35.1633 32.0362 35.6243C32.1596 35.5299 32.2794 35.4355 32.4028 35.3411C31.8075 35.7985 31.1614 36.176 30.4717 36.4664C30.6169 36.4047 30.7621 36.343 30.9037 36.2849C30.7766 36.3394 30.6459 36.3902 30.5153 36.4374C30.2067 36.5245 29.9417 36.6806 29.713 36.9056C29.488 37.1307 29.3319 37.3993 29.2448 37.7078C29.0742 38.3322 29.2557 39.0146 29.713 39.472C30.3374 40.0964 30.9617 40.7207 31.5897 41.3487C32.5916 42.3506 33.5898 43.3488 34.5917 44.3507C34.8204 44.5793 35.0491 44.808 35.2778 45.0367C35.8331 45.5921 36.7987 45.7446 37.4775 45.3199C39.837 43.8425 41.8371 41.8424 43.3145 39.4829C43.3762 39.3377 43.4379 39.1925 43.496 39.0509C43.5722 38.8114 43.5831 38.5681 43.5286 38.3286C43.4742 37.9365 43.3181 37.5735 43.0277 37.2868C42.4033 36.6624 41.779 36.0381 41.151 35.4101C40.1491 34.4082 39.1509 33.41 38.149 32.4081C37.9204 32.1794 37.6917 31.9507 37.463 31.7221C37.1327 31.3917 36.6462 31.1921 36.178 31.1921C35.7315 31.1921 35.2015 31.3881 34.893 31.7221C34.5772 32.0669 34.3412 32.5206 34.363 33.0071C34.392 33.4826 34.5554 33.94 34.9002 34.2848Z" fill="#10B35A"/>
<path d="M20.5583 37.45C21.6908 38.5753 23.0303 39.3884 24.5222 39.9402C24.2536 38.9274 23.9886 37.9183 23.72 36.9055C23.0956 37.5299 22.4713 38.1542 21.8433 38.7822C20.8414 39.7841 19.8432 40.7823 18.8413 41.7842C18.6127 42.0129 18.384 42.2416 18.1553 42.4703C18.8885 42.3759 19.6218 42.2815 20.355 42.1871C19.9013 41.904 19.4621 41.5991 19.041 41.2724C19.1644 41.3668 19.2842 41.4611 19.4076 41.5555C18.3041 40.6988 17.3095 39.7079 16.4528 38.6007C16.5472 38.7241 16.6416 38.8439 16.736 38.9674C16.4093 38.5426 16.1044 38.1034 15.8212 37.6533C15.7268 38.3866 15.6325 39.1198 15.5381 39.8531C16.1624 39.2287 16.7868 38.6044 17.4148 37.9764C18.4166 36.9745 19.4149 35.9763 20.4167 34.9744C20.6454 34.7457 20.8741 34.517 21.1028 34.2883C20.09 34.0197 19.0809 33.7547 18.0682 33.4861C18.6199 34.9744 19.4366 36.3175 20.5583 37.45C20.885 37.7804 21.3787 37.98 21.8433 37.98C22.2898 37.98 22.8198 37.784 23.1283 37.45C23.4441 37.1052 23.6801 36.6514 23.6583 36.165C23.6365 35.6822 23.4732 35.2321 23.1283 34.88C22.8633 34.615 22.6165 34.3319 22.3842 34.0342C22.4785 34.1577 22.5729 34.2775 22.6673 34.4009C22.2099 33.8056 21.8324 33.1594 21.542 32.4697C21.6037 32.6149 21.6654 32.7601 21.7235 32.9017C21.6691 32.7747 21.6182 32.644 21.5711 32.5133C21.4839 32.2048 21.3279 31.9398 21.1028 31.7111C20.8777 31.486 20.6091 31.3299 20.3006 31.2428C19.6762 31.0722 18.9938 31.2537 18.5364 31.7111C17.9121 32.3354 17.2877 32.9598 16.6597 33.5878C15.6579 34.5896 14.6596 35.5879 13.6578 36.5897C13.4291 36.8184 13.2004 37.0471 12.9717 37.2758C12.4163 37.8312 12.2639 38.7967 12.6886 39.4755C14.166 41.835 16.1661 43.8351 18.5255 45.3125C18.6707 45.3742 18.8159 45.4359 18.9575 45.494C19.1971 45.5702 19.4403 45.5811 19.6799 45.5267C20.0719 45.4722 20.4349 45.3161 20.7217 45.0257C21.346 44.4014 21.9704 43.777 22.5983 43.1491C23.6002 42.1472 24.5984 41.149 25.6003 40.1471C25.829 39.9184 26.0577 39.6897 26.2864 39.461C26.7437 39.0037 26.9252 38.3212 26.7546 37.6969C26.6675 37.3883 26.5114 37.1233 26.2864 36.8946C26.0613 36.6696 25.7927 36.5135 25.4841 36.4264C25.3535 36.3792 25.2228 36.3284 25.0957 36.2739C25.2409 36.3356 25.3861 36.3973 25.5277 36.4554C24.838 36.1614 24.1919 35.7839 23.5966 35.3301C23.72 35.4245 23.8398 35.5189 23.9632 35.6133C23.6655 35.381 23.386 35.1341 23.1174 34.8691C22.7871 34.5388 22.3007 34.3392 21.8324 34.3392C21.3859 34.3392 20.856 34.5352 20.5474 34.8691C20.2316 35.214 19.9957 35.6677 20.0174 36.1541C20.0501 36.6442 20.2098 37.1016 20.5583 37.45Z" fill="#10B35A"/>
<path d="M38.1672 19.8411C38.6609 20.3348 39.1219 20.8611 39.5502 21.4129C39.4558 21.2895 39.3614 21.1697 39.2671 21.0463C39.5938 21.471 39.8987 21.9102 40.1818 22.3603C40.2762 21.6271 40.3706 20.8938 40.465 20.1606C39.8406 20.7849 39.2163 21.4093 38.5883 22.0372C37.5864 23.0391 36.5882 24.0373 35.5863 25.0392C35.3576 25.2679 35.1289 25.4966 34.9002 25.7253C35.913 25.9939 36.9221 26.2589 37.9349 26.5275C37.3868 25.0392 36.5736 23.6889 35.4447 22.5636C34.3194 21.4383 32.9691 20.6252 31.4808 20.0734C31.7494 21.0862 32.0144 22.0953 32.283 23.1081C32.9074 22.4837 33.5317 21.8594 34.1597 21.2314C35.1616 20.2295 36.1598 19.2313 37.1617 18.2294C37.3904 18.0007 37.6191 17.772 37.8478 17.5434C37.1145 17.6377 36.3813 17.7321 35.648 17.8265C36.1018 18.1096 36.541 18.4145 36.962 18.7412C36.8386 18.6469 36.7188 18.5525 36.5954 18.4581C37.1472 18.8864 37.6735 19.3474 38.1672 19.8411C38.4975 20.1714 38.9839 20.3711 39.4522 20.3711C39.8987 20.3711 40.4287 20.1751 40.7372 19.8411C41.053 19.4963 41.289 19.0425 41.2672 18.5561C41.2454 18.077 41.082 17.6196 40.7372 17.2711C39.7571 16.2947 38.6536 15.4235 37.4811 14.6902C37.3359 14.6285 37.1907 14.5668 37.0492 14.5087C36.8096 14.4325 36.5664 14.4216 36.3268 14.476C35.9348 14.5305 35.5718 14.6866 35.285 14.977C34.6607 15.6013 34.0363 16.2257 33.4083 16.8537C32.4065 17.8555 31.4082 18.8538 30.4064 19.8556C30.1777 20.0843 29.949 20.313 29.7203 20.5417C29.2629 20.9991 29.0814 21.6815 29.252 22.3059C29.3392 22.6144 29.4952 22.8794 29.7203 23.1081C29.9454 23.3331 30.214 23.4892 30.5225 23.5763C30.6532 23.6235 30.7839 23.6743 30.9109 23.7288C30.7657 23.6671 30.6205 23.6054 30.479 23.5473C31.1686 23.8413 31.8148 24.2188 32.4101 24.6726C32.2867 24.5782 32.1669 24.4838 32.0435 24.3894C32.6351 24.8504 33.1688 25.3841 33.6298 25.9757C33.5354 25.8523 33.441 25.7325 33.3466 25.6091C33.804 26.2044 34.1815 26.8506 34.4719 27.5402C34.4102 27.395 34.3485 27.2498 34.2904 27.1083C34.3449 27.2353 34.3957 27.366 34.4429 27.4967C34.53 27.8052 34.6861 28.0702 34.9111 28.2989C35.1362 28.524 35.4048 28.68 35.7133 28.7672C36.3377 28.9378 37.0201 28.7563 37.4775 28.2989C38.1019 27.6746 38.7262 27.0502 39.3542 26.4222C40.3561 25.4204 41.3543 24.4221 42.3562 23.4202C42.5848 23.1916 42.8135 22.9629 43.0422 22.7342C43.5976 22.1788 43.7501 21.2132 43.3254 20.5344C42.5921 19.362 41.7209 18.2585 40.7445 17.2784C40.4178 16.948 39.9241 16.7484 39.4595 16.7484C39.013 16.7484 38.483 16.9444 38.1745 17.2784C37.8586 17.6232 37.6227 18.077 37.6445 18.5634C37.659 19.0389 37.8223 19.4926 38.1672 19.8411Z" fill="#10B35A"/>
</svg>
