<svg width="163" height="149" viewBox="0 0 163 149" fill="none" xmlns="http://www.w3.org/2000/svg">
<path opacity="0.1" d="M36.2287 141.315C45.0391 150.657 66.6545 147.243 76.0248 141.315C106.451 122.069 159.724 90.0668 162.15 43.6959C163.158 23.9995 145.873 13.6448 138.668 10.6059C121.309 3.32762 102.269 1.11412 83.4913 0.288749C63.8545 -0.611658 42.7992 0.101164 25.141 9.7055C18.4212 13.3446 12.1121 18.0343 7.78155 24.4121C3.37635 30.9026 0.875086 38.6311 0.203106 46.3971C-0.879529 58.9653 2.48037 71.571 7.55755 83.0887C12.6347 94.6064 19.4292 105.299 25.6637 116.254C29.7329 123.419 28.7996 133.436 36.2287 141.315Z" fill="#BD5FFF"/>
<path d="M35.5567 46.5847L17.7119 41.1447C17.0026 40.9196 16.6293 40.2068 16.8533 39.494L20.0265 28.9517C20.2505 28.2389 20.9598 27.8637 21.6691 28.0888L39.5139 33.5288C40.2233 33.7539 40.5966 34.4667 40.3726 35.1795L37.1993 45.7218C36.9754 46.3971 36.2287 46.7723 35.5567 46.5847Z" stroke="#263238" stroke-width="0.5" stroke-miterlimit="10"/>
<path d="M19.4666 30.715L39.8126 36.9428" stroke="#263238" stroke-width="0.5" stroke-miterlimit="10"/>
<path d="M18.8693 32.7784L39.2153 38.9687" stroke="#263238" stroke-width="0.5" stroke-miterlimit="10"/>
<path d="M33.0182 42.833C32.9062 43.2082 32.9435 43.5834 33.1302 43.8835C32.8315 44.0336 32.4955 44.0711 32.1595 43.9585C31.4502 43.7334 31.0769 43.0206 31.2636 42.3078C31.4876 41.595 32.2342 41.2198 32.9062 41.4074C33.2422 41.5199 33.5035 41.745 33.6902 42.0076C33.3915 42.1577 33.1302 42.4578 33.0182 42.833Z" stroke="#263238" stroke-width="0.5" stroke-miterlimit="10"/>
<path d="M35.5568 43.5833C35.3328 44.2962 34.6235 44.6713 33.9142 44.4837C33.2049 44.2586 32.8316 43.5458 33.0182 42.833C33.2422 42.1202 33.9515 41.745 34.6608 41.9326C35.3701 42.1577 35.7435 42.8705 35.5568 43.5833Z" stroke="#263238" stroke-width="0.5" stroke-miterlimit="10"/>
<path d="M157.969 70.3329L143.148 65.8309C142.439 65.6058 142.066 64.893 142.29 64.1801L144.865 55.5888C145.089 54.8759 145.799 54.5008 146.508 54.7259L161.292 59.2279C162.001 59.453 162.374 60.1658 162.15 60.8786L159.574 69.47C159.388 70.1453 158.641 70.558 157.969 70.3329Z" stroke="#263238" stroke-width="0.5" stroke-miterlimit="10"/>
<path d="M144.492 56.9019L161.777 62.1917" stroke="#263238" stroke-width="0.5" stroke-miterlimit="10"/>
<path d="M143.969 58.6652L161.254 63.9175" stroke="#263238" stroke-width="0.5" stroke-miterlimit="10"/>
<path d="M155.99 67.1815C155.916 67.4816 155.953 67.8193 156.102 68.0819C155.841 68.1944 155.542 68.2319 155.281 68.1569C154.684 67.9693 154.348 67.3315 154.535 66.7313C154.721 66.131 155.356 65.7933 155.953 65.9809C156.252 66.056 156.476 66.2811 156.625 66.5062C156.289 66.6562 156.102 66.8813 155.99 67.1815Z" stroke="#263238" stroke-width="0.5" stroke-miterlimit="10"/>
<path d="M158.156 67.8568C157.969 68.4571 157.334 68.7947 156.737 68.6071C156.14 68.4195 155.804 67.7818 155.99 67.1815C156.177 66.5812 156.812 66.2436 157.409 66.4312C158.006 66.6187 158.342 67.2565 158.156 67.8568Z" stroke="#263238" stroke-width="0.5" stroke-miterlimit="10"/>
<path d="M137.633 18.1292L116.011 28.0781L121.156 39.3686L142.777 29.4197L137.633 18.1292Z" stroke="#263238" stroke-width="0.5" stroke-miterlimit="10"/>
<path d="M140.908 27.7887L137.623 20.623C136.988 20.9231 136.242 20.623 135.943 19.9852L118.509 28.0138C118.808 28.6516 118.509 29.4019 117.874 29.7021L121.16 36.8678C121.794 36.5677 122.541 36.8678 122.839 37.5056L140.311 29.477C140.012 28.8392 140.274 28.0513 140.908 27.7887Z" stroke="#263238" stroke-width="0.5" stroke-miterlimit="10"/>
<path d="M131.382 31.3106C132.804 30.2125 133.071 28.1634 131.979 26.7339C130.886 25.3044 128.847 25.0358 127.424 26.134C126.002 27.2321 125.735 29.2812 126.827 30.7107C127.92 32.1402 129.959 32.4088 131.382 31.3106Z" stroke="#263238" stroke-width="0.5" stroke-miterlimit="10"/>
<path d="M129.074 30.3023L128.029 28.0513L128.365 27.9013L129.597 28.7266C129.895 28.9142 130.119 29.1018 130.343 29.2894C130.194 28.9892 130.045 28.7266 129.895 28.389L129.447 27.4511L129.709 27.3385L130.754 29.5895L130.455 29.7396L129.223 28.9142C128.962 28.7266 128.701 28.539 128.439 28.3515C128.589 28.6141 128.701 28.9142 128.887 29.2894L129.335 30.2648L129.074 30.3023Z" fill="black"/>
<path d="M130.27 27.9199L128.166 28.8882L128.306 29.1952L130.41 28.2268L130.27 27.9199Z" fill="black"/>
<path d="M130.468 28.4164L128.364 29.3848L128.504 29.6918L130.608 28.7234L130.468 28.4164Z" fill="black"/>
<path opacity="0.2" d="M84.2753 103.873C84.2753 103.873 81.4007 118.542 63.7426 121.881C63.7426 121.881 59.1134 125.595 57.5828 127.771C56.0521 129.947 47.8764 133.661 39.5513 145.292C31.2262 156.922 18.8319 120.043 18.8319 120.043L46.2338 84.2892L84.2753 103.873Z" fill="black" fill-opacity="0.7"/>
<path d="M99.9921 34.9544C99.9921 34.9544 109.512 30.2648 111.602 31.0902C113.693 31.9155 115.709 36.7177 107.683 41.3698C99.6934 46.0219 102.083 54.6508 102.083 54.6508H107.795C107.795 54.6508 111.229 56.0389 112.573 57.8398C113.917 59.6406 114.85 65.7934 115.634 67.8943C116.381 69.9953 116.008 72.0587 113.917 72.734C113.917 72.734 112.573 78.5866 112.946 81.1753C113.32 83.764 113.133 85.4147 110.669 85.7524C108.205 86.0525 105.704 83.9516 105.891 81.1753L103.987 88.1159L105.331 90.7796C105.331 90.7796 107.795 91.605 110.482 93.8935C113.133 96.1821 115.821 96.8199 115.037 99.371C114.29 101.922 112.76 104.698 104.771 101.472C96.7815 98.283 90.0991 85.7149 90.0991 85.7149L85.2832 41.9326L99.9921 34.9544Z" fill="white"/>
<path opacity="0.4" d="M109.997 60.0908C105.667 66.0185 110.445 72.809 110.445 72.809C110.445 72.809 107.459 74.4973 107.384 78.7367C107.347 80.5 107.795 82.9761 108.317 85.3022C106.824 84.5894 105.741 83.0137 105.891 81.1378L103.987 88.0784L105.331 90.7421C105.331 90.7421 107.085 91.3424 109.25 92.9181C108.056 95.6569 107.72 99.0334 107.795 102.522C106.899 102.297 105.891 101.96 104.733 101.51C96.7442 98.3206 90.0617 85.7524 90.0617 85.7524L85.2832 41.9326L99.9921 34.9544C99.9921 34.9544 105.181 32.4033 108.765 31.3903C108.504 34.7293 109.138 38.2184 109.624 40.1318C109.064 40.5445 108.429 40.9571 107.72 41.3698C99.7308 45.9844 102.083 54.6508 102.083 54.6508H107.795C107.795 54.6508 111.042 56.0014 112.461 57.7272C111.64 58.2149 110.818 58.9653 109.997 60.0908Z" fill="#BD5FFF"/>
<path d="M85.0965 96.8199C85.0965 96.8199 74.7555 117.229 56.0894 121.844C56.0894 121.844 55.3801 125.896 52.2069 127.621C50.5269 128.559 43.6951 138.801 37.722 148.143L4.64563 127.771C6.6989 125.745 9.0135 123.419 11.3654 120.981C18.2719 113.89 25.6263 105.936 27.9036 102.035C29.9195 98.5456 32.4581 92.5054 34.6981 86.8028C37.5353 79.5245 39.8499 72.8465 39.8499 72.8465L50.9002 60.5034L68.2597 41.1072L69.0064 43.5833L85.0965 96.8199Z" fill="white"/>
<path opacity="0.4" d="M68.2224 41.1072L85.0966 96.7823C85.0966 96.7823 74.7556 117.192 56.0895 121.806C56.0895 121.806 55.3801 125.858 52.2069 127.584C50.6763 128.409 45.0391 136.775 39.5886 145.217C41.6046 138.239 47.4657 127.134 47.4657 127.134C43.6952 122.669 44.8151 117.942 46.3084 119.293C47.7644 120.606 51.6096 124.395 51.8336 124.657C50.1536 122.707 49.7803 119.593 49.7803 119.593C49.7803 119.593 54.4468 122.707 54.8202 117.717C55.1935 112.727 52.0202 100.534 52.0202 100.534L43.7325 68.4946L68.2224 41.1072Z" fill="#BD5FFF"/>
<path d="M85.2832 41.9326L99.9921 34.9544C99.9921 34.9544 109.512 30.2648 111.602 31.0902C113.693 31.9155 115.709 36.7177 107.683 41.3698C99.6934 46.0219 102.083 54.6508 102.083 54.6508H107.795C107.795 54.6508 111.229 56.0389 112.573 57.8398C113.917 59.6406 114.85 65.7934 115.634 67.8943C116.381 69.9953 116.008 72.0587 113.917 72.734C113.917 72.734 112.573 78.5866 112.946 81.1753C113.32 83.764 113.133 85.4147 110.669 85.7524C108.205 86.0525 105.704 83.9516 105.891 81.1753L103.987 88.1159L105.331 90.7796C105.331 90.7796 107.795 91.605 110.482 93.8935C113.133 96.1821 115.821 96.8199 115.037 99.371C114.29 101.922 112.76 104.698 104.771 101.472C96.7815 98.283 90.0991 85.7149 90.0991 85.7149" stroke="#263238" stroke-width="0.5" stroke-miterlimit="10" stroke-linecap="round" stroke-linejoin="round"/>
<path d="M113.88 72.734C111.005 73.5219 107.683 72.9216 106.451 67.8568C105.219 62.792 107.683 57.352 109.325 56.8643" stroke="#263238" stroke-width="0.5" stroke-miterlimit="10" stroke-linecap="round" stroke-linejoin="round"/>
<path d="M105.89 81.1378C105.89 81.1378 105.704 74.6098 108.093 72.9966" stroke="#263238" stroke-width="0.5" stroke-miterlimit="10" stroke-linecap="round" stroke-linejoin="round"/>
<path opacity="0.4" d="M36.4527 113.59C36.4527 113.59 29.4716 112.727 27.9037 109.576C26.597 106.987 19.6159 116.704 11.3655 120.943C18.2719 113.853 25.6264 105.899 27.9037 101.997C29.9196 98.5081 32.4582 92.4679 34.6981 86.7653C34.5861 91.4925 32.0849 98.6957 32.7942 102.485C32.7942 102.485 30.1062 103.16 30.6289 106.124C31.1889 109.163 36.4527 113.59 36.4527 113.59Z" fill="#BD5FFF"/>
<path d="M85.0966 96.8199C85.0966 96.8199 74.7556 117.229 56.0895 121.844C56.0895 121.844 55.3802 125.896 52.2069 127.621C50.527 128.559 43.6952 138.801 37.722 148.143" stroke="#263238" stroke-width="0.5" stroke-miterlimit="10" stroke-linecap="round" stroke-linejoin="round"/>
<path d="M4.64563 127.771C12.6347 119.855 24.8797 107.287 27.9036 102.035C32.4955 94.0811 39.8499 72.8465 39.8499 72.8465L68.2224 41.1447" stroke="#263238" stroke-width="0.5" stroke-miterlimit="10" stroke-linecap="round" stroke-linejoin="round"/>
<path d="M52.0201 65.3431C52.0201 65.3431 56.388 69.2824 57.62 72.8465" stroke="#263238" stroke-width="0.5" stroke-miterlimit="10" stroke-linecap="round" stroke-linejoin="round"/>
<path d="M103.501 113.59H56.5747C55.1935 113.59 54.0735 112.464 54.0735 111.076V10.6809C54.0735 9.29281 55.1935 8.1673 56.5747 8.1673H103.501C104.883 8.1673 106.003 9.29281 106.003 10.6809V111.039C106.003 112.464 104.883 113.59 103.501 113.59Z" fill="#263238"/>
<path d="M90.323 11.0561L89.3151 12.8945C89.0911 13.3072 88.6804 13.5323 88.2324 13.5323H71.8063C71.3583 13.5323 70.9476 13.2696 70.7236 12.8945L69.7157 11.0561C69.4917 10.6435 69.081 10.4183 68.633 10.4183H57.172C56.5 10.4183 55.9401 10.9811 55.9401 11.6564V110.364C55.9401 111.039 56.5 111.602 57.172 111.602H102.904C103.576 111.602 104.136 111.039 104.136 110.364V11.6564C104.136 10.9811 103.576 10.4183 102.904 10.4183H91.443C90.9577 10.3808 90.547 10.6435 90.323 11.0561Z" fill="#BD5FFF" stroke="#263238" stroke-width="0.5" stroke-miterlimit="10" stroke-linecap="round" stroke-linejoin="round"/>
<path d="M76.4728 11.919C76.8439 11.919 77.1447 11.6166 77.1447 11.2437C77.1447 10.8707 76.8439 10.5684 76.4728 10.5684C76.1016 10.5684 75.8008 10.8707 75.8008 11.2437C75.8008 11.6166 76.1016 11.919 76.4728 11.919Z" stroke="white" stroke-width="0.5" stroke-miterlimit="10"/>
<path d="M84.2752 11.2437C84.2752 11.4688 84.0885 11.6564 83.8645 11.6564C83.6405 11.6564 83.4539 11.4688 83.4539 11.2437C83.4539 11.0186 83.6405 10.831 83.8645 10.831C84.0885 10.831 84.2752 11.0186 84.2752 11.2437Z" stroke="white" stroke-width="0.5" stroke-miterlimit="10"/>
<path d="M82.4086 10.981H78.3393C78.19 10.981 78.078 11.0936 78.078 11.2436C78.078 11.3937 78.19 11.5063 78.3393 11.5063H82.4086C82.5579 11.5063 82.6699 11.3937 82.6699 11.2436C82.6699 11.1311 82.5579 10.981 82.4086 10.981Z" fill="white"/>
<path d="M64.4145 12.8945H60.0466V14.7703H64.4145V12.8945Z" stroke="#263238" stroke-width="0.5" stroke-miterlimit="10" stroke-linecap="round" stroke-linejoin="round"/>
<path d="M65.1239 13.2321H64.4519V14.4702H65.1239V13.2321Z" stroke="#263238" stroke-width="0.5" stroke-miterlimit="10" stroke-linecap="round" stroke-linejoin="round"/>
<path d="M95.4749 14.095H94.6909V14.7703H95.4749V14.095Z" stroke="#263238" stroke-width="0.5" stroke-miterlimit="10" stroke-linecap="round" stroke-linejoin="round"/>
<path d="M97.0056 13.4197H96.2216V14.7703H97.0056V13.4197Z" stroke="#263238" stroke-width="0.5" stroke-miterlimit="10" stroke-linecap="round" stroke-linejoin="round"/>
<path d="M98.4988 12.7444H97.7148V14.7703H98.4988V12.7444Z" stroke="#263238" stroke-width="0.5" stroke-miterlimit="10" stroke-linecap="round" stroke-linejoin="round"/>
<path d="M100.029 12.0316H99.2455V14.7703H100.029V12.0316Z" stroke="#263238" stroke-width="0.5" stroke-miterlimit="10" stroke-linecap="round" stroke-linejoin="round"/>
<path opacity="0.5" d="M103.8 32.2157H56.2388V77.7988H103.8V32.2157Z" fill="white"/>
<path d="M99.9921 37.7307H60.0466V43.7334H99.9921V37.7307Z" fill="white" stroke="#263238" stroke-width="0.5" stroke-miterlimit="10" stroke-linecap="round" stroke-linejoin="round"/>
<path d="M99.9921 48.9857H60.0466V54.9884H99.9921V48.9857Z" fill="white" stroke="#263238" stroke-width="0.5" stroke-miterlimit="10" stroke-linecap="round" stroke-linejoin="round"/>
<path d="M99.9921 59.2278H60.0466V65.2306H99.9921V59.2278Z" fill="white" stroke="#263238" stroke-width="0.5" stroke-miterlimit="10" stroke-linecap="round" stroke-linejoin="round"/>
<path d="M78.9741 67.4066H60.0466V74.4222H78.9741V67.4066Z" fill="white" stroke="#263238" stroke-width="0.5" stroke-miterlimit="10" stroke-linecap="round" stroke-linejoin="round"/>
<path d="M100.029 67.4066H81.1021V74.4222H100.029V67.4066Z" fill="white" stroke="#263238" stroke-width="0.5" stroke-miterlimit="10" stroke-linecap="round" stroke-linejoin="round"/>
<path d="M62.5479 36.6812V36.8313H61.3159V35.068H62.5106V35.2181H61.5026V35.8558H62.3986V36.0059H61.5026V36.6812H62.5479Z" fill="#263238"/>
<path d="M65.1611 36.0799V36.8678H64.9744V36.1175C64.9744 35.8173 64.8251 35.7048 64.6011 35.7048C64.3398 35.7048 64.1531 35.8923 64.1531 36.1925V36.9053H63.9665V36.155C63.9665 35.8548 63.8171 35.7423 63.5931 35.7423C63.3318 35.7423 63.1452 35.9299 63.1452 36.23V36.9428H62.9585V35.5922H63.1452V35.8173C63.2198 35.6672 63.4065 35.5547 63.6305 35.5547C63.8545 35.5547 64.0038 35.6297 64.1158 35.8548C64.2278 35.6672 64.4145 35.5547 64.6384 35.5547C64.9371 35.5172 65.1611 35.7048 65.1611 36.0799Z" fill="#263238"/>
<path d="M66.617 36.0049V36.8302H66.4304V36.6051C66.3557 36.7552 66.2064 36.8302 65.9824 36.8302C65.6837 36.8302 65.4971 36.6802 65.4971 36.4551C65.4971 36.2675 65.6464 36.0799 66.0197 36.0799H66.4304V36.0049C66.4304 35.7798 66.3184 35.6672 66.0571 35.6672C65.8704 35.6672 65.7211 35.7422 65.6091 35.8173L65.5344 35.6672C65.6837 35.5546 65.8704 35.4796 66.0571 35.4796C66.4304 35.5171 66.617 35.6672 66.617 36.0049ZM66.4677 36.4551V36.23H66.0571C65.7957 36.23 65.7211 36.3425 65.7211 36.4551C65.7211 36.6051 65.8331 36.7177 66.0571 36.7177C66.2437 36.7177 66.3931 36.6051 66.4677 36.4551Z" fill="#263238"/>
<path d="M67.0651 35.1045C67.0651 35.0295 67.1397 34.9919 67.2144 34.9919C67.2891 34.9919 67.3637 35.0295 67.3637 35.1045C67.3637 35.1795 67.3264 35.2546 67.2144 35.2546C67.1397 35.217 67.0651 35.142 67.0651 35.1045ZM67.1024 35.5172H67.2891V36.8678H67.1024V35.5172Z" fill="#263238"/>
<path d="M67.8118 34.9544H67.9984V36.8302H67.8118V34.9544Z" fill="#263238"/>
<path d="M63.7798 41.2958V41.4459H62.5479V39.6826H63.7425V39.8326H62.7345V40.4704H63.6305V40.6205H62.7345V41.2958H63.7798Z" fill="#263238"/>
<path d="M66.393 40.6944V41.4823H66.2064V40.732C66.2064 40.4318 66.057 40.3193 65.8331 40.3193C65.5717 40.3193 65.3851 40.5069 65.3851 40.807V41.5198H65.1984V40.7695C65.1984 40.4693 65.0491 40.3568 64.8251 40.3568C64.5638 40.3568 64.3771 40.5444 64.3771 40.8445V41.5573H64.1904V40.2067H64.3771V40.4318C64.4518 40.2818 64.6384 40.1692 64.8624 40.1692C65.0864 40.1692 65.2357 40.2442 65.3477 40.4693C65.4597 40.2818 65.6464 40.1692 65.8704 40.1692C66.169 40.0942 66.393 40.2818 66.393 40.6944Z" fill="#263238"/>
<path d="M67.8863 40.6195V41.4448H67.6997V41.2197C67.625 41.3698 67.4757 41.4448 67.2517 41.4448C66.953 41.4448 66.7664 41.2948 66.7664 41.0697C66.7664 40.8821 66.9157 40.6945 67.289 40.6945H67.6997V40.6195C67.6997 40.3944 67.5877 40.2818 67.3263 40.2818C67.1397 40.2818 66.9904 40.3569 66.8784 40.4319L66.8037 40.2818C66.953 40.1693 67.1397 40.0942 67.3263 40.0942C67.6623 40.0942 67.8863 40.2818 67.8863 40.6195ZM67.6997 41.0322V40.8071H67.289C67.0277 40.8071 66.953 40.9196 66.953 41.0322C66.953 41.1822 67.065 41.2948 67.289 41.2948C67.4757 41.3323 67.625 41.2197 67.6997 41.0322Z" fill="#263238"/>
<path d="M68.297 39.6815C68.297 39.6065 68.3717 39.569 68.4463 39.569C68.521 39.569 68.5957 39.6065 68.5957 39.6815C68.5957 39.7566 68.5583 39.8316 68.4463 39.8316C68.3717 39.8316 68.297 39.7566 68.297 39.6815ZM68.3717 40.1317H68.5583V41.4823H68.3717V40.1317Z" fill="#263238"/>
<path d="M69.0437 39.569H69.2304V41.4448H69.0437V39.569Z" fill="#263238"/>
<path d="M70.9475 40.6944V41.4823H70.7609V40.732C70.7609 40.4318 70.6115 40.3193 70.3502 40.3193C70.0516 40.3193 69.9022 40.5069 69.9022 40.807V41.5198H69.7156V40.1692H69.9022V40.4318C70.0142 40.2818 70.1636 40.1692 70.4249 40.1692C70.7235 40.0942 70.9475 40.2818 70.9475 40.6944Z" fill="#263238"/>
<path d="M72.4409 40.6195V41.4448H72.2542V41.2197C72.1796 41.3698 72.0302 41.4448 71.8062 41.4448C71.5076 41.4448 71.3209 41.2948 71.3209 41.0697C71.3209 40.8821 71.4702 40.6945 71.8436 40.6945H72.2542V40.6195C72.2542 40.3944 72.1422 40.2818 71.8809 40.2818C71.6942 40.2818 71.5449 40.3569 71.4329 40.4319L71.3583 40.2818C71.5076 40.1693 71.6942 40.0942 71.8809 40.0942C72.2169 40.0942 72.4409 40.2818 72.4409 40.6195ZM72.2542 41.0322V40.8071H71.8436C71.5822 40.8071 71.5076 40.9196 71.5076 41.0322C71.5076 41.1822 71.6196 41.2948 71.8436 41.2948C72.0302 41.3323 72.1796 41.2197 72.2542 41.0322Z" fill="#263238"/>
<path d="M75.0915 40.6944V41.4823H74.9048V40.732C74.9048 40.4318 74.7555 40.3193 74.5315 40.3193C74.2702 40.3193 74.0835 40.5069 74.0835 40.807V41.5198H73.8969V40.7695C73.8969 40.4693 73.7476 40.3568 73.5236 40.3568C73.2622 40.3568 73.0756 40.5444 73.0756 40.8445V41.5573H72.8889V40.2067H73.0756V40.4318C73.1502 40.2818 73.3369 40.1692 73.5609 40.1692C73.7849 40.1692 73.9342 40.2442 74.0462 40.4693C74.1582 40.2818 74.3449 40.1692 74.5689 40.1692C74.9048 40.0942 75.0915 40.2818 75.0915 40.6944Z" fill="#263238"/>
<path d="M76.7341 40.8446H75.6142C75.6515 41.1072 75.8381 41.2948 76.1368 41.2948C76.2861 41.2948 76.4355 41.2197 76.5475 41.1072L76.6594 41.2197C76.5475 41.3698 76.3608 41.4448 76.1368 41.4448C75.7261 41.4448 75.4275 41.1447 75.4275 40.7695C75.4275 40.3569 75.6888 40.0942 76.0621 40.0942C76.4355 40.0942 76.6968 40.3569 76.6968 40.7695C76.7341 40.8071 76.7341 40.8071 76.7341 40.8446ZM75.6515 40.6945H76.5848C76.5475 40.4319 76.3608 40.2443 76.0995 40.2443C75.8381 40.2443 75.6515 40.4319 75.6515 40.6945Z" fill="#263238"/>
<path d="M79.3474 40.7695C79.3474 41.1822 79.1981 41.4448 78.9367 41.4448C78.7874 41.4448 78.6754 41.3323 78.6381 41.1822C78.5261 41.3698 78.3394 41.4448 78.1154 41.4448C77.7421 41.4448 77.4808 41.1822 77.4808 40.7695C77.4808 40.3944 77.7421 40.1317 78.1154 40.1317C78.3394 40.1317 78.5261 40.2443 78.6008 40.3944V40.1317H78.7501V41.1072C78.7501 41.2573 78.8247 41.2948 78.8994 41.2948C79.0487 41.2948 79.1607 41.1072 79.1607 40.7695C79.1607 40.1693 78.7501 39.7941 78.1154 39.7941C77.4808 39.7941 77.0701 40.2068 77.0701 40.8071C77.0701 41.4073 77.4808 41.82 78.1154 41.82C78.2648 41.82 78.4514 41.7825 78.6008 41.7075L78.6381 41.82C78.4888 41.895 78.2648 41.9326 78.1154 41.9326C77.4061 41.9326 76.9581 41.4448 76.9581 40.7695C76.9581 40.0942 77.4434 39.6065 78.1528 39.6065C78.8621 39.644 79.3474 40.0942 79.3474 40.7695ZM78.6381 40.8071C78.6381 40.5069 78.4141 40.3193 78.1528 40.3193C77.8541 40.3193 77.6674 40.5069 77.6674 40.8071C77.6674 41.1072 77.8541 41.3323 78.1528 41.3323C78.4141 41.3323 78.6381 41.1072 78.6381 40.8071Z" fill="#263238"/>
<path d="M80.8779 40.8446H79.7579C79.7953 41.1072 79.9819 41.2948 80.2806 41.2948C80.4299 41.2948 80.5792 41.2197 80.6912 41.1072L80.8032 41.2197C80.6912 41.3698 80.5046 41.4448 80.2806 41.4448C79.8699 41.4448 79.5713 41.1447 79.5713 40.7695C79.5713 40.3569 79.8326 40.0942 80.2059 40.0942C80.5792 40.0942 80.8406 40.3569 80.8406 40.7695C80.8779 40.8071 80.8779 40.8071 80.8779 40.8446ZM79.7579 40.6945H80.6912C80.6539 40.4319 80.4673 40.2443 80.2059 40.2443C79.9819 40.2443 79.7953 40.4319 79.7579 40.6945Z" fill="#263238"/>
<path d="M83.4166 40.6944V41.4823H83.2299V40.732C83.2299 40.4318 83.0806 40.3193 82.8566 40.3193C82.5953 40.3193 82.4086 40.5069 82.4086 40.807V41.5198H82.222V40.7695C82.222 40.4693 82.0726 40.3568 81.8486 40.3568C81.5873 40.3568 81.4006 40.5444 81.4006 40.8445V41.5573H81.214V40.2067H81.4006V40.4318C81.4753 40.2818 81.662 40.1692 81.886 40.1692C82.11 40.1692 82.2593 40.2442 82.3713 40.4693C82.4833 40.2818 82.6699 40.1692 82.8939 40.1692C83.2299 40.0942 83.4166 40.2818 83.4166 40.6944Z" fill="#263238"/>
<path d="M84.9099 40.6195V41.4448H84.7232V41.2197C84.6485 41.3698 84.4992 41.4448 84.2752 41.4448C83.9766 41.4448 83.7899 41.2948 83.7899 41.0697C83.7899 40.8821 83.9392 40.6945 84.3126 40.6945H84.7232V40.6195C84.7232 40.3944 84.6112 40.2818 84.3499 40.2818C84.1632 40.2818 84.0139 40.3569 83.9019 40.4319L83.8273 40.2818C83.9766 40.1693 84.1632 40.0942 84.3499 40.0942C84.7232 40.0942 84.9099 40.2818 84.9099 40.6195ZM84.7605 41.0322V40.8071H84.3499C84.0886 40.8071 84.0139 40.9196 84.0139 41.0322C84.0139 41.1822 84.1259 41.2948 84.3499 41.2948C84.5366 41.3323 84.6859 41.2197 84.7605 41.0322Z" fill="#263238"/>
<path d="M85.3578 39.6815C85.3578 39.6065 85.4325 39.569 85.5071 39.569C85.5818 39.569 85.6565 39.6065 85.6565 39.6815C85.6565 39.7566 85.6191 39.8316 85.5071 39.8316C85.4325 39.8316 85.3578 39.7566 85.3578 39.6815ZM85.3951 40.1317H85.5818V41.4823H85.3951V40.1317Z" fill="#263238"/>
<path d="M86.1045 39.569H86.2912V41.4448H86.1045V39.569Z" fill="#263238"/>
<path d="M86.6644 41.3323C86.6644 41.2572 86.7391 41.1822 86.8138 41.1822C86.8884 41.1822 86.9631 41.2572 86.9631 41.3323C86.9631 41.4073 86.8884 41.4823 86.8138 41.4823C86.7018 41.4448 86.6644 41.4073 86.6644 41.3323Z" fill="#263238"/>
<path d="M87.1124 40.7695C87.1124 40.3569 87.4111 40.0942 87.7844 40.0942C88.0084 40.0942 88.1951 40.1693 88.3071 40.3569L88.1577 40.4319C88.0831 40.2818 87.9337 40.2443 87.7844 40.2443C87.4857 40.2443 87.2991 40.4694 87.2991 40.7695C87.2991 41.0697 87.5231 41.2948 87.7844 41.2948C87.9337 41.2948 88.0831 41.2197 88.1577 41.1072L88.3071 41.1822C88.1951 41.3698 88.0084 41.4448 87.7844 41.4448C87.4111 41.4448 87.1124 41.1822 87.1124 40.7695Z" fill="#263238"/>
<path d="M88.531 40.7695C88.531 40.3569 88.8297 40.0942 89.203 40.0942C89.5763 40.0942 89.875 40.3944 89.875 40.7695C89.875 41.1822 89.5763 41.4448 89.203 41.4448C88.8297 41.4448 88.531 41.1822 88.531 40.7695ZM89.6883 40.7695C89.6883 40.4694 89.4643 40.2443 89.203 40.2443C88.9043 40.2443 88.7177 40.4694 88.7177 40.7695C88.7177 41.0697 88.9417 41.2948 89.203 41.2948C89.5017 41.2948 89.6883 41.1072 89.6883 40.7695Z" fill="#263238"/>
<path d="M92.4137 40.6944V41.4823H92.227V40.732C92.227 40.4318 92.0777 40.3193 91.8537 40.3193C91.5924 40.3193 91.4057 40.5069 91.4057 40.807V41.5198H91.2564V40.7695C91.2564 40.4693 91.107 40.3568 90.8831 40.3568C90.6217 40.3568 90.4351 40.5444 90.4351 40.8445V41.5573H90.2484V40.2067H90.4351V40.4318C90.5097 40.2818 90.6964 40.1692 90.9204 40.1692C91.1444 40.1692 91.2937 40.2442 91.4057 40.4693C91.5177 40.2818 91.7044 40.1692 91.9283 40.1692C92.227 40.0942 92.4137 40.2818 92.4137 40.6944Z" fill="#263238"/>
<path d="M62.8466 52.0246L63.1453 52.2122L63.0706 52.3247L62.7719 52.1371V52.5123H62.6599V52.1371L62.3613 52.3247L62.2866 52.2122L62.5853 52.0246L62.2866 51.837L62.3613 51.7244L62.6599 51.912V51.5369H62.7719V51.912L63.0706 51.7244L63.1453 51.837L62.8466 52.0246Z" fill="#263238"/>
<path d="M63.8919 52.0246L64.1905 52.2122L64.1159 52.3247L63.8172 52.1371V52.5123H63.7052V52.1371L63.4066 52.3247L63.3319 52.2122L63.6306 52.0246L63.3319 51.837L63.4066 51.7244L63.7052 51.912V51.5369H63.8172V51.912L64.1159 51.7244L64.1905 51.837L63.8919 52.0246Z" fill="#263238"/>
<path d="M64.8999 52.0246L65.1986 52.2122L65.1239 52.3247L64.8253 52.1371V52.5123H64.7133V52.1371L64.4146 52.3247L64.34 52.2122L64.6386 52.0246L64.34 51.837L64.4146 51.7244L64.7133 51.912V51.5369H64.8253V51.912L65.1239 51.7244L65.1986 51.837L64.8999 52.0246Z" fill="#263238"/>
<path d="M65.9452 52.0246L66.2439 52.2122L66.1692 52.3247L65.8706 52.1371V52.5123H65.7586V52.1371L65.4599 52.3247L65.3853 52.2122L65.6839 52.0246L65.3853 51.837L65.4599 51.7244L65.7586 51.912V51.5369H65.8706V51.912L66.1692 51.7244L66.2439 51.837L65.9452 52.0246Z" fill="#263238"/>
<path d="M66.9532 52.0246L67.2518 52.2122L67.1772 52.3247L66.8785 52.1371V52.5123H66.7665V52.1371L66.4679 52.3247L66.3932 52.2122L66.6918 52.0246L66.3932 51.837L66.4679 51.7244L66.7665 51.912V51.5369H66.8785V51.912L67.1772 51.7244L67.2518 51.837L66.9532 52.0246Z" fill="#263238"/>
<path d="M67.9985 52.0246L68.2971 52.2122L68.2225 52.3247L67.9238 52.1371V52.5123H67.8118V52.1371L67.5131 52.3247L67.4385 52.2122L67.7371 52.0246L67.4385 51.837L67.5131 51.7244L67.8118 51.912V51.5369H67.9238V51.912L68.2225 51.7244L68.2971 51.837L67.9985 52.0246Z" fill="#263238"/>
<path d="M69.0064 52.0246L69.305 52.2122L69.2304 52.3247L68.9317 52.1371V52.5123H68.8197V52.1371L68.5211 52.3247L68.4464 52.2122L68.7451 52.0246L68.4464 51.837L68.5211 51.7244L68.8197 51.912V51.5369H68.9317V51.912L69.2304 51.7244L69.305 51.837L69.0064 52.0246Z" fill="#263238"/>
<path d="M70.0144 52.0246L70.3131 52.2122L70.2384 52.3247L69.9398 52.1371V52.5123H69.8278V52.1371L69.5291 52.3247L69.4545 52.2122L69.7531 52.0246L69.4545 51.837L69.5291 51.7244L69.8278 51.912V51.5369H69.9398V51.912L70.2384 51.7244L70.3131 51.837L70.0144 52.0246Z" fill="#263238"/>
<path d="M71.0597 52.0246L71.3584 52.2122L71.2837 52.3247L70.9851 52.1371V52.5123H70.8731V52.1371L70.5744 52.3247L70.4998 52.2122L70.7984 52.0246L70.4998 51.837L70.5744 51.7244L70.8731 51.912V51.5369H70.9851V51.912L71.2837 51.7244L71.3584 51.837L71.0597 52.0246Z" fill="#263238"/>
<path d="M72.0677 52.0246L72.3663 52.2122L72.2917 52.3247L71.993 52.1371V52.5123H71.881V52.1371L71.5824 52.3247L71.5077 52.2122L71.8063 52.0246L71.5077 51.837L71.5824 51.7244L71.881 51.912V51.5369H71.993V51.912L72.2917 51.7244L72.3663 51.837L72.0677 52.0246Z" fill="#263238"/>
<path d="M73.113 52.0246L73.4116 52.2122L73.337 52.3247L73.0383 52.1371V52.5123H72.9263V52.1371L72.6276 52.3247L72.553 52.2122L72.8516 52.0246L72.553 51.837L72.6276 51.7244L72.9263 51.912V51.5369H73.0383V51.912L73.337 51.7244L73.4116 51.837L73.113 52.0246Z" fill="#263238"/>
<path d="M62.6972 46.9233C62.6972 47.2985 62.4359 47.5236 61.9879 47.5236H61.5026V48.0863H61.3159V46.3231H61.9879C62.3986 46.3231 62.6972 46.5482 62.6972 46.9233ZM62.5105 46.9233C62.5105 46.6232 62.3239 46.4731 61.9879 46.4731H61.5026V47.3735H61.9879C62.3239 47.3735 62.5105 47.2235 62.5105 46.9233Z" fill="#263238"/>
<path d="M64.0411 47.26V48.0853H63.8544V47.8602C63.7798 48.0103 63.6305 48.0853 63.4065 48.0853C63.1078 48.0853 62.9211 47.9353 62.9211 47.7102C62.9211 47.5226 63.0705 47.335 63.4438 47.335H63.8544V47.26C63.8544 47.0349 63.7425 46.9223 63.4811 46.9223C63.2945 46.9223 63.1451 46.9974 63.0331 47.0724L62.9585 46.9223C63.1078 46.8098 63.2945 46.7347 63.4811 46.7347C63.8544 46.7347 64.0411 46.9223 64.0411 47.26ZM63.8544 47.7102V47.4851H63.4438C63.1825 47.4851 63.1078 47.5976 63.1078 47.7102C63.1078 47.8602 63.2198 47.9728 63.4438 47.9728C63.6305 47.9728 63.7798 47.8602 63.8544 47.7102Z" fill="#263238"/>
<path d="M64.3398 47.9353L64.4145 47.7852C64.5265 47.8602 64.7132 47.9353 64.8998 47.9353C65.1612 47.9353 65.2732 47.8602 65.2732 47.7102C65.2732 47.3725 64.4145 47.6351 64.4145 47.1099C64.4145 46.8848 64.6012 46.7347 64.9372 46.7347C65.1238 46.7347 65.3105 46.7723 65.4225 46.8473L65.3478 46.9974C65.2358 46.9223 65.0865 46.8848 64.9745 46.8848C64.7505 46.8848 64.6385 46.9974 64.6385 47.1099C64.6385 47.4851 65.4972 47.1849 65.4972 47.7102C65.4972 47.9353 65.3105 48.0853 64.9372 48.0853C64.6758 48.1229 64.4518 48.0478 64.3398 47.9353Z" fill="#263238"/>
<path d="M65.5718 47.9353L65.6464 47.7852C65.7584 47.8602 65.9451 47.9353 66.1318 47.9353C66.3931 47.9353 66.5051 47.8602 66.5051 47.7102C66.5051 47.3725 65.6464 47.6351 65.6464 47.1099C65.6464 46.8848 65.8331 46.7347 66.1691 46.7347C66.3558 46.7347 66.5424 46.7723 66.6544 46.8473L66.5797 46.9974C66.4677 46.9223 66.3184 46.8848 66.2064 46.8848C65.9824 46.8848 65.8704 46.9974 65.8704 47.1099C65.8704 47.4851 66.7291 47.1849 66.7291 47.7102C66.7291 47.9353 66.5424 48.0853 66.1691 48.0853C65.9078 48.1229 65.6838 48.0478 65.5718 47.9353Z" fill="#263238"/>
<path d="M68.9316 46.7722L68.4463 48.1228H68.2596L67.849 47.0348L67.4383 48.1228H67.2517L66.7664 46.7722H66.953L67.3637 47.8977L67.7743 46.7722H67.9237L68.3343 47.8977L68.745 46.7722H68.9316Z" fill="#263238"/>
<path d="M69.0063 47.4475C69.0063 47.0348 69.305 46.7722 69.6783 46.7722C70.0517 46.7722 70.3503 47.0724 70.3503 47.4475C70.3503 47.8227 70.0517 48.1228 69.6783 48.1228C69.305 48.1228 69.0063 47.8227 69.0063 47.4475ZM70.201 47.4475C70.201 47.1474 69.977 46.9223 69.7157 46.9223C69.417 46.9223 69.2303 47.1474 69.2303 47.4475C69.2303 47.7477 69.4543 47.9728 69.7157 47.9728C69.977 47.9352 70.201 47.7477 70.201 47.4475Z" fill="#263238"/>
<path d="M71.3956 46.7347V46.9223H71.3583C71.097 46.9223 70.9103 47.1099 70.9103 47.41V48.0853H70.7236V46.7347H70.9103V46.9974C70.985 46.8473 71.1716 46.7347 71.3956 46.7347Z" fill="#263238"/>
<path d="M72.9262 46.2095V48.0853H72.7396V47.8227C72.6276 48.0103 72.4409 48.0853 72.2169 48.0853C71.8436 48.0853 71.5449 47.8227 71.5449 47.41C71.5449 46.9973 71.8436 46.7347 72.2169 46.7347C72.4409 46.7347 72.6276 46.8097 72.7396 46.9973V46.2095H72.9262ZM72.7396 47.4475C72.7396 47.1474 72.5156 46.9223 72.2542 46.9223C71.9556 46.9223 71.7689 47.1474 71.7689 47.4475C71.7689 47.7477 71.9929 47.9728 72.2542 47.9728C72.5529 47.9352 72.7396 47.7477 72.7396 47.4475Z" fill="#263238"/>
<path d="M75.5768 61.5539V63.3172H75.3902V61.704H74.9795V61.5539H75.5768Z" fill="#263238"/>
<path d="M77.2195 63.1672V63.3172H75.9502V63.2047L76.6968 62.4919C76.8835 62.3043 76.9208 62.1917 76.9208 62.0417C76.9208 61.8541 76.7715 61.704 76.5102 61.704C76.2862 61.704 76.1368 61.779 76.0248 61.8916L75.9128 61.779C76.0622 61.629 76.2862 61.5164 76.5475 61.5164C76.9208 61.5164 77.1448 61.704 77.1448 62.0041C77.1448 62.1917 77.1075 62.3418 76.8462 62.5669L76.2488 63.1672H77.2195Z" fill="#263238"/>
<path d="M78.6007 62.8295C78.6007 63.1296 78.3767 63.3547 77.9661 63.3547C77.7047 63.3547 77.4808 63.2797 77.3314 63.1296L77.4061 62.9795C77.5181 63.0921 77.7421 63.1671 77.9661 63.1671C78.2647 63.1671 78.4141 63.0171 78.4141 62.792C78.4141 62.5669 78.2647 62.4543 77.9287 62.4543H77.8167V62.3042L78.3021 61.704H77.4061V61.5539H78.5261V61.6664L78.0407 62.3042C78.4141 62.3418 78.6007 62.5293 78.6007 62.8295Z" fill="#263238"/>
<path d="M80.3553 62.867H80.0193V63.3172H79.8327V62.867H78.8247V62.7169L79.758 61.5539H79.9447L79.0487 62.7169H79.8327V62.3042H80.0193V62.7169H80.3553V62.867Z" fill="#263238"/>
<path d="M82.3712 62.792C82.3712 63.0921 82.1472 63.3172 81.7366 63.3172C81.4752 63.3172 81.2513 63.2422 81.1019 63.0921L81.1766 62.9421C81.2886 63.0546 81.4752 63.1296 81.7366 63.1296C82.0352 63.1296 82.1846 62.9796 82.1846 62.7545C82.1846 62.5294 82.0352 62.3793 81.5872 62.3793H81.2139L81.2886 61.4789H82.2592V61.629H81.4379L81.3633 62.1917H81.5872C82.1846 62.2667 82.3712 62.4918 82.3712 62.792Z" fill="#263238"/>
<path d="M83.9392 62.792C83.9392 63.1296 83.6779 63.3547 83.3419 63.3547C82.8566 63.3547 82.6326 63.0171 82.6326 62.4543C82.6326 61.854 82.9686 61.5539 83.4539 61.5539C83.6032 61.5539 83.7525 61.5914 83.8645 61.6664L83.7899 61.8165C83.7152 61.7415 83.5659 61.7415 83.4539 61.7415C83.0806 61.7415 82.8192 62.0041 82.8192 62.4543C82.8192 62.4918 82.8192 62.5293 82.8192 62.6044C82.8939 62.4168 83.1179 62.3042 83.3419 62.3042C83.6779 62.2667 83.9392 62.4543 83.9392 62.792ZM83.7525 62.792C83.7525 62.5669 83.5659 62.4168 83.3045 62.4168C83.0432 62.4168 82.8566 62.5669 82.8566 62.792C82.8566 62.9795 83.0059 63.1671 83.3419 63.1671C83.5659 63.1671 83.7525 63.0171 83.7525 62.792Z" fill="#263238"/>
<path d="M85.3579 61.5539V61.6664L84.6112 63.3172H84.4246L85.1339 61.704H84.2379V62.0416H84.0513V61.5539H85.3579Z" fill="#263238"/>
<path d="M86.9257 62.8295C86.9257 63.1296 86.6644 63.3547 86.2538 63.3547C85.8431 63.3547 85.5818 63.1672 85.5818 62.8295C85.5818 62.6044 85.6938 62.4543 85.9178 62.3793C85.7311 62.3043 85.6564 62.1917 85.6564 62.0041C85.6564 61.704 85.9178 61.5164 86.2911 61.5164C86.6644 61.5164 86.9257 61.704 86.9257 62.0041C86.9257 62.1917 86.8137 62.3418 86.6271 62.3793C86.8137 62.4543 86.9257 62.6044 86.9257 62.8295ZM86.7391 62.8295C86.7391 62.6044 86.5524 62.4919 86.2538 62.4919C85.9551 62.4919 85.7684 62.6419 85.7684 62.8295C85.7684 63.0546 85.9551 63.2047 86.2538 63.2047C86.5524 63.1672 86.7391 63.0546 86.7391 62.8295ZM86.2538 62.3418C86.5151 62.3418 86.7017 62.2292 86.7017 62.0417C86.7017 61.8541 86.5151 61.704 86.2538 61.704C85.9924 61.704 85.8058 61.8166 85.8058 62.0417C85.8058 62.1917 85.9551 62.3418 86.2538 62.3418Z" fill="#263238"/>
<path d="M89.0911 62.4168C89.0911 63.0171 88.7551 63.3172 88.2697 63.3172C88.1204 63.3172 87.9711 63.2797 87.8591 63.2047L87.9338 63.0546C88.0084 63.1296 88.1577 63.1296 88.2697 63.1296C88.6431 63.1296 88.9044 62.867 88.9044 62.4168C88.9044 62.3793 88.9044 62.3418 88.9044 62.2667C88.8297 62.4543 88.6057 62.5669 88.3817 62.5669C88.0458 62.5669 87.7844 62.3418 87.7844 62.0416C87.7844 61.704 88.0458 61.4789 88.3817 61.4789C88.8671 61.5164 89.0911 61.8541 89.0911 62.4168ZM88.8671 62.0792C88.8671 61.8916 88.7177 61.704 88.4191 61.704C88.1577 61.704 87.9711 61.8541 87.9711 62.0792C87.9711 62.3043 88.1577 62.4543 88.4191 62.4543C88.6804 62.4543 88.8671 62.3043 88.8671 62.0792Z" fill="#263238"/>
<path d="M89.8377 61.5539V63.3172H89.651V61.704H89.2404V61.5539H89.8377Z" fill="#263238"/>
<path d="M90.2856 62.4543C90.2856 61.8915 90.5843 61.5539 90.995 61.5539C91.4056 61.5539 91.7043 61.8915 91.7043 62.4543C91.7043 63.0171 91.4056 63.3547 90.995 63.3547C90.5843 63.3547 90.2856 63.0171 90.2856 62.4543ZM91.5176 62.4543C91.5176 61.9666 91.2936 61.704 90.995 61.704C90.6963 61.704 90.4723 61.9666 90.4723 62.4543C90.4723 62.942 90.6963 63.2046 90.995 63.2046C91.2936 63.1671 91.5176 62.9045 91.5176 62.4543Z" fill="#263238"/>
<path d="M92.4137 61.5539V63.3172H92.2271V61.704H91.8164V61.5539H92.4137Z" fill="#263238"/>
<path d="M94.0189 61.5539V63.3172H93.8323V61.704H93.4216V61.5539H94.0189Z" fill="#263238"/>
<path d="M94.9149 61.5539V63.3172H94.7283V61.704H94.3176V61.5539H94.9149Z" fill="#263238"/>
<path d="M96.5575 63.1672V63.3172H95.3255V63.2047L96.0722 62.4919C96.2588 62.3043 96.2962 62.1917 96.2962 62.0417C96.2962 61.8541 96.1468 61.704 95.8855 61.704C95.6615 61.704 95.5122 61.779 95.4002 61.8916L95.2882 61.779C95.4375 61.629 95.6615 61.5164 95.9229 61.5164C96.2962 61.5164 96.5202 61.704 96.5202 62.0041C96.5202 62.1917 96.4828 62.3418 96.2215 62.5669L95.6242 63.1672H96.5575Z" fill="#263238"/>
<path d="M97.2669 61.5539V63.3172H97.0802V61.704H96.6696V61.5539H97.2669Z" fill="#263238"/>
<path d="M67.4757 61.1412V60.8786C67.4757 60.616 67.2517 60.3909 66.9904 60.3909H62.2119C61.9506 60.3909 61.7266 60.616 61.7266 60.8786V61.1412H67.4757Z" fill="#263238"/>
<path d="M61.7639 61.5164V63.5047C61.7639 63.7674 61.9879 63.9925 62.2492 63.9925H67.0278C67.2891 63.9925 67.5131 63.7674 67.5131 63.5047V61.5164H61.7639Z" fill="#263238"/>
<path d="M61.8386 71.9836C61.8386 71.4209 62.1373 71.0832 62.5479 71.0832C62.9586 71.0832 63.2573 71.4209 63.2573 71.9836C63.2573 72.5464 62.9586 72.884 62.5479 72.884C62.1373 72.884 61.8386 72.5464 61.8386 71.9836ZM63.0706 71.9836C63.0706 71.4959 62.8466 71.2333 62.5479 71.2333C62.2493 71.2333 62.0253 71.4959 62.0253 71.9836C62.0253 72.4713 62.2493 72.734 62.5479 72.734C62.8466 72.734 63.0706 72.4713 63.0706 71.9836Z" fill="#263238"/>
<path d="M64.8625 72.3963C64.8625 72.6964 64.6012 72.9215 64.1905 72.9215C63.7799 72.9215 63.5186 72.7339 63.5186 72.3963C63.5186 72.1712 63.6306 72.0211 63.8545 71.9461C63.6679 71.8711 63.5932 71.7585 63.5932 71.5709C63.5932 71.2708 63.8545 71.0832 64.2279 71.0832C64.6012 71.0832 64.8625 71.2708 64.8625 71.5709C64.8625 71.7585 64.7505 71.9086 64.5639 71.9461C64.7505 72.0211 64.8625 72.1712 64.8625 72.3963ZM64.6759 72.3588C64.6759 72.1337 64.4892 72.0211 64.1905 72.0211C63.8919 72.0211 63.7052 72.1712 63.7052 72.3588C63.7052 72.5839 63.8919 72.7339 64.1905 72.7339C64.4892 72.7339 64.6759 72.5839 64.6759 72.3588ZM64.1905 71.8711C64.4519 71.8711 64.6385 71.7585 64.6385 71.5709C64.6385 71.3834 64.4519 71.2333 64.1905 71.2333C63.9292 71.2333 63.7426 71.3458 63.7426 71.5709C63.7426 71.7585 63.9292 71.8711 64.1905 71.8711Z" fill="#263238"/>
<path d="M65.7586 70.7456H65.9079L65.0866 73.1467H64.9373L65.7586 70.7456Z" fill="#263238"/>
<path d="M67.1771 72.6964V72.8465H65.9452V72.7339L66.6918 72.0211C66.8785 71.8335 66.9158 71.721 66.9158 71.5709C66.9158 71.3833 66.7665 71.2333 66.5051 71.2333C66.2812 71.2333 66.1318 71.3083 66.0198 71.4209L65.9078 71.3083C66.0572 71.1582 66.2812 71.0457 66.5425 71.0457C66.9158 71.0457 67.1398 71.2333 67.1398 71.5334C67.1398 71.721 67.1025 71.8711 66.8411 72.0962L66.2438 72.6964H67.1771Z" fill="#263238"/>
<path d="M68.5957 72.3588C68.5957 72.6589 68.3717 72.884 67.9611 72.884C67.6997 72.884 67.4757 72.809 67.3264 72.6589L67.4011 72.5089C67.5131 72.6214 67.6997 72.6964 67.9611 72.6964C68.2597 72.6964 68.4091 72.5464 68.4091 72.3213C68.4091 72.0962 68.2597 71.9461 67.8117 71.9461H67.4384L67.5131 71.0457H68.4837V71.1958H67.6624L67.5877 71.7585H67.8117C68.4091 71.8336 68.5957 72.0211 68.5957 72.3588Z" fill="#263238"/>
<path d="M62.6598 69.9587V70.0713H61.8759V68.9833H62.6225V69.0958H61.9879V69.471H62.5478V69.5836H61.9879V69.9962H62.6598V69.9587Z" fill="#263238"/>
<path d="M63.6305 70.0703L63.2572 69.5825L62.9212 70.0703H62.7719L63.1825 69.5075L62.8092 68.9823H62.9585L63.2945 69.4325L63.6305 68.9823H63.7425L63.3692 69.5075L63.7798 70.0703H63.6305Z" fill="#263238"/>
<path d="M64.7877 69.3199C64.7877 69.545 64.6011 69.6951 64.3397 69.6951H64.0411V70.0327H63.9291V68.9448H64.3397C64.6011 68.9448 64.7877 69.0948 64.7877 69.3199ZM64.6757 69.3199C64.6757 69.1323 64.5637 69.0573 64.3397 69.0573H64.0411V69.6201H64.3397C64.5637 69.6201 64.6757 69.5075 64.6757 69.3199Z" fill="#263238"/>
<path d="M65.4597 68.9448H65.9077C66.2437 68.9448 66.505 69.1699 66.505 69.5075C66.505 69.8452 66.281 70.0703 65.9077 70.0703H65.4597V68.9448ZM65.9077 69.9577C66.2064 69.9577 66.393 69.7701 66.393 69.5075C66.393 69.2449 66.2064 69.0573 65.9077 69.0573H65.5717V69.9577H65.9077Z" fill="#263238"/>
<path d="M67.3637 69.545V70.0703H67.2517V69.9577C67.2144 70.0327 67.1024 70.1078 66.9531 70.1078C66.7664 70.1078 66.6544 69.9952 66.6544 69.8827C66.6544 69.7701 66.7291 69.6576 66.9904 69.6576H67.2517V69.6201C67.2517 69.47 67.1771 69.3949 67.0277 69.3949C66.9157 69.3949 66.8037 69.4325 66.7664 69.5075L66.7291 69.4325C66.8037 69.3574 66.9157 69.3199 67.0651 69.3199C67.2517 69.2074 67.3637 69.3199 67.3637 69.545ZM67.2517 69.8076V69.6576H66.9904C66.8411 69.6576 66.7664 69.7326 66.7664 69.8076C66.7664 69.9202 66.8411 69.9577 66.9904 69.9577C67.1024 69.9577 67.2144 69.9202 67.2517 69.8076Z" fill="#263238"/>
<path d="M68.1103 69.9952C68.0729 70.0328 67.9983 70.0703 67.9236 70.0703C67.7743 70.0703 67.6996 69.9952 67.6996 69.8452V69.3574H67.5503V69.2449H67.6996V69.0573H67.8116V69.2449H68.0729V69.3574H67.8116V69.8452C67.8116 69.9577 67.849 69.9952 67.9609 69.9952C67.9983 69.9952 68.0356 69.9952 68.0729 69.9577L68.1103 69.9952Z" fill="#263238"/>
<path d="M68.9689 69.6576H68.2969C68.2969 69.8452 68.4463 69.9577 68.6329 69.9577C68.7449 69.9577 68.8196 69.9202 68.8942 69.8452L68.9689 69.9202C68.8942 69.9952 68.7822 70.0703 68.6329 70.0703C68.3716 70.0703 68.1849 69.8827 68.1849 69.6576C68.1849 69.395 68.3716 69.2449 68.5956 69.2449C68.8196 69.2074 68.9689 69.395 68.9689 69.6576ZM68.2969 69.5825H68.8942C68.8942 69.4325 68.7449 69.3199 68.5956 69.3199C68.4089 69.3199 68.2969 69.4325 68.2969 69.5825Z" fill="#263238"/>
<path d="M82.7073 71.0843V72.8475H82.5206V71.2343H82.11V71.0843H82.7073Z" fill="#263238"/>
<path d="M84.3125 72.6965V72.8465H83.0805V72.734L83.8272 72.0212C84.0139 71.8336 84.0512 71.721 84.0512 71.571C84.0512 71.3834 83.9019 71.2333 83.6405 71.2333C83.4165 71.2333 83.2672 71.3083 83.1552 71.4209L83.0432 71.3083C83.1925 71.1583 83.4165 71.0457 83.6779 71.0457C84.0512 71.0457 84.2752 71.2333 84.2752 71.5334C84.2752 71.721 84.2379 71.8711 83.9765 72.0962L83.3792 72.6965H84.3125Z" fill="#263238"/>
<path d="M85.7312 72.3588C85.7312 72.659 85.5072 72.8841 85.0966 72.8841C84.8352 72.8841 84.6112 72.809 84.4619 72.659L84.5366 72.5089C84.6486 72.6214 84.8726 72.6965 85.0966 72.6965C85.3952 72.6965 85.5445 72.5464 85.5445 72.3213C85.5445 72.0962 85.3952 71.9837 85.0592 71.9837H84.9472V71.8336L85.4325 71.2333H84.5366V71.0833H85.6565V71.1958L85.1712 71.8336C85.5445 71.8711 85.7312 72.0962 85.7312 72.3588Z" fill="#263238"/>
<path d="M82.1473 69.5075C82.1473 69.1699 82.4087 68.9448 82.7073 68.9448C82.8566 68.9448 83.006 68.9823 83.118 69.0948L83.0433 69.1699C82.9686 69.0948 82.8566 69.0573 82.7073 69.0573C82.446 69.0573 82.2593 69.2449 82.2593 69.5075C82.2593 69.7701 82.446 69.9577 82.7073 69.9577C82.8193 69.9577 82.9313 69.9202 83.0433 69.8077L83.118 69.8827C83.006 69.9952 82.894 70.0328 82.7073 70.0328C82.4087 70.0703 82.1473 69.8077 82.1473 69.5075Z" fill="#263238"/>
<path d="M84.8726 68.9448L84.4993 70.0327H84.3873L84.0513 69.0948L83.7153 70.0327H83.6033L83.23 68.9448H83.342L83.6406 69.8827L83.9766 68.9448H84.0886L84.4246 69.8827L84.7606 68.9448H84.8726Z" fill="#263238"/>
<path d="M72.8889 82.4143H71.9182L71.6942 82.902H71.5076L72.3289 81.1388H72.5155L73.3368 82.902H73.1502L72.8889 82.4143ZM72.8515 82.2643L72.4409 81.3263L72.0302 82.2643H72.8515Z" fill="#263238"/>
<path d="M73.4115 82.2257C73.4115 81.8131 73.7102 81.5504 74.0835 81.5504C74.3075 81.5504 74.4941 81.6255 74.6061 81.8131L74.4568 81.8881C74.3821 81.738 74.2328 81.7005 74.0835 81.7005C73.7848 81.7005 73.5982 81.9256 73.5982 82.2257C73.5982 82.5259 73.8222 82.751 74.0835 82.751C74.2328 82.751 74.3821 82.6759 74.4568 82.5634L74.6061 82.6384C74.4941 82.826 74.3075 82.901 74.0835 82.901C73.7102 82.901 73.4115 82.6009 73.4115 82.2257Z" fill="#263238"/>
<path d="M75.6887 82.7885C75.614 82.8635 75.502 82.9011 75.39 82.9011C75.1287 82.9011 75.0167 82.751 75.0167 82.5259V81.7005H74.7927V81.5505H75.0167V81.2503H75.2034V81.5505H75.614V81.7005H75.2034V82.4884C75.2034 82.6384 75.278 82.7135 75.4274 82.7135C75.502 82.7135 75.5767 82.676 75.614 82.6384L75.6887 82.7885Z" fill="#263238"/>
<path d="M75.9874 81.1378C75.9874 81.0628 76.0621 81.0252 76.1367 81.0252C76.2114 81.0252 76.2861 81.0628 76.2861 81.1378C76.2861 81.2128 76.2487 81.2878 76.1367 81.2878C76.0248 81.2503 75.9874 81.2128 75.9874 81.1378ZM76.0248 81.5505H76.2114V82.901H76.0248V81.5505Z" fill="#263238"/>
<path d="M76.5474 82.2257C76.5474 81.8131 76.846 81.5504 77.2193 81.5504C77.5927 81.5504 77.8913 81.8506 77.8913 82.2257C77.8913 82.6384 77.5927 82.901 77.2193 82.901C76.846 82.901 76.5474 82.6009 76.5474 82.2257ZM77.742 82.2257C77.742 81.9256 77.518 81.7005 77.2567 81.7005C76.958 81.7005 76.7714 81.9256 76.7714 82.2257C76.7714 82.5259 76.9954 82.751 77.2567 82.751C77.518 82.751 77.742 82.5259 77.742 82.2257Z" fill="#263238"/>
<path d="M79.4966 82.1132V82.9011H79.31V82.1508C79.31 81.8506 79.1606 81.7381 78.8993 81.7381C78.6006 81.7381 78.4513 81.9256 78.4513 82.2258V82.9386H78.2646V81.588H78.4513V81.8506C78.5633 81.7005 78.7126 81.588 78.974 81.588C79.2726 81.5505 79.4966 81.7381 79.4966 82.1132Z" fill="#263238"/>
<path d="M80.8779 81.2878V82.0006H81.7739V82.1507H80.8779V82.901H80.6913V81.1378H81.8859V81.2878H80.8779Z" fill="#263238"/>
<path d="M82.1846 81.1378C82.1846 81.0628 82.2592 81.0252 82.3339 81.0252C82.4086 81.0252 82.4832 81.0628 82.4832 81.1378C82.4832 81.2128 82.4459 81.2878 82.3339 81.2878C82.2219 81.2503 82.1846 81.2128 82.1846 81.1378ZM82.2219 81.5505H82.4086V82.901H82.2219V81.5505Z" fill="#263238"/>
<path d="M84.1259 81.5504V82.7135C84.1259 83.1637 83.9019 83.3888 83.4539 83.3888C83.2299 83.3888 82.9686 83.3137 82.8193 83.2012L82.8939 83.0511C83.0059 83.1637 83.2299 83.2387 83.4166 83.2387C83.7526 83.2387 83.9019 83.0886 83.9019 82.751V82.5634C83.7899 82.751 83.6032 82.826 83.3792 82.826C83.0059 82.826 82.7073 82.5634 82.7073 82.1882C82.7073 81.8131 83.0059 81.5504 83.3792 81.5504C83.6032 81.5504 83.7899 81.6255 83.9019 81.8131V81.5504H84.1259ZM83.9392 82.1882C83.9392 81.8881 83.7152 81.7005 83.4166 81.7005C83.1179 81.7005 82.9313 81.8881 82.9313 82.1882C82.9313 82.4884 83.1553 82.676 83.4166 82.676C83.7526 82.676 83.9392 82.4884 83.9392 82.1882Z" fill="#263238"/>
<path d="M85.8059 81.5504V82.9011H85.6565V82.676C85.5819 82.826 85.3952 82.9386 85.1712 82.9386C84.8352 82.9386 84.6112 82.751 84.6112 82.3758V81.588H84.7979V82.3383C84.7979 82.6384 84.9472 82.751 85.2085 82.751C85.4699 82.751 85.6565 82.5634 85.6565 82.2633V81.5504H85.8059Z" fill="#263238"/>
<path d="M87.0004 81.5504V81.738H86.9631C86.7018 81.738 86.5151 81.9256 86.5151 82.2257V82.901H86.3285V81.5504H86.5151V81.8131C86.5898 81.6255 86.7391 81.5504 87.0004 81.5504Z" fill="#263238"/>
<path d="M88.4564 82.2633H87.3364C87.3738 82.5259 87.5604 82.7135 87.8591 82.7135C88.0084 82.7135 88.1578 82.6384 88.2698 82.5259L88.3818 82.6384C88.2698 82.7885 88.0831 82.8635 87.8591 82.8635C87.4484 82.8635 87.1498 82.5634 87.1498 82.1882C87.1498 81.7756 87.4111 81.5129 87.7844 81.5129C88.1578 81.5129 88.4191 81.7756 88.4191 82.1882C88.4564 82.2258 88.4564 82.2633 88.4564 82.2633ZM87.3364 82.1507H88.2698C88.2324 81.8881 88.0458 81.7005 87.7844 81.7005C87.5604 81.7005 87.3738 81.8881 87.3364 82.1507Z" fill="#263238"/>
<path d="M87.7845 102.372H72.2916C70.2757 102.372 68.6704 100.759 68.6704 98.7332C68.6704 96.7073 70.2757 95.0941 72.2916 95.0941H87.7845C89.8004 95.0941 91.4057 96.7073 91.4057 98.7332C91.4057 100.722 89.7631 102.372 87.7845 102.372Z" fill="#263238"/>
<path d="M79.3373 98.3205C79.3373 98.7707 79.0013 99.0334 78.4787 99.0334H77.9187V99.7087H77.6947V97.5702H78.4787C79.0013 97.6077 79.3373 97.8703 79.3373 98.3205ZM79.1133 98.3205C79.1133 97.9829 78.8893 97.7953 78.4787 97.7953H77.9187V98.8833H78.4787C78.8893 98.8833 79.1133 98.6582 79.1133 98.3205Z" fill="white"/>
<path d="M80.9426 98.7332V99.7462H80.7186V99.4836C80.6066 99.6337 80.4199 99.7462 80.1586 99.7462C79.7853 99.7462 79.5613 99.5586 79.5613 99.296C79.5613 99.0334 79.7106 98.8458 80.1959 98.8458H80.7186V98.7332C80.7186 98.4706 80.5692 98.3206 80.2706 98.3206C80.0466 98.3206 79.8599 98.3956 79.7479 98.5081L79.6359 98.3581C79.7853 98.208 80.0466 98.133 80.2706 98.133C80.7186 98.133 80.9426 98.3206 80.9426 98.7332ZM80.7559 99.2585V98.9959H80.2706C79.9719 98.9959 79.8599 99.1084 79.8599 99.296C79.8599 99.4836 80.0093 99.5961 80.2706 99.5961C80.4573 99.5961 80.6439 99.4836 80.7559 99.2585Z" fill="white"/>
<path d="M82.8466 98.133L82.0626 99.9338C81.9133 100.234 81.7639 100.346 81.5399 100.346C81.3906 100.346 81.2413 100.309 81.1666 100.196L81.2786 100.046C81.3533 100.121 81.4653 100.159 81.5773 100.159C81.7266 100.159 81.8013 100.084 81.9133 99.8963L81.9879 99.7462L81.2786 98.133H81.5026L82.0999 99.4836L82.6972 98.133H82.8466Z" fill="white"/>
<path d="M56.612 90.8922C57.172 99.5586 53.1775 109.163 53.1775 109.163L31.6368 103.085L27.8662 102.035C31.5994 96.8199 33.3914 86.5402 32.4207 78.249C32.3461 77.6112 32.3087 77.0484 32.2714 76.4857C31.8981 69.6201 34.7353 67.6317 37.1246 64.5928C39.7379 61.3288 45.5617 48.9482 45.5617 46.0219C45.5617 43.0956 52.8415 35.9298 51.2362 27.7887C51.2362 27.7887 53.4388 26.4005 55.6787 27.526C56.6867 28.0513 57.6947 29.0642 58.516 30.9401C60.4199 35.4046 57.732 48.0103 55.4921 51.0867L51.1242 69.2824C51.1242 69.2824 52.5801 71.8336 54.0361 76.4857C55.1187 80.0873 56.2387 84.9645 56.612 90.8922Z" fill="white"/>
<path opacity="0.4" d="M32.2714 76.4857C33.5034 79.8247 34.7727 82.1132 34.6607 86.8028C34.5487 91.53 32.0474 98.7332 32.7567 102.522C32.7567 102.522 32.1968 102.672 31.6368 103.123L27.8662 102.072C31.5994 96.8574 33.3914 86.5777 32.4207 78.2865C32.3834 77.6112 32.3087 77.0109 32.2714 76.4857Z" fill="#BD5FFF"/>
<path opacity="0.4" d="M55.4547 51.0867L51.0868 69.2824C51.0868 69.2824 52.5428 71.8336 53.9987 76.4857C51.0495 71.6835 48.5482 70.2579 48.5482 70.2579C50.5268 67.8943 52.0574 50.524 52.0574 50.524C52.0574 50.524 58.2546 43.2081 57.6573 35.5922C57.3959 32.0656 56.5373 29.4019 55.716 27.5261C56.724 28.0513 57.7319 29.0643 58.5532 30.9401C60.3825 35.4046 57.7319 48.0103 55.4547 51.0867Z" fill="#BD5FFF"/>
<path d="M27.9036 102.035C31.6368 96.8199 33.4287 86.5778 32.4581 78.249C31.4875 69.9578 34.5487 67.8568 37.162 64.5928C39.7379 61.3289 45.599 48.9483 45.599 46.0219C45.599 43.0956 52.8788 35.9299 51.2735 27.7887C51.2735 27.7887 55.9401 24.8999 58.516 30.9776C60.4199 35.4422 57.732 48.0479 55.4921 51.1242L51.1242 69.32C51.1242 69.32 55.7907 77.3861 56.6494 90.9297C57.2094 99.5961 53.2148 109.2 53.2148 109.2" stroke="#263238" stroke-width="0.5" stroke-miterlimit="10" stroke-linecap="round" stroke-linejoin="round"/>
<path d="M42.3137 116.104C42.3137 116.104 47.2042 119.142 50.0788 123.945" stroke="#263238" stroke-width="0.5" stroke-miterlimit="10" stroke-linecap="round" stroke-linejoin="round"/>
<path d="M56.052 121.844C56.052 121.844 51.8335 122.444 48.0256 117.867C45.5617 114.941 38.1699 113.59 36.4526 105.899" stroke="#263238" stroke-width="0.5" stroke-miterlimit="10" stroke-linecap="round" stroke-linejoin="round"/>
<path opacity="0.2" d="M117.426 144.579C106.637 139.402 113.17 135.237 98.3122 128.784C83.454 122.331 83.3047 116.816 85.0966 104.136C86.8885 91.4549 85.4699 77.9863 89.8005 76.8233C94.131 75.6603 86.4032 58.2149 91.4431 52.0246L116.232 100.497L117.426 144.579Z" fill="black" fill-opacity="0.7"/>
<path d="M157.708 144.054C157.185 142.591 156.7 141.015 156.289 139.552C155.767 137.676 155.356 136.175 154.423 134.449C154.273 134.187 154.124 133.887 153.937 133.549C152.929 131.748 151.548 129.272 150.727 126.196C150.167 124.132 150.727 119.105 151.249 114.19C151.623 110.664 151.959 107.362 151.847 105.449L151.809 104.773C151.548 99.8587 151.025 89.5791 149.943 86.7653C148.897 84.0266 147.889 83.6139 146.06 82.9011C145.873 82.826 145.687 82.751 145.463 82.6384C144.791 82.3383 143.634 81.738 142.29 81.0627C139.266 79.487 135.532 77.5361 133.629 77.2735C131.127 76.9359 128.701 77.4236 128.29 77.5361C125.938 75.7353 121.981 73.4093 120.786 73.3718C119.816 73.3342 117.688 73.9345 116.68 74.2722C116.456 74.3472 116.269 74.4222 116.157 74.4222C115.298 73.7844 114.589 73.2967 114.104 73.0716C114.066 73.0341 113.992 73.0341 113.954 72.9966C112.648 72.4338 110.632 72.4338 109.549 72.4713C109.213 72.4713 108.952 72.5089 108.84 72.5089C106.787 69.3574 104.771 66.1685 103.912 64.8179C102.083 61.8916 96.4083 49.9237 96.371 49.8111C96.371 49.7736 96.3337 49.7736 96.2963 49.7361C96.2963 49.7361 96.2963 49.7361 96.259 49.7361C95.811 49.6235 92.5631 48.7606 91.2565 51.9496C89.8378 55.4011 91.8538 62.942 93.8697 65.6808C94.8404 66.9939 97.4163 72.3963 100.067 77.9488C99.3949 78.5866 93.9444 83.6139 91.2938 84.5893C89.1285 85.3397 89.6512 96.4822 90.0618 105.449C90.2112 108.75 90.3605 111.602 90.3232 113.29C90.2485 116.591 96.2216 121.131 102.008 125.52C107.235 129.497 112.648 133.624 113.282 136.625C113.469 137.451 113.954 138.164 114.552 138.914C115.56 140.189 116.829 141.69 117.389 144.541C117.538 145.404 118.92 146.53 120.002 148.331H159.238C158.94 147.505 158.342 145.892 157.708 144.054ZM103.315 84.7394C105.219 88.7537 106.376 91.1173 106.675 91.3799C106.936 91.6425 106.936 92.9181 106.936 94.1561C106.936 95.2441 106.899 96.4072 107.048 97.3826C106.6 97.7953 103.651 100.459 103.091 102.635L100.59 99.7086L99.9549 90.4795C100.328 90.1043 102.904 87.3656 103.315 84.7394Z" fill="white"/>
<path opacity="0.4" d="M146.433 110.438C147.367 119.105 147.367 123.757 148.412 126.271C150.167 130.51 152.743 131.335 152.743 131.335C151.996 129.872 151.249 128.147 150.727 126.196C150.167 124.132 150.727 119.105 151.249 114.19C151.623 110.664 151.959 107.362 151.884 105.449L151.847 104.773C151.585 99.8587 151.063 89.6166 149.98 86.7653C148.935 84.0266 147.927 83.6139 146.097 82.901C145.911 82.826 145.724 82.751 145.5 82.6384C144.828 82.3383 143.671 81.738 142.327 81.0627C139.303 79.487 135.57 77.5361 133.666 77.311C131.165 76.9734 128.738 77.4611 128.327 77.5736C125.975 75.7728 122.018 73.4468 120.824 73.4093C119.853 73.3717 117.24 74.1221 116.194 74.4597C120.674 78.1364 127.133 82.7135 127.133 82.7135C132.247 83.7264 131.575 85.9774 133.628 87.2155C135.495 88.341 137.287 85.0395 138.855 84.7394C140.908 84.3642 143.26 86.5402 143.148 89.2039C142.85 96.5197 145.649 103.01 146.433 110.438Z" fill="#BD5FFF"/>
<path opacity="0.4" d="M120.674 83.6514C120.674 83.6514 116.642 80.2749 114.701 79.1494C112.76 78.0238 112.461 74.1596 113.992 73.1842C114.029 73.1466 114.104 73.1466 114.178 73.1091C114.141 73.0716 114.066 73.0716 114.029 73.0341C112.722 72.4713 110.707 72.4713 109.624 72.5088C111.864 76.7107 113.656 79.8997 114.141 80.6125C115.746 83.0136 120.674 83.6514 120.674 83.6514Z" fill="#BD5FFF"/>
<path opacity="0.4" d="M114.514 136.138C114.701 135.237 113.208 132.611 112.573 131.561C111.117 129.122 94.0564 114.003 96.5577 109.951C99.0216 105.899 101.262 108.9 102.829 109.163C103.949 109.351 107.011 107.512 107.011 107.362C106.675 104.248 109.512 102.222 109.512 102.222C109.512 102.222 109.251 89.8417 108.579 90.0668C107.907 90.2919 100.067 71.4584 100.067 71.4584C100.067 71.4584 91.7418 60.3534 92.2271 55.176C92.7125 49.9987 96.2963 49.8861 96.2963 49.8861V49.7361C95.8484 49.6235 92.6005 48.7606 91.2938 51.9496C89.8752 55.4011 91.8911 62.942 93.9071 65.6808C94.8777 66.9939 97.4537 72.3963 100.104 77.9488C99.4323 78.5866 93.9818 83.6139 91.3312 84.5893C89.1659 85.3397 89.6885 96.4822 90.0992 105.449C90.2485 108.75 90.3979 111.602 90.3605 113.29C90.2859 116.591 96.259 121.131 102.046 125.52C107.272 129.497 112.685 133.624 113.32 136.625C113.507 137.451 113.992 138.164 114.589 138.914C114.514 137.826 114.44 136.625 114.514 136.138ZM103.315 84.7394C105.219 88.7537 106.376 91.1173 106.675 91.3799C106.936 91.6425 106.936 92.9181 106.936 94.1562C106.936 95.2441 106.899 96.4072 107.048 97.3826C106.6 97.7953 103.651 100.459 103.091 102.635L100.59 99.7087L99.9549 90.4795C100.328 90.1043 102.904 87.3656 103.315 84.7394Z" fill="#BD5FFF"/>
<path d="M118.322 83.6139C118.322 83.6139 115.821 82.9386 114.141 80.65C112.424 78.3615 105.741 67.8943 103.875 64.9304C102.008 61.9666 96.3337 49.8861 96.3337 49.8861C96.3337 49.8861 92.8245 48.7231 91.4432 51.9871C90.0619 55.2886 91.9658 62.7169 94.0191 65.6057C96.1097 68.457 106.003 90.5545 106.787 91.2673C107.571 91.9801 106.376 97.8703 107.981 99.296" stroke="#263238" stroke-width="0.5" stroke-miterlimit="10" stroke-linecap="round" stroke-linejoin="round"/>
<path d="M107.197 97.4576C107.197 97.4576 103.576 100.647 103.165 102.935L100.478 99.7462L99.8429 90.442C99.8429 90.442 103.091 87.178 103.277 84.2892" stroke="#263238" stroke-width="0.5" stroke-miterlimit="10" stroke-linecap="round" stroke-linejoin="round"/>
<path d="M100.291 78.0239C100.291 78.0239 94.2804 83.7264 91.4058 84.7394C88.5312 85.7524 90.6218 107.137 90.4725 113.327C90.3231 119.518 112.125 130.285 113.432 136.625C113.954 139.139 116.157 139.664 117.501 144.504" stroke="#263238" stroke-width="0.5" stroke-miterlimit="10" stroke-linecap="round" stroke-linejoin="round"/>
<path d="M108.84 72.6964C108.84 72.6964 112.125 72.3963 113.954 73.1842C115.784 73.972 123.288 80.4249 125.079 81.663C126.871 82.901 129.597 83.3512 130.119 84.7019" stroke="#263238" stroke-width="0.5" stroke-miterlimit="10" stroke-linecap="round" stroke-linejoin="round"/>
<path d="M116.157 74.6098C116.157 74.6098 119.517 73.4843 120.786 73.5593C122.055 73.6344 126.909 76.4856 129.074 78.399C131.239 80.3124 133.404 81.3628 134.711 81.8505" stroke="#263238" stroke-width="0.5" stroke-miterlimit="10" stroke-linecap="round" stroke-linejoin="round"/>
<path d="M128.29 77.7237C128.29 77.7237 130.903 77.0859 133.628 77.4611C136.354 77.8362 143.223 81.8881 145.425 82.7885C147.628 83.6889 148.673 83.8765 149.793 86.8403C150.951 89.8041 151.473 101.022 151.697 105.486C151.921 109.913 149.644 122.669 150.577 126.233C151.511 129.797 153.265 132.573 154.273 134.487" stroke="#263238" stroke-width="0.5" stroke-miterlimit="10" stroke-linecap="round" stroke-linejoin="round"/>
<path d="M99.8056 90.442C99.8056 90.442 99.2456 88.266 98.5363 87.9658" stroke="#263238" stroke-width="0.5" stroke-miterlimit="10" stroke-linecap="round" stroke-linejoin="round"/>
<path d="M100.44 99.7462C100.44 99.7462 100.925 102.185 101.448 103.535C101.971 104.886 101.149 106.799 101.149 106.799" stroke="#263238" stroke-width="0.5" stroke-miterlimit="10" stroke-linecap="round" stroke-linejoin="round"/>
<path d="M103.128 102.935C103.054 105.074 105.144 107.55 105.667 107.212" stroke="#263238" stroke-width="0.5" stroke-miterlimit="10" stroke-linecap="round" stroke-linejoin="round"/>
<path d="M113.88 90.442C113.88 90.442 116.157 86.7653 118.322 86.5777C120.488 86.3901 122.989 89.5041 124.333 89.2039C125.677 88.9038 127.357 86.9154 129.597 86.5777C131.837 86.2026 132.919 87.2906 134.711 87.4031C136.503 87.4781 136.69 85.077 138.818 84.7769C140.983 84.4393 141.692 85.5272 143.111 85.7899C144.53 86.0525 144.903 84.927 146.06 84.2892" stroke="#263238" stroke-width="0.5" stroke-miterlimit="10" stroke-linecap="round" stroke-linejoin="round"/>
</svg>
