<svg width="30" height="29" viewBox="0 0 30 29" fill="none" xmlns="http://www.w3.org/2000/svg">
<circle cx="15" cy="14.069" r="14.069" fill="#5C2682"/>
<path d="M20.9571 10.3501C20.5096 10.5481 20.035 10.6781 19.5491 10.7358C20.0613 10.4295 20.4446 9.94739 20.6277 9.37935C20.147 9.66542 19.62 9.8659 19.0707 9.97435C18.7018 9.57959 18.2127 9.31778 17.6796 9.22963C17.1465 9.14147 16.5992 9.23192 16.1228 9.48689C15.6465 9.74187 15.2676 10.1471 15.0453 10.6396C14.823 11.1321 14.7696 11.6842 14.8934 12.2101C13.9186 12.1613 12.965 11.908 12.0944 11.4666C11.2239 11.0253 10.4559 10.4058 9.84031 9.64842C9.62241 10.0227 9.50791 10.4481 9.50852 10.8812C9.50852 11.7312 9.94114 12.4821 10.5989 12.9218C10.2096 12.9095 9.82896 12.8044 9.48859 12.6152V12.6457C9.4887 13.2118 9.6846 13.7604 10.043 14.1986C10.4015 14.6367 10.9005 14.9375 11.4553 15.0497C11.094 15.1476 10.7151 15.1621 10.3474 15.0919C10.5038 15.5792 10.8087 16.0054 11.2194 16.3107C11.6301 16.6161 12.126 16.7854 12.6377 16.7949C12.1291 17.1943 11.5469 17.4895 10.9241 17.6637C10.3014 17.8379 9.65046 17.8877 9.00848 17.8102C10.1291 18.5309 11.4337 18.9135 12.7661 18.9122C17.2758 18.9122 19.7419 15.1764 19.7419 11.9364C19.7419 11.8309 19.739 11.7242 19.7343 11.6198C20.2143 11.2729 20.6286 10.8431 20.9577 10.3507L20.9571 10.3501Z" fill="white"/>
</svg>
