<svg width="501" height="650" viewBox="0 0 501 650" fill="none" xmlns="http://www.w3.org/2000/svg">
<g clip-path="url(#clip0)">
<path d="M192.854 0H9.62012V303.213H192.854V0Z" fill="#E0E0E0"/>
<path d="M186.842 0H3.60754V303.213H186.842V0Z" fill="#EBEBEB"/>
<path d="M179.176 6.1604H11.424V297.203H179.176V6.1604Z" fill="#FAFAFA"/>
<path d="M146.407 44.0245H43.2904V259.339H146.407V44.0245Z" fill="#EBEBEB"/>
<path d="M43.2907 183.16C43.1404 163.026 61.1782 143.343 81.1701 140.488C90.64 139.135 100.711 141.089 109.58 137.332C125.363 131.022 130.473 109.836 146.407 103.675L147.158 259.339H43.2907V183.16Z" fill="#E0E0E0"/>
<path d="M422.942 84.4037L407.911 84.4841L408.312 159.311L423.343 159.23L422.942 84.4037Z" fill="#E0E0E0"/>
<path d="M316.457 84.6411L277.526 84.8492L277.747 126.169L316.679 125.961L316.457 84.6411Z" fill="#EBEBEB"/>
<path d="M355.238 84.3405L316.307 84.5489L316.528 125.869L355.46 125.66L355.238 84.3405Z" fill="#F5F5F5"/>
<path d="M277.632 96.3129C303.486 96.4632 329.491 96.313 355.345 96.0124C355.946 96.0124 355.946 95.2612 355.345 95.1109C329.491 94.9607 303.486 95.1109 277.632 95.5617C277.181 95.5617 277.181 96.1627 277.632 96.3129Z" fill="#E0E0E0"/>
<path d="M324.144 125.275L253.345 125.654L253.526 159.311L324.324 158.931L324.144 125.275Z" fill="#EBEBEB"/>
<path d="M394.492 124.824L323.693 125.203L323.874 158.86L394.672 158.481L394.492 124.824Z" fill="#F5F5F5"/>
<path d="M253.281 134.928C300.329 135.529 347.528 134.928 394.427 134.177C395.028 134.177 395.028 133.426 394.427 133.276C347.378 132.975 300.179 133.125 253.281 134.027C252.83 134.327 252.83 134.928 253.281 134.928Z" fill="#E0E0E0"/>
<path d="M501 159.27H226.825V171.29H501V159.27Z" fill="#E0E0E0"/>
<path d="M282.893 165.129H271.77V206.299H282.893V165.129Z" fill="#E0E0E0"/>
<path d="M448.991 165.129H437.868V206.299H448.991V165.129Z" fill="#E0E0E0"/>
<path d="M437.598 56.4563L422.566 56.5367L423.118 159.461L438.15 159.38L437.598 56.4563Z" fill="#EBEBEB"/>
<path d="M461.25 75.6655L437.801 75.7914L438.248 159.183L461.698 159.057L461.25 75.6655Z" fill="#F5F5F5"/>
<path d="M461.016 91.8054C461.016 91.9557 455.755 92.2562 449.292 92.2562C442.828 92.2562 437.567 92.1059 437.567 91.8054C437.567 91.5049 442.828 91.3547 449.292 91.3547C455.755 91.3547 461.016 91.5049 461.016 91.8054Z" fill="#E0E0E0"/>
<path d="M461.016 88.1993C461.016 88.3496 455.755 88.6501 449.292 88.6501C442.828 88.6501 437.567 88.4998 437.567 88.1993C437.567 88.049 442.828 87.7485 449.292 87.7485C455.755 87.8988 461.016 88.049 461.016 88.1993Z" fill="#E0E0E0"/>
<path d="M461.016 146.498C461.016 146.648 455.755 146.949 449.292 146.949C442.828 146.949 437.567 146.798 437.567 146.498C437.567 146.348 442.828 146.047 449.292 146.047C455.755 146.197 461.016 146.348 461.016 146.498Z" fill="#E0E0E0"/>
<path d="M461.016 143.042C461.016 143.192 455.755 143.493 449.292 143.493C442.828 143.493 437.567 143.343 437.567 143.042C437.567 142.892 442.828 142.591 449.292 142.591C455.755 142.591 461.016 142.742 461.016 143.042Z" fill="#E0E0E0"/>
<path d="M449.592 135.379C449.442 135.379 449.141 126.965 449.141 116.597C449.141 106.23 449.292 97.8156 449.592 97.8156C449.743 97.8156 450.043 106.23 450.043 116.597C450.043 126.965 449.893 135.379 449.592 135.379Z" fill="#E0E0E0"/>
<path d="M486.57 96.1627H461.167V159.119H486.57V96.1627Z" fill="#EBEBEB"/>
<path d="M434.26 74.0753C434.26 76.4794 432.306 78.4327 429.901 78.4327C427.496 78.4327 425.542 76.4794 425.542 74.0753C425.542 71.6713 427.496 69.718 429.901 69.718C432.306 69.718 434.26 71.6713 434.26 74.0753Z" fill="#E0E0E0"/>
<path d="M431.254 85.9454H428.548V147.099H431.254V85.9454Z" fill="#E0E0E0"/>
<path d="M219.31 563.604C219.31 563.604 205.481 574.122 218.708 587.945C219.009 588.245 219.31 588.245 219.61 588.245L340.013 587.494C340.013 587.494 350.234 575.925 341.816 562.702L219.31 563.604Z" fill="#EBEBEB"/>
<path d="M313.407 574.572C313.407 574.723 298.375 574.873 279.887 574.873C261.398 574.873 246.366 574.723 246.366 574.572C246.366 574.422 261.398 574.272 279.887 574.272C298.526 574.272 313.407 574.422 313.407 574.572Z" fill="#E0E0E0"/>
<path d="M294.768 578.93C294.768 579.08 287.703 579.23 278.985 579.23C270.266 579.23 263.202 579.08 263.202 578.93C263.202 578.779 270.266 578.629 278.985 578.629C287.703 578.629 294.768 578.779 294.768 578.93Z" fill="#E0E0E0"/>
<path d="M325.733 587.194C325.582 587.194 326.033 585.841 326.334 583.588C326.635 581.334 327.086 578.178 327.086 574.873C327.086 571.417 326.635 568.262 326.184 566.158C325.733 563.904 325.432 562.552 325.432 562.552C325.432 562.552 325.582 562.853 325.733 563.454C325.883 564.055 326.184 564.956 326.484 566.008C326.935 568.262 327.386 571.417 327.537 574.873C327.537 578.329 327.086 581.484 326.635 583.738C326.334 584.79 326.184 585.691 326.033 586.292C325.883 586.893 325.883 587.194 325.733 587.194Z" fill="#E0E0E0"/>
<path d="M334.752 562.702C334.752 562.702 334.902 563.003 335.353 563.604C335.503 563.904 335.653 564.205 335.954 564.656C336.104 565.106 336.405 565.557 336.555 566.158C337.006 567.21 337.307 568.562 337.758 570.215C338.058 571.718 338.209 573.521 338.209 575.324C338.209 577.127 338.058 578.779 337.758 580.432C337.457 581.935 337.157 583.287 336.706 584.489C336.555 585.09 336.255 585.541 336.104 585.992C335.954 586.442 335.804 586.743 335.653 587.043C335.353 587.644 335.203 587.945 335.203 587.945C335.052 587.945 335.804 586.593 336.555 584.339C336.856 583.287 337.307 581.935 337.457 580.432C337.758 578.93 337.908 577.277 337.908 575.474C337.908 573.671 337.758 572.018 337.457 570.516C337.157 569.013 336.856 567.661 336.405 566.609C335.353 563.904 334.752 562.702 334.752 562.702Z" fill="#E0E0E0"/>
<path d="M238.4 587.344C238.4 587.344 238.099 587.043 237.798 586.593C237.648 586.292 237.498 585.992 237.197 585.541C237.047 585.09 236.746 584.639 236.596 584.189C236.145 583.137 235.694 581.785 235.393 580.432C235.093 578.93 234.943 577.277 234.943 575.624C234.943 573.821 235.243 572.319 235.544 570.816C235.844 569.313 236.295 568.111 236.746 567.06C236.897 566.459 237.197 566.158 237.498 565.707C237.648 565.257 237.949 564.956 238.099 564.656C238.4 564.055 238.7 563.904 238.7 563.904C238.851 563.904 237.949 565.106 237.197 567.21C236.746 568.262 236.446 569.464 235.995 570.966C235.694 572.469 235.544 573.971 235.393 575.774C235.393 577.427 235.544 579.08 235.844 580.583C236.145 582.085 236.446 583.287 236.897 584.339C237.648 586.142 238.4 587.344 238.4 587.344Z" fill="#E0E0E0"/>
<path d="M225.322 590.349C225.322 590.349 225.022 590.049 224.721 589.448C224.571 589.147 224.27 588.847 224.12 588.246C223.969 587.795 223.669 587.344 223.368 586.743C222.917 585.541 222.316 584.189 222.015 582.536C221.715 580.883 221.414 579.08 221.264 577.127C221.264 575.173 221.414 573.37 221.715 571.718C222.015 570.065 222.466 568.562 222.917 567.36C223.068 566.759 223.368 566.308 223.519 565.707C223.669 565.257 223.969 564.806 224.12 564.505C224.42 563.904 224.721 563.604 224.721 563.604C224.871 563.604 223.969 564.956 223.218 567.36C222.767 568.562 222.466 570.065 222.166 571.567C221.865 573.22 221.715 575.023 221.715 576.977C221.715 578.93 222.015 580.733 222.316 582.386C222.617 584.038 223.068 585.391 223.519 586.593C224.571 588.997 225.473 590.199 225.322 590.349Z" fill="#E0E0E0"/>
<path d="M335.653 624.307C335.653 625.208 335.653 647.295 335.653 647.295H291.01V624.307H335.653Z" fill="#EBEBEB"/>
<path d="M191.652 636.026C191.652 636.177 191.652 636.477 191.652 636.627C191.952 643.539 197.965 648.948 204.879 648.948H337.608V647.295H306.041C299.728 647.295 294.467 642.187 294.467 635.726C294.467 629.415 299.578 624.156 306.041 624.156H337.608V621.752L204.729 622.203C197.364 622.353 191.351 628.514 191.652 636.026Z" fill="#E0E0E0"/>
<path d="M335.654 636.026C335.654 636.177 326.484 636.327 315.211 636.327C303.937 636.327 294.768 636.177 294.768 636.026C294.768 635.876 303.937 635.726 315.211 635.726C326.484 635.876 335.654 635.876 335.654 636.026Z" fill="#E0E0E0"/>
<path d="M335.052 641.285C335.052 641.436 326.334 641.586 315.662 641.586C304.989 641.586 296.271 641.436 296.271 641.285C296.271 641.135 304.989 640.985 315.662 640.985C326.334 640.985 335.052 641.135 335.052 641.285Z" fill="#E0E0E0"/>
<path d="M335.654 646.093C335.654 646.244 327.837 646.394 318.217 646.394C308.597 646.394 300.78 646.244 300.78 646.093C300.78 645.943 308.597 645.793 318.217 645.793C327.837 645.793 335.654 645.943 335.654 646.093Z" fill="#E0E0E0"/>
<path d="M335.654 631.368C335.654 631.519 326.635 631.669 315.662 631.669C304.538 631.669 295.67 631.519 295.67 631.368C295.67 631.218 304.689 631.068 315.662 631.068C326.635 631.218 335.654 631.218 335.654 631.368Z" fill="#E0E0E0"/>
<path d="M335.052 626.711C335.052 626.861 327.085 627.011 317.165 627.011C307.244 627.011 299.277 626.861 299.277 626.711C299.277 626.56 307.244 626.41 317.165 626.41C327.085 626.56 335.052 626.56 335.052 626.711Z" fill="#E0E0E0"/>
<path d="M207.735 622.654C207.735 622.654 206.383 623.705 204.879 625.959C203.376 628.213 201.873 631.669 201.873 635.876C201.873 639.933 203.527 643.539 205.18 645.643C206.683 647.896 208.186 648.798 208.036 648.948C208.036 648.948 207.735 648.798 207.134 648.197C206.533 647.746 205.781 646.845 204.879 645.793C203.226 643.689 201.422 640.083 201.422 635.726C201.422 631.519 203.076 627.762 204.729 625.659C205.481 624.607 206.383 623.705 206.833 623.255C207.435 622.804 207.735 622.654 207.735 622.654Z" fill="#F5F5F5"/>
<path d="M203.226 622.203C203.226 622.353 201.873 623.255 200.37 625.509C198.867 627.762 197.364 631.218 197.364 635.425C197.364 639.482 199.017 643.088 200.671 645.192C202.174 647.446 203.677 648.347 203.527 648.497C203.527 648.497 203.226 648.347 202.625 647.746C202.023 647.295 201.272 646.394 200.37 645.342C198.717 643.239 196.913 639.632 196.913 635.275C196.913 631.068 198.566 627.312 200.22 625.208C200.971 624.156 201.873 623.255 202.324 622.804C202.925 622.353 203.226 622.203 203.226 622.203Z" fill="#F5F5F5"/>
<path d="M293.565 622.654C293.565 622.654 292.212 623.705 290.709 625.959C289.206 628.213 287.703 631.669 287.703 635.876C287.703 639.933 289.356 643.539 291.01 645.643C292.513 647.896 294.016 648.798 293.866 648.948C293.866 648.948 293.565 648.798 292.964 648.197C292.363 647.746 291.611 646.845 290.709 645.793C289.056 643.689 287.252 640.083 287.252 635.726C287.252 631.519 288.906 627.762 290.559 625.659C291.311 624.607 292.212 623.705 292.663 623.255C293.114 622.804 293.415 622.654 293.565 622.654Z" fill="#F5F5F5"/>
<path d="M289.056 622.203C289.056 622.353 287.703 623.255 286.2 625.509C284.697 627.762 283.193 631.218 283.193 635.425C283.193 639.482 284.847 643.088 286.5 645.192C288.004 647.446 289.507 648.347 289.356 648.497C289.356 648.497 289.056 648.347 288.455 647.746C287.853 647.295 287.102 646.394 286.2 645.342C284.546 643.239 282.743 639.632 282.743 635.275C282.743 631.068 284.396 627.312 286.049 625.208C286.801 624.156 287.703 623.255 288.154 622.804C288.605 622.353 289.056 622.203 289.056 622.203Z" fill="#F5F5F5"/>
<path d="M222.917 639.182C222.917 636.026 222.767 632.871 222.767 629.866C222.767 629.115 222.767 628.213 222.466 627.462C222.166 626.711 221.564 625.959 220.662 625.959C219.46 625.509 217.656 626.41 216.905 627.762C216.153 629.115 216.003 630.767 216.003 632.42C216.003 634.824 216.153 637.379 216.303 639.783C216.454 640.985 216.604 642.187 217.205 643.239C217.806 644.29 218.859 645.042 220.061 644.891C221.264 644.741 222.166 643.84 222.617 642.788C222.917 641.586 222.917 640.384 222.917 639.182Z" fill="#F5F5F5"/>
<path d="M274.475 636.477C274.475 636.627 264.855 636.778 252.98 636.778C241.105 636.778 231.485 636.627 231.485 636.477C231.485 636.327 241.105 636.177 252.98 636.177C264.855 636.327 274.475 636.327 274.475 636.477Z" fill="#F5F5F5"/>
<path d="M214.049 621.752L213.748 599.965H225.623L226.074 621.752H214.049Z" fill="#F5F5F5"/>
<path d="M224.871 603.722C224.871 603.872 222.466 604.022 219.31 604.022C216.303 604.022 213.748 603.872 213.748 603.722C213.748 603.571 216.153 603.421 219.31 603.421C222.466 603.572 224.871 603.571 224.871 603.722Z" fill="#E0E0E0"/>
<path d="M224.871 607.178C224.871 607.328 222.466 607.478 219.31 607.478C216.303 607.478 213.748 607.328 213.748 607.178C213.748 607.027 216.153 606.877 219.31 606.877C222.466 606.877 224.871 607.027 224.871 607.178Z" fill="#E0E0E0"/>
<path d="M224.871 610.483C224.871 610.633 222.466 610.784 219.31 610.784C216.303 610.784 213.748 610.633 213.748 610.483C213.748 610.333 216.153 610.183 219.31 610.183C222.466 610.333 224.871 610.333 224.871 610.483Z" fill="#E0E0E0"/>
<path d="M224.871 613.939C224.871 614.089 222.466 614.24 219.31 614.24C216.303 614.24 213.748 614.089 213.748 613.939C213.748 613.789 216.153 613.638 219.31 613.638C222.466 613.638 224.871 613.789 224.871 613.939Z" fill="#E0E0E0"/>
<path d="M224.871 617.245C224.871 617.395 222.466 617.545 219.31 617.545C216.303 617.545 213.748 617.395 213.748 617.245C213.748 617.094 216.153 616.944 219.31 616.944C222.466 616.944 224.871 617.094 224.871 617.245Z" fill="#E0E0E0"/>
<path d="M213.147 599.364H344.973C346.626 606.577 346.326 614.54 344.973 622.954H213.748V621.302H221.715C223.819 621.302 225.473 619.649 225.473 617.545V604.473C225.473 602.369 223.819 600.717 221.715 600.717H213.147V599.364Z" fill="#EBEBEB"/>
<path d="M244.262 611.084H246.517C246.667 611.084 246.667 611.084 246.817 611.084C246.968 611.234 247.118 611.385 247.118 611.535V611.685C247.118 611.835 246.968 611.986 246.968 612.286C246.667 613.338 246.216 614.089 245.615 614.841C245.014 615.442 244.412 615.742 243.811 615.742C243.661 615.742 243.661 615.742 243.51 615.742C242.909 615.592 242.458 615.291 242.007 614.69C241.556 613.939 241.406 613.037 241.406 611.986C241.406 611.385 241.556 610.784 241.707 610.032C242.007 608.981 242.458 608.229 243.059 607.478C243.661 606.727 244.412 606.426 245.014 606.426C245.314 606.426 245.615 606.426 245.915 606.577C246.517 606.877 246.968 607.328 247.268 608.229V608.38C247.268 608.53 247.268 608.53 247.268 608.68C247.118 608.83 246.968 608.981 246.817 608.981H246.667C246.517 608.981 246.366 608.83 246.366 608.68C246.366 608.53 246.216 608.38 246.066 608.229C245.765 607.779 245.465 607.628 245.014 607.628C244.713 607.628 244.563 607.779 244.262 607.929C243.811 608.229 243.36 608.83 243.059 609.582C242.759 610.483 242.609 611.234 242.609 612.136C242.609 612.887 242.759 613.639 243.059 614.089C243.36 614.69 243.661 614.991 244.262 614.991C244.563 614.991 245.014 614.841 245.314 614.39C245.765 613.939 246.216 613.188 246.517 612.286C245.465 612.286 245.014 612.286 245.014 612.286C244.713 612.286 244.563 611.986 244.412 611.685V611.535C243.811 611.234 243.961 611.084 244.262 611.084Z" fill="#FAFAFA"/>
<path d="M251.778 606.877V607.027C251.928 607.328 252.379 610.032 253.281 615.141V615.291C253.281 615.442 253.281 615.442 253.281 615.592C253.131 615.742 253.131 615.892 252.83 615.892C252.83 615.892 252.83 615.892 252.68 615.892C252.529 615.892 252.379 615.742 252.379 615.592L251.928 612.887H249.222L247.87 615.592C247.87 615.592 247.87 615.592 247.87 615.742C247.719 615.892 247.569 616.043 247.419 616.043C247.268 616.043 247.268 616.043 247.118 615.892C246.968 615.742 246.968 615.592 246.968 615.442V615.291C247.118 615.141 247.118 614.841 247.419 614.39C249.373 610.183 250.425 607.779 250.876 607.027C251.026 606.877 251.176 606.727 251.327 606.727C251.477 606.577 251.627 606.727 251.778 606.877ZM251.176 608.68L249.673 611.685H251.778L251.176 608.68Z" fill="#FAFAFA"/>
<path d="M259.143 615.742H255.235C255.085 615.742 255.085 615.742 254.934 615.592C254.784 615.442 254.784 615.291 254.784 615.141C254.784 614.991 255.085 612.286 255.836 607.027V606.877C255.987 606.727 255.987 606.577 256.287 606.577C256.438 606.577 256.438 606.577 256.438 606.577C256.588 606.727 256.738 606.877 256.738 607.027C256.738 607.328 256.588 608.079 256.438 609.281C255.987 612.737 255.686 614.54 255.686 614.841H258.993C259.143 614.841 259.143 614.841 259.294 614.841C259.444 614.991 259.594 615.141 259.594 615.291V615.442C259.444 615.592 259.293 615.742 259.143 615.742Z" fill="#FAFAFA"/>
<path d="M264.554 606.877V607.027C264.705 607.328 265.156 610.032 266.058 615.141V615.291C266.058 615.442 266.058 615.442 266.058 615.592C265.907 615.742 265.907 615.892 265.607 615.892C265.607 615.892 265.607 615.892 265.456 615.892C265.306 615.892 265.156 615.742 265.156 615.592L264.705 612.887H261.999L260.646 615.592C260.646 615.592 260.646 615.592 260.646 615.742C260.496 615.892 260.346 616.043 260.195 616.043C260.045 616.043 260.045 616.043 259.895 615.892C259.744 615.742 259.744 615.592 259.744 615.442V615.291C259.895 615.141 259.895 614.841 260.195 614.39C262.149 610.183 263.202 607.779 263.653 607.027C263.803 606.877 263.953 606.727 264.104 606.727C264.254 606.577 264.404 606.727 264.554 606.877ZM263.953 608.68L262.45 611.685H264.554L263.953 608.68Z" fill="#FAFAFA"/>
<path d="M270.868 611.535C271.168 612.436 271.469 613.037 271.619 613.488C272.07 614.69 272.221 615.291 272.221 615.291C272.221 615.442 272.221 615.442 272.07 615.592C271.92 615.742 271.77 615.742 271.619 615.742C271.469 615.742 271.319 615.592 271.168 615.442C271.168 615.291 271.168 615.291 271.168 615.291C271.018 614.841 270.567 613.939 270.116 612.436L267.861 615.442C267.711 615.592 267.561 615.742 267.411 615.742C267.26 615.742 267.26 615.742 267.11 615.742C266.96 615.592 266.96 615.592 266.96 615.291C266.96 615.291 266.96 615.291 266.96 615.141C266.96 615.141 267.11 614.991 267.26 614.69C268.012 613.789 268.914 612.587 269.816 611.234C269.665 610.934 269.665 610.784 269.515 610.483C268.613 608.229 268.312 607.027 268.312 607.027C268.312 606.877 268.312 606.877 268.312 606.727C268.463 606.576 268.463 606.426 268.763 606.426C268.914 606.426 269.064 606.576 269.214 606.727L270.567 610.333L273.273 606.727C273.423 606.576 273.573 606.577 273.724 606.577C273.874 606.577 273.874 606.577 273.874 606.577C274.024 606.727 274.175 606.877 274.175 607.027V607.178L270.868 611.535Z" fill="#FAFAFA"/>
<path d="M280.638 606.577H280.789C280.939 606.727 281.089 606.727 281.089 607.027C280.488 612.136 280.037 614.991 280.037 615.291C279.887 616.193 279.586 616.944 279.135 617.395C278.534 618.296 277.632 618.747 276.429 618.747C276.129 618.747 275.678 618.597 275.227 618.447C274.475 618.146 274.024 617.695 273.874 617.245C273.874 617.245 273.874 617.094 273.874 616.944C273.874 616.794 273.874 616.794 273.874 616.644C274.024 616.493 274.175 616.343 274.325 616.343C274.475 616.343 274.626 616.343 274.626 616.493C275.227 617.245 275.828 617.695 276.73 617.695C277.331 617.695 277.933 617.395 278.233 616.944C278.684 616.343 278.985 615.442 279.135 614.39C278.985 614.69 278.834 614.841 278.534 614.991C278.083 615.291 277.632 615.442 277.181 615.442C277.031 615.442 277.031 615.442 276.88 615.442C276.279 615.291 275.828 614.991 275.377 614.39C274.926 613.639 274.776 612.737 274.776 611.685C274.776 611.235 274.776 610.634 274.776 610.183C274.776 609.431 275.077 608.229 275.377 606.727V606.577C275.527 606.426 275.527 606.276 275.828 606.276C275.978 606.276 275.978 606.276 276.129 606.276C276.279 606.426 276.429 606.426 276.429 606.727C276.429 607.027 276.429 607.628 276.279 608.53C276.129 609.882 275.978 610.934 275.978 611.235C275.978 612.136 276.129 612.887 276.279 613.338C276.58 613.939 276.88 614.24 277.482 614.24H277.632C278.083 614.089 278.383 613.789 278.834 613.338C279.285 612.737 279.586 611.986 279.887 611.084L280.488 606.577V606.426C280.338 606.727 280.488 606.577 280.638 606.577Z" fill="#FAFAFA"/>
<path d="M339.862 623.255C339.712 623.255 339.562 617.846 339.562 611.084C339.562 604.323 339.712 598.914 339.862 598.914C340.013 598.914 340.163 604.323 340.163 611.084C340.163 617.846 340.013 623.255 339.862 623.255Z" fill="#F5F5F5"/>
<path d="M232.086 623.255C231.936 623.255 231.786 617.846 231.786 611.084C231.786 604.323 231.936 598.914 232.086 598.914C232.237 598.914 232.387 604.323 232.387 611.084C232.387 617.846 232.237 623.255 232.086 623.255Z" fill="#E0E0E0"/>
<path d="M342.267 623.255C342.117 623.255 341.967 617.846 341.967 611.084C341.967 604.323 342.117 598.914 342.267 598.914C342.418 598.914 342.568 604.323 342.568 611.084C342.418 617.846 342.418 623.255 342.267 623.255Z" fill="#F5F5F5"/>
<path d="M229.982 623.255C229.832 623.255 229.681 617.846 229.681 611.084C229.681 604.323 229.832 598.914 229.982 598.914C230.132 598.914 230.283 604.323 230.283 611.084C230.132 617.846 230.132 623.255 229.982 623.255Z" fill="#E0E0E0"/>
<path d="M307.996 602.97C311.603 605.825 316.413 609.732 321.975 614.089L322.125 614.24H321.975C321.374 614.39 320.772 614.54 320.171 614.69C315.962 615.742 311.904 616.794 308.447 617.846C304.087 616.043 300.33 614.39 297.774 613.338C296.421 612.737 295.519 612.286 294.768 611.986C294.467 611.835 294.167 611.685 294.016 611.685C293.866 611.685 293.866 611.685 293.866 611.535C293.866 611.535 294.016 611.535 294.016 611.685C294.167 611.836 294.467 611.835 294.768 611.986C295.519 612.286 296.572 612.737 297.774 613.188C300.33 614.24 304.087 615.892 308.447 617.695C311.904 616.794 315.962 615.742 320.171 614.54C320.772 614.39 321.374 614.24 321.975 614.089V614.24C316.413 609.882 311.453 605.976 307.996 602.97Z" fill="#E0E0E0"/>
<path d="M320.622 612.436L321.374 613.188L322.426 612.887L321.975 613.939L322.426 614.841L321.374 614.69L320.772 615.442L320.622 614.39L319.57 613.939L320.472 613.488L320.622 612.436Z" fill="#E0E0E0"/>
<path d="M307.244 616.794L307.845 617.244L308.446 617.094L308.146 617.695L308.597 618.296H307.845L307.394 618.747L307.244 618.146L306.643 617.846L307.244 617.545V616.794Z" fill="#E0E0E0"/>
<path d="M292.513 610.784L293.265 610.934L293.866 610.183L294.016 611.084L294.768 611.234L294.166 611.685V612.587L293.415 611.986L292.663 612.286L292.964 611.535L292.513 610.784Z" fill="#E0E0E0"/>
<path d="M326.935 603.121L327.687 603.271L328.138 602.52L328.438 603.421L329.19 603.722L328.438 604.172V604.924L327.837 604.473L327.086 604.623L327.386 603.872L326.935 603.121Z" fill="#E0E0E0"/>
<path d="M307.244 602.67H307.845L308.146 602.219L308.296 602.82L308.747 602.97L308.296 603.271V603.722L307.845 603.421L307.394 603.571L307.545 603.121L307.244 602.67Z" fill="#E0E0E0"/>
<path d="M327.987 603.722C327.987 603.722 323.478 603.571 317.916 603.421C312.355 603.121 307.845 602.97 307.845 602.82C307.845 602.82 312.355 602.97 317.916 603.121C323.478 603.421 327.987 603.722 327.987 603.722Z" fill="#E0E0E0"/>
<path d="M333.098 599.064H199.468C197.664 595.157 197.213 591.251 199.468 587.945H333.098C334.902 592.002 334.752 595.758 333.098 599.064Z" fill="#E0E0E0"/>
<path d="M299.578 591.1H227.126V595.157H299.578V591.1Z" fill="#EBEBEB"/>
<path d="M204.579 599.214C204.579 599.214 204.128 598.763 203.527 597.862C202.925 596.96 202.474 595.608 202.324 593.955C202.174 592.302 202.474 590.8 202.775 589.898C203.076 588.847 203.527 588.396 203.527 588.396C203.527 588.396 203.376 588.997 203.076 590.049C202.775 591.1 202.625 592.453 202.775 593.955C202.925 595.458 203.376 596.81 203.827 597.712C204.278 598.613 204.579 599.064 204.579 599.214Z" fill="#E0E0E0"/>
<path d="M207.435 599.214C207.435 599.214 206.984 598.763 206.383 597.862C205.781 596.96 205.33 595.608 205.18 593.955C205.03 592.302 205.33 590.8 205.631 589.898C205.932 588.847 206.383 588.396 206.383 588.396C206.383 588.396 206.232 588.997 205.932 590.049C205.631 591.1 205.481 592.453 205.631 593.955C205.781 595.458 206.232 596.81 206.683 597.712C207.134 598.613 207.585 599.064 207.435 599.214Z" fill="#E0E0E0"/>
<path d="M327.687 598.914C327.536 598.914 328.589 596.51 328.589 593.504C328.589 590.499 327.536 588.095 327.687 588.095C327.837 587.945 329.04 590.349 329.04 593.504C329.04 596.66 327.687 599.064 327.687 598.914Z" fill="#F5F5F5"/>
<path d="M325.131 598.914C324.981 598.914 325.582 596.51 325.582 593.655C325.582 590.65 324.981 588.396 325.131 588.396C325.282 588.396 326.033 590.65 326.033 593.655C326.033 596.51 325.282 598.914 325.131 598.914Z" fill="#F5F5F5"/>
<path d="M175.267 299.006C156.929 308.472 142.95 324.7 132.878 342.73C122.807 360.61 116.344 380.294 109.88 399.977L104.319 500.798C125.663 464.586 142.649 422.064 147.309 380.444C142.649 379.993 137.839 379.542 133.179 379.242C142.649 377.739 150.616 370.978 155.726 362.714C160.837 354.6 163.392 345.134 165.948 335.969C160.236 336.87 154.374 337.621 148.662 338.523C162.04 329.357 171.81 314.933 175.267 299.006Z" fill="#455A64"/>
<path d="M175.267 299.006C156.929 308.472 142.95 324.7 132.878 342.73C122.807 360.61 116.344 380.294 109.88 399.977L104.319 500.798C125.663 464.586 142.649 422.064 147.309 380.444C142.649 379.993 137.839 379.542 133.179 379.242C142.649 377.739 150.616 370.978 155.726 362.714C160.837 354.6 163.392 345.134 165.948 335.969C160.236 336.87 154.374 337.621 148.662 338.523C162.04 329.357 171.81 314.933 175.267 299.006Z" fill="#455A64"/>
<path d="M101.162 524.387C101.162 524.387 55.0154 469.094 55.4663 416.355H74.1054C74.1054 416.355 53.8128 402.982 55.4663 395.62C57.1198 388.107 57.5707 359.859 57.5707 359.859L74.5563 364.066C74.5563 364.066 61.7795 357.605 60.1261 347.538C58.4726 337.471 63.8839 290.592 63.8839 290.592C63.8839 290.592 84.6274 312.379 91.091 334.767C97.5545 357.154 114.239 383.299 109.279 451.364C104.469 519.73 101.162 524.387 101.162 524.387Z" fill="#455A64"/>
<path d="M124.461 529.646C124.461 529.646 174.516 496.29 185.639 453.768L170.608 449.711C170.608 449.711 189.848 443.4 190.149 437.09C190.449 430.779 196.311 407.94 196.311 407.94L181.731 407.64C181.731 407.64 193.455 405.236 196.913 397.573C200.37 389.91 206.383 350.994 206.383 350.994C206.383 350.994 184.887 364.066 174.816 380.594C164.745 397.122 145.505 414.552 134.682 470.446C123.86 526.341 124.461 529.646 124.461 529.646Z" fill="#455A64"/>
<path d="M76.6607 338.823C76.6607 338.823 76.6607 338.974 76.811 339.424C76.9613 339.875 77.1116 340.476 77.2619 341.077C77.5625 342.58 78.1638 344.834 78.7651 347.688C79.3663 350.543 80.1179 353.999 81.0198 358.056C81.7714 362.113 82.8236 366.771 83.7255 371.879C85.6796 382.097 87.784 394.418 89.8884 407.94C91.9928 421.614 94.0972 436.639 95.901 452.416C97.7048 468.192 99.0576 483.368 100.26 497.041C101.312 510.865 102.064 523.186 102.515 533.553C102.815 538.812 102.966 543.47 102.966 547.677C103.116 551.884 103.116 555.34 103.266 558.345C103.266 561.2 103.266 563.454 103.417 565.106C103.417 565.858 103.417 566.459 103.417 566.909C103.417 567.36 103.417 567.511 103.417 567.511C103.417 567.511 103.417 567.36 103.417 566.909C103.417 566.459 103.417 565.858 103.266 565.106C103.266 563.604 103.116 561.35 103.116 558.345C102.966 555.49 102.966 551.884 102.665 547.677C102.515 543.47 102.365 538.812 102.064 533.553C101.613 523.186 100.711 510.714 99.6589 497.041C98.6067 483.368 97.1035 468.192 95.2997 452.416C93.4959 436.639 91.3915 421.614 89.2871 407.94C87.1827 394.267 85.2286 382.097 83.2745 371.879C82.3726 366.771 81.4707 362.113 80.7192 358.056C79.9676 353.999 79.216 350.543 78.6147 347.688C78.0135 344.834 77.5625 342.58 77.2619 341.077C77.1116 340.326 76.9613 339.725 76.9613 339.424C76.6607 338.974 76.5103 338.823 76.6607 338.823Z" fill="#263238"/>
<path d="M94.6985 558.195C94.6985 558.195 52.4599 510.264 39.3825 481.264L49.3033 477.057C42.0882 478.259 34.7228 475.104 29.1611 470.446C23.5995 465.788 19.541 459.628 15.4824 453.467L28.5599 451.214C16.685 447.908 6.31323 439.794 0 429.126C15.3321 431.681 29.3114 440.095 40.7354 450.613C50.0549 459.177 57.8713 469.094 65.387 479.311C69.1449 484.27 72.3015 489.528 75.0072 495.088C82.2223 509.963 94.6985 540.615 94.6985 558.195Z" fill="#455A64"/>
<path d="M186.24 378.791C186.24 378.791 186.24 378.941 186.09 379.242C185.94 379.542 185.639 379.993 185.489 380.594C184.887 381.796 183.986 383.599 182.933 385.853C181.731 388.107 180.378 390.962 178.875 394.267C177.372 397.573 175.418 401.329 173.614 405.386C169.706 413.65 165.196 423.567 160.386 434.836C155.576 445.955 150.465 458.276 145.505 471.348C140.545 484.42 135.885 496.891 131.977 508.46C128.068 519.88 124.611 530.247 121.905 539.112C120.553 543.47 119.35 547.527 118.298 550.982C117.246 554.438 116.344 557.443 115.592 559.998C114.841 562.402 114.39 564.355 113.939 565.707C113.788 566.308 113.638 566.759 113.488 567.21C113.338 567.51 113.338 567.661 113.338 567.661C113.338 567.661 113.338 567.51 113.488 567.21C113.638 566.909 113.638 566.308 113.939 565.707C114.239 564.355 114.841 562.402 115.442 559.998C116.043 557.594 116.945 554.438 117.997 550.982C119.049 547.527 120.102 543.47 121.455 539.112C124.16 530.398 127.467 519.88 131.375 508.46C135.284 497.041 139.793 484.42 144.904 471.348C150.014 458.276 155.125 445.955 159.935 434.836C164.745 423.717 169.405 413.8 173.313 405.536C175.267 401.329 177.071 397.723 178.725 394.417C180.378 391.112 181.731 388.407 182.933 386.003C184.136 383.749 185.038 381.946 185.639 380.744C185.94 380.143 186.24 379.693 186.391 379.392C186.24 378.941 186.24 378.641 186.24 378.791Z" fill="#263238"/>
<path d="M98.306 578.78C98.306 578.78 98.1557 578.479 98.1557 577.878C98.0054 577.277 97.855 576.375 97.7047 575.324C97.5544 574.272 97.4041 572.92 97.1035 571.267C96.8028 569.764 96.5022 567.961 96.0513 566.008C95.2997 562.101 94.2475 557.443 92.8946 552.335C91.5418 547.226 89.738 541.667 87.6336 535.957C85.5292 530.247 83.1242 524.989 80.8694 520.18C78.4644 515.372 76.36 511.315 74.2556 507.86C73.3537 506.056 72.3015 504.554 71.5499 503.202C70.7983 501.849 70.0468 500.647 69.4455 499.746C68.8442 498.844 68.3933 498.093 68.0927 497.642C67.792 497.191 67.6417 496.891 67.6417 496.891C67.6417 496.891 67.792 497.191 68.243 497.642C68.6939 498.243 69.1449 498.844 69.7461 499.746C70.3474 500.647 71.2493 501.849 72.0009 503.202C72.9028 504.554 73.8046 506.056 74.8568 507.709C76.9613 511.165 79.216 515.372 81.621 520.03C84.0261 524.838 86.2808 530.097 88.5355 535.807C90.6399 541.516 92.4437 547.076 93.7965 552.185C95.1494 557.293 96.2016 561.951 96.8028 565.858C97.2538 567.811 97.4041 569.614 97.7047 571.267C98.0054 572.769 98.1557 574.272 98.1557 575.324C98.306 576.375 98.306 577.277 98.4563 577.878C98.306 578.479 98.306 578.78 98.306 578.78Z" fill="#263238"/>
<path d="M153.923 567.51H61.4789V586.292H153.923V567.51Z" fill="#CD9FED"/>
<path d="M70.3474 586.292L80.4185 649.699H136.185L145.505 586.292H70.3474Z" fill="#CD9FED"/>
<path d="M148.361 586.292C148.361 586.442 130.924 586.743 109.279 586.743C87.6337 586.743 70.1971 586.593 70.1971 586.292C70.1971 586.142 87.6337 585.841 109.279 585.841C130.924 585.992 148.361 586.142 148.361 586.292Z" fill="#263238"/>
<g opacity="0.3">
<g opacity="0.3">
<path opacity="0.3" d="M175.267 299.006C156.929 308.472 142.95 324.7 132.878 342.73C122.807 360.61 116.344 380.294 109.88 399.977L104.319 500.798C125.663 464.586 142.649 422.064 147.309 380.444C142.649 379.993 137.839 379.542 133.179 379.242C142.649 377.739 150.616 370.978 155.726 362.714C160.837 354.6 163.392 345.134 165.948 335.969C160.236 336.87 154.374 337.621 148.662 338.523C162.04 329.357 171.81 314.933 175.267 299.006Z" fill="black"/>
</g>
</g>
<path d="M386.009 380.444C386.009 380.444 401.341 405.837 403.596 430.178C405.85 454.369 389.767 650.15 389.767 650.15H198.867C198.867 650.15 249.974 408.541 266.659 392.915L267.861 376.838L386.009 380.444Z" fill="#263238"/>
<path d="M394.126 399.827C394.126 399.827 394.276 401.029 394.126 403.282C393.976 405.536 393.525 408.842 392.322 412.899C391.12 416.956 388.865 421.764 385.257 426.572C383.454 428.976 381.199 431.38 378.493 433.484C375.788 435.587 372.781 437.54 369.474 439.494C366.167 441.447 362.71 443.25 359.103 445.504C355.645 447.758 352.038 450.162 349.182 453.467C346.326 456.773 343.921 460.83 342.418 465.338C340.914 469.845 340.013 474.653 339.261 479.612C338.509 484.57 338.209 489.679 337.457 494.938C336.706 500.196 335.804 505.455 333.85 510.714C331.896 515.823 328.889 520.781 324.68 524.538C320.472 528.444 315.361 531.299 310.1 533.703C299.578 538.511 288.455 541.667 279.135 547.226C274.475 550.081 270.417 553.537 267.26 557.744C264.104 561.951 262.149 566.759 260.646 571.417C257.64 580.883 256.287 590.499 253.732 599.064C253.431 600.116 253.131 601.167 252.83 602.219C252.529 603.271 252.078 604.323 251.778 605.374C250.876 607.328 250.124 609.281 249.222 611.234C248.32 613.188 247.268 614.84 246.216 616.493C245.615 617.245 245.013 618.146 244.563 618.897L243.661 620.099L242.759 621.151C238.099 627.161 232.838 631.669 227.727 634.975C222.617 638.28 217.957 640.534 213.898 641.886C209.84 643.239 206.683 643.99 204.428 644.441C203.376 644.591 202.474 644.741 201.873 644.891C201.272 645.042 200.971 645.042 200.971 645.042C200.971 645.042 201.272 645.042 201.873 644.891C202.474 644.741 203.226 644.591 204.428 644.441C206.683 643.99 209.84 643.239 213.748 641.736C217.656 640.233 222.466 637.98 227.427 634.674C232.387 631.368 237.648 626.711 242.308 620.851L243.21 619.799L243.961 618.597C244.563 617.846 245.013 616.944 245.615 616.193C246.667 614.54 247.719 612.737 248.621 610.934C249.673 609.131 250.425 607.177 251.176 605.224C251.477 604.172 251.928 603.121 252.229 602.219C252.529 601.167 252.83 600.116 253.13 599.064C255.536 590.499 256.888 581.033 259.895 571.417C261.398 566.609 263.502 561.801 266.659 557.443C269.815 553.236 274.024 549.48 278.684 546.625C288.154 540.915 299.127 537.76 309.649 532.952C314.91 530.548 319.87 527.693 323.929 523.937C327.987 520.18 331.144 515.372 332.948 510.414C334.902 505.305 335.804 500.046 336.555 494.938C337.307 489.679 337.758 484.57 338.359 479.612C339.111 474.653 340.013 469.845 341.516 465.187C343.169 460.68 345.574 456.623 348.43 453.167C351.437 449.861 355.044 447.307 358.501 445.053C362.109 442.95 365.566 440.996 368.873 439.193C372.18 437.24 375.186 435.437 377.892 433.183C380.598 431.08 382.702 428.675 384.656 426.422C388.264 421.613 390.518 416.956 391.871 412.899C393.224 408.842 393.675 405.536 393.825 403.433C393.976 402.381 393.976 401.479 393.976 400.878C394.126 400.127 394.126 399.827 394.126 399.827Z" fill="#455A64"/>
<path d="M399.387 417.557C399.387 417.557 399.537 417.857 399.688 418.308C399.838 418.759 400.139 419.51 400.289 420.562C400.74 422.665 401.04 425.821 400.139 429.727C399.237 433.634 397.433 438.292 393.825 442.649C390.368 447.157 385.558 451.514 379.996 455.871C374.585 460.379 368.272 465.187 363.612 471.949C361.207 475.405 359.403 479.311 358.501 483.669C357.599 488.026 357.299 492.534 356.998 497.191C356.697 501.849 356.247 506.657 355.044 511.466C353.842 516.274 352.038 520.932 349.633 525.439C344.823 534.455 337.607 542.718 328.438 548.729C319.269 554.739 308.897 557.594 299.878 562.101C295.369 564.355 291.01 567.06 287.553 570.365C284.095 573.821 281.39 577.878 279.436 582.085C275.527 590.65 274.024 599.515 271.77 607.478C270.717 611.535 269.515 615.442 268.162 619.048C266.659 622.654 265.005 625.959 262.901 628.964C260.796 631.97 258.542 634.374 256.137 636.477C254.934 637.529 253.732 638.43 252.529 639.482C251.327 640.234 250.124 641.135 248.771 641.886C243.811 644.741 239.151 646.244 235.243 647.145C231.335 648.047 228.178 648.047 226.074 648.047C225.022 648.047 224.27 647.896 223.669 647.896C223.067 647.896 222.917 647.896 222.917 647.896C222.917 647.896 223.218 647.896 223.669 647.896C224.27 647.896 225.022 647.896 226.074 647.896C228.178 647.746 231.184 647.746 235.093 646.845C239.001 645.943 243.51 644.441 248.471 641.586C249.673 640.985 250.876 640.083 252.078 639.182C253.281 638.28 254.483 637.379 255.686 636.327C258.091 634.223 260.346 631.669 262.3 628.814C264.254 625.959 266.058 622.654 267.41 619.048C268.763 615.442 269.966 611.535 271.018 607.628C273.122 599.665 274.776 590.65 278.534 582.085C280.488 577.728 283.193 573.671 286.651 570.215C290.258 566.759 294.617 564.055 299.127 561.801C308.296 557.293 318.668 554.288 327.687 548.428C336.706 542.568 343.77 534.304 348.58 525.439C350.986 520.932 352.789 516.274 353.992 511.616C355.194 506.958 355.796 502.15 355.946 497.492C356.247 492.834 356.547 488.176 357.449 483.819C358.351 479.461 360.305 475.405 362.71 471.949C367.52 465.037 373.833 460.229 379.395 455.721C384.957 451.214 389.767 447.007 393.224 442.649C396.681 438.292 398.635 433.634 399.537 429.878C400.439 425.971 400.139 422.966 399.838 420.862C399.838 418.608 399.387 417.557 399.387 417.557Z" fill="#455A64"/>
<path d="M205.781 281.426C205.781 281.426 218.107 366.771 237.197 375.035C246.817 379.242 254.483 375.636 259.744 366.02C265.005 356.403 278.383 286.685 278.383 286.685L241.406 285.784L240.053 299.607L225.773 273.012L205.781 281.426Z" fill="#936760"/>
<path d="M260.346 337.171C260.346 337.171 260.195 336.87 260.045 336.57C259.744 336.119 259.444 335.518 258.993 334.767C258.091 333.114 256.738 330.71 255.235 328.005C252.078 322.295 247.719 314.182 242.909 305.317C238.249 296.452 233.89 288.488 230.734 282.628C229.23 279.773 228.028 277.52 227.126 275.717C226.675 274.965 226.374 274.364 226.074 273.914C225.773 273.463 225.773 273.312 225.623 273.312C225.623 273.312 225.623 273.613 225.923 274.064C226.224 274.515 226.525 275.266 226.825 276.017C227.577 277.67 228.779 280.074 230.283 283.079C233.289 288.939 237.498 297.053 242.308 305.918C247.118 314.783 251.477 322.746 254.784 328.456C256.437 331.311 257.79 333.564 258.692 335.217C259.143 335.969 259.594 336.57 259.895 337.02C260.195 337.02 260.346 337.171 260.346 337.171Z" fill="#6F4C47"/>
<path d="M389.466 301.41L378.944 348.74L383.905 380.444H267.711L275.377 232.293L304.238 229.889L375.036 241.759L389.466 301.41Z" fill="#CD9FED"/>
<path d="M359.854 241.008C359.854 241.008 390.068 238.303 404.498 258.738C413.366 271.359 425.692 300.208 425.692 300.208L385.408 307.12L359.854 241.008Z" fill="#CD9FED"/>
<g opacity="0.3">
<path opacity="0.3" d="M378.193 302.011C374.284 293.597 365.115 288.037 355.796 288.188C353.842 288.188 351.587 288.789 350.384 290.441C349.182 292.245 349.933 294.498 350.685 296.602C351.737 299.156 353.09 301.861 355.495 303.063C357.299 303.964 359.403 303.964 361.357 304.565C363.762 305.317 365.716 306.969 367.52 308.472C369.023 309.824 370.677 311.026 371.579 312.829C372.33 314.182 372.781 315.834 373.232 317.337C375.186 325 376.689 340.927 378.643 348.74L380.748 342.129C380.748 335.818 380.898 329.357 380.898 323.047C381.199 315.834 381.199 308.472 378.193 302.011Z" fill="black"/>
</g>
<path d="M342.117 341.378C342.117 341.227 343.77 341.528 346.175 341.678C348.731 341.828 352.188 341.979 356.096 341.378C360.004 340.927 363.311 339.875 365.716 339.124C368.121 338.222 369.625 337.621 369.625 337.772C369.625 337.772 369.324 338.072 368.723 338.373C368.121 338.673 367.22 339.124 366.017 339.575C363.612 340.476 360.155 341.528 356.247 342.129C352.338 342.58 348.731 342.58 346.175 342.129C344.823 341.979 343.921 341.828 343.169 341.678C342.568 341.528 342.117 341.378 342.117 341.378Z" fill="#263238"/>
<path d="M291.461 343.481C291.461 343.331 307.995 347.989 328.138 353.999C348.43 360.009 364.664 364.968 364.664 365.118C364.664 365.268 348.13 360.61 327.987 354.6C307.695 348.59 291.461 343.632 291.461 343.481Z" fill="#263238"/>
<g opacity="0.3">
<path opacity="0.3" d="M343.019 341.528C345.875 345.885 351.437 348.44 356.698 347.839C361.959 347.238 366.017 343.782 367.821 338.823C359.704 342.129 351.437 342.58 343.019 341.528Z" fill="black"/>
</g>
<g opacity="0.3">
<g opacity="0.3">
<g opacity="0.3">
<g opacity="0.3">
<g opacity="0.3">
<g opacity="0.3">
<path opacity="0.3" d="M360.305 363.615L359.854 363.766C349.482 365.569 339.712 363.766 329.791 360.16C319.87 356.704 310.551 351.595 301.382 346.336C321.073 352.196 340.614 357.906 360.305 363.615Z" fill="black"/>
</g>
</g>
</g>
</g>
</g>
</g>
<path d="M275.377 232.293C275.377 232.293 256.287 234.697 248.771 250.925C241.406 267.302 235.844 286.835 235.844 286.835L274.926 295.55C274.926 295.55 281.089 262.494 281.54 250.925C281.991 238.303 282.592 231.993 275.377 232.293Z" fill="#CD9FED"/>
<path d="M271.619 300.959C271.469 300.959 271.319 296.001 271.319 289.991C271.319 283.98 271.469 279.022 271.77 279.022C271.92 279.022 272.07 283.98 272.07 289.991C272.07 296.001 271.77 300.959 271.619 300.959Z" fill="#263238"/>
<path d="M292.814 127.566C303.185 114.945 317.014 107.732 333.399 107.432C342.568 107.282 346.476 109.235 353.09 111.038C359.704 112.841 365.717 116.447 369.625 122.007C374.284 128.618 378.343 136.13 379.095 144.244C379.996 152.508 380.898 160.922 380.297 169.337C379.696 177.751 377.441 186.165 372.481 192.927L351.286 196.683C339.562 197.134 327.687 197.434 316.263 194.73C304.839 192.025 293.716 185.865 287.553 175.948C278.985 161.824 282.442 140.187 292.814 127.566Z" fill="#263238"/>
<path d="M366.167 204.797C366.167 204.797 366.468 205.247 367.37 205.848C368.272 206.449 369.775 207.05 371.729 207.351C373.683 207.501 376.088 207.351 378.493 205.999C380.898 204.646 382.702 202.242 383.604 199.237C384.356 196.232 384.055 193.077 382.552 190.823C381.199 188.569 379.245 187.067 377.441 186.165C375.637 185.414 373.984 185.113 372.932 185.264C371.879 185.264 371.278 185.564 371.278 185.564C371.278 185.865 373.683 185.264 377.14 186.916C378.794 187.818 380.447 189.17 381.65 191.274C382.852 193.377 383.153 196.082 382.401 198.786C381.65 201.491 379.996 203.595 377.892 204.797C375.788 205.999 373.683 206.299 371.729 206.299C368.122 206.299 366.167 204.496 366.167 204.797Z" fill="#E0E0E0"/>
<path d="M272.221 189.32C272.822 184.512 275.227 179.854 279.436 177.3C283.644 174.896 289.356 175.046 292.814 178.502L296.121 182.409C301.382 184.663 304.689 190.522 304.087 196.232C303.486 201.942 299.127 206.9 293.716 208.553C288.304 210.206 281.991 208.553 277.933 204.797C273.724 200.89 271.619 195.03 272.221 189.32Z" fill="#263238"/>
<path d="M276.429 203.595C276.58 203.595 275.077 202.092 275.227 199.387C275.377 196.683 277.331 193.077 280.037 189.771C282.743 186.466 286.05 184.212 288.605 183.01C291.16 181.657 292.814 181.207 292.814 181.056C292.814 180.906 291.01 181.207 288.304 182.409C285.599 183.611 282.141 185.865 279.285 189.17C277.782 190.823 276.73 192.626 275.828 194.429C274.926 196.082 274.475 197.885 274.475 199.387C274.475 200.89 274.926 202.092 275.377 202.693C275.978 203.444 276.429 203.745 276.429 203.595Z" fill="#455A64"/>
<path d="M286.801 209.905C287.102 209.905 285.749 203.444 287.703 195.932C289.657 188.269 294.016 183.461 293.716 183.16C293.565 183.01 292.363 184.212 290.86 186.315C289.356 188.419 287.703 191.725 286.651 195.631C285.599 199.538 285.599 203.144 285.749 205.848C286.05 208.403 286.651 209.905 286.801 209.905Z" fill="#455A64"/>
<path d="M351.286 230.941C351.136 223.428 350.986 217.418 350.986 217.418C350.986 217.418 368.272 215.465 373.082 193.227C375.487 182.108 375.938 163.927 375.788 148.902C375.637 135.379 364.213 117.048 347.528 117.048L340.163 116.147L311.753 127.416C307.695 127.566 304.388 130.872 304.238 135.079L303.336 229.889L330.693 296.452L350.384 269.857L351.286 230.941Z" fill="#936760"/>
<path d="M339.712 188.118C339.862 186.916 340.464 185.865 341.365 185.264C343.019 183.911 345.424 183.761 347.228 184.963C349.032 186.165 350.084 188.719 349.633 190.973C348.581 192.326 347.077 193.227 345.424 193.377C345.123 193.377 344.823 193.377 344.672 193.377C343.32 193.377 342.117 192.927 341.065 192.025C340.163 191.124 339.562 189.621 339.712 188.118Z" fill="#6F4C47"/>
<path d="M364.815 164.378C364.815 165.881 363.462 167.083 361.808 167.083C360.155 167.083 358.952 165.881 358.952 164.378C358.952 162.876 360.305 161.674 361.808 161.674C363.462 161.523 364.815 162.876 364.815 164.378Z" fill="#263238"/>
<path d="M370.226 157.316C369.775 157.617 367.821 155.964 364.664 155.814C361.508 155.663 359.253 157.016 358.952 156.715C358.802 156.565 359.253 155.814 360.155 155.213C361.207 154.612 362.86 154.011 364.815 154.011C366.769 154.161 368.272 154.912 369.174 155.663C370.226 156.415 370.527 157.166 370.226 157.316Z" fill="#263238"/>
<path d="M350.835 180.756C350.835 180.606 352.789 180.305 355.946 180.155C356.698 180.155 357.449 180.005 357.599 179.404C357.75 178.803 357.599 177.901 357.149 177C356.547 175.046 355.796 172.943 355.194 170.839C352.489 162.124 350.384 154.912 350.835 154.762C351.136 154.612 353.691 161.674 356.547 170.388C357.148 172.492 357.9 174.595 358.501 176.549C358.802 177.45 359.253 178.502 358.802 179.704C358.501 180.305 357.9 180.606 357.449 180.756C356.998 180.906 356.547 180.906 356.096 180.906C352.789 181.056 350.835 180.906 350.835 180.756Z" fill="#263238"/>
<path d="M350.986 217.418C350.986 217.418 335.804 217.568 321.374 207.802C321.374 207.802 328.589 223.729 351.136 222.977L350.986 217.418Z" fill="#6F4C47"/>
<path d="M341.666 182.409C342.117 182.409 341.967 185.714 344.672 188.269C347.378 190.823 350.986 190.673 350.986 191.123C350.986 191.274 350.084 191.724 348.581 191.724C347.077 191.724 344.973 191.123 343.32 189.471C341.666 187.968 341.065 185.865 340.915 184.512C340.915 183.16 341.365 182.409 341.666 182.409Z" fill="#263238"/>
<path d="M369.625 145.596C369.023 146.348 366.769 145.747 363.913 145.747C361.057 145.747 358.802 146.498 358.201 145.747C357.9 145.446 358.351 144.695 359.253 143.944C360.305 143.192 361.959 142.591 363.762 142.591C365.716 142.591 367.37 143.192 368.422 143.793C369.474 144.545 369.925 145.296 369.625 145.596Z" fill="#263238"/>
<path d="M328.739 163.477C328.589 164.979 329.942 166.332 331.445 166.482C333.098 166.632 334.451 165.43 334.451 163.927C334.601 162.425 333.248 161.073 331.745 160.922C330.242 160.922 328.889 161.974 328.739 163.477Z" fill="#263238"/>
<path d="M327.837 156.264C328.138 156.715 330.392 155.062 333.549 155.062C336.706 155.062 338.96 156.715 339.261 156.264C339.411 156.114 339.111 155.363 338.058 154.612C337.157 153.86 335.503 153.109 333.549 153.109C331.595 153.109 329.941 153.71 329.04 154.461C327.987 155.363 327.687 155.964 327.837 156.264Z" fill="#263238"/>
<path d="M326.033 149.503C326.635 150.254 329.04 149.503 331.896 149.503C334.752 149.503 337.157 150.104 337.758 149.353C338.059 149.052 337.608 148.301 336.555 147.55C335.503 146.798 333.85 146.348 331.745 146.348C329.791 146.348 327.987 146.949 327.086 147.7C326.184 148.451 325.883 149.203 326.033 149.503Z" fill="#263238"/>
<path d="M308.146 172.792C308.296 171.14 306.492 167.083 304.839 166.782C300.48 165.881 292.513 165.73 291.761 177C290.86 192.325 306.342 190.072 306.342 189.621C306.492 189.17 307.845 178.502 308.146 172.792Z" fill="#936760"/>
<path d="M302.584 183.611C302.584 183.611 302.284 183.761 301.833 183.911C301.382 184.062 300.63 184.212 299.878 183.761C298.375 183.01 297.173 180.455 297.173 177.601C297.173 176.248 297.624 174.896 298.225 173.844C298.826 172.792 299.578 172.041 300.329 171.891C301.081 171.741 301.682 172.342 301.833 172.642C301.983 173.093 301.833 173.393 301.983 173.393C301.983 173.393 302.284 173.093 302.284 172.492C302.284 172.191 302.133 171.741 301.682 171.44C301.382 171.14 300.78 170.989 300.179 170.989C298.977 170.989 297.924 172.041 297.323 173.243C296.572 174.445 296.121 175.948 296.121 177.45C295.97 180.606 297.473 183.46 299.578 184.212C300.63 184.512 301.532 184.362 301.983 183.911C302.584 184.062 302.734 183.611 302.584 183.611Z" fill="#6F4C47"/>
<path d="M304.238 166.782L308.146 170.839C324.981 154.762 357.6 114.644 355.796 117.048C355.796 117.048 344.372 112.39 331.896 114.494C319.419 116.597 295.82 122.908 296.121 137.483C296.421 152.057 304.238 166.782 304.238 166.782Z" fill="#263238"/>
<path d="M304.538 204.797C304.538 204.797 304.238 205.247 303.336 205.848C302.434 206.449 300.931 207.05 298.977 207.351C297.023 207.501 294.617 207.351 292.212 205.999C289.807 204.646 288.004 202.242 287.102 199.237C286.35 196.232 286.651 193.077 288.154 190.823C289.507 188.569 291.461 187.067 293.265 186.165C295.068 185.414 296.722 185.113 297.774 185.264C298.826 185.264 299.428 185.564 299.428 185.564C299.428 185.865 297.023 185.264 293.565 186.916C291.912 187.818 290.258 189.17 289.056 191.274C287.853 193.377 287.553 196.082 288.304 198.786C289.056 201.491 290.709 203.595 292.814 204.797C294.918 205.999 297.023 206.299 298.977 206.299C302.584 206.299 304.538 204.496 304.538 204.797Z" fill="#E0E0E0"/>
<path d="M281.991 163.326C281.991 163.326 281.991 163.026 282.292 162.425C282.442 161.824 282.743 161.073 283.344 160.021C284.396 158.068 286.5 155.363 289.657 152.809C292.964 150.254 297.323 148.301 302.584 146.648C307.695 144.995 313.407 143.643 319.119 141.239C324.831 138.835 329.941 135.83 334.15 132.825C338.509 129.669 341.967 126.364 344.823 123.509C347.528 120.654 349.633 117.95 350.986 116.147C351.587 115.245 352.188 114.644 352.489 114.043C352.789 113.592 353.09 113.292 353.09 113.292C353.09 113.292 352.94 113.592 352.639 114.043C352.338 114.494 351.887 115.245 351.286 116.297C349.933 118.1 347.979 120.804 345.274 123.81C342.568 126.815 338.96 130.12 334.601 133.276C330.242 136.431 325.131 139.436 319.419 141.84C313.707 144.244 307.845 145.596 302.734 147.249C297.624 148.752 293.265 150.705 289.958 153.259C286.651 155.663 284.697 158.218 283.494 160.171C282.442 162.124 282.141 163.326 281.991 163.326Z" fill="#455A64"/>
<path d="M286.5 165.731C286.5 165.731 286.35 164.528 287.102 162.425C287.853 160.321 289.657 157.467 292.814 155.213C295.97 152.809 300.63 151.306 305.59 150.254C310.551 149.203 316.113 147.7 321.374 145.296C326.785 142.742 331.595 139.887 335.503 136.581C339.562 133.426 342.718 129.97 345.123 127.115C347.679 124.11 349.332 121.556 350.535 119.753C350.986 118.851 351.437 118.25 351.888 117.649C352.188 117.198 352.338 116.898 352.338 116.898C352.338 116.898 352.188 117.198 352.038 117.649C351.737 118.25 351.286 119.001 350.835 119.903C349.633 121.706 348.13 124.561 345.574 127.566C343.169 130.571 339.862 134.027 335.954 137.332C332.046 140.638 327.086 143.643 321.674 146.197C316.263 148.752 310.701 150.104 305.741 151.156C300.78 152.208 296.271 153.71 293.114 155.964C289.958 158.218 288.154 160.772 287.402 162.876C286.5 164.529 286.651 165.731 286.5 165.731Z" fill="#455A64"/>
<path d="M207.435 289.841C206.533 289.54 205.481 277.369 205.481 277.369C205.481 277.369 193.305 267.603 191.652 263.696C189.998 259.79 190.299 250.324 190.299 250.324L210.14 236.801C210.14 236.801 221.865 247.319 225.022 251.526C226.675 253.779 228.028 260.24 228.93 265.349C229.681 269.706 229.832 274.214 229.381 278.722L229.08 282.178C229.08 282.027 221.113 294.949 207.435 289.841Z" fill="#936760"/>
<path d="M192.554 266.1C192.554 266.1 191.05 264.748 188.495 262.044C185.94 259.189 183.084 256.634 185.489 253.629C186.992 251.826 188.645 251.976 188.645 251.976C188.645 251.976 187.142 249.422 188.495 247.769C189.848 246.117 191.652 246.267 191.652 246.267C191.652 246.267 189.698 242.51 191.501 239.956C193.756 236.801 197.514 237.552 197.514 237.552C197.514 237.552 189.397 221.174 188.946 220.273C187.142 217.117 187.292 213.812 190.9 213.361C192.253 213.211 193.305 214.263 196.762 219.371C200.22 224.48 205.932 233.195 205.932 233.195C205.932 233.195 212.245 238.454 215.401 241.459C218.558 244.464 225.172 251.375 226.224 253.479C229.08 258.888 228.479 267.603 228.479 267.603L205.631 277.369C205.33 277.369 193.906 267.302 192.554 266.1Z" fill="#936760"/>
<path d="M189.247 252.578C189.247 252.578 190.299 253.179 191.952 254.381C192.854 254.982 193.756 255.733 194.808 256.484C195.409 256.935 195.86 257.386 196.462 257.836C196.913 258.437 197.514 259.189 197.514 259.94C197.664 260.691 197.364 261.743 196.612 262.194C196.011 262.645 195.109 262.795 194.357 262.645C193.606 262.645 193.004 262.344 192.403 262.194C191.802 262.044 191.351 261.893 190.75 261.743C189.848 261.443 188.946 261.142 188.495 260.842C188.044 260.691 187.743 260.541 187.743 260.391C187.743 260.391 188.946 260.691 190.9 261.292C191.802 261.593 193.004 261.893 194.357 262.044C194.959 262.044 195.71 262.044 196.161 261.593C196.612 261.142 196.913 260.541 196.762 259.79C196.612 259.038 196.311 258.437 195.86 257.987C195.409 257.536 194.808 257.085 194.357 256.634C193.305 255.883 192.403 255.132 191.501 254.381C190.148 253.329 189.247 252.578 189.247 252.578Z" fill="#6F4C47"/>
<path d="M209.088 247.619C208.938 247.619 208.186 245.966 208.036 243.863C207.735 241.759 208.186 239.956 208.337 239.956C208.487 239.956 208.337 241.759 208.637 243.863C208.788 245.966 209.238 247.619 209.088 247.619Z" fill="#6F4C47"/>
<path d="M220.211 249.272C217.355 247.92 214.049 247.619 210.892 248.07C207.735 248.521 204.729 249.572 201.873 250.925C199.618 251.976 197.063 253.629 196.762 256.033C196.462 258.588 198.867 260.992 201.422 261.442C203.977 261.893 206.533 260.992 208.938 259.94C211.343 258.888 213.598 257.536 216.153 256.935" fill="#936760"/>
<path d="M216.153 257.085C216.153 257.085 215.401 257.235 214.349 257.686C213.147 258.137 211.493 258.888 209.539 259.94C208.487 260.391 207.435 260.992 206.082 261.292C204.729 261.743 203.376 261.893 201.723 261.743C200.22 261.593 198.566 260.691 197.514 259.339C196.913 258.738 196.612 257.836 196.462 256.935C196.311 256.033 196.462 255.132 196.913 254.38C197.814 252.728 199.318 251.826 200.821 251.075C202.324 250.324 203.677 249.723 205.18 249.272C208.036 248.22 210.742 247.769 212.996 247.769C215.251 247.769 217.055 248.22 218.257 248.521C218.859 248.671 219.31 248.971 219.61 249.122C219.911 249.272 220.061 249.422 220.061 249.422C220.061 249.422 219.46 249.122 218.257 248.821C217.055 248.521 215.251 248.07 212.996 248.22C210.742 248.22 208.186 248.821 205.33 249.873C203.977 250.324 202.474 251.075 201.121 251.676C199.769 252.427 198.265 253.329 197.514 254.831C197.063 255.583 196.913 256.334 197.063 257.085C197.213 257.836 197.514 258.588 197.965 259.189C198.867 260.391 200.37 261.142 201.723 261.442C203.226 261.593 204.579 261.442 205.781 261.142C206.984 260.841 208.186 260.24 209.238 259.79C211.343 258.888 212.996 257.987 214.199 257.686C214.8 257.536 215.251 257.386 215.552 257.386C216.003 257.085 216.153 257.085 216.153 257.085Z" fill="#6F4C47"/>
<path d="M189.547 252.728C193.305 255.583 197.063 258.888 200.52 262.043C201.572 262.945 202.625 263.997 203.977 264.297C205.03 264.598 206.833 262.795 207.735 262.043L195.409 249.122" fill="#936760"/>
<path d="M195.409 249.122C195.409 249.122 195.86 249.422 196.462 250.023C197.213 250.774 197.965 251.676 199.167 252.728C201.422 254.981 204.428 258.287 208.036 261.893L208.186 262.043L208.036 262.194C207.435 262.644 206.683 263.396 205.931 263.846C205.631 263.997 205.33 264.297 205.03 264.447C204.879 264.447 204.729 264.598 204.428 264.598C204.278 264.598 203.977 264.598 203.827 264.598C203.075 264.447 202.474 263.997 201.873 263.696C200.821 262.795 199.919 261.893 199.017 261.142C197.213 259.489 195.56 257.987 194.207 256.785C192.854 255.582 191.651 254.681 190.9 253.93C190.148 253.329 189.697 252.878 189.697 252.878C189.697 252.878 190.148 253.178 191.05 253.779C191.952 254.38 193.004 255.282 194.507 256.484C195.86 257.686 197.664 259.189 199.468 260.691C200.37 261.442 201.272 262.494 202.324 263.245C202.775 263.696 203.376 263.997 203.977 264.147C204.579 264.297 205.18 263.997 205.631 263.546C206.382 263.095 206.984 262.494 207.735 261.893V262.344C204.278 258.738 201.272 255.432 199.017 253.178C197.965 251.976 197.063 251.075 196.462 250.324C195.71 249.572 195.409 249.122 195.409 249.122Z" fill="#6F4C47"/>
<path d="M191.952 245.215C196.011 249.873 200.219 254.531 204.278 259.189C205.18 260.24 206.082 261.142 207.134 261.893C208.337 262.494 209.689 262.795 210.892 262.194C212.545 261.292 212.996 259.189 212.395 257.386C211.794 255.583 210.591 254.23 209.389 252.878C205.631 248.671 202.324 244.013 199.167 239.355" fill="#936760"/>
<path d="M199.468 239.205C199.468 239.205 199.618 239.355 199.769 239.656C200.069 239.956 200.37 240.407 200.67 241.008C201.422 242.21 202.625 243.712 204.128 245.666C205.631 247.619 207.435 249.873 209.539 252.427C210.591 253.629 211.794 254.831 212.545 256.634C212.846 257.536 213.147 258.437 212.996 259.339C212.846 260.24 212.545 261.292 211.794 261.893C211.042 262.644 209.99 262.795 208.938 262.644C208.036 262.494 207.134 262.043 206.382 261.593C204.879 260.391 203.977 259.038 202.775 257.836C200.67 255.432 198.716 253.178 197.063 251.375C195.56 249.572 194.207 248.07 193.305 247.018C192.854 246.567 192.553 246.117 192.253 245.816C191.952 245.516 191.952 245.365 191.952 245.365C191.952 245.365 192.102 245.516 192.403 245.816C192.704 246.117 193.004 246.567 193.455 247.018C194.508 248.07 195.71 249.572 197.364 251.375C199.017 253.178 200.971 255.432 203.075 257.836C204.128 259.038 205.18 260.391 206.533 261.442C207.284 261.893 208.036 262.344 208.938 262.494C209.84 262.644 210.742 262.494 211.343 261.893C211.944 261.292 212.395 260.391 212.395 259.639C212.545 258.738 212.395 257.987 211.944 257.085C211.192 255.432 209.99 254.23 208.938 253.028C206.833 250.624 205.03 248.22 203.526 246.267C202.023 244.313 200.971 242.661 200.219 241.459C199.919 240.858 199.618 240.407 199.468 240.106C199.468 239.355 199.468 239.205 199.468 239.205Z" fill="#6F4C47"/>
<path d="M218.257 271.209C218.257 271.209 217.656 271.51 216.754 271.51C215.852 271.51 214.499 271.359 213.147 270.909C211.794 270.307 210.742 269.556 210.14 268.805C209.539 268.054 209.238 267.603 209.389 267.603C209.539 267.453 210.742 269.406 213.297 270.458C216.003 271.51 218.257 271.059 218.257 271.209Z" fill="#6F4C47"/>
<path d="M375.788 231.842L371.428 286.385C371.278 288.338 369.625 289.84 367.671 289.69L337.157 287.737C335.203 287.587 333.699 285.784 333.85 283.83L338.81 229.288C338.96 227.335 340.614 225.982 342.568 225.982L372.33 227.936C374.435 228.236 375.938 229.889 375.788 231.842Z" fill="#455A64"/>
<path d="M419.379 301.41C419.379 301.41 428.548 362.864 428.097 371.128C427.797 379.392 418.477 397.723 405.851 399.526C393.224 401.329 381.5 389.91 381.049 374.734C380.748 359.709 378.794 311.928 378.794 311.928L388.113 306.819L419.379 301.41Z" fill="#936760"/>
<path d="M367.671 250.624C367.671 250.624 377.14 256.484 379.846 257.987C382.552 259.489 382.251 270.758 382.251 270.758L398.034 307.571L378.944 314.482C378.944 314.482 372.18 301.56 370.226 299.908C368.272 298.255 365.717 297.654 365.717 297.654C365.717 297.654 364.664 301.26 361.808 299.607C358.802 297.954 355.645 294.048 355.645 294.048C355.645 294.048 353.09 295.7 352.038 293.747C350.986 291.794 349.483 287.587 349.483 287.587C349.483 287.587 355.044 280.375 357.299 280.375C359.554 280.375 371.278 280.976 371.278 280.976C371.278 280.976 370.677 279.924 367.37 278.722C364.063 277.52 344.672 271.66 343.771 271.359C342.418 270.758 340.915 267.302 345.123 267.002C349.332 266.701 373.232 270.908 373.232 270.908C373.232 270.908 374.585 264.748 373.533 263.396C372.481 262.043 364.063 256.484 367.671 250.624Z" fill="#936760"/>
<path d="M355.495 293.597C355.495 293.597 355.345 292.545 355.645 290.892C355.796 290.141 356.247 289.089 357.149 288.188C358.05 287.286 359.403 287.136 360.606 287.136C363.161 286.986 365.416 287.136 367.069 287.436C368.723 287.737 369.625 287.887 369.625 288.037C369.625 288.188 365.566 287.587 360.606 287.887C359.403 287.887 358.201 288.037 357.449 288.789C356.698 289.39 356.247 290.291 356.096 291.042C355.645 292.695 355.645 293.597 355.495 293.597Z" fill="#6F4C47"/>
<path d="M359.253 294.799C359.403 294.649 360.906 295.7 362.86 296.452C364.815 297.353 366.618 297.804 366.618 297.954C366.618 298.104 364.664 297.954 362.56 297.053C360.606 296.301 359.253 294.949 359.253 294.799Z" fill="#6F4C47"/>
<path d="M372.03 270.608C372.03 270.458 373.834 270.758 375.337 272.261C376.84 273.763 377.291 275.566 377.141 275.566C376.99 275.717 376.239 274.064 374.886 272.712C373.533 271.51 372.03 270.909 372.03 270.608Z" fill="#6F4C47"/>
<path d="M209.389 599.364C209.238 599.364 217.355 564.806 227.727 522.284C238.099 479.762 246.667 445.354 246.817 445.354C246.968 445.354 238.851 479.912 228.479 522.434C218.107 564.956 209.539 599.364 209.389 599.364Z" fill="#455A64"/>
<path d="M318.217 649.549C511.522 649.549 510.77 650 333.85 650C156.929 650 13.5283 649.85 13.5283 649.549C13.5283 649.249 58.3222 649.098 235.243 649.098C412.314 649.098 150.616 649.549 318.217 649.549Z" fill="#263238"/>
<path d="M359.704 107.732L364.063 91.8054C359.854 85.0439 357.449 77.0805 357.449 68.516C357.449 44.0245 377.291 24.0407 401.942 24.0407C426.444 24.0407 446.436 43.8743 446.436 68.516C446.436 93.0074 426.594 112.991 401.942 112.991C391.721 112.991 382.251 109.535 374.735 103.675L359.704 107.732Z" fill="white"/>
<path d="M359.704 107.732C359.704 107.732 360.005 107.582 360.756 107.432C361.508 107.282 362.41 106.981 363.612 106.681C366.168 105.929 369.925 104.877 374.736 103.525L374.585 103.826C374.585 103.675 374.585 103.675 374.585 103.525H374.736C379.395 107.131 386.159 110.888 395.028 112.24C399.387 112.991 404.348 112.991 409.308 112.09C414.268 111.188 419.529 109.385 424.339 106.53C429.15 103.675 433.659 99.6186 437.417 94.6602C441.024 89.7018 443.88 83.8419 445.083 77.381C446.285 70.92 446.135 64.0083 444.482 57.2469C443.73 53.9413 442.227 50.6357 440.573 47.4804C438.77 44.4753 436.816 41.4702 434.26 38.7656C431.855 36.061 429.15 33.8072 426.294 31.8539C423.287 30.0509 420.281 28.2478 416.974 27.196C410.51 24.792 403.746 24.0407 397.283 24.6417C390.819 25.2427 384.656 27.3463 379.395 30.5016C374.134 33.657 369.775 37.7138 366.318 42.0712C359.554 51.0865 357.149 61.6043 357.449 70.4693C357.75 79.3343 360.756 86.5465 363.913 91.6551V91.8054C362.41 96.914 361.357 100.821 360.606 103.525C360.155 104.877 359.854 105.929 359.704 106.53C359.854 107.282 359.704 107.732 359.704 107.732C359.704 107.732 359.704 107.432 360.005 106.681C360.155 105.929 360.456 105.028 360.756 103.675C361.508 100.971 362.56 96.914 363.913 91.6551V91.8054C360.756 86.6967 357.75 79.4845 357.299 70.4693C356.848 61.6043 359.253 50.9362 366.168 41.6204C369.625 37.1128 373.984 32.9057 379.395 29.7504C384.656 26.595 390.97 24.4915 397.583 23.7402C404.197 23.1392 411.112 23.8904 417.726 26.2945C421.033 27.3463 424.189 29.1493 427.195 31.1026C430.051 33.2062 432.907 35.46 435.312 38.1646C437.868 40.8692 439.822 43.8743 441.626 47.0296C443.279 50.1849 444.632 53.4905 445.534 56.9464C447.338 63.7078 447.488 70.7698 446.135 77.381C444.782 83.9921 441.926 90.0023 438.319 94.9607C434.561 99.9191 430.051 103.976 425.091 106.981C420.131 109.836 414.87 111.639 409.759 112.54C404.648 113.442 399.688 113.442 395.329 112.691C386.46 111.338 379.546 107.432 374.886 103.826L375.186 103.525C375.186 103.525 375.186 103.675 375.186 103.826C370.226 105.178 366.468 106.08 363.913 106.831C362.71 107.131 361.658 107.432 361.057 107.582C360.005 107.582 359.704 107.732 359.704 107.732Z" fill="#263238"/>
<path d="M382.101 69.5678L387.362 64.3089L397.283 73.1739L417.124 54.2418L421.934 59.5007L396.531 83.2409L382.101 69.5678Z" fill="#CD9FED"/>
</g>
<defs>
<clipPath id="clip0">
<rect width="501" height="650" fill="white"/>
</clipPath>
</defs>
</svg>
