<svg width="24" height="24" viewBox="0 0 24 24" fill="none" xmlns="http://www.w3.org/2000/svg">
<path d="M22.8007 4.79932H19.2006H1.20004C0.540016 4.79932 0 5.33933 0 5.99935V20.3998C0 22.3798 1.62005 23.9999 3.60011 23.9999H22.8007C23.4607 23.9999 24.0007 23.4599 24.0007 22.7999V17.9997H21.6007H15.0005C12.6844 17.9997 10.8003 16.1157 10.8003 13.7996C10.8003 11.4835 12.6844 9.59946 15.0005 9.59946H21.6007H24.0007V5.99935C24.0007 5.33933 23.4607 4.79932 22.8007 4.79932Z" fill="white"/>
<path d="M19.2006 1.19955C19.2006 0.539528 18.6605 -0.000488281 18.0005 -0.000488281H6.00016C4.0441 -0.000488281 2.29205 0.94754 1.20001 2.39958H19.2006V1.19955Z" fill="white"/>
<path d="M15.0004 12C14.0044 12 13.2004 12.804 13.2004 13.8001C13.2004 14.7961 14.0044 15.6001 15.0004 15.6001H21.6006H24.0007V12H21.6006H15.0004Z" fill="white"/>
</svg>
