<svg width="133" height="32" viewBox="0 0 133 32" fill="none" xmlns="http://www.w3.org/2000/svg">
<path d="M8.76733 17.832C9.13263 17.8451 9.47887 17.6813 9.80287 17.3502L24.005 2.69604C24.3385 2.35189 24.491 1.9848 24.4624 1.60132C24.4338 1.21457 24.2654 0.860584 23.9541 0.539378C23.6429 0.218173 23.2966 0.041182 22.9186 0.00512832C22.5374 -0.0309254 22.1817 0.123122 21.8481 0.467271L8.76733 13.9612L2.62082 7.61901C2.28728 7.27486 1.92834 7.12081 1.55034 7.15687C1.16916 7.19292 0.826097 7.36991 0.514801 7.69112C0.203505 8.01232 0.0319739 8.3663 0.00656197 8.75306C-0.025203 9.13654 0.127269 9.50363 0.460801 9.84778L7.73179 17.3502C8.05262 17.6813 8.39886 17.8419 8.76733 17.832ZM130.29 15.2821C130.421 14.9805 130.595 14.7576 130.815 14.6134C131.034 14.4692 131.275 14.4004 131.536 14.4004C131.91 14.4004 132.247 14.5315 132.549 14.7904C132.851 15.0493 133 15.3738 133 15.7606C133 15.9441 132.952 16.1375 132.854 16.3407L126.183 30.7589C125.907 31.3292 125.475 31.6176 124.887 31.6176C124.512 31.6176 124.182 31.4964 123.896 31.2506C123.61 31.008 123.467 30.6999 123.467 30.3295C123.467 30.146 123.515 29.9362 123.613 29.7002L125.275 26.0949L120.739 16.3407C120.656 16.1736 120.618 15.9802 120.618 15.7606C120.618 15.3738 120.777 15.0461 121.095 14.7773C121.412 14.5085 121.774 14.3742 122.181 14.3742C122.457 14.3742 122.711 14.4463 122.937 14.5872C123.166 14.7314 123.343 14.951 123.474 15.2558L126.895 23.0467L130.29 15.2821ZM113.188 24.8887C114.001 24.8887 114.665 24.6068 115.18 24.0431C115.694 23.4793 115.949 22.7517 115.949 21.8635V21.3325H115.51C114.418 21.3325 113.573 21.3817 112.969 21.4833C112.366 21.5849 111.933 21.7619 111.673 22.0143C111.413 22.2666 111.282 22.6108 111.282 23.0467C111.282 23.5842 111.467 24.0267 111.832 24.3709C112.2 24.715 112.651 24.8887 113.188 24.8887ZM113.947 14.325C115.609 14.325 116.841 14.7478 117.648 15.5967C118.455 16.4456 118.858 17.7337 118.858 19.4676V25.6196C118.858 26.0719 118.728 26.4292 118.468 26.6914C118.207 26.9503 117.848 27.0814 117.394 27.0814C116.971 27.0814 116.625 26.9471 116.355 26.6783C116.085 26.4095 115.952 26.0555 115.952 25.6196V25.0657C115.675 25.7212 115.24 26.2325 114.646 26.6029C114.052 26.9733 113.363 27.1568 112.582 27.1568C111.784 27.1568 111.06 26.9897 110.406 26.6521C109.754 26.3145 109.24 25.8523 108.865 25.2656C108.49 24.679 108.303 24.0234 108.303 23.2991C108.303 22.3912 108.525 21.6767 108.973 21.1555C109.421 20.6344 110.148 20.2575 111.158 20.0215C112.169 19.7855 113.56 19.6675 115.336 19.6675H115.945V19.0874C115.945 18.2647 115.774 17.6616 115.434 17.2847C115.091 16.9077 114.538 16.7176 113.773 16.7176C113.299 16.7176 112.82 16.7898 112.331 16.9307C111.841 17.0749 111.263 17.2781 110.596 17.5469C110.174 17.7665 109.862 17.8746 109.669 17.8746C109.376 17.8746 109.135 17.7665 108.948 17.5469C108.76 17.3273 108.668 17.0421 108.668 16.6914C108.668 16.4063 108.738 16.1572 108.875 15.9474C109.014 15.7376 109.246 15.541 109.57 15.3542C110.139 15.0362 110.822 14.7839 111.609 14.597C112.404 14.4168 113.182 14.325 113.947 14.325ZM100.142 24.7117C101.105 24.7117 101.851 24.3709 102.391 23.6924C102.928 23.0107 103.198 22.0503 103.198 20.8048C103.198 19.5266 102.928 18.5367 102.391 17.8288C101.854 17.1241 101.105 16.7701 100.142 16.7701C99.164 16.7701 98.4112 17.1142 97.8839 17.8025C97.3534 18.4908 97.0897 19.4741 97.0897 20.7524C97.0897 22.0143 97.3534 22.9877 97.8839 23.676C98.4112 24.3676 99.1672 24.7117 100.142 24.7117ZM100.949 14.325C101.975 14.325 102.89 14.5938 103.697 15.1313C104.504 15.6688 105.129 16.4292 105.577 17.4125C106.025 18.3958 106.251 19.5266 106.251 20.8015C106.251 22.0798 106.025 23.1975 105.577 24.1545C105.129 25.1116 104.507 25.8523 103.71 26.3735C102.912 26.8946 101.991 27.1535 100.949 27.1535C100.101 27.1535 99.345 26.97 98.678 26.5996C98.0109 26.2293 97.4963 25.718 97.1374 25.0624V30.205C97.1374 30.6409 96.9976 30.9851 96.7213 31.2374C96.4449 31.4898 96.0764 31.6144 95.6222 31.6144C95.1648 31.6144 94.7963 31.48 94.5104 31.2112C94.2245 30.9425 94.0816 30.5885 94.0816 30.1526V15.8622C94.0816 15.4099 94.215 15.0461 94.485 14.7773C94.755 14.5085 95.1171 14.3742 95.5714 14.3742C96.0288 14.3742 96.3941 14.5085 96.6704 14.7773C96.9468 15.0461 97.0866 15.4066 97.0866 15.8622V16.4915C97.4455 15.8032 97.9633 15.2689 98.6367 14.892C99.3165 14.5151 100.085 14.325 100.949 14.325ZM91.3975 14.3742C91.8199 14.3414 92.1535 14.4332 92.3981 14.6528C92.6427 14.8724 92.7634 15.2001 92.7634 15.636C92.7634 16.0883 92.6585 16.4259 92.4457 16.6455C92.2329 16.8651 91.8517 17.0061 91.299 17.0749L90.5652 17.1503C89.6027 17.2519 88.9007 17.5862 88.4529 18.1598C88.005 18.7301 87.7826 19.4446 87.7826 20.3033V25.5967C87.7826 26.085 87.6365 26.4587 87.3443 26.7176C87.052 26.9766 86.6835 27.1077 86.2452 27.1077C85.8068 27.1077 85.4415 26.9766 85.1588 26.7176C84.8729 26.4587 84.73 26.0818 84.73 25.5967V15.836C84.73 15.364 84.8729 15.0035 85.1588 14.7511C85.4447 14.4987 85.7973 14.3742 86.223 14.3742C86.6454 14.3742 86.9885 14.4954 87.249 14.7412C87.5094 14.9838 87.6397 15.3345 87.6397 15.7868V16.7963C87.9478 16.0556 88.4084 15.4853 89.0214 15.0821C89.6313 14.679 90.3111 14.4528 91.0608 14.4004L91.3975 14.3742ZM76.9825 16.5439C76.1535 16.5439 75.4896 16.8127 74.9909 17.3502C74.4953 17.8878 74.1967 18.6613 74.0983 19.6708H79.619C79.5873 18.6449 79.3427 17.8681 78.8853 17.3404C78.431 16.8094 77.7957 16.5439 76.9825 16.5439ZM81.2104 23.5777C81.4868 23.5777 81.7123 23.6858 81.8807 23.9054C82.0522 24.125 82.138 24.4167 82.138 24.7871C82.138 25.3083 81.8362 25.7442 81.2327 26.0982C80.68 26.4161 80.051 26.675 79.3522 26.8684C78.6534 27.0618 77.9831 27.1568 77.3478 27.1568C75.426 27.1568 73.9045 26.5865 72.78 25.4426C71.6555 24.2987 71.0933 22.7353 71.0933 20.7524C71.0933 19.4905 71.3379 18.3728 71.8271 17.3994C72.3163 16.4259 73.0024 15.6688 73.8918 15.1313C74.778 14.5938 75.785 14.325 76.9095 14.325C77.9831 14.325 78.9202 14.5675 79.7175 15.0559C80.5148 15.5443 81.1342 16.2326 81.5757 17.1241C82.0141 18.0156 82.2365 19.0644 82.2365 20.2738C82.2365 20.9949 81.9283 21.3587 81.3089 21.3587H74.1014C74.1999 22.519 74.5176 23.3712 75.0544 23.9185C75.5912 24.4659 76.3726 24.738 77.3987 24.738C77.9196 24.738 78.3802 24.6724 78.7804 24.5347C79.1807 24.4004 79.6317 24.2168 80.1368 23.9808C80.6228 23.7121 80.9817 23.5777 81.2104 23.5777ZM67.0623 27.1044C66.624 27.1044 66.2587 26.9733 65.976 26.7143C65.6901 26.4554 65.5472 26.0785 65.5472 25.5934V10.5426C65.5472 10.0543 65.6901 9.68718 65.976 9.4348C66.2619 9.18243 66.624 9.05788 67.0623 9.05788C67.5007 9.05788 67.8692 9.18243 68.1614 9.4348C68.4536 9.68718 68.5998 10.0575 68.5998 10.5426V25.5934C68.5998 26.0818 68.4536 26.4554 68.1614 26.7143C67.8692 26.9766 67.5039 27.1044 67.0623 27.1044ZM60.8587 27.1044C60.4203 27.1044 60.055 26.9733 59.7723 26.7143C59.4864 26.4554 59.3435 26.0785 59.3435 25.5934V10.5426C59.3435 10.0543 59.4864 9.68718 59.7723 9.4348C60.0582 9.18243 60.4203 9.05788 60.8587 9.05788C61.297 9.05788 61.6655 9.18243 61.9577 9.4348C62.25 9.68718 62.3961 10.0575 62.3961 10.5426V25.5934C62.3961 26.0818 62.25 26.4554 61.9577 26.7143C61.6655 26.9766 61.297 27.1044 60.8587 27.1044ZM51.5992 16.5439C50.7669 16.5439 50.1062 16.8127 49.6075 17.3502C49.112 17.8878 48.8134 18.6613 48.7149 19.6708H54.2357C54.2039 18.6449 53.9593 17.8681 53.5019 17.3404C53.0476 16.8094 52.4124 16.5439 51.5992 16.5439ZM55.8271 23.5777C56.1034 23.5777 56.329 23.6858 56.5005 23.9054C56.672 24.125 56.7578 24.4167 56.7578 24.7871C56.7578 25.3083 56.456 25.7442 55.8525 26.0982C55.2998 26.4161 54.6708 26.675 53.972 26.8684C53.2732 27.0618 52.6029 27.1568 51.9676 27.1568C50.0459 27.1568 48.5243 26.5865 47.3998 25.4426C46.2754 24.2987 45.7131 22.7353 45.7131 20.7524C45.7131 19.4905 45.9577 18.3728 46.4469 17.3994C46.9361 16.4259 47.6222 15.6688 48.5116 15.1313C49.3979 14.5938 50.4048 14.325 51.5293 14.325C52.6029 14.325 53.54 14.5675 54.3373 15.0559C55.1346 15.5443 55.754 16.2326 56.1956 17.1241C56.6339 18.0156 56.8563 19.0644 56.8563 20.2738C56.8563 20.9949 56.5481 21.3587 55.9287 21.3587H48.7213C48.8197 22.519 49.1374 23.3712 49.6742 23.9185C50.211 24.4659 50.9925 24.738 52.0185 24.738C52.5394 24.738 53 24.6724 53.4002 24.5347C53.8005 24.4004 54.2515 24.2168 54.7566 23.9808C55.2394 23.7121 55.5984 23.5777 55.8271 23.5777ZM43.5626 24.7609C44.3758 24.8101 44.7856 25.1903 44.7856 25.8949C44.7856 26.2981 44.6268 26.6062 44.3091 26.816C43.9915 27.0257 43.5404 27.1142 42.9528 27.0814L42.292 27.0323C39.5571 26.8291 38.188 25.3181 38.188 22.4961V16.9962H36.9651C36.5267 16.9962 36.1868 16.8946 35.9518 16.6947C35.7167 16.4915 35.596 16.1998 35.596 15.813C35.596 15.4263 35.7135 15.1313 35.9518 14.9314C36.1868 14.7281 36.5267 14.6298 36.9651 14.6298H38.188V12.3093C38.188 11.857 38.3278 11.4931 38.6041 11.2244C38.8805 10.9556 39.2553 10.8212 39.7286 10.8212C40.186 10.8212 40.5513 10.9556 40.8277 11.2244C41.104 11.4931 41.2438 11.8537 41.2438 12.3093V14.6298H43.3212C43.7596 14.6298 44.0995 14.7314 44.3345 14.9314C44.5696 15.1346 44.6903 15.4263 44.6903 15.813C44.6903 16.1998 44.5728 16.4948 44.3345 16.6947C44.0995 16.8979 43.7596 16.9962 43.3212 16.9962H41.2438V22.7189C41.2438 23.9612 41.7965 24.6265 42.9051 24.7117L43.5626 24.7609ZM25.7838 15.813L21.7179 11.6177C21.3844 11.2735 21.2319 10.9064 21.2605 10.5197C21.2891 10.1329 21.4606 9.77895 21.7687 9.45775C22.08 9.13654 22.4263 8.95955 22.8043 8.9235C23.1854 8.88744 23.5412 9.04149 23.8747 9.38564L29.0334 14.7085L29.0461 14.7249L29.0588 14.738L29.0715 14.7544L29.0747 14.7576L29.0842 14.7707L29.0874 14.774L29.0969 14.7839L29.1032 14.7904L29.1128 14.8002L29.1191 14.8068C29.3732 15.1018 29.513 15.423 29.5384 15.7704C29.567 16.1572 29.4145 16.521 29.081 16.8651L14.8821 31.516C14.5485 31.8602 14.1896 32.0208 13.8116 31.9978C13.5448 31.9815 13.297 31.893 13.0651 31.7291H13.0619L13.0461 31.7193L13.0429 31.716C12.973 31.6668 12.9031 31.6078 12.8332 31.5423L12.8205 31.5324L12.8174 31.5292L12.8047 31.516L12.8015 31.5128L12.7729 31.4833L0.460801 18.776C0.127269 18.4318 -0.025203 18.0647 0.00338547 17.678C0.0319739 17.2912 0.200328 16.9372 0.511624 16.616C0.822921 16.2948 1.16916 16.1178 1.54716 16.0818C1.92834 16.0457 2.28411 16.1998 2.61764 16.5439L13.8434 28.127L25.7838 15.813Z" fill="white"/>
</svg>
