<svg width="10" height="10" viewBox="0 0 10 10" fill="none" xmlns="http://www.w3.org/2000/svg">
<path d="M4.25098 7.03623C2.71534 7.03623 1.4667 5.78661 1.4667 4.25146C1.4667 2.71583 2.71534 1.4667 4.25098 1.4667C5.78661 1.4667 7.03574 2.71583 7.03574 4.25146C7.03574 5.78661 5.78661 7.03623 4.25098 7.03623ZM7.74514 6.70867L7.63024 6.82356C8.17488 6.10928 8.50244 5.21948 8.50244 4.25146C8.50244 1.90377 6.59916 0 4.25098 0C1.90328 0 0 1.90377 0 4.25146C0 6.59916 1.90328 8.50293 4.25098 8.50293C5.219 8.50293 6.10879 8.17537 6.82356 7.63073L6.70818 7.74563L8.96347 10.0004L10.0004 8.96347L7.74514 6.70867Z" fill="white"/>
</svg>
