<svg width="62" height="44" viewBox="0 0 62 44" fill="none" xmlns="http://www.w3.org/2000/svg">
<path d="M54.9434 35.6113H59.0131C59.5523 35.6097 60.069 35.3948 60.4503 35.0135C60.8315 34.6323 61.0464 34.1156 61.048 33.5764V19.3322H54.9434V35.6113Z" fill="#CD9FED"/>
<path d="M59.011 0H10.1736C9.63436 0.00157563 9.11769 0.216471 8.73642 0.597746C8.35514 0.979022 8.14025 1.49569 8.13867 2.03489V6.10468H50.8714C51.583 6.10612 52.2816 6.29495 52.8971 6.65217C53.5125 7.00939 54.023 7.52239 54.3771 8.13957H61.0459V2.03489C61.0443 1.49569 60.8294 0.979022 60.4481 0.597746C60.0668 0.216471 59.5502 0.00157563 59.011 0Z" fill="#CD9FED"/>
<path d="M50.8723 8.14038H2.03489C1.49521 8.14038 0.977622 8.35477 0.596006 8.73639C0.21439 9.118 0 9.63559 0 10.1753V41.7161C0 42.2558 0.21439 42.7734 0.596006 43.155C0.977622 43.5366 1.49521 43.751 2.03489 43.751H50.8723C51.412 43.751 51.9296 43.5366 52.3112 43.155C52.6928 42.7734 52.9072 42.2558 52.9072 41.7161V10.1753C52.9072 9.63559 52.6928 9.118 52.3112 8.73639C51.9296 8.35477 51.412 8.14038 50.8723 8.14038ZM20.8576 39.1725H7.63085C7.22994 39.1666 6.84744 39.0032 6.56602 38.7177C6.28459 38.4321 6.12683 38.0472 6.12684 37.6463C6.12685 37.2453 6.28462 36.8605 6.56607 36.5749C6.84751 36.2894 7.23001 36.126 7.63092 36.1201H20.8576C21.2585 36.126 21.641 36.2894 21.9225 36.5749C22.2039 36.8605 22.3617 37.2454 22.3617 37.6463C22.3617 38.0473 22.2039 38.4321 21.9225 38.7177C21.641 39.0033 21.2585 39.1666 20.8576 39.1725ZM45.9886 29.5067C45.9886 29.7766 45.8814 30.0354 45.6906 30.2262C45.4998 30.417 45.241 30.5242 44.9711 30.5242H40.1891V27.4719C40.1834 27.0708 40.0201 26.6882 39.7345 26.4066C39.4489 26.125 39.064 25.9671 38.6629 25.9671C38.2619 25.9672 37.8769 26.125 37.5913 26.4066C37.3057 26.6882 37.1424 27.0709 37.1368 27.4719V30.5242H32.3548C32.0849 30.5242 31.8261 30.417 31.6353 30.2262C31.4445 30.0354 31.3373 29.7766 31.3373 29.5067V19.3323C31.3373 19.0624 31.4445 18.8037 31.6353 18.6128C31.8261 18.422 32.0849 18.3148 32.3548 18.3148H35.1019V21.3672C35.1019 21.7719 35.2627 22.1601 35.5489 22.4463C35.8351 22.7326 36.2233 22.8933 36.6281 22.8933C37.0328 22.8933 37.421 22.7326 37.7072 22.4463C37.9934 22.1601 38.1542 21.7719 38.1542 21.3672V18.3148H44.9711C45.241 18.3148 45.4998 18.422 45.6906 18.6128C45.8814 18.8037 45.9886 19.0624 45.9886 19.3323V29.5067Z" fill="#5C2682"/>
</svg>
