<svg width="46" height="58" viewBox="0 0 46 58" fill="none" xmlns="http://www.w3.org/2000/svg">
<path d="M44.7188 9.39522H44.5968C36.7878 9.39522 29.2228 6.1008 23.9151 0.366048C23.4271 -0.122016 22.5119 -0.122016 22.0849 0.366048C16.7772 6.1008 9.2122 9.39522 1.40318 9.39522H1.28117C0.610079 9.39522 0 9.9443 0 10.6764V24.5252C0 35.9337 5.67374 46.5491 15.13 52.8939L22.2679 57.7135C22.4509 57.8355 22.695 57.9576 23 57.9576C23.305 57.9576 23.4881 57.8965 23.7321 57.7135L30.87 52.8939C40.3263 46.5491 46 35.9337 46 24.5252V10.6154C45.939 9.9443 45.3899 9.39522 44.7188 9.39522ZM23 41.6074C15.7401 41.6074 9.82228 35.6897 9.82228 28.4297C9.82228 21.1698 15.7401 15.252 23 15.252C30.26 15.252 36.1777 21.1698 36.1777 28.4297C36.1777 35.6897 30.26 41.6074 23 41.6074Z" fill="#5C2682"/>
<path d="M26.8439 22.8177L21.1702 29.0405L19.1569 26.8443C18.3028 25.9291 16.8386 25.8681 15.9235 26.7222C15.0084 27.5764 14.9474 29.0405 15.8015 29.9557L19.523 33.9822C19.95 34.4703 20.5601 34.7143 21.2312 34.7143C21.9023 34.7143 22.5124 34.4703 22.9394 33.9822L30.3214 25.9291C31.1755 25.014 31.1145 23.5498 30.1994 22.6957C29.1622 21.8416 27.7591 21.9026 26.8439 22.8177Z" fill="#CD9FED"/>
</svg>
