<svg width="55" height="52" viewBox="0 0 55 52" fill="none" xmlns="http://www.w3.org/2000/svg">
<path fill-rule="evenodd" clip-rule="evenodd" d="M27.0277 52H1.61765C0.724246 52 0 51.2725 0 50.375V43.0625C0 32.7417 8.32882 24.375 18.6029 24.375C25.4389 24.375 31.4137 28.0789 34.647 33.598C29.9038 36.2258 26.6912 41.2977 26.6912 47.124V50.375C26.6912 50.9528 26.8112 51.5024 27.0277 52ZM55 50.375C55 51.2725 54.2758 52 53.3824 52H30.7353C29.8419 52 29.1176 51.2725 29.1176 50.375V47.124C29.1176 39.9444 34.9107 34.125 42.0588 34.125C49.2059 34.125 55 39.9451 55 47.124V50.375ZM18.6029 17.875C13.6892 17.875 9.70588 13.8735 9.70588 8.9375C9.70588 4.00146 13.6892 0 18.6029 0C23.5167 0 27.5 4.00146 27.5 8.9375C27.5 13.8735 23.5167 17.875 18.6029 17.875ZM42.0588 29.25C38.4852 29.25 35.5882 26.3399 35.5882 22.75C35.5882 19.1601 38.4852 16.25 42.0588 16.25C45.6324 16.25 48.5294 19.1601 48.5294 22.75C48.5294 26.3399 45.6324 29.25 42.0588 29.25Z" fill="#6B368F"/>
<path fill-rule="evenodd" clip-rule="evenodd" d="M55 50.3636C55 51.2674 54.2837 52 53.4 52H31C30.1163 52 29.4 51.2674 29.4 50.3636V47.0899C29.4 39.8601 35.1299 34 42.2 34C49.2691 34 55 39.8608 55 47.0899V50.3636ZM42.2 29.0909C38.6654 29.0909 35.8 26.1604 35.8 22.5455C35.8 18.9305 38.6654 16 42.2 16C45.7346 16 48.6 18.9305 48.6 22.5455C48.6 26.1604 45.7346 29.0909 42.2 29.0909Z" fill="#CD9FED"/>
</svg>
