<svg width="55" height="58" viewBox="0 0 55 58" fill="none" xmlns="http://www.w3.org/2000/svg">
<path d="M42.0213 26.3919C40.4764 26.3919 39.1787 27.6616 39.1787 29.1732C39.1787 30.6848 40.4764 31.9546 42.0213 31.9546C43.5662 31.9546 44.8639 30.6848 44.8639 29.1732C44.8639 27.6616 43.5662 26.3919 42.0213 26.3919ZM12.112 26.3919C10.5671 26.3919 9.26941 27.6616 9.26941 29.1732C9.26941 30.6848 10.5671 31.9546 12.112 31.9546C13.6569 31.9546 14.9546 30.6848 14.9546 29.1732C14.9546 27.6616 13.7187 26.3919 12.112 26.3919ZM54.1333 17.3223V40.9032C54.1333 43.4427 52.0323 45.4985 49.4368 45.4985H4.6965C2.10107 45.4985 0 43.4427 0 40.9032V17.3223C0 14.7828 2.10107 12.7271 4.6965 12.7271H49.4368C52.0323 12.7875 54.1333 14.8433 54.1333 17.3223ZM50.1166 22.2803C49.7458 22.4013 49.375 22.4013 48.9425 22.4013C46.347 22.4013 44.1842 20.3455 44.1842 17.7456C44.1842 17.3828 44.246 16.9595 44.3078 16.5967H9.51659C9.57839 16.8991 9.57839 17.1409 9.57839 17.4432C9.57839 19.9827 7.47732 22.099 4.82009 22.099C4.51111 22.099 4.26393 22.099 4.01674 22.0385V36.1266C4.26393 36.0661 4.57291 36.0661 4.82009 36.0661C7.41552 36.0661 9.57839 38.1219 9.57839 40.7218C9.57839 41.0242 9.57839 41.3265 9.51659 41.5683H44.246C44.246 41.3869 44.1842 41.2055 44.1842 40.9637C44.1842 38.4242 46.2852 36.308 48.9425 36.308C49.375 36.308 49.7458 36.3684 50.1166 36.4289V22.2803ZM37.3248 29.1732C37.3248 34.7359 32.7519 39.2102 27.0667 39.2102C21.3814 39.2102 16.8085 34.7359 16.8085 29.1732C16.8085 23.6106 21.3814 19.1362 27.0667 19.1362C32.7519 19.1362 37.3248 23.6106 37.3248 29.1732ZM32.9991 29.1732C32.9991 25.9686 30.3419 23.3687 27.0667 23.3687C23.7915 23.3687 21.1342 25.9686 21.1342 29.1732C21.1342 32.3778 23.7915 34.9778 27.0667 34.9778C30.3419 34.9778 32.9991 32.3778 32.9991 29.1732Z" fill="#5C2682"/>
<path d="M23.1731 9.34167H46.1612L37.9423 1.36044C36.1502 -0.453479 33.184 -0.453479 31.3302 1.36044L23.1731 9.34167Z" fill="#CD9FED"/>
<path d="M10.1341 9.34167V6.43941C10.1341 3.89992 12.2352 1.84415 14.8306 1.84415H26.5719L18.9091 9.34167H10.1341Z" fill="#CD9FED"/>
<path d="M39.0547 56.3826H27.6842L35.2851 49.006H43.5658V51.9687C43.5658 54.3873 41.5265 56.3826 39.0547 56.3826Z" fill="#CD9FED"/>
<path d="M15.7575 56.6849L7.84766 48.9455H30.0942L22.1843 56.6849C20.3923 58.4384 17.5496 58.4384 15.7575 56.6849Z" fill="#CD9FED"/>
</svg>
